<svg width="20" height="20" viewBox="0 0 20 20" fill="none" xmlns="http://www.w3.org/2000/svg">
<path d="M3.28375 14.237C2.41844 14.2375 1.71531 13.5334 1.71516 12.6683L1.71484 7.86531C1.71453 7.00094 2.4175 6.29703 3.28172 6.29688C3.70188 6.29656 4.09531 6.45953 4.39188 6.75578C4.68844 7.05203 4.85156 7.44609 4.85188 7.865L4.85141 12.6681C4.85249 12.874 4.81255 13.0781 4.73392 13.2684C4.65529 13.4587 4.53955 13.6315 4.39344 13.7766C4.2482 13.923 4.07531 14.0391 3.88481 14.1182C3.69431 14.1972 3.49 14.2376 3.28375 14.237ZM3.2825 6.71828C2.64922 6.71797 2.13594 7.2325 2.13578 7.86531L2.13656 12.6678C2.13652 12.9721 2.25732 13.264 2.47241 13.4793C2.6875 13.6946 2.97927 13.8157 3.28359 13.8159C3.43429 13.816 3.58352 13.7863 3.72274 13.7286C3.86195 13.6709 3.98843 13.5863 4.09493 13.4797C4.20144 13.3731 4.28588 13.2465 4.34343 13.1072C4.40097 12.9679 4.4305 12.8187 4.43031 12.668V7.86469C4.42998 7.5605 4.3089 7.26889 4.09367 7.05393C3.87845 6.83896 3.58669 6.71824 3.2825 6.71828Z" fill="white"/>
<path d="M15.5848 6.95875L15.1633 6.9586L4.83219 6.96L4.41047 6.96016L4.41016 6.53844C4.40922 4.80719 5.35234 3.19703 6.89719 2.24578L6.29656 1.14938C6.22313 1.02094 6.20469 0.858284 6.2475 0.709534C6.2692 0.635346 6.30543 0.566212 6.35409 0.506152C6.40275 0.446093 6.46286 0.396307 6.53094 0.35969C6.6151 0.313351 6.70971 0.289308 6.80578 0.289847C7.01859 0.289847 7.21344 0.405315 7.31625 0.591878L7.94484 1.73703C8.60047 1.49709 9.29341 1.37516 9.99156 1.37688C10.7113 1.37657 11.4014 1.49828 12.0547 1.73797L12.6823 0.59094C12.7323 0.499429 12.8061 0.42309 12.8958 0.369964C12.9855 0.316838 13.0879 0.288891 13.1922 0.289065C13.2882 0.288762 13.3827 0.312278 13.4673 0.357503C13.5355 0.394106 13.5957 0.444007 13.6443 0.504257C13.6928 0.564507 13.7289 0.633882 13.7502 0.708284C13.7716 0.781653 13.7783 0.858557 13.7698 0.934524C13.7612 1.01049 13.7377 1.084 13.7005 1.15078L13.1002 2.24657C14.6425 3.19985 15.5845 4.80875 15.5844 6.53703L15.5848 6.95875ZM12.5308 2.40813L13.3313 0.946409C13.3427 0.928046 13.3502 0.907547 13.3535 0.886163C13.3567 0.864778 13.3556 0.842957 13.3501 0.822029C13.3447 0.801102 13.335 0.781509 13.3217 0.764444C13.3084 0.747379 13.2918 0.7332 13.2728 0.722774C13.2539 0.712347 13.233 0.705891 13.2115 0.7038C13.1899 0.701708 13.1682 0.704025 13.1476 0.710608C13.127 0.717192 13.108 0.727904 13.0916 0.742092C13.0753 0.756279 13.0621 0.773645 13.0527 0.793128L12.2439 2.26969C11.5636 1.9675 10.8019 1.79766 9.99672 1.79844C9.19328 1.79766 8.43297 1.96688 7.75469 2.26797L6.94516 0.79469C6.93528 0.776278 6.92184 0.760013 6.90561 0.746842C6.88939 0.73367 6.87071 0.723855 6.85066 0.717967C6.83061 0.712079 6.80959 0.710235 6.78883 0.712542C6.76806 0.71485 6.74796 0.721263 6.72969 0.731409C6.65203 0.772972 6.62344 0.870628 6.66672 0.946878L7.4675 2.4075C5.89406 3.21907 4.83094 4.76438 4.83188 6.5386L15.1628 6.53735C15.1633 4.76375 14.102 3.22157 12.5308 2.40813ZM7.64703 4.66703C7.53214 4.66697 7.42198 4.62127 7.34078 4.53999C7.25958 4.4587 7.214 4.34849 7.21406 4.2336C7.21412 4.1187 7.25983 4.00854 7.34111 3.92734C7.4224 3.84615 7.53261 3.80057 7.6475 3.80063C7.76241 3.80083 7.87255 3.84656 7.95381 3.9278C8.03508 4.00903 8.08085 4.11916 8.08109 4.23407C8.08093 4.34903 8.03511 4.45923 7.95371 4.54042C7.87231 4.62162 7.762 4.66716 7.64703 4.66703ZM12.3513 4.6661C12.2944 4.6662 12.238 4.65507 12.1854 4.63335C12.1328 4.61163 12.085 4.57975 12.0448 4.53952C12.0046 4.4993 11.9727 4.45153 11.9509 4.39895C11.9292 4.34637 11.918 4.29002 11.9181 4.23313C11.9185 4.11827 11.9643 4.00822 12.0454 3.92693C12.1266 3.84564 12.2365 3.79968 12.3514 3.79907C12.4661 3.80001 12.5758 3.84612 12.6567 3.9274C12.7377 4.00868 12.7833 4.11858 12.7838 4.23328C12.7838 4.2901 12.7726 4.34637 12.7509 4.39887C12.7292 4.45137 12.6973 4.49907 12.6571 4.53926C12.617 4.57945 12.5693 4.61134 12.5168 4.6331C12.4643 4.65486 12.4081 4.66608 12.3513 4.6661ZM8.08 19.7138C7.21547 19.7136 6.51188 19.0105 6.51172 18.1453L6.51141 16.0255L6.09922 16.0259C5.88302 16.0267 5.66883 15.9845 5.46906 15.9018C5.26929 15.8192 5.08792 15.6977 4.93547 15.5444C4.78196 15.3919 4.66031 15.2105 4.5776 15.0106C4.4949 14.8107 4.4528 14.5963 4.45375 14.38L4.45219 6.93828V6.51625H4.87391L15.1275 6.51469L15.5494 6.51438V6.9361L15.5505 14.3788C15.5506 15.2864 14.8122 16.025 13.9048 16.0248L13.4902 16.0252L13.4906 18.1442C13.4906 19.0089 12.7872 19.7128 11.923 19.7128C11.7169 19.7138 11.5127 19.6737 11.3223 19.5949C11.1319 19.5161 10.959 19.4002 10.8139 19.2539C10.6675 19.1088 10.5514 18.9361 10.4724 18.7458C10.3933 18.5554 10.3529 18.3513 10.3534 18.1452V16.0252H9.64859V18.1447C9.64828 19.0095 8.945 19.7139 8.08 19.7138Z" fill="white"/>
<path d="M4.87687 14.3789C4.87653 14.5397 4.90793 14.699 4.96928 14.8477C5.03064 14.9964 5.12074 15.1315 5.23442 15.2452C5.3481 15.359 5.48312 15.4492 5.63173 15.5107C5.78035 15.5721 5.93964 15.6037 6.10047 15.6034H6.93375L6.93469 18.1447C6.93453 18.7775 7.44859 19.2917 8.08078 19.2919C8.23146 19.2918 8.38064 19.262 8.51982 19.2043C8.65899 19.1465 8.78542 19.0619 8.89189 18.9553C8.99837 18.8487 9.08279 18.7222 9.14035 18.5829C9.19791 18.4437 9.22747 18.2944 9.22734 18.1438L9.2275 15.6033L10.7758 15.6028L10.7756 18.1439C10.7762 18.7769 11.2909 19.2917 11.923 19.2905C12.5567 19.2909 13.0705 18.7761 13.0703 18.143L13.0695 15.6025L13.9059 15.6023C14.5808 15.6025 15.1297 15.0542 15.1297 14.3778L15.1283 6.93484L4.875 6.93672L4.87687 14.3789ZM16.7192 14.2367C15.8542 14.2369 15.1506 13.5339 15.1508 12.6686L15.1495 7.86578C15.1498 7.00063 15.8523 6.29688 16.7169 6.29688C17.5825 6.29672 18.2866 7.00031 18.2864 7.86531L18.2869 12.6678C18.287 13.5325 17.5841 14.2369 16.7192 14.2367ZM16.7177 6.71859C16.0844 6.71797 15.5712 7.23219 15.5712 7.86578L15.5717 12.6684C15.5716 12.8191 15.6013 12.9683 15.6589 13.1075C15.7165 13.2467 15.801 13.3732 15.9076 13.4797C16.0141 13.5862 16.1406 13.6707 16.2798 13.7283C16.419 13.7859 16.5682 13.8154 16.7189 13.8153C16.8695 13.8153 17.0187 13.7856 17.1579 13.728C17.297 13.6703 17.4234 13.5858 17.5299 13.4792C17.6364 13.3727 17.7208 13.2462 17.7784 13.107C17.836 12.9678 17.8656 12.8186 17.8655 12.668L17.8642 7.86547C17.8643 7.71486 17.8347 7.5657 17.7772 7.42653C17.7196 7.28736 17.6351 7.1609 17.5286 7.05439C17.4222 6.94787 17.2957 6.86339 17.1566 6.80577C17.0174 6.74816 16.8683 6.71853 16.7177 6.71859Z" fill="white"/>
<path d="M3.28344 6.72157C2.65016 6.72126 2.13688 7.23579 2.13672 7.8686L2.1375 12.6711C2.1374 12.8218 2.167 12.971 2.22461 13.1103C2.28223 13.2495 2.36672 13.376 2.47326 13.4826C2.57981 13.5891 2.70631 13.6736 2.84554 13.7313C2.98477 13.7889 3.134 13.8185 3.28469 13.8184C3.43535 13.8186 3.58457 13.789 3.7238 13.7314C3.86302 13.6738 3.98951 13.5893 4.09602 13.4828C4.20253 13.3762 4.28696 13.2497 4.34449 13.1104C4.40201 12.9712 4.4315 12.8219 4.43125 12.6713V7.86798C4.43092 7.56379 4.30984 7.27218 4.09461 7.05722C3.87939 6.84225 3.58763 6.72153 3.28344 6.72157ZM12.5322 2.40876L13.3327 0.94704C13.353 0.90996 13.3579 0.866306 13.3462 0.825651C13.3344 0.784996 13.307 0.750658 13.27 0.730165C13.2329 0.710102 13.1894 0.705528 13.1489 0.717442C13.1085 0.729357 13.0744 0.756792 13.0541 0.793759L12.2455 2.27079C11.5652 1.96798 10.8038 1.79829 9.99813 1.79907C9.19469 1.79829 8.43359 1.96751 7.75609 2.2686L6.94656 0.795321C6.93668 0.776931 6.92325 0.760685 6.90704 0.747523C6.89083 0.734362 6.87218 0.724546 6.85215 0.718646C6.83213 0.712746 6.81113 0.710878 6.79037 0.71315C6.76962 0.715422 6.74952 0.72179 6.73125 0.731884C6.7128 0.741746 6.6965 0.755188 6.68331 0.771424C6.67011 0.78766 6.66029 0.806364 6.65441 0.826442C6.64854 0.84652 6.64672 0.867569 6.64907 0.888357C6.65143 0.909144 6.65791 0.929254 6.66813 0.947509L7.46891 2.40829C5.89547 3.2197 4.83234 4.76501 4.83328 6.53923L15.1642 6.53798C15.1647 4.76438 14.1034 3.2222 12.5322 2.40876ZM7.64844 4.66767C7.53354 4.6676 7.42338 4.6219 7.34219 4.54062C7.26099 4.45933 7.21541 4.34912 7.21547 4.23423C7.21553 4.11933 7.26123 4.00917 7.34252 3.92798C7.4238 3.84678 7.53401 3.8012 7.64891 3.80126C7.76381 3.80147 7.87395 3.84719 7.95522 3.92843C8.03649 4.00966 8.08225 4.11979 8.0825 4.2347C8.08233 4.34967 8.03651 4.45986 7.95512 4.54106C7.87372 4.62225 7.76341 4.66779 7.64844 4.66767ZM12.3527 4.66673C12.2958 4.66677 12.2395 4.6556 12.1869 4.63386C12.1343 4.61211 12.0866 4.58023 12.0464 4.54001C12.0061 4.4998 11.9742 4.45206 11.9525 4.39951C11.9307 4.34696 11.9195 4.29064 11.9195 4.23376C11.9201 4.11896 11.966 4.00903 12.0471 3.92778C12.1282 3.84654 12.238 3.80052 12.3528 3.7997C12.4675 3.80064 12.5772 3.84675 12.6581 3.92803C12.7391 4.00931 12.7847 4.11922 12.7852 4.23392C12.7852 4.29074 12.7741 4.34703 12.7524 4.39955C12.7307 4.45206 12.6988 4.49979 12.6586 4.53999C12.6185 4.58019 12.5708 4.61207 12.5183 4.63382C12.4658 4.65557 12.4095 4.66675 12.3527 4.66673ZM4.87547 6.93829L4.87719 14.3813C4.877 14.542 4.90853 14.7012 4.96997 14.8498C5.0314 14.9983 5.12154 15.1333 5.23521 15.2469C5.34889 15.3606 5.48387 15.4507 5.63242 15.5121C5.78098 15.5736 5.94019 15.6051 6.10094 15.6049L6.93422 15.6052L6.93516 18.1464C6.935 18.7792 7.44937 19.2936 8.08125 19.2936C8.715 19.2936 9.22844 18.7788 9.22859 18.1456L9.22797 15.605L10.7762 15.6045L10.7769 18.1456C10.7769 18.778 11.2914 19.2934 11.9234 19.2922C12.5572 19.2927 13.0709 18.7778 13.0708 18.1447L13.07 15.6042L13.9062 15.6036C14.067 15.6036 14.2262 15.572 14.3748 15.5105C14.5233 15.449 14.6583 15.3588 14.7719 15.2451C14.8856 15.1315 14.9758 14.9965 15.0374 14.848C15.0989 14.6995 15.1306 14.5403 15.1306 14.3795L15.1292 6.93657L4.87547 6.93829ZM17.8652 7.86688C17.8652 7.71626 17.8355 7.56711 17.7779 7.42796C17.7202 7.2888 17.6357 7.16237 17.5292 7.05588C17.4227 6.94938 17.2962 6.86492 17.1571 6.80732C17.0179 6.74972 16.8687 6.7201 16.7181 6.72017C16.0848 6.71954 15.5717 7.23376 15.5717 7.86735L15.5727 12.6702C15.5726 12.8208 15.6021 12.9699 15.6597 13.1091C15.7173 13.2483 15.8018 13.3747 15.9083 13.4812C16.0148 13.5878 16.1413 13.6722 16.2804 13.7298C16.4196 13.7874 16.5688 13.817 16.7194 13.8169C16.87 13.8169 17.0192 13.7872 17.1583 13.7296C17.2975 13.6719 17.424 13.5874 17.5304 13.4808C17.6369 13.3743 17.7214 13.2478 17.7789 13.1086C17.8365 12.9694 17.8661 12.8202 17.8659 12.6695L17.8652 7.86688Z" fill="#A4C439"/>
</svg>
