<svg width="235" height="149" viewBox="0 0 235 149" fill="none" xmlns="http://www.w3.org/2000/svg">
<rect width="235" height="149" rx="16" fill="#1C76FD"/>
<rect x="0.5" y="0.5" width="234" height="148" rx="15.5" stroke="#1C76FD" stroke-opacity="0.5"/>
<path d="M37.5589 26.7425L36.1989 25.1625C35.9389 24.8625 35.7289 24.3025 35.7289 23.9025V22.2025C35.7289 21.1425 34.8589 20.2725 33.7989 20.2725H32.0989C31.7089 20.2725 31.1389 20.0625 30.8389 19.8025L29.2589 18.4425C28.5689 17.8525 27.4389 17.8525 26.7389 18.4425L25.1689 19.8125C24.8689 20.0625 24.2989 20.2725 23.9089 20.2725H22.1789C21.1189 20.2725 20.2489 21.1425 20.2489 22.2025V23.9125C20.2489 24.3025 20.0389 24.8625 19.7889 25.1625L18.4389 26.7525C17.8589 27.4425 17.8589 28.5625 18.4389 29.2525L19.7889 30.8425C20.0389 31.1425 20.2489 31.7025 20.2489 32.0925V33.8025C20.2489 34.8625 21.1189 35.7325 22.1789 35.7325H23.9089C24.2989 35.7325 24.8689 35.9425 25.1689 36.2025L26.7489 37.5625C27.4389 38.1525 28.5689 38.1525 29.2689 37.5625L30.8489 36.2025C31.1489 35.9425 31.7089 35.7325 32.1089 35.7325H33.8089C34.8689 35.7325 35.7389 34.8625 35.7389 33.8025V32.1025C35.7389 31.7125 35.9489 31.1425 36.2089 30.8425L37.5689 29.2625C38.1489 28.5725 38.1489 27.4325 37.5589 26.7425ZM32.1589 26.1125L27.3289 30.9425C27.1889 31.0825 26.9989 31.1625 26.7989 31.1625C26.5989 31.1625 26.4089 31.0825 26.2689 30.9425L23.8489 28.5225C23.5589 28.2325 23.5589 27.7525 23.8489 27.4625C24.1389 27.1725 24.6189 27.1725 24.9089 27.4625L26.7989 29.3525L31.0989 25.0525C31.3889 24.7625 31.8689 24.7625 32.1589 25.0525C32.4489 25.3425 32.4489 25.8225 32.1589 26.1125Z" fill="white"/>
<path d="M18.528 70H16.112L20.416 57.792H22.944L27.248 70H24.832L24 67.488H19.344L18.528 70ZM21.68 60.304L20 65.472H23.36L21.68 60.304ZM28.3354 70V61.024H30.4954V62.16C30.8367 61.68 31.2047 61.3387 31.5994 61.136C31.994 60.9333 32.442 60.832 32.9434 60.832C34.33 60.832 35.2634 61.3333 35.7434 62.336C35.9034 62.688 36.0047 63.0453 36.0474 63.408C36.09 63.7707 36.1114 64.2453 36.1114 64.832V70H33.9674V64.8C33.9674 63.936 33.818 63.3387 33.5194 63.008C33.2634 62.7413 32.8847 62.608 32.3834 62.608C31.7754 62.608 31.322 62.7893 31.0234 63.152C30.842 63.3653 30.7087 63.6533 30.6234 64.016C30.538 64.368 30.4954 64.8373 30.4954 65.424V70H28.3354ZM41.9109 70.176C40.8015 70.176 39.8415 69.9093 39.0309 69.376C38.2202 68.8427 37.7455 68.0427 37.6069 66.976H39.7349C39.8735 67.456 40.1295 67.8293 40.5029 68.096C40.8762 68.352 41.3402 68.48 41.8949 68.48C42.3642 68.48 42.7429 68.3893 43.0309 68.208C43.3295 68.0267 43.4789 67.7707 43.4789 67.44C43.4789 67.0773 43.3029 66.816 42.9509 66.656C42.6095 66.496 42.0762 66.3467 41.3509 66.208C40.6575 66.0693 40.0815 65.92 39.6229 65.76C39.1642 65.6 38.7749 65.344 38.4549 64.992C38.1349 64.6293 37.9749 64.1387 37.9749 63.52C37.9749 62.6347 38.3002 61.968 38.9509 61.52C39.6122 61.0613 40.4442 60.832 41.4469 60.832C42.5029 60.832 43.3775 61.0987 44.0709 61.632C44.7749 62.1653 45.2069 62.9173 45.3669 63.888H43.3349C43.2175 63.4187 42.9882 63.0773 42.6469 62.864C42.3055 62.64 41.9002 62.528 41.4309 62.528C41.0042 62.528 40.6629 62.6133 40.4069 62.784C40.1615 62.944 40.0389 63.1627 40.0389 63.44C40.0389 63.7707 40.2042 64.0053 40.5349 64.144C40.8655 64.2827 41.3882 64.4213 42.1029 64.56C42.8389 64.6987 43.4362 64.848 43.8949 65.008C44.3642 65.1573 44.7642 65.4133 45.0949 65.776C45.4362 66.1387 45.6069 66.64 45.6069 67.28C45.6069 68.1653 45.2762 68.8693 44.6149 69.392C43.9642 69.9147 43.0629 70.176 41.9109 70.176ZM51.2896 70H49.2416L46.5056 61.024H48.8096L50.3456 66.848L52.0576 61.024H53.9296L55.6416 66.816L57.2256 61.024H59.5136L56.7296 70H54.6976L53.0176 63.952L51.2896 70ZM64.9496 70.176C64.043 70.176 63.243 69.9787 62.5496 69.584C61.8563 69.1893 61.3176 68.6453 60.9336 67.952C60.5603 67.248 60.3736 66.4533 60.3736 65.568C60.3736 64.7467 60.539 63.9787 60.8696 63.264C61.211 62.5387 61.7176 61.952 62.3896 61.504C63.0723 61.056 63.9043 60.832 64.8856 60.832C65.6963 60.832 66.443 61.0027 67.1256 61.344C67.8083 61.6747 68.3576 62.192 68.7736 62.896C69.1896 63.5893 69.3976 64.4533 69.3976 65.488V65.952H62.6136C62.6456 66.3253 62.7576 66.6773 62.9496 67.008C63.163 67.424 63.4456 67.7493 63.7976 67.984C64.1603 68.208 64.571 68.32 65.0296 68.32C65.5203 68.32 65.9416 68.1973 66.2936 67.952C66.6456 67.696 66.8963 67.3707 67.0456 66.976H69.2536C68.9656 67.9253 68.459 68.6987 67.7336 69.296C67.0083 69.8827 66.0803 70.176 64.9496 70.176ZM67.1896 64.336C67.147 63.9947 67.035 63.7173 66.8536 63.504C66.651 63.1947 66.3843 62.96 66.0536 62.8C65.723 62.6293 65.355 62.544 64.9496 62.544C64.5443 62.544 64.1763 62.624 63.8456 62.784C63.5256 62.944 63.2643 63.184 63.0616 63.504C62.8696 63.7387 62.7523 64.016 62.7096 64.336H67.1896ZM70.976 70V61.024H73.136V62.096C73.4667 61.6373 73.8347 61.312 74.24 61.12C74.656 60.928 75.1413 60.832 75.696 60.832H75.952V62.912H75.456C74.7733 62.912 74.24 63.0933 73.856 63.456C73.6107 63.7013 73.4293 64.016 73.312 64.4C73.1947 64.7733 73.136 65.2533 73.136 65.84V70H70.976ZM89.7633 70H81.6193V57.792H89.7633V59.856H83.9233V62.864H89.1553V64.912H83.9233V67.936H89.7633V70ZM93.1408 70H90.6768L93.7488 65.472L90.6608 61.024H93.1408L95.0928 64.032L97.0928 61.024H99.6048L96.4528 65.472L99.5888 70H97.0928L95.1088 66.944L93.1408 70ZM105.477 60.848C106.256 60.848 106.944 61.0453 107.541 61.44C108.139 61.8347 108.603 62.3893 108.933 63.104C109.264 63.808 109.429 64.6133 109.429 65.52C109.429 66.4267 109.264 67.2373 108.933 67.952C108.603 68.656 108.139 69.2053 107.541 69.6C106.944 69.9947 106.256 70.192 105.477 70.192C104.923 70.192 104.443 70.096 104.037 69.904C103.643 69.7013 103.275 69.3547 102.933 68.864V73.232H100.773V61.024H102.933V62.16C103.285 61.6693 103.659 61.328 104.053 61.136C104.448 60.944 104.923 60.848 105.477 60.848ZM104.981 62.704C104.299 62.704 103.739 62.9653 103.301 63.488C102.875 64.0107 102.661 64.688 102.661 65.52C102.661 66.352 102.875 67.0293 103.301 67.552C103.739 68.0747 104.299 68.336 104.981 68.336C105.664 68.336 106.213 68.0747 106.629 67.552C107.045 67.0187 107.253 66.3413 107.253 65.52C107.253 64.6987 107.045 64.0267 106.629 63.504C106.213 62.9707 105.664 62.704 104.981 62.704ZM113.087 70C112.404 70 111.887 69.8453 111.535 69.536C111.183 69.216 111.007 68.7147 111.007 68.032V57.792H113.167V67.392C113.167 67.6907 113.22 67.904 113.327 68.032C113.444 68.1493 113.636 68.208 113.903 68.208H114.479V70H113.087ZM118.459 70.176C117.584 70.176 116.875 69.9467 116.331 69.488C115.787 69.0187 115.515 68.368 115.515 67.536C115.515 66.64 115.856 65.9573 116.539 65.488C117.029 65.1467 117.728 64.8907 118.635 64.72L121.307 64.224C121.285 63.6693 121.141 63.248 120.875 62.96C120.608 62.672 120.208 62.528 119.675 62.528C119.259 62.528 118.891 62.6507 118.571 62.896C118.261 63.1413 118.069 63.472 117.995 63.888H115.851C116 62.896 116.437 62.1387 117.163 61.616C117.888 61.0933 118.731 60.832 119.691 60.832C120.235 60.832 120.741 60.912 121.211 61.072C121.68 61.2213 122.08 61.4453 122.411 61.744C122.741 62.032 122.981 62.368 123.131 62.752C123.28 63.136 123.371 63.52 123.403 63.904C123.445 64.288 123.467 64.7627 123.467 65.328V70H121.307V68.784C121.083 69.1787 120.811 69.4773 120.491 69.68C119.989 70.0107 119.312 70.176 118.459 70.176ZM118.987 68.48C119.413 68.48 119.797 68.3947 120.139 68.224C120.587 68 120.896 67.7013 121.067 67.328C121.237 66.9547 121.333 66.448 121.355 65.808L119.211 66.24C118.635 66.3467 118.219 66.5173 117.963 66.752C117.771 66.944 117.675 67.1787 117.675 67.456C117.675 67.7867 117.792 68.0427 118.027 68.224C118.272 68.3947 118.592 68.48 118.987 68.48ZM125.32 70V61.024H127.48V62.16C127.821 61.68 128.189 61.3387 128.584 61.136C128.978 60.9333 129.426 60.832 129.928 60.832C131.314 60.832 132.248 61.3333 132.728 62.336C132.888 62.688 132.989 63.0453 133.032 63.408C133.074 63.7707 133.096 64.2453 133.096 64.832V70H130.952V64.8C130.952 63.936 130.802 63.3387 130.504 63.008C130.248 62.7413 129.869 62.608 129.368 62.608C128.76 62.608 128.306 62.7893 128.008 63.152C127.826 63.3653 127.693 63.6533 127.608 64.016C127.522 64.368 127.48 64.8373 127.48 65.424V70H125.32ZM137.599 70.176C136.725 70.176 136.015 69.9467 135.471 69.488C134.927 69.0187 134.655 68.368 134.655 67.536C134.655 66.64 134.997 65.9573 135.679 65.488C136.17 65.1467 136.869 64.8907 137.775 64.72L140.447 64.224C140.426 63.6693 140.282 63.248 140.015 62.96C139.749 62.672 139.349 62.528 138.815 62.528C138.399 62.528 138.031 62.6507 137.711 62.896C137.402 63.1413 137.21 63.472 137.135 63.888H134.991C135.141 62.896 135.578 62.1387 136.303 61.616C137.029 61.0933 137.871 60.832 138.831 60.832C139.375 60.832 139.882 60.912 140.351 61.072C140.821 61.2213 141.221 61.4453 141.551 61.744C141.882 62.032 142.122 62.368 142.271 62.752C142.421 63.136 142.511 63.52 142.543 63.904C142.586 64.288 142.607 64.7627 142.607 65.328V70H140.447V68.784C140.223 69.1787 139.951 69.4773 139.631 69.68C139.13 70.0107 138.453 70.176 137.599 70.176ZM138.127 68.48C138.554 68.48 138.938 68.3947 139.279 68.224C139.727 68 140.037 67.7013 140.207 67.328C140.378 66.9547 140.474 66.448 140.495 65.808L138.351 66.24C137.775 66.3467 137.359 66.5173 137.103 66.752C136.911 66.944 136.815 67.1787 136.815 67.456C136.815 67.7867 136.933 68.0427 137.167 68.224C137.413 68.3947 137.733 68.48 138.127 68.48ZM147.276 70C145.879 70 145.18 69.344 145.18 68.032V62.752H143.852V61.024H145.18V57.792H147.34V61.024H149.068V62.752H147.34V67.376C147.34 67.6533 147.383 67.8613 147.468 68C147.564 68.1387 147.767 68.208 148.076 68.208H149.052V70H147.276ZM152.745 70H150.585V61.024H152.745V70ZM151.673 60.032C151.3 60.032 150.985 59.92 150.729 59.696C150.473 59.472 150.345 59.1733 150.345 58.8C150.345 58.448 150.473 58.1547 150.729 57.92C150.985 57.6853 151.3 57.568 151.673 57.568C152.036 57.568 152.345 57.6853 152.601 57.92C152.868 58.1547 153.001 58.448 153.001 58.8C153.001 59.1627 152.873 59.4613 152.617 59.696C152.361 59.92 152.047 60.032 151.673 60.032ZM158.934 70.176C158.038 70.176 157.244 69.9787 156.55 69.584C155.857 69.1893 155.313 68.6347 154.918 67.92C154.534 67.2053 154.342 66.384 154.342 65.456C154.342 64.56 154.534 63.76 154.918 63.056C155.313 62.352 155.857 61.808 156.55 61.424C157.244 61.0293 158.038 60.832 158.934 60.832C159.83 60.832 160.625 61.0293 161.318 61.424C162.022 61.8187 162.566 62.368 162.95 63.072C163.345 63.7653 163.542 64.56 163.542 65.456C163.542 66.384 163.35 67.2053 162.966 67.92C162.582 68.6347 162.038 69.1893 161.334 69.584C160.641 69.9787 159.841 70.176 158.934 70.176ZM158.934 68.32C159.638 68.32 160.209 68.0533 160.646 67.52C161.084 66.9867 161.302 66.2987 161.302 65.456C161.302 64.6453 161.084 63.984 160.646 63.472C160.209 62.9493 159.638 62.688 158.934 62.688C158.476 62.688 158.065 62.8053 157.702 63.04C157.34 63.2747 157.057 63.6053 156.854 64.032C156.652 64.448 156.55 64.9227 156.55 65.456C156.55 66.3093 156.769 67.0027 157.206 67.536C157.654 68.0587 158.23 68.32 158.934 68.32ZM165.148 70V61.024H167.308V62.16C167.649 61.68 168.017 61.3387 168.412 61.136C168.807 60.9333 169.255 60.832 169.756 60.832C171.143 60.832 172.076 61.3333 172.556 62.336C172.716 62.688 172.817 63.0453 172.86 63.408C172.903 63.7707 172.924 64.2453 172.924 64.832V70H170.78V64.8C170.78 63.936 170.631 63.3387 170.332 63.008C170.076 62.7413 169.697 62.608 169.196 62.608C168.588 62.608 168.135 62.7893 167.836 63.152C167.655 63.3653 167.521 63.6533 167.436 64.016C167.351 64.368 167.308 64.8373 167.308 65.424V70H165.148ZM178.723 70.176C177.614 70.176 176.654 69.9093 175.843 69.376C175.033 68.8427 174.558 68.0427 174.419 66.976H176.547C176.686 67.456 176.942 67.8293 177.315 68.096C177.689 68.352 178.153 68.48 178.707 68.48C179.177 68.48 179.555 68.3893 179.843 68.208C180.142 68.0267 180.291 67.7707 180.291 67.44C180.291 67.0773 180.115 66.816 179.763 66.656C179.422 66.496 178.889 66.3467 178.163 66.208C177.47 66.0693 176.894 65.92 176.435 65.76C175.977 65.6 175.587 65.344 175.267 64.992C174.947 64.6293 174.787 64.1387 174.787 63.52C174.787 62.6347 175.113 61.968 175.763 61.52C176.425 61.0613 177.257 60.832 178.259 60.832C179.315 60.832 180.19 61.0987 180.883 61.632C181.587 62.1653 182.019 62.9173 182.179 63.888H180.147C180.03 63.4187 179.801 63.0773 179.459 62.864C179.118 62.64 178.713 62.528 178.243 62.528C177.817 62.528 177.475 62.6133 177.219 62.784C176.974 62.944 176.851 63.1627 176.851 63.44C176.851 63.7707 177.017 64.0053 177.347 64.144C177.678 64.2827 178.201 64.4213 178.915 64.56C179.651 64.6987 180.249 64.848 180.707 65.008C181.177 65.1573 181.577 65.4133 181.907 65.776C182.249 66.1387 182.419 66.64 182.419 67.28C182.419 68.1653 182.089 68.8693 181.427 69.392C180.777 69.9147 179.875 70.176 178.723 70.176Z" fill="white"/>
<path d="M23.182 96H17.106V85.318H18.394V94.838H23.182V96ZM27.6431 96.14C26.9151 96.14 26.2617 95.9673 25.6831 95.622C25.1137 95.2767 24.6704 94.8007 24.3531 94.194C24.0357 93.5873 23.8771 92.906 23.8771 92.15C23.8771 91.4313 24.0264 90.7687 24.3251 90.162C24.6237 89.546 25.0531 89.0513 25.6131 88.678C26.1824 88.3047 26.8497 88.118 27.6151 88.118C28.2777 88.118 28.8937 88.2673 29.4631 88.566C30.0324 88.8647 30.4897 89.3033 30.8351 89.882C31.1804 90.4513 31.3531 91.1373 31.3531 91.94V92.36H25.0531C25.0717 92.6307 25.1231 92.8873 25.2071 93.13C25.4031 93.7273 25.7157 94.2033 26.1451 94.558C26.5837 94.9127 27.0784 95.09 27.6291 95.09C28.1891 95.09 28.6697 94.9407 29.0711 94.642C29.4724 94.3433 29.7617 93.9653 29.9391 93.508H31.2131C30.9611 94.292 30.5317 94.9267 29.9251 95.412C29.3184 95.8973 28.5577 96.14 27.6431 96.14ZM30.0791 91.31C30.0604 91.03 30.0044 90.778 29.9111 90.554C29.7151 90.1153 29.4117 89.7747 29.0011 89.532C28.5997 89.2893 28.1471 89.168 27.6431 89.168C27.1297 89.168 26.6771 89.2893 26.2851 89.532C25.9024 89.7747 25.6037 90.1153 25.3891 90.554C25.2957 90.7593 25.2211 91.0113 25.1651 91.31H30.0791ZM35.2018 96.14C34.4271 96.14 33.8111 95.944 33.3538 95.552C32.9058 95.16 32.6818 94.6233 32.6818 93.942C32.6818 93.27 32.9338 92.738 33.4378 92.346C33.8484 92.0193 34.4411 91.7767 35.2158 91.618L37.9738 91.086C37.9738 90.4793 37.8151 90.0173 37.4978 89.7C37.1431 89.3453 36.6671 89.168 36.0698 89.168C35.5938 89.168 35.1784 89.2987 34.8238 89.56C34.4784 89.812 34.2591 90.1527 34.1658 90.582H32.9758C33.1064 89.8073 33.4611 89.2053 34.0398 88.776C34.6278 88.3373 35.3091 88.118 36.0838 88.118C36.5411 88.118 36.9658 88.188 37.3578 88.328C37.7498 88.4587 38.0811 88.6547 38.3518 88.916C38.7064 89.252 38.9304 89.6393 39.0238 90.078C39.1171 90.5167 39.1638 90.9693 39.1638 91.436V96H37.9738V94.782C37.7031 95.174 37.3904 95.4773 37.0358 95.692C36.5598 95.9907 35.9484 96.14 35.2018 96.14ZM35.3418 95.09C35.8178 95.09 36.2284 95.0013 36.5738 94.824C37.0964 94.5533 37.4604 94.194 37.6658 93.746C37.8804 93.298 37.9878 92.7333 37.9878 92.052L35.4678 92.556C34.8891 92.668 34.4644 92.85 34.1938 93.102C33.9791 93.3167 33.8718 93.5873 33.8718 93.914C33.8718 94.2687 34.0024 94.5533 34.2638 94.768C34.5344 94.9827 34.8938 95.09 35.3418 95.09ZM41.0702 96V88.258H42.2602V89.322C42.6148 88.8927 42.9928 88.5847 43.3942 88.398C43.7955 88.2113 44.2622 88.118 44.7942 88.118H44.8502V89.308H44.4442C43.8188 89.308 43.3195 89.4947 42.9462 89.868C42.4888 90.3067 42.2602 90.9927 42.2602 91.926V96H41.0702ZM46.1561 96V88.258H47.3461V89.462C47.7288 88.9673 48.0974 88.622 48.4521 88.426C48.8161 88.2207 49.2128 88.118 49.6421 88.118C50.7341 88.118 51.4948 88.524 51.9241 89.336C52.0828 89.644 52.1808 89.9613 52.2181 90.288C52.2648 90.6053 52.2881 90.9553 52.2881 91.338V96H51.0981V91.338C51.0981 90.5167 50.9488 89.938 50.6501 89.602C50.3888 89.3127 49.9921 89.168 49.4601 89.168C48.8721 89.168 48.4008 89.3593 48.0461 89.742C47.7941 90.0033 47.6121 90.3627 47.5001 90.82C47.3974 91.2773 47.3461 91.9027 47.3461 92.696V96H46.1561ZM58.8043 96V89.308H57.5163V88.258H58.8043V87.418C58.8043 86.7273 58.9723 86.2047 59.3083 85.85C59.6443 85.4953 60.1437 85.318 60.8063 85.318H61.8003V86.368H61.0723C60.699 86.368 60.4237 86.466 60.2463 86.662C60.0783 86.858 59.9943 87.1613 59.9943 87.572V88.258H61.8003V89.308H59.9943V96H58.8043ZM63.0819 96V88.258H64.2719V89.322C64.6266 88.8927 65.0046 88.5847 65.4059 88.398C65.8072 88.2113 66.2739 88.118 66.8059 88.118H66.8619V89.308H66.4559C65.8306 89.308 65.3312 89.4947 64.9579 89.868C64.5006 90.3067 64.2719 90.9927 64.2719 91.926V96H63.0819ZM71.325 96.14C70.597 96.14 69.9437 95.9673 69.365 95.622C68.7957 95.2767 68.3477 94.796 68.021 94.18C67.7037 93.564 67.545 92.8687 67.545 92.094C67.545 91.338 67.7037 90.6567 68.021 90.05C68.3477 89.4433 68.7957 88.972 69.365 88.636C69.9437 88.2907 70.597 88.118 71.325 88.118C72.053 88.118 72.7064 88.2907 73.285 88.636C73.8637 88.972 74.3164 89.4433 74.643 90.05C74.9697 90.6567 75.133 91.338 75.133 92.094C75.133 92.8687 74.9697 93.564 74.643 94.18C74.3257 94.7867 73.8777 95.2673 73.299 95.622C72.7204 95.9673 72.0624 96.14 71.325 96.14ZM71.325 95.09C71.8104 95.09 72.249 94.9593 72.641 94.698C73.0424 94.4367 73.355 94.082 73.579 93.634C73.8124 93.1767 73.929 92.6633 73.929 92.094C73.929 91.5527 73.817 91.058 73.593 90.61C73.369 90.162 73.0564 89.812 72.655 89.56C72.263 89.2987 71.8197 89.168 71.325 89.168C70.8397 89.168 70.3964 89.294 69.995 89.546C69.603 89.798 69.295 90.148 69.071 90.596C68.847 91.044 68.735 91.5433 68.735 92.094C68.735 92.6633 68.847 93.1767 69.071 93.634C69.295 94.0913 69.603 94.4507 69.995 94.712C70.3964 94.964 70.8397 95.09 71.325 95.09ZM76.8085 96V88.258H77.9985V89.462C78.3811 88.9673 78.7498 88.622 79.1045 88.426C79.4685 88.2207 79.8651 88.118 80.2945 88.118C80.8171 88.118 81.2745 88.2393 81.6665 88.482C82.0678 88.7247 82.3245 89.0793 82.4365 89.546C82.9218 88.594 83.7385 88.118 84.8865 88.118C85.7451 88.118 86.3891 88.3653 86.8185 88.86C87.2478 89.3453 87.4625 90.0453 87.4625 90.96V96H86.2725V91.24C86.2725 90.5773 86.1325 90.0687 85.8525 89.714C85.5818 89.35 85.1991 89.168 84.7045 89.168C84.1911 89.168 83.7711 89.3407 83.4445 89.686C83.1831 89.966 82.9965 90.33 82.8845 90.778C82.7818 91.226 82.7305 91.8 82.7305 92.5V96H81.5405V91.24C81.5405 90.5867 81.3958 90.078 81.1065 89.714C80.8265 89.35 80.4438 89.168 79.9585 89.168C79.4451 89.168 79.0251 89.3547 78.6985 89.728C78.4558 89.9987 78.2785 90.3487 78.1665 90.778C78.0545 91.2073 77.9985 91.7813 77.9985 92.5V96H76.8085ZM93.3241 98.94V97.848H94.0521C94.2854 97.848 94.4627 97.8293 94.5841 97.792C94.7054 97.764 94.8127 97.694 94.9061 97.582C94.9994 97.47 95.0927 97.288 95.1861 97.036L95.6061 95.888L92.5821 88.258H93.8981L96.2501 94.264L98.4341 88.258H99.7221L96.2921 97.554C96.0867 98.1047 95.8534 98.4733 95.5921 98.66C95.3307 98.8467 94.9574 98.94 94.4721 98.94H93.3241ZM104.466 96.14C103.738 96.14 103.084 95.9673 102.506 95.622C101.936 95.2767 101.488 94.796 101.162 94.18C100.844 93.564 100.686 92.8687 100.686 92.094C100.686 91.338 100.844 90.6567 101.162 90.05C101.488 89.4433 101.936 88.972 102.506 88.636C103.084 88.2907 103.738 88.118 104.466 88.118C105.194 88.118 105.847 88.2907 106.426 88.636C107.004 88.972 107.457 89.4433 107.784 90.05C108.11 90.6567 108.274 91.338 108.274 92.094C108.274 92.8687 108.11 93.564 107.784 94.18C107.466 94.7867 107.018 95.2673 106.44 95.622C105.861 95.9673 105.203 96.14 104.466 96.14ZM104.466 95.09C104.951 95.09 105.39 94.9593 105.782 94.698C106.183 94.4367 106.496 94.082 106.72 93.634C106.953 93.1767 107.07 92.6633 107.07 92.094C107.07 91.5527 106.958 91.058 106.734 90.61C106.51 90.162 106.197 89.812 105.796 89.56C105.404 89.2987 104.96 89.168 104.466 89.168C103.98 89.168 103.537 89.294 103.136 89.546C102.744 89.798 102.436 90.148 102.212 90.596C101.988 91.044 101.876 91.5433 101.876 92.094C101.876 92.6633 101.988 93.1767 102.212 93.634C102.436 94.0913 102.744 94.4507 103.136 94.712C103.537 94.964 103.98 95.09 104.466 95.09ZM112.567 96.14C111.484 96.14 110.724 95.734 110.285 94.922C110.042 94.4647 109.921 93.7973 109.921 92.92V88.258H111.111V92.92C111.111 93.7413 111.26 94.32 111.559 94.656C111.82 94.9453 112.217 95.09 112.749 95.09C113.337 95.09 113.808 94.8987 114.163 94.516C114.415 94.2547 114.592 93.8953 114.695 93.438C114.807 92.9807 114.863 92.3553 114.863 91.562V88.258H116.053V96H114.863V94.796C114.49 95.272 114.121 95.6173 113.757 95.832C113.402 96.0373 113.006 96.14 112.567 96.14ZM118.043 96V88.258H119.233V89.322C119.587 88.8927 119.965 88.5847 120.367 88.398C120.768 88.2113 121.235 88.118 121.767 88.118H121.823V89.308H121.417C120.791 89.308 120.292 89.4947 119.919 89.868C119.461 90.3067 119.233 90.9927 119.233 91.926V96H118.043ZM127.053 96V88.258H128.243V89.462C128.625 88.9673 128.994 88.622 129.349 88.426C129.713 88.2207 130.109 88.118 130.539 88.118C131.061 88.118 131.519 88.2393 131.911 88.482C132.312 88.7247 132.569 89.0793 132.681 89.546C133.166 88.594 133.983 88.118 135.131 88.118C135.989 88.118 136.633 88.3653 137.063 88.86C137.492 89.3453 137.707 90.0453 137.707 90.96V96H136.517V91.24C136.517 90.5773 136.377 90.0687 136.097 89.714C135.826 89.35 135.443 89.168 134.949 89.168C134.435 89.168 134.015 89.3407 133.689 89.686C133.427 89.966 133.241 90.33 133.129 90.778C133.026 91.226 132.975 91.8 132.975 92.5V96H131.785V91.24C131.785 90.5867 131.64 90.078 131.351 89.714C131.071 89.35 130.688 89.168 130.203 89.168C129.689 89.168 129.269 89.3547 128.943 89.728C128.7 89.9987 128.523 90.3487 128.411 90.778C128.299 91.2073 128.243 91.7813 128.243 92.5V96H127.053ZM140.834 96H139.644V88.258H140.834V96ZM140.246 86.928C139.994 86.928 139.78 86.844 139.602 86.676C139.425 86.4987 139.336 86.2887 139.336 86.046C139.336 85.8033 139.425 85.598 139.602 85.43C139.78 85.262 139.994 85.178 140.246 85.178C140.498 85.178 140.713 85.262 140.89 85.43C141.068 85.598 141.156 85.8033 141.156 86.046C141.156 86.2887 141.068 86.4987 140.89 86.676C140.713 86.844 140.498 86.928 140.246 86.928ZM145.938 96.14C144.958 96.14 144.16 95.9067 143.544 95.44C142.928 94.9733 142.555 94.3293 142.424 93.508H143.67C143.773 94.0027 144.011 94.39 144.384 94.67C144.767 94.95 145.29 95.09 145.952 95.09C146.494 95.09 146.923 94.9873 147.24 94.782C147.567 94.5767 147.73 94.2827 147.73 93.9C147.73 93.6013 147.632 93.3633 147.436 93.186C147.25 92.9993 147.007 92.8593 146.708 92.766C146.419 92.6727 146.032 92.5793 145.546 92.486C144.94 92.3647 144.45 92.2433 144.076 92.122C143.712 91.9913 143.4 91.786 143.138 91.506C142.877 91.226 142.746 90.8387 142.746 90.344C142.746 89.644 143.008 89.098 143.53 88.706C144.062 88.314 144.739 88.118 145.56 88.118C146.4 88.118 147.1 88.3373 147.66 88.776C148.22 89.2147 148.566 89.8167 148.696 90.582H147.59C147.478 90.106 147.245 89.7513 146.89 89.518C146.536 89.2847 146.092 89.168 145.56 89.168C145.047 89.168 144.646 89.266 144.356 89.462C144.076 89.6487 143.936 89.91 143.936 90.246C143.936 90.5073 144.025 90.7127 144.202 90.862C144.38 91.0113 144.599 91.128 144.86 91.212C145.122 91.2867 145.49 91.3707 145.966 91.464C146.592 91.5853 147.1 91.716 147.492 91.856C147.884 91.9867 148.22 92.206 148.5 92.514C148.78 92.8127 148.92 93.2327 148.92 93.774C148.92 94.502 148.659 95.0807 148.136 95.51C147.614 95.93 146.881 96.14 145.938 96.14ZM152.978 96C152.352 96 151.89 95.86 151.592 95.58C151.293 95.3 151.144 94.7913 151.144 94.054V89.308H149.898V88.258H151.144V85.318H152.334V88.258H154.07V89.308H152.334V93.816C152.334 94.0867 152.352 94.3013 152.39 94.46C152.427 94.6093 152.511 94.7307 152.642 94.824C152.772 94.908 152.978 94.95 153.258 94.95H154.056V96H152.978ZM157.77 96.14C156.995 96.14 156.379 95.944 155.922 95.552C155.474 95.16 155.25 94.6233 155.25 93.942C155.25 93.27 155.502 92.738 156.006 92.346C156.417 92.0193 157.009 91.7767 157.784 91.618L160.542 91.086C160.542 90.4793 160.383 90.0173 160.066 89.7C159.711 89.3453 159.235 89.168 158.638 89.168C158.162 89.168 157.747 89.2987 157.392 89.56C157.047 89.812 156.827 90.1527 156.734 90.582H155.544C155.675 89.8073 156.029 89.2053 156.608 88.776C157.196 88.3373 157.877 88.118 158.652 88.118C159.109 88.118 159.534 88.188 159.926 88.328C160.318 88.4587 160.649 88.6547 160.92 88.916C161.275 89.252 161.499 89.6393 161.592 90.078C161.685 90.5167 161.732 90.9693 161.732 91.436V96H160.542V94.782C160.271 95.174 159.959 95.4773 159.604 95.692C159.128 95.9907 158.517 96.14 157.77 96.14ZM157.91 95.09C158.386 95.09 158.797 95.0013 159.142 94.824C159.665 94.5533 160.029 94.194 160.234 93.746C160.449 93.298 160.556 92.7333 160.556 92.052L158.036 92.556C157.457 92.668 157.033 92.85 156.762 93.102C156.547 93.3167 156.44 93.5873 156.44 93.914C156.44 94.2687 156.571 94.5533 156.832 94.768C157.103 94.9827 157.462 95.09 157.91 95.09ZM164.843 96H163.653V85.318H164.843V91.352L168.245 88.258H169.897L166.103 91.66L170.247 96H168.623L164.843 91.954V96ZM174.383 96.14C173.655 96.14 173.002 95.9673 172.423 95.622C171.854 95.2767 171.411 94.8007 171.093 94.194C170.776 93.5873 170.617 92.906 170.617 92.15C170.617 91.4313 170.767 90.7687 171.065 90.162C171.364 89.546 171.793 89.0513 172.353 88.678C172.923 88.3047 173.59 88.118 174.355 88.118C175.018 88.118 175.634 88.2673 176.203 88.566C176.773 88.8647 177.23 89.3033 177.575 89.882C177.921 90.4513 178.093 91.1373 178.093 91.94V92.36H171.793C171.812 92.6307 171.863 92.8873 171.947 93.13C172.143 93.7273 172.456 94.2033 172.885 94.558C173.324 94.9127 173.819 95.09 174.369 95.09C174.929 95.09 175.41 94.9407 175.811 94.642C176.213 94.3433 176.502 93.9653 176.679 93.508H177.953C177.701 94.292 177.272 94.9267 176.665 95.412C176.059 95.8973 175.298 96.14 174.383 96.14ZM176.819 91.31C176.801 91.03 176.745 90.778 176.651 90.554C176.455 90.1153 176.152 89.7747 175.741 89.532C175.34 89.2893 174.887 89.168 174.383 89.168C173.87 89.168 173.417 89.2893 173.025 89.532C172.643 89.7747 172.344 90.1153 172.129 90.554C172.036 90.7593 171.961 91.0113 171.905 91.31H176.819ZM182.866 96.14C181.886 96.14 181.088 95.9067 180.472 95.44C179.856 94.9733 179.483 94.3293 179.352 93.508H180.598C180.701 94.0027 180.939 94.39 181.312 94.67C181.695 94.95 182.217 95.09 182.88 95.09C183.421 95.09 183.851 94.9873 184.168 94.782C184.495 94.5767 184.658 94.2827 184.658 93.9C184.658 93.6013 184.56 93.3633 184.364 93.186C184.177 92.9993 183.935 92.8593 183.636 92.766C183.347 92.6727 182.959 92.5793 182.474 92.486C181.867 92.3647 181.377 92.2433 181.004 92.122C180.64 91.9913 180.327 91.786 180.066 91.506C179.805 91.226 179.674 90.8387 179.674 90.344C179.674 89.644 179.935 89.098 180.458 88.706C180.99 88.314 181.667 88.118 182.488 88.118C183.328 88.118 184.028 88.3373 184.588 88.776C185.148 89.2147 185.493 89.8167 185.624 90.582H184.518C184.406 90.106 184.173 89.7513 183.818 89.518C183.463 89.2847 183.02 89.168 182.488 89.168C181.975 89.168 181.573 89.266 181.284 89.462C181.004 89.6487 180.864 89.91 180.864 90.246C180.864 90.5073 180.953 90.7127 181.13 90.862C181.307 91.0113 181.527 91.128 181.788 91.212C182.049 91.2867 182.418 91.3707 182.894 91.464C183.519 91.5853 184.028 91.716 184.42 91.856C184.812 91.9867 185.148 92.206 185.428 92.514C185.708 92.8127 185.848 93.2327 185.848 93.774C185.848 94.502 185.587 95.0807 185.064 95.51C184.541 95.93 183.809 96.14 182.866 96.14ZM194.191 96H193.085L190.817 88.258H192.091L193.715 94.068L195.661 88.258H196.739L198.685 94.068L200.323 88.258H201.597L199.301 96H198.195L196.207 89.938L194.191 96ZM204.135 96H202.945V88.258H204.135V96ZM203.547 86.928C203.295 86.928 203.081 86.844 202.903 86.676C202.726 86.4987 202.637 86.2887 202.637 86.046C202.637 85.8033 202.726 85.598 202.903 85.43C203.081 85.262 203.295 85.178 203.547 85.178C203.799 85.178 204.014 85.262 204.191 85.43C204.369 85.598 204.457 85.8033 204.457 86.046C204.457 86.2887 204.369 86.4987 204.191 86.676C204.014 86.844 203.799 86.928 203.547 86.928ZM208.581 96C207.956 96 207.494 95.86 207.195 95.58C206.896 95.3 206.747 94.7913 206.747 94.054V89.308H205.501V88.258H206.747V85.318H207.937V88.258H209.673V89.308H207.937V93.816C207.937 94.0867 207.956 94.3013 207.993 94.46C208.03 94.6093 208.114 94.7307 208.245 94.824C208.376 94.908 208.581 94.95 208.861 94.95H209.659V96H208.581ZM211.19 96V85.318H212.38V89.462C212.762 88.9673 213.131 88.622 213.486 88.426C213.85 88.2207 214.246 88.118 214.676 88.118C215.768 88.118 216.528 88.524 216.958 89.336C217.116 89.644 217.214 89.9613 217.252 90.288C217.298 90.6053 217.322 90.9553 217.322 91.338V96H216.132V91.338C216.132 90.5167 215.982 89.938 215.684 89.602C215.422 89.3127 215.026 89.168 214.494 89.168C213.906 89.168 213.434 89.3593 213.08 89.742C212.828 90.0033 212.646 90.3627 212.534 90.82C212.431 91.2773 212.38 91.9027 212.38 92.696V96H211.19ZM20.144 113.14C19.4627 113.14 18.8607 112.972 18.338 112.636C17.8153 112.3 17.4093 111.829 17.12 111.222C16.84 110.615 16.7 109.92 16.7 109.136C16.7 108.352 16.84 107.657 17.12 107.05C17.4093 106.434 17.8107 105.958 18.324 105.622C18.8467 105.286 19.4533 105.118 20.144 105.118C20.676 105.118 21.1333 105.216 21.516 105.412C21.8987 105.608 22.286 105.958 22.678 106.462V102.318H23.868V113H22.678V111.796C22.2953 112.291 21.9127 112.641 21.53 112.846C21.1473 113.042 20.6853 113.14 20.144 113.14ZM20.256 112.09C20.732 112.09 21.1567 111.964 21.53 111.712C21.9033 111.46 22.1927 111.11 22.398 110.662C22.6127 110.205 22.72 109.696 22.72 109.136C22.72 108.567 22.6127 108.058 22.398 107.61C22.1927 107.162 21.9033 106.812 21.53 106.56C21.1567 106.299 20.732 106.168 20.256 106.168C19.78 106.168 19.36 106.299 18.996 106.56C18.6413 106.812 18.366 107.162 18.17 107.61C17.9833 108.058 17.89 108.567 17.89 109.136C17.89 109.696 17.9833 110.2 18.17 110.648C18.366 111.096 18.6413 111.451 18.996 111.712C19.36 111.964 19.78 112.09 20.256 112.09ZM28.9419 113.14C28.2139 113.14 27.5606 112.967 26.9819 112.622C26.4126 112.277 25.9692 111.801 25.6519 111.194C25.3346 110.587 25.1759 109.906 25.1759 109.15C25.1759 108.431 25.3252 107.769 25.6239 107.162C25.9226 106.546 26.3519 106.051 26.9119 105.678C27.4812 105.305 28.1486 105.118 28.9139 105.118C29.5766 105.118 30.1926 105.267 30.7619 105.566C31.3312 105.865 31.7886 106.303 32.1339 106.882C32.4792 107.451 32.6519 108.137 32.6519 108.94V109.36H26.3519C26.3706 109.631 26.4219 109.887 26.5059 110.13C26.7019 110.727 27.0146 111.203 27.4439 111.558C27.8826 111.913 28.3772 112.09 28.9279 112.09C29.4879 112.09 29.9686 111.941 30.3699 111.642C30.7712 111.343 31.0606 110.965 31.2379 110.508H32.5119C32.2599 111.292 31.8306 111.927 31.2239 112.412C30.6172 112.897 29.8566 113.14 28.9419 113.14ZM31.3779 108.31C31.3592 108.03 31.3032 107.778 31.2099 107.554C31.0139 107.115 30.7106 106.775 30.2999 106.532C29.8986 106.289 29.4459 106.168 28.9419 106.168C28.4286 106.168 27.9759 106.289 27.5839 106.532C27.2012 106.775 26.9026 107.115 26.6879 107.554C26.5946 107.759 26.5199 108.011 26.4639 108.31H31.3779ZM36.5615 113C35.9362 113 35.4742 112.86 35.1755 112.58C34.8768 112.3 34.7275 111.791 34.7275 111.054V106.308H33.4815V105.258H34.7275V102.318H35.9175V105.258H37.6535V106.308H35.9175V110.816C35.9175 111.087 35.9362 111.301 35.9735 111.46C36.0108 111.609 36.0948 111.731 36.2255 111.824C36.3562 111.908 36.5615 111.95 36.8415 111.95H37.6395V113H36.5615ZM41.3541 113.14C40.5794 113.14 39.9634 112.944 39.5061 112.552C39.0581 112.16 38.8341 111.623 38.8341 110.942C38.8341 110.27 39.0861 109.738 39.5901 109.346C40.0008 109.019 40.5934 108.777 41.3681 108.618L44.1261 108.086C44.1261 107.479 43.9674 107.017 43.6501 106.7C43.2954 106.345 42.8194 106.168 42.2221 106.168C41.7461 106.168 41.3308 106.299 40.9761 106.56C40.6308 106.812 40.4114 107.153 40.3181 107.582H39.1281C39.2588 106.807 39.6134 106.205 40.1921 105.776C40.7801 105.337 41.4614 105.118 42.2361 105.118C42.6934 105.118 43.1181 105.188 43.5101 105.328C43.9021 105.459 44.2334 105.655 44.5041 105.916C44.8588 106.252 45.0828 106.639 45.1761 107.078C45.2694 107.517 45.3161 107.969 45.3161 108.436V113H44.1261V111.782C43.8554 112.174 43.5428 112.477 43.1881 112.692C42.7121 112.991 42.1008 113.14 41.3541 113.14ZM41.4941 112.09C41.9701 112.09 42.3808 112.001 42.7261 111.824C43.2488 111.553 43.6128 111.194 43.8181 110.746C44.0328 110.298 44.1401 109.733 44.1401 109.052L41.6201 109.556C41.0414 109.668 40.6168 109.85 40.3461 110.102C40.1314 110.317 40.0241 110.587 40.0241 110.914C40.0241 111.269 40.1548 111.553 40.4161 111.768C40.6868 111.983 41.0461 112.09 41.4941 112.09ZM48.4125 113H47.2225V105.258H48.4125V113ZM47.8245 103.928C47.5725 103.928 47.3578 103.844 47.1805 103.676C47.0032 103.499 46.9145 103.289 46.9145 103.046C46.9145 102.803 47.0032 102.598 47.1805 102.43C47.3578 102.262 47.5725 102.178 47.8245 102.178C48.0765 102.178 48.2912 102.262 48.4685 102.43C48.6458 102.598 48.7345 102.803 48.7345 103.046C48.7345 103.289 48.6458 103.499 48.4685 103.676C48.2912 103.844 48.0765 103.928 47.8245 103.928ZM52.2004 113C51.5751 113 51.1131 112.86 50.8144 112.58C50.5157 112.3 50.3664 111.791 50.3664 111.054V102.318H51.5564V110.872C51.5564 111.143 51.5751 111.353 51.6124 111.502C51.6497 111.642 51.7337 111.754 51.8644 111.838C51.9951 111.913 52.2004 111.95 52.4804 111.95H52.8584V113H52.2004ZM57.3521 113.14C56.6241 113.14 55.9707 112.967 55.3921 112.622C54.8227 112.277 54.3794 111.801 54.0621 111.194C53.7447 110.587 53.5861 109.906 53.5861 109.15C53.5861 108.431 53.7354 107.769 54.0341 107.162C54.3327 106.546 54.7621 106.051 55.3221 105.678C55.8914 105.305 56.5587 105.118 57.3241 105.118C57.9867 105.118 58.6027 105.267 59.1721 105.566C59.7414 105.865 60.1987 106.303 60.5441 106.882C60.8894 107.451 61.0621 108.137 61.0621 108.94V109.36H54.7621C54.7807 109.631 54.8321 109.887 54.9161 110.13C55.1121 110.727 55.4247 111.203 55.8541 111.558C56.2927 111.913 56.7874 112.09 57.3381 112.09C57.8981 112.09 58.3787 111.941 58.7801 111.642C59.1814 111.343 59.4707 110.965 59.6481 110.508H60.9221C60.6701 111.292 60.2407 111.927 59.6341 112.412C59.0274 112.897 58.2667 113.14 57.3521 113.14ZM59.7881 108.31C59.7694 108.03 59.7134 107.778 59.6201 107.554C59.4241 107.115 59.1207 106.775 58.7101 106.532C58.3087 106.289 57.8561 106.168 57.3521 106.168C56.8387 106.168 56.3861 106.289 55.9941 106.532C55.6114 106.775 55.3127 107.115 55.0981 107.554C55.0047 107.759 54.9301 108.011 54.8741 108.31H59.7881ZM65.8628 113.14C65.1814 113.14 64.5794 112.972 64.0568 112.636C63.5341 112.3 63.1281 111.829 62.8388 111.222C62.5588 110.615 62.4188 109.92 62.4188 109.136C62.4188 108.352 62.5588 107.657 62.8388 107.05C63.1281 106.434 63.5294 105.958 64.0428 105.622C64.5654 105.286 65.1721 105.118 65.8628 105.118C66.3948 105.118 66.8521 105.216 67.2348 105.412C67.6174 105.608 68.0048 105.958 68.3968 106.462V102.318H69.5868V113H68.3968V111.796C68.0141 112.291 67.6314 112.641 67.2488 112.846C66.8661 113.042 66.4041 113.14 65.8628 113.14ZM65.9748 112.09C66.4508 112.09 66.8754 111.964 67.2488 111.712C67.6221 111.46 67.9114 111.11 68.1168 110.662C68.3314 110.205 68.4388 109.696 68.4388 109.136C68.4388 108.567 68.3314 108.058 68.1168 107.61C67.9114 107.162 67.6221 106.812 67.2488 106.56C66.8754 106.299 66.4508 106.168 65.9748 106.168C65.4988 106.168 65.0788 106.299 64.7148 106.56C64.3601 106.812 64.0848 107.162 63.8888 107.61C63.7021 108.058 63.6088 108.567 63.6088 109.136C63.6088 109.696 63.7021 110.2 63.8888 110.648C64.0848 111.096 64.3601 111.451 64.7148 111.712C65.0788 111.964 65.4988 112.09 65.9748 112.09ZM78.9536 113.14C78.2256 113.14 77.5723 112.967 76.9936 112.622C76.4243 112.277 75.981 111.801 75.6636 111.194C75.3463 110.587 75.1876 109.906 75.1876 109.15C75.1876 108.431 75.337 107.769 75.6356 107.162C75.9343 106.546 76.3636 106.051 76.9236 105.678C77.493 105.305 78.1603 105.118 78.9256 105.118C79.5883 105.118 80.2043 105.267 80.7736 105.566C81.343 105.865 81.8003 106.303 82.1456 106.882C82.491 107.451 82.6636 108.137 82.6636 108.94V109.36H76.3636C76.3823 109.631 76.4336 109.887 76.5176 110.13C76.7136 110.727 77.0263 111.203 77.4556 111.558C77.8943 111.913 78.389 112.09 78.9396 112.09C79.4996 112.09 79.9803 111.941 80.3816 111.642C80.783 111.343 81.0723 110.965 81.2496 110.508H82.5236C82.2716 111.292 81.8423 111.927 81.2356 112.412C80.629 112.897 79.8683 113.14 78.9536 113.14ZM81.3896 108.31C81.371 108.03 81.315 107.778 81.2216 107.554C81.0256 107.115 80.7223 106.775 80.3116 106.532C79.9103 106.289 79.4576 106.168 78.9536 106.168C78.4403 106.168 77.9876 106.289 77.5956 106.532C77.213 106.775 76.9143 107.115 76.6996 107.554C76.6063 107.759 76.5316 108.011 76.4756 108.31H81.3896ZM84.7135 113H83.2995L86.0855 109.122L83.2995 105.258H84.7135L86.8555 108.296L89.0115 105.258H90.4395L87.6115 109.122L90.4395 113H89.0115L86.8555 109.962L84.7135 113ZM95.4488 105.118C96.1301 105.118 96.7321 105.286 97.2548 105.622C97.7775 105.958 98.1788 106.429 98.4588 107.036C98.7481 107.643 98.8928 108.338 98.8928 109.122C98.8928 109.906 98.7481 110.606 98.4588 111.222C98.1788 111.829 97.7775 112.3 97.2548 112.636C96.7415 112.972 96.1395 113.14 95.4488 113.14C94.9168 113.14 94.4595 113.042 94.0768 112.846C93.6941 112.65 93.3068 112.3 92.9148 111.796V115.94H91.7248V105.258H92.9148V106.462C93.2975 105.967 93.6801 105.622 94.0628 105.426C94.4455 105.221 94.9075 105.118 95.4488 105.118ZM95.3368 106.168C94.8608 106.168 94.4361 106.294 94.0628 106.546C93.6895 106.798 93.3955 107.153 93.1808 107.61C92.9755 108.058 92.8728 108.562 92.8728 109.122C92.8728 109.691 92.9755 110.2 93.1808 110.648C93.3955 111.096 93.6895 111.451 94.0628 111.712C94.4361 111.964 94.8608 112.09 95.3368 112.09C95.8128 112.09 96.2281 111.964 96.5828 111.712C96.9468 111.451 97.2221 111.096 97.4088 110.648C97.6048 110.2 97.7028 109.691 97.7028 109.122C97.7028 108.562 97.6048 108.058 97.4088 107.61C97.2221 107.162 96.9468 106.812 96.5828 106.56C96.2281 106.299 95.8128 106.168 95.3368 106.168ZM102.39 113C101.765 113 101.303 112.86 101.004 112.58C100.705 112.3 100.556 111.791 100.556 111.054V102.318H101.746V110.872C101.746 111.143 101.765 111.353 101.802 111.502C101.839 111.642 101.923 111.754 102.054 111.838C102.185 111.913 102.39 111.95 102.67 111.95H103.048V113H102.39ZM106.665 113.14C105.89 113.14 105.274 112.944 104.817 112.552C104.369 112.16 104.145 111.623 104.145 110.942C104.145 110.27 104.397 109.738 104.901 109.346C105.311 109.019 105.904 108.777 106.679 108.618L109.437 108.086C109.437 107.479 109.278 107.017 108.961 106.7C108.606 106.345 108.13 106.168 107.533 106.168C107.057 106.168 106.641 106.299 106.287 106.56C105.941 106.812 105.722 107.153 105.629 107.582H104.439C104.569 106.807 104.924 106.205 105.503 105.776C106.091 105.337 106.772 105.118 107.547 105.118C108.004 105.118 108.429 105.188 108.821 105.328C109.213 105.459 109.544 105.655 109.815 105.916C110.169 106.252 110.393 106.639 110.487 107.078C110.58 107.517 110.627 107.969 110.627 108.436V113H109.437V111.782C109.166 112.174 108.853 112.477 108.499 112.692C108.023 112.991 107.411 113.14 106.665 113.14ZM106.805 112.09C107.281 112.09 107.691 112.001 108.037 111.824C108.559 111.553 108.923 111.194 109.129 110.746C109.343 110.298 109.451 109.733 109.451 109.052L106.931 109.556C106.352 109.668 105.927 109.85 105.657 110.102C105.442 110.317 105.335 110.587 105.335 110.914C105.335 111.269 105.465 111.553 105.727 111.768C105.997 111.983 106.357 112.09 106.805 112.09ZM112.533 113V105.258H113.723V106.462C114.106 105.967 114.474 105.622 114.829 105.426C115.193 105.221 115.59 105.118 116.019 105.118C117.111 105.118 117.872 105.524 118.301 106.336C118.46 106.644 118.558 106.961 118.595 107.288C118.642 107.605 118.665 107.955 118.665 108.338V113H117.475V108.338C117.475 107.517 117.326 106.938 117.027 106.602C116.766 106.313 116.369 106.168 115.837 106.168C115.249 106.168 114.778 106.359 114.423 106.742C114.171 107.003 113.989 107.363 113.877 107.82C113.774 108.277 113.723 108.903 113.723 109.696V113H112.533ZM122.797 113.14C122.023 113.14 121.407 112.944 120.949 112.552C120.501 112.16 120.277 111.623 120.277 110.942C120.277 110.27 120.529 109.738 121.033 109.346C121.444 109.019 122.037 108.777 122.811 108.618L125.569 108.086C125.569 107.479 125.411 107.017 125.093 106.7C124.739 106.345 124.263 106.168 123.665 106.168C123.189 106.168 122.774 106.299 122.419 106.56C122.074 106.812 121.855 107.153 121.761 107.582H120.571C120.702 106.807 121.057 106.205 121.635 105.776C122.223 105.337 122.905 105.118 123.679 105.118C124.137 105.118 124.561 105.188 124.953 105.328C125.345 105.459 125.677 105.655 125.947 105.916C126.302 106.252 126.526 106.639 126.619 107.078C126.713 107.517 126.759 107.969 126.759 108.436V113H125.569V111.782C125.299 112.174 124.986 112.477 124.631 112.692C124.155 112.991 123.544 113.14 122.797 113.14ZM122.937 112.09C123.413 112.09 123.824 112.001 124.169 111.824C124.692 111.553 125.056 111.194 125.261 110.746C125.476 110.298 125.583 109.733 125.583 109.052L123.063 109.556C122.485 109.668 122.06 109.85 121.789 110.102C121.575 110.317 121.467 110.587 121.467 110.914C121.467 111.269 121.598 111.553 121.859 111.768C122.13 111.983 122.489 112.09 122.937 112.09ZM131.13 113C130.505 113 130.043 112.86 129.744 112.58C129.445 112.3 129.296 111.791 129.296 111.054V106.308H128.05V105.258H129.296V102.318H130.486V105.258H132.222V106.308H130.486V110.816C130.486 111.087 130.505 111.301 130.542 111.46C130.579 111.609 130.663 111.731 130.794 111.824C130.925 111.908 131.13 111.95 131.41 111.95H132.208V113H131.13ZM134.914 113H133.724V105.258H134.914V113ZM134.326 103.928C134.074 103.928 133.86 103.844 133.682 103.676C133.505 103.499 133.416 103.289 133.416 103.046C133.416 102.803 133.505 102.598 133.682 102.43C133.86 102.262 134.074 102.178 134.326 102.178C134.578 102.178 134.793 102.262 134.97 102.43C135.148 102.598 135.236 102.803 135.236 103.046C135.236 103.289 135.148 103.499 134.97 103.676C134.793 103.844 134.578 103.928 134.326 103.928ZM140.354 113.14C139.626 113.14 138.973 112.967 138.394 112.622C137.825 112.277 137.377 111.796 137.05 111.18C136.733 110.564 136.574 109.869 136.574 109.094C136.574 108.338 136.733 107.657 137.05 107.05C137.377 106.443 137.825 105.972 138.394 105.636C138.973 105.291 139.626 105.118 140.354 105.118C141.082 105.118 141.736 105.291 142.314 105.636C142.893 105.972 143.346 106.443 143.672 107.05C143.999 107.657 144.162 108.338 144.162 109.094C144.162 109.869 143.999 110.564 143.672 111.18C143.355 111.787 142.907 112.267 142.328 112.622C141.75 112.967 141.092 113.14 140.354 113.14ZM140.354 112.09C140.84 112.09 141.278 111.959 141.67 111.698C142.072 111.437 142.384 111.082 142.608 110.634C142.842 110.177 142.958 109.663 142.958 109.094C142.958 108.553 142.846 108.058 142.622 107.61C142.398 107.162 142.086 106.812 141.684 106.56C141.292 106.299 140.849 106.168 140.354 106.168C139.869 106.168 139.426 106.294 139.024 106.546C138.632 106.798 138.324 107.148 138.1 107.596C137.876 108.044 137.764 108.543 137.764 109.094C137.764 109.663 137.876 110.177 138.1 110.634C138.324 111.091 138.632 111.451 139.024 111.712C139.426 111.964 139.869 112.09 140.354 112.09ZM145.838 113V105.258H147.028V106.462C147.41 105.967 147.779 105.622 148.134 105.426C148.498 105.221 148.894 105.118 149.324 105.118C150.416 105.118 151.176 105.524 151.606 106.336C151.764 106.644 151.862 106.961 151.9 107.288C151.946 107.605 151.97 107.955 151.97 108.338V113H150.78V108.338C150.78 107.517 150.63 106.938 150.332 106.602C150.07 106.313 149.674 106.168 149.142 106.168C148.554 106.168 148.082 106.359 147.728 106.742C147.476 107.003 147.294 107.363 147.182 107.82C147.079 108.277 147.028 108.903 147.028 109.696V113H145.838ZM157.026 113.14C156.046 113.14 155.248 112.907 154.632 112.44C154.016 111.973 153.643 111.329 153.512 110.508H154.758C154.861 111.003 155.099 111.39 155.472 111.67C155.855 111.95 156.377 112.09 157.04 112.09C157.581 112.09 158.011 111.987 158.328 111.782C158.655 111.577 158.818 111.283 158.818 110.9C158.818 110.601 158.72 110.363 158.524 110.186C158.337 109.999 158.095 109.859 157.796 109.766C157.507 109.673 157.119 109.579 156.634 109.486C156.027 109.365 155.537 109.243 155.164 109.122C154.8 108.991 154.487 108.786 154.226 108.506C153.965 108.226 153.834 107.839 153.834 107.344C153.834 106.644 154.095 106.098 154.618 105.706C155.15 105.314 155.827 105.118 156.648 105.118C157.488 105.118 158.188 105.337 158.748 105.776C159.308 106.215 159.653 106.817 159.784 107.582H158.678C158.566 107.106 158.333 106.751 157.978 106.518C157.623 106.285 157.18 106.168 156.648 106.168C156.135 106.168 155.733 106.266 155.444 106.462C155.164 106.649 155.024 106.91 155.024 107.246C155.024 107.507 155.113 107.713 155.29 107.862C155.467 108.011 155.687 108.128 155.948 108.212C156.209 108.287 156.578 108.371 157.054 108.464C157.679 108.585 158.188 108.716 158.58 108.856C158.972 108.987 159.308 109.206 159.588 109.514C159.868 109.813 160.008 110.233 160.008 110.774C160.008 111.502 159.747 112.081 159.224 112.51C158.701 112.93 157.969 113.14 157.026 113.14ZM166.279 113V106.308H164.991V105.258H166.279V104.418C166.279 103.727 166.447 103.205 166.783 102.85C167.119 102.495 167.618 102.318 168.281 102.318H169.275V103.368H168.547C168.174 103.368 167.898 103.466 167.721 103.662C167.553 103.858 167.469 104.161 167.469 104.572V105.258H169.275V106.308H167.469V113H166.279ZM173.741 113.14C173.013 113.14 172.36 112.967 171.781 112.622C171.212 112.277 170.764 111.796 170.437 111.18C170.12 110.564 169.961 109.869 169.961 109.094C169.961 108.338 170.12 107.657 170.437 107.05C170.764 106.443 171.212 105.972 171.781 105.636C172.36 105.291 173.013 105.118 173.741 105.118C174.469 105.118 175.122 105.291 175.701 105.636C176.28 105.972 176.732 106.443 177.059 107.05C177.386 107.657 177.549 108.338 177.549 109.094C177.549 109.869 177.386 110.564 177.059 111.18C176.742 111.787 176.294 112.267 175.715 112.622C175.136 112.967 174.478 113.14 173.741 113.14ZM173.741 112.09C174.226 112.09 174.665 111.959 175.057 111.698C175.458 111.437 175.771 111.082 175.995 110.634C176.228 110.177 176.345 109.663 176.345 109.094C176.345 108.553 176.233 108.058 176.009 107.61C175.785 107.162 175.472 106.812 175.071 106.56C174.679 106.299 174.236 106.168 173.741 106.168C173.256 106.168 172.812 106.294 172.411 106.546C172.019 106.798 171.711 107.148 171.487 107.596C171.263 108.044 171.151 108.543 171.151 109.094C171.151 109.663 171.263 110.177 171.487 110.634C171.711 111.091 172.019 111.451 172.411 111.712C172.812 111.964 173.256 112.09 173.741 112.09ZM179.224 113V105.258H180.414V106.322C180.769 105.893 181.147 105.585 181.548 105.398C181.95 105.211 182.416 105.118 182.948 105.118H183.004V106.308H182.598C181.973 106.308 181.474 106.495 181.1 106.868C180.643 107.307 180.414 107.993 180.414 108.926V113H179.224ZM20.438 130.14C19.71 130.14 19.0567 129.967 18.478 129.622C17.9087 129.277 17.4653 128.801 17.148 128.194C16.8307 127.587 16.672 126.906 16.672 126.15C16.672 125.431 16.8213 124.769 17.12 124.162C17.4187 123.546 17.848 123.051 18.408 122.678C18.9773 122.305 19.6447 122.118 20.41 122.118C21.0727 122.118 21.6887 122.267 22.258 122.566C22.8273 122.865 23.2847 123.303 23.63 123.882C23.9753 124.451 24.148 125.137 24.148 125.94V126.36H17.848C17.8667 126.631 17.918 126.887 18.002 127.13C18.198 127.727 18.5107 128.203 18.94 128.558C19.3787 128.913 19.8733 129.09 20.424 129.09C20.984 129.09 21.4647 128.941 21.866 128.642C22.2673 128.343 22.5567 127.965 22.734 127.508H24.008C23.756 128.292 23.3267 128.927 22.72 129.412C22.1133 129.897 21.3527 130.14 20.438 130.14ZM22.874 125.31C22.8553 125.03 22.7993 124.778 22.706 124.554C22.51 124.115 22.2067 123.775 21.796 123.532C21.3947 123.289 20.942 123.168 20.438 123.168C19.9247 123.168 19.472 123.289 19.08 123.532C18.6973 123.775 18.3987 124.115 18.184 124.554C18.0907 124.759 18.016 125.011 17.96 125.31H22.874ZM28.784 130H27.804L24.948 122.258H26.264L28.294 127.984L30.352 122.258H31.654L28.784 130ZM36.229 130.14C35.501 130.14 34.8477 129.967 34.269 129.622C33.6997 129.277 33.2563 128.801 32.939 128.194C32.6217 127.587 32.463 126.906 32.463 126.15C32.463 125.431 32.6123 124.769 32.911 124.162C33.2097 123.546 33.639 123.051 34.199 122.678C34.7683 122.305 35.4357 122.118 36.201 122.118C36.8637 122.118 37.4797 122.267 38.049 122.566C38.6183 122.865 39.0757 123.303 39.421 123.882C39.7663 124.451 39.939 125.137 39.939 125.94V126.36H33.639C33.6577 126.631 33.709 126.887 33.793 127.13C33.989 127.727 34.3017 128.203 34.731 128.558C35.1697 128.913 35.6643 129.09 36.215 129.09C36.775 129.09 37.2557 128.941 37.657 128.642C38.0583 128.343 38.3477 127.965 38.525 127.508H39.799C39.547 128.292 39.1177 128.927 38.511 129.412C37.9043 129.897 37.1437 130.14 36.229 130.14ZM38.665 125.31C38.6463 125.03 38.5903 124.778 38.497 124.554C38.301 124.115 37.9977 123.775 37.587 123.532C37.1857 123.289 36.733 123.168 36.229 123.168C35.7157 123.168 35.263 123.289 34.871 123.532C34.4883 123.775 34.1897 124.115 33.975 124.554C33.8817 124.759 33.807 125.011 33.751 125.31H38.665ZM41.5897 130V122.258H42.7797V123.322C43.1344 122.893 43.5124 122.585 43.9137 122.398C44.315 122.211 44.7817 122.118 45.3137 122.118H45.3697V123.308H44.9637C44.3384 123.308 43.839 123.495 43.4657 123.868C43.0084 124.307 42.7797 124.993 42.7797 125.926V130H41.5897ZM46.6756 132.94V131.848H47.4036C47.637 131.848 47.8143 131.829 47.9356 131.792C48.057 131.764 48.1643 131.694 48.2576 131.582C48.351 131.47 48.4443 131.288 48.5376 131.036L48.9576 129.888L45.9336 122.258H47.2496L49.6016 128.264L51.7856 122.258H53.0736L49.6436 131.554C49.4383 132.105 49.205 132.473 48.9436 132.66C48.6823 132.847 48.309 132.94 47.8236 132.94H46.6756ZM65.9551 132.94C65.2457 132.94 64.7371 132.795 64.4291 132.506C64.1211 132.226 63.9671 131.759 63.9671 131.106V128.796C63.5751 129.3 63.1877 129.65 62.8051 129.846C62.4224 130.042 61.9651 130.14 61.4331 130.14C60.7424 130.14 60.1357 129.972 59.6131 129.636C59.0997 129.3 58.6984 128.829 58.4091 128.222C58.1291 127.606 57.9891 126.906 57.9891 126.122C57.9891 125.338 58.1291 124.643 58.4091 124.036C58.6984 123.429 59.1044 122.958 59.6271 122.622C60.1497 122.286 60.7517 122.118 61.4331 122.118C61.9744 122.118 62.4364 122.221 62.8191 122.426C63.2017 122.622 63.5844 122.967 63.9671 123.462V122.258H65.1571V131.204C65.1571 131.428 65.2177 131.591 65.3391 131.694C65.4697 131.797 65.6751 131.848 65.9551 131.848H66.6411V132.94H65.9551ZM61.5451 129.09C62.0211 129.09 62.4457 128.964 62.8191 128.712C63.1924 128.451 63.4817 128.096 63.6871 127.648C63.9017 127.2 64.0091 126.691 64.0091 126.122C64.0091 125.562 63.9017 125.058 63.6871 124.61C63.4817 124.162 63.1877 123.812 62.8051 123.56C62.4317 123.299 62.0117 123.168 61.5451 123.168C61.0691 123.168 60.6491 123.299 60.2851 123.56C59.9304 123.812 59.6551 124.162 59.4591 124.61C59.2724 125.058 59.1791 125.562 59.1791 126.122C59.1791 126.691 59.2724 127.2 59.4591 127.648C59.6551 128.096 59.9304 128.451 60.2851 128.712C60.6491 128.964 61.0691 129.09 61.5451 129.09ZM69.7604 130.14C68.6778 130.14 67.9171 129.734 67.4784 128.922C67.2358 128.465 67.1144 127.797 67.1144 126.92V122.258H68.3044V126.92C68.3044 127.741 68.4538 128.32 68.7524 128.656C69.0138 128.945 69.4104 129.09 69.9424 129.09C70.5304 129.09 71.0018 128.899 71.3564 128.516C71.6084 128.255 71.7858 127.895 71.8884 127.438C72.0004 126.981 72.0564 126.355 72.0564 125.562V122.258H73.2464V130H72.0564V128.796C71.6831 129.272 71.3144 129.617 70.9504 129.832C70.5958 130.037 70.1991 130.14 69.7604 130.14ZM78.6802 130.14C77.9522 130.14 77.2989 129.967 76.7202 129.622C76.1509 129.277 75.7075 128.801 75.3902 128.194C75.0729 127.587 74.9142 126.906 74.9142 126.15C74.9142 125.431 75.0635 124.769 75.3622 124.162C75.6609 123.546 76.0902 123.051 76.6502 122.678C77.2195 122.305 77.8869 122.118 78.6522 122.118C79.3149 122.118 79.9309 122.267 80.5002 122.566C81.0695 122.865 81.5269 123.303 81.8722 123.882C82.2175 124.451 82.3902 125.137 82.3902 125.94V126.36H76.0902C76.1089 126.631 76.1602 126.887 76.2442 127.13C76.4402 127.727 76.7529 128.203 77.1822 128.558C77.6209 128.913 78.1155 129.09 78.6662 129.09C79.2262 129.09 79.7069 128.941 80.1082 128.642C80.5095 128.343 80.7989 127.965 80.9762 127.508H82.2502C81.9982 128.292 81.5689 128.927 80.9622 129.412C80.3555 129.897 79.5949 130.14 78.6802 130.14ZM81.1162 125.31C81.0975 125.03 81.0415 124.778 80.9482 124.554C80.7522 124.115 80.4489 123.775 80.0382 123.532C79.6369 123.289 79.1842 123.168 78.6802 123.168C78.1669 123.168 77.7142 123.289 77.3222 123.532C76.9395 123.775 76.6409 124.115 76.4262 124.554C76.3329 124.759 76.2582 125.011 76.2022 125.31H81.1162ZM87.1629 130.14C86.1829 130.14 85.3849 129.907 84.7689 129.44C84.1529 128.973 83.7795 128.329 83.6489 127.508H84.8949C84.9975 128.003 85.2355 128.39 85.6089 128.67C85.9915 128.95 86.5142 129.09 87.1769 129.09C87.7182 129.09 88.1475 128.987 88.4649 128.782C88.7915 128.577 88.9549 128.283 88.9549 127.9C88.9549 127.601 88.8569 127.363 88.6609 127.186C88.4742 126.999 88.2315 126.859 87.9329 126.766C87.6435 126.673 87.2562 126.579 86.7709 126.486C86.1642 126.365 85.6742 126.243 85.3009 126.122C84.9369 125.991 84.6242 125.786 84.3629 125.506C84.1015 125.226 83.9709 124.839 83.9709 124.344C83.9709 123.644 84.2322 123.098 84.7549 122.706C85.2869 122.314 85.9635 122.118 86.7849 122.118C87.6249 122.118 88.3249 122.337 88.8849 122.776C89.4449 123.215 89.7902 123.817 89.9209 124.582H88.8149C88.7029 124.106 88.4695 123.751 88.1149 123.518C87.7602 123.285 87.3169 123.168 86.7849 123.168C86.2715 123.168 85.8702 123.266 85.5809 123.462C85.3009 123.649 85.1609 123.91 85.1609 124.246C85.1609 124.507 85.2495 124.713 85.4269 124.862C85.6042 125.011 85.8235 125.128 86.0849 125.212C86.3462 125.287 86.7149 125.371 87.1909 125.464C87.8162 125.585 88.3249 125.716 88.7169 125.856C89.1089 125.987 89.4449 126.206 89.7249 126.514C90.0049 126.813 90.1449 127.233 90.1449 127.774C90.1449 128.502 89.8835 129.081 89.3609 129.51C88.8382 129.93 88.1055 130.14 87.1629 130.14ZM94.2021 130C93.5768 130 93.1148 129.86 92.8161 129.58C92.5175 129.3 92.3681 128.791 92.3681 128.054V123.308H91.1221V122.258H92.3681V119.318H93.5581V122.258H95.2941V123.308H93.5581V127.816C93.5581 128.087 93.5768 128.301 93.6141 128.46C93.6515 128.609 93.7355 128.731 93.8661 128.824C93.9968 128.908 94.2021 128.95 94.4821 128.95H95.2801V130H94.2021ZM97.9867 130H96.7967V122.258H97.9867V130ZM97.3987 120.928C97.1467 120.928 96.9321 120.844 96.7547 120.676C96.5774 120.499 96.4887 120.289 96.4887 120.046C96.4887 119.803 96.5774 119.598 96.7547 119.43C96.9321 119.262 97.1467 119.178 97.3987 119.178C97.6507 119.178 97.8654 119.262 98.0427 119.43C98.2201 119.598 98.3087 119.803 98.3087 120.046C98.3087 120.289 98.2201 120.499 98.0427 120.676C97.8654 120.844 97.6507 120.928 97.3987 120.928ZM103.427 130.14C102.699 130.14 102.045 129.967 101.467 129.622C100.897 129.277 100.449 128.796 100.123 128.18C99.8053 127.564 99.6466 126.869 99.6466 126.094C99.6466 125.338 99.8053 124.657 100.123 124.05C100.449 123.443 100.897 122.972 101.467 122.636C102.045 122.291 102.699 122.118 103.427 122.118C104.155 122.118 104.808 122.291 105.387 122.636C105.965 122.972 106.418 123.443 106.745 124.05C107.071 124.657 107.235 125.338 107.235 126.094C107.235 126.869 107.071 127.564 106.745 128.18C106.427 128.787 105.979 129.267 105.401 129.622C104.822 129.967 104.164 130.14 103.427 130.14ZM103.427 129.09C103.912 129.09 104.351 128.959 104.743 128.698C105.144 128.437 105.457 128.082 105.681 127.634C105.914 127.177 106.031 126.663 106.031 126.094C106.031 125.553 105.919 125.058 105.695 124.61C105.471 124.162 105.158 123.812 104.757 123.56C104.365 123.299 103.921 123.168 103.427 123.168C102.941 123.168 102.498 123.294 102.097 123.546C101.705 123.798 101.397 124.148 101.173 124.596C100.949 125.044 100.837 125.543 100.837 126.094C100.837 126.663 100.949 127.177 101.173 127.634C101.397 128.091 101.705 128.451 102.097 128.712C102.498 128.964 102.941 129.09 103.427 129.09ZM108.91 130V122.258H110.1V123.462C110.483 122.967 110.851 122.622 111.206 122.426C111.57 122.221 111.967 122.118 112.396 122.118C113.488 122.118 114.249 122.524 114.678 123.336C114.837 123.644 114.935 123.961 114.972 124.288C115.019 124.605 115.042 124.955 115.042 125.338V130H113.852V125.338C113.852 124.517 113.703 123.938 113.404 123.602C113.143 123.313 112.746 123.168 112.214 123.168C111.626 123.168 111.155 123.359 110.8 123.742C110.548 124.003 110.366 124.363 110.254 124.82C110.151 125.277 110.1 125.903 110.1 126.696V130H108.91ZM117.62 130.14C117.387 130.14 117.186 130.061 117.018 129.902C116.85 129.734 116.766 129.533 116.766 129.3C116.766 129.076 116.85 128.885 117.018 128.726C117.186 128.567 117.387 128.488 117.62 128.488C117.835 128.488 118.022 128.572 118.18 128.74C118.339 128.899 118.418 129.085 118.418 129.3C118.418 129.533 118.339 129.734 118.18 129.902C118.022 130.061 117.835 130.14 117.62 130.14Z" fill="white" fill-opacity="0.7"/>
</svg>
