<svg width="253" height="149" viewBox="0 0 253 149" fill="none" xmlns="http://www.w3.org/2000/svg">
<rect x="0.5" y="0.5" width="252" height="148" rx="15.5" stroke="black" stroke-opacity="0.1"/>
<path d="M33 34.4297H29L24.55 37.3897C23.89 37.8297 23 37.3598 23 36.5598V34.4297C20 34.4297 18 32.4297 18 29.4297V23.4297C18 20.4297 20 18.4297 23 18.4297H33C36 18.4297 38 20.4297 38 23.4297V29.4297C38 32.4297 36 34.4297 33 34.4297Z" stroke="black" stroke-opacity="0.6" stroke-width="1.5" stroke-miterlimit="10" stroke-linecap="round" stroke-linejoin="round"/>
<path d="M27.9998 27.3594V27.1494C27.9998 26.4694 28.4198 26.1094 28.8398 25.8194C29.2498 25.5394 29.6598 25.1794 29.6598 24.5194C29.6598 23.5994 28.9198 22.8594 27.9998 22.8594C27.0798 22.8594 26.3398 23.5994 26.3398 24.5194" stroke="black" stroke-opacity="0.6" stroke-width="1.5" stroke-linecap="round" stroke-linejoin="round"/>
<path d="M27.9955 29.75H28.0045" stroke="black" stroke-opacity="0.6" stroke-width="1.5" stroke-linecap="round" stroke-linejoin="round"/>
<path d="M22.544 70.224C21.2427 70.224 20.1493 69.9413 19.264 69.376C18.3787 68.8 17.7173 68.032 17.28 67.072C16.8427 66.112 16.624 65.0507 16.624 63.888C16.624 62.7253 16.8427 61.6693 17.28 60.72C17.7173 59.76 18.3787 58.9973 19.264 58.432C20.1493 57.856 21.2427 57.568 22.544 57.568C24.016 57.568 25.2053 57.936 26.112 58.672C27.0187 59.408 27.5573 60.3893 27.728 61.616H25.216C25.1093 60.976 24.8107 60.4853 24.32 60.144C23.8293 59.8027 23.216 59.632 22.48 59.632C21.3813 59.632 20.528 60.0213 19.92 60.8C19.3227 61.568 19.024 62.5973 19.024 63.888C19.024 65.1893 19.3227 66.2293 19.92 67.008C20.528 67.776 21.3813 68.16 22.48 68.16C23.2267 68.16 23.84 67.984 24.32 67.632C24.8 67.2693 25.0987 66.736 25.216 66.032H27.728C27.5573 67.3227 27.0187 68.3467 26.112 69.104C25.216 69.8507 24.0267 70.224 22.544 70.224ZM33.4656 70.176C32.5696 70.176 31.775 69.9787 31.0816 69.584C30.3883 69.1893 29.8443 68.6347 29.4496 67.92C29.0656 67.2053 28.8736 66.384 28.8736 65.456C28.8736 64.56 29.0656 63.76 29.4496 63.056C29.8443 62.352 30.3883 61.808 31.0816 61.424C31.775 61.0293 32.5696 60.832 33.4656 60.832C34.3616 60.832 35.1563 61.0293 35.8496 61.424C36.5536 61.8187 37.0976 62.368 37.4816 63.072C37.8763 63.7653 38.0736 64.56 38.0736 65.456C38.0736 66.384 37.8816 67.2053 37.4976 67.92C37.1136 68.6347 36.5696 69.1893 35.8656 69.584C35.1723 69.9787 34.3723 70.176 33.4656 70.176ZM33.4656 68.32C34.1696 68.32 34.7403 68.0533 35.1776 67.52C35.615 66.9867 35.8336 66.2987 35.8336 65.456C35.8336 64.6453 35.615 63.984 35.1776 63.472C34.7403 62.9493 34.1696 62.688 33.4656 62.688C33.007 62.688 32.5963 62.8053 32.2336 63.04C31.871 63.2747 31.5883 63.6053 31.3856 64.032C31.183 64.448 31.0816 64.9227 31.0816 65.456C31.0816 66.3093 31.3003 67.0027 31.7376 67.536C32.1856 68.0587 32.7616 68.32 33.4656 68.32ZM39.6791 70V61.024H41.8391V62.16C42.1805 61.68 42.5485 61.3387 42.9431 61.136C43.3378 60.9333 43.7858 60.832 44.2871 60.832C45.6738 60.832 46.6071 61.3333 47.0871 62.336C47.2471 62.688 47.3485 63.0453 47.3911 63.408C47.4338 63.7707 47.4551 64.2453 47.4551 64.832V70H45.3111V64.8C45.3111 63.936 45.1618 63.3387 44.8631 63.008C44.6071 62.7413 44.2285 62.608 43.7271 62.608C43.1191 62.608 42.6658 62.7893 42.3671 63.152C42.1858 63.3653 42.0525 63.6533 41.9671 64.016C41.8818 64.368 41.8391 64.8373 41.8391 65.424V70H39.6791ZM49.9624 70V62.752H48.6024V61.024H49.9624V60.112C49.9624 59.3653 50.1757 58.7947 50.6024 58.4C51.029 57.9947 51.6424 57.792 52.4424 57.792H53.7864V59.504H52.9544C52.4104 59.504 52.1384 59.808 52.1384 60.416V61.024H53.7864V62.752H52.1384V70H49.9624ZM57.2584 70H55.0984V61.024H57.2584V70ZM56.1864 60.032C55.813 60.032 55.4984 59.92 55.2424 59.696C54.9864 59.472 54.8584 59.1733 54.8584 58.8C54.8584 58.448 54.9864 58.1547 55.2424 57.92C55.4984 57.6853 55.813 57.568 56.1864 57.568C56.549 57.568 56.8584 57.6853 57.1144 57.92C57.381 58.1547 57.5144 58.448 57.5144 58.8C57.5144 59.1627 57.3864 59.4613 57.1304 59.696C56.8744 59.92 56.5597 60.032 56.1864 60.032ZM63.3071 73.408C62.2405 73.408 61.3231 73.184 60.5551 72.736C59.7978 72.2987 59.3285 71.5467 59.1471 70.48H61.3231C61.4618 70.9173 61.6911 71.232 62.0111 71.424C62.3311 71.6267 62.7578 71.728 63.2911 71.728C63.9951 71.728 64.5178 71.568 64.8591 71.248C65.2005 70.928 65.3711 70.4907 65.3711 69.936V68.672C65.0191 69.1627 64.6405 69.504 64.2351 69.696C63.8405 69.888 63.3658 69.984 62.8111 69.984C62.0431 69.984 61.3605 69.792 60.7631 69.408C60.1658 69.0133 59.7018 68.4693 59.3711 67.776C59.0405 67.0827 58.8751 66.304 58.8751 65.44C58.8751 64.5547 59.0405 63.7653 59.3711 63.072C59.7018 62.368 60.1658 61.8187 60.7631 61.424C61.3605 61.0293 62.0431 60.832 62.8111 60.832C63.3658 60.832 63.8405 60.9333 64.2351 61.136C64.6405 61.328 65.0191 61.6693 65.3711 62.16V61.024H67.5311V69.424C67.5311 70.864 67.1525 71.888 66.3951 72.496C65.6485 73.104 64.6191 73.408 63.3071 73.408ZM63.3231 68.128C63.7711 68.128 64.1711 68.0107 64.5231 67.776C64.8751 67.5413 65.1471 67.216 65.3391 66.8C65.5418 66.384 65.6431 65.92 65.6431 65.408C65.6431 64.896 65.5418 64.432 65.3391 64.016C65.1471 63.6 64.8751 63.2747 64.5231 63.04C64.1711 62.8053 63.7711 62.688 63.3231 62.688C62.6405 62.688 62.0911 62.9493 61.6751 63.472C61.2591 63.984 61.0511 64.6293 61.0511 65.408C61.0511 66.1867 61.2591 66.8373 61.6751 67.36C62.0911 67.872 62.6405 68.128 63.3231 68.128ZM72.612 70.176C71.2253 70.176 70.292 69.68 69.812 68.688C69.6627 68.3893 69.5613 68.064 69.508 67.712C69.4547 67.3493 69.428 66.8427 69.428 66.192V61.024H71.588V66.208C71.588 66.6667 71.62 67.04 71.684 67.328C71.7587 67.6053 71.8707 67.8293 72.02 68C72.276 68.2667 72.6547 68.4 73.156 68.4C73.7747 68.4 74.2333 68.2187 74.532 67.856C74.7133 67.6427 74.8413 67.36 74.916 67.008C75.0013 66.656 75.044 66.1813 75.044 65.584V61.024H77.204V70H75.044V68.864C74.7133 69.3227 74.356 69.6587 73.972 69.872C73.5987 70.0747 73.1453 70.176 72.612 70.176ZM79.1791 70V61.024H81.3391V62.096C81.6698 61.6373 82.0378 61.312 82.4431 61.12C82.8591 60.928 83.3445 60.832 83.8991 60.832H84.1551V62.912H83.6591C82.9765 62.912 82.4431 63.0933 82.0591 63.456C81.8138 63.7013 81.6325 64.016 81.5151 64.4C81.3978 64.7733 81.3391 65.2533 81.3391 65.84V70H79.1791ZM87.9274 70.176C87.0527 70.176 86.3434 69.9467 85.7994 69.488C85.2554 69.0187 84.9834 68.368 84.9834 67.536C84.9834 66.64 85.3247 65.9573 86.0074 65.488C86.498 65.1467 87.1967 64.8907 88.1034 64.72L90.7754 64.224C90.754 63.6693 90.61 63.248 90.3434 62.96C90.0767 62.672 89.6767 62.528 89.1434 62.528C88.7274 62.528 88.3594 62.6507 88.0394 62.896C87.73 63.1413 87.538 63.472 87.4634 63.888H85.3194C85.4687 62.896 85.906 62.1387 86.6314 61.616C87.3567 61.0933 88.1994 60.832 89.1594 60.832C89.7034 60.832 90.21 60.912 90.6794 61.072C91.1487 61.2213 91.5487 61.4453 91.8794 61.744C92.21 62.032 92.45 62.368 92.5994 62.752C92.7487 63.136 92.8394 63.52 92.8714 63.904C92.914 64.288 92.9354 64.7627 92.9354 65.328V70H90.7754V68.784C90.5514 69.1787 90.2794 69.4773 89.9594 69.68C89.458 70.0107 88.7807 70.176 87.9274 70.176ZM88.4554 68.48C88.882 68.48 89.266 68.3947 89.6074 68.224C90.0554 68 90.3647 67.7013 90.5354 67.328C90.706 66.9547 90.802 66.448 90.8234 65.808L88.6794 66.24C88.1034 66.3467 87.6874 66.5173 87.4314 66.752C87.2394 66.944 87.1434 67.1787 87.1434 67.456C87.1434 67.7867 87.2607 68.0427 87.4954 68.224C87.7407 68.3947 88.0607 68.48 88.4554 68.48ZM99.5085 70.176C98.9538 70.176 98.4792 70.08 98.0845 69.888C97.6898 69.696 97.3165 69.3547 96.9645 68.864V70H94.8045V57.792H96.9645V62.16C97.3058 61.6693 97.6738 61.328 98.0685 61.136C98.4738 60.9333 98.9538 60.832 99.5085 60.832C100.287 60.832 100.975 61.0293 101.573 61.424C102.17 61.8187 102.634 62.3733 102.965 63.088C103.295 63.792 103.461 64.5973 103.461 65.504C103.461 66.4107 103.295 67.2213 102.965 67.936C102.634 68.64 102.17 69.1893 101.573 69.584C100.975 69.9787 100.287 70.176 99.5085 70.176ZM99.0125 68.32C99.6952 68.32 100.245 68.0587 100.661 67.536C101.077 67.0027 101.285 66.3253 101.285 65.504C101.285 64.6827 101.077 64.0107 100.661 63.488C100.245 62.9547 99.6952 62.688 99.0125 62.688C98.3298 62.688 97.7698 62.9493 97.3325 63.472C96.9058 63.9947 96.6925 64.672 96.6925 65.504C96.6925 66.336 96.9058 67.0133 97.3325 67.536C97.7698 68.0587 98.3298 68.32 99.0125 68.32ZM107.118 70C106.435 70 105.918 69.8453 105.566 69.536C105.214 69.216 105.038 68.7147 105.038 68.032V57.792H107.198V67.392C107.198 67.6907 107.251 67.904 107.358 68.032C107.475 68.1493 107.667 68.208 107.934 68.208H108.51V70H107.118ZM113.825 70.176C112.918 70.176 112.118 69.9787 111.425 69.584C110.731 69.1893 110.193 68.6453 109.809 67.952C109.435 67.248 109.249 66.4533 109.249 65.568C109.249 64.7467 109.414 63.9787 109.745 63.264C110.086 62.5387 110.593 61.952 111.265 61.504C111.947 61.056 112.779 60.832 113.761 60.832C114.571 60.832 115.318 61.0027 116.001 61.344C116.683 61.6747 117.233 62.192 117.649 62.896C118.065 63.5893 118.273 64.4533 118.273 65.488V65.952H111.489C111.521 66.3253 111.633 66.6773 111.825 67.008C112.038 67.424 112.321 67.7493 112.673 67.984C113.035 68.208 113.446 68.32 113.905 68.32C114.395 68.32 114.817 68.1973 115.169 67.952C115.521 67.696 115.771 67.3707 115.921 66.976H118.129C117.841 67.9253 117.334 68.6987 116.609 69.296C115.883 69.8827 114.955 70.176 113.825 70.176ZM116.065 64.336C116.022 63.9947 115.91 63.7173 115.729 63.504C115.526 63.1947 115.259 62.96 114.929 62.8C114.598 62.6293 114.23 62.544 113.825 62.544C113.419 62.544 113.051 62.624 112.721 62.784C112.401 62.944 112.139 63.184 111.937 63.504C111.745 63.7387 111.627 64.016 111.585 64.336H116.065ZM135.636 63.888C135.636 64.8693 135.476 65.7813 135.156 66.624C134.847 67.4667 134.388 68.176 133.78 68.752L135.444 71.392H132.868L131.908 69.872C131.226 70.1067 130.49 70.224 129.7 70.224C128.41 70.224 127.316 69.9413 126.42 69.376C125.535 68.8 124.874 68.032 124.436 67.072C123.999 66.112 123.78 65.0507 123.78 63.888C123.78 62.7253 123.999 61.6693 124.436 60.72C124.874 59.76 125.535 58.9973 126.42 58.432C127.316 57.856 128.41 57.568 129.7 57.568C131.002 57.568 132.095 57.856 132.98 58.432C133.876 58.9973 134.543 59.76 134.98 60.72C135.418 61.6693 135.636 62.7253 135.636 63.888ZM126.18 63.888C126.18 65.1787 126.49 66.2133 127.108 66.992C127.738 67.7707 128.602 68.16 129.7 68.16C130.81 68.16 131.674 67.7707 132.292 66.992C132.922 66.2133 133.236 65.1787 133.236 63.888C133.236 62.5973 132.922 61.568 132.292 60.8C131.674 60.032 130.81 59.648 129.7 59.648C128.602 59.648 127.738 60.0373 127.108 60.816C126.49 61.584 126.18 62.608 126.18 63.888ZM140.424 70.176C139.038 70.176 138.105 69.68 137.625 68.688C137.475 68.3893 137.374 68.064 137.321 67.712C137.267 67.3493 137.241 66.8427 137.241 66.192V61.024H139.401V66.208C139.401 66.6667 139.433 67.04 139.497 67.328C139.571 67.6053 139.683 67.8293 139.833 68C140.089 68.2667 140.467 68.4 140.969 68.4C141.587 68.4 142.046 68.2187 142.345 67.856C142.526 67.6427 142.654 67.36 142.729 67.008C142.814 66.656 142.857 66.1813 142.857 65.584V61.024H145.017V70H142.857V68.864C142.526 69.3227 142.169 69.6587 141.785 69.872C141.411 70.0747 140.958 70.176 140.424 70.176ZM151.2 70.176C150.293 70.176 149.493 69.9787 148.8 69.584C148.106 69.1893 147.568 68.6453 147.184 67.952C146.81 67.248 146.624 66.4533 146.624 65.568C146.624 64.7467 146.789 63.9787 147.12 63.264C147.461 62.5387 147.968 61.952 148.64 61.504C149.322 61.056 150.154 60.832 151.136 60.832C151.946 60.832 152.693 61.0027 153.376 61.344C154.058 61.6747 154.608 62.192 155.024 62.896C155.44 63.5893 155.648 64.4533 155.648 65.488V65.952H148.864C148.896 66.3253 149.008 66.6773 149.2 67.008C149.413 67.424 149.696 67.7493 150.048 67.984C150.41 68.208 150.821 68.32 151.28 68.32C151.77 68.32 152.192 68.1973 152.544 67.952C152.896 67.696 153.146 67.3707 153.296 66.976H155.504C155.216 67.9253 154.709 68.6987 153.984 69.296C153.258 69.8827 152.33 70.176 151.2 70.176ZM153.44 64.336C153.397 63.9947 153.285 63.7173 153.104 63.504C152.901 63.1947 152.634 62.96 152.304 62.8C151.973 62.6293 151.605 62.544 151.2 62.544C150.794 62.544 150.426 62.624 150.096 62.784C149.776 62.944 149.514 63.184 149.312 63.504C149.12 63.7387 149.002 64.016 148.96 64.336H153.44ZM161.114 70.176C160.005 70.176 159.045 69.9093 158.234 69.376C157.423 68.8427 156.949 68.0427 156.81 66.976H158.938C159.077 67.456 159.333 67.8293 159.706 68.096C160.079 68.352 160.543 68.48 161.098 68.48C161.567 68.48 161.946 68.3893 162.234 68.208C162.533 68.0267 162.682 67.7707 162.682 67.44C162.682 67.0773 162.506 66.816 162.154 66.656C161.813 66.496 161.279 66.3467 160.554 66.208C159.861 66.0693 159.285 65.92 158.826 65.76C158.367 65.6 157.978 65.344 157.658 64.992C157.338 64.6293 157.178 64.1387 157.178 63.52C157.178 62.6347 157.503 61.968 158.154 61.52C158.815 61.0613 159.647 60.832 160.65 60.832C161.706 60.832 162.581 61.0987 163.274 61.632C163.978 62.1653 164.41 62.9173 164.57 63.888H162.538C162.421 63.4187 162.191 63.0773 161.85 62.864C161.509 62.64 161.103 62.528 160.634 62.528C160.207 62.528 159.866 62.6133 159.61 62.784C159.365 62.944 159.242 63.1627 159.242 63.44C159.242 63.7707 159.407 64.0053 159.738 64.144C160.069 64.2827 160.591 64.4213 161.306 64.56C162.042 64.6987 162.639 64.848 163.098 65.008C163.567 65.1573 163.967 65.4133 164.298 65.776C164.639 66.1387 164.81 66.64 164.81 67.28C164.81 68.1653 164.479 68.8693 163.818 69.392C163.167 69.9147 162.266 70.176 161.114 70.176ZM169.214 70C167.817 70 167.118 69.344 167.118 68.032V62.752H165.79V61.024H167.118V57.792H169.278V61.024H171.006V62.752H169.278V67.376C169.278 67.6533 169.321 67.8613 169.406 68C169.502 68.1387 169.705 68.208 170.014 68.208H170.99V70H169.214ZM174.683 70H172.523V61.024H174.683V70ZM173.611 60.032C173.238 60.032 172.923 59.92 172.667 59.696C172.411 59.472 172.283 59.1733 172.283 58.8C172.283 58.448 172.411 58.1547 172.667 57.92C172.923 57.6853 173.238 57.568 173.611 57.568C173.974 57.568 174.283 57.6853 174.539 57.92C174.806 58.1547 174.939 58.448 174.939 58.8C174.939 59.1627 174.811 59.4613 174.555 59.696C174.299 59.92 173.984 60.032 173.611 60.032ZM180.872 70.176C179.976 70.176 179.181 69.9787 178.488 69.584C177.795 69.1893 177.251 68.6347 176.856 67.92C176.472 67.2053 176.28 66.384 176.28 65.456C176.28 64.56 176.472 63.76 176.856 63.056C177.251 62.352 177.795 61.808 178.488 61.424C179.181 61.0293 179.976 60.832 180.872 60.832C181.768 60.832 182.563 61.0293 183.256 61.424C183.96 61.8187 184.504 62.368 184.888 63.072C185.283 63.7653 185.48 64.56 185.48 65.456C185.48 66.384 185.288 67.2053 184.904 67.92C184.52 68.6347 183.976 69.1893 183.272 69.584C182.579 69.9787 181.779 70.176 180.872 70.176ZM180.872 68.32C181.576 68.32 182.147 68.0533 182.584 67.52C183.021 66.9867 183.24 66.2987 183.24 65.456C183.24 64.6453 183.021 63.984 182.584 63.472C182.147 62.9493 181.576 62.688 180.872 62.688C180.413 62.688 180.003 62.8053 179.64 63.04C179.277 63.2747 178.995 63.6053 178.792 64.032C178.589 64.448 178.488 64.9227 178.488 65.456C178.488 66.3093 178.707 67.0027 179.144 67.536C179.592 68.0587 180.168 68.32 180.872 68.32ZM187.085 70V61.024H189.245V62.16C189.587 61.68 189.955 61.3387 190.349 61.136C190.744 60.9333 191.192 60.832 191.693 60.832C193.08 60.832 194.013 61.3333 194.493 62.336C194.653 62.688 194.755 63.0453 194.797 63.408C194.84 63.7707 194.861 64.2453 194.861 64.832V70H192.717V64.8C192.717 63.936 192.568 63.3387 192.269 63.008C192.013 62.7413 191.635 62.608 191.133 62.608C190.525 62.608 190.072 62.7893 189.773 63.152C189.592 63.3653 189.459 63.6533 189.373 64.016C189.288 64.368 189.245 64.8373 189.245 65.424V70H187.085ZM206.014 70.224C205.161 70.224 204.345 70.0853 203.566 69.808C202.787 69.5307 202.126 69.0827 201.582 68.464C201.049 67.8347 200.734 67.024 200.638 66.032H203.022C203.203 66.832 203.566 67.4027 204.11 67.744C204.654 68.0853 205.294 68.256 206.03 68.256C206.702 68.256 207.241 68.1173 207.646 67.84C208.051 67.552 208.254 67.1307 208.254 66.576C208.254 66.1813 208.126 65.8667 207.87 65.632C207.614 65.3867 207.289 65.2053 206.894 65.088C206.51 64.96 205.982 64.8213 205.31 64.672C204.393 64.4693 203.651 64.2613 203.086 64.048C202.531 63.8347 202.051 63.4987 201.646 63.04C201.241 62.5813 201.038 61.952 201.038 61.152C201.038 60.384 201.225 59.7333 201.598 59.2C201.971 58.656 202.483 58.2507 203.134 57.984C203.785 57.7067 204.526 57.568 205.358 57.568C206.169 57.568 206.921 57.712 207.614 58C208.307 58.2773 208.889 58.7093 209.358 59.296C209.827 59.872 210.126 60.5813 210.254 61.424H207.902C207.753 60.7947 207.443 60.3253 206.974 60.016C206.515 59.696 205.961 59.536 205.31 59.536C204.713 59.536 204.233 59.664 203.87 59.92C203.507 60.1653 203.326 60.512 203.326 60.96C203.326 61.312 203.449 61.5947 203.694 61.808C203.939 62.0213 204.243 62.1867 204.606 62.304C204.969 62.4213 205.475 62.5547 206.126 62.704C207.054 62.9067 207.811 63.12 208.398 63.344C208.995 63.568 209.507 63.9307 209.934 64.432C210.361 64.9333 210.574 65.6107 210.574 66.464C210.574 67.6267 210.169 68.544 209.358 69.216C208.558 69.888 207.443 70.224 206.014 70.224ZM216.403 70.176C215.496 70.176 214.696 69.9787 214.003 69.584C213.309 69.1893 212.771 68.6453 212.387 67.952C212.013 67.248 211.827 66.4533 211.827 65.568C211.827 64.7467 211.992 63.9787 212.323 63.264C212.664 62.5387 213.171 61.952 213.843 61.504C214.525 61.056 215.357 60.832 216.339 60.832C217.149 60.832 217.896 61.0027 218.579 61.344C219.261 61.6747 219.811 62.192 220.227 62.896C220.643 63.5893 220.851 64.4533 220.851 65.488V65.952H214.067C214.099 66.3253 214.211 66.6773 214.403 67.008C214.616 67.424 214.899 67.7493 215.251 67.984C215.613 68.208 216.024 68.32 216.483 68.32C216.973 68.32 217.395 68.1973 217.747 67.952C218.099 67.696 218.349 67.3707 218.499 66.976H220.707C220.419 67.9253 219.912 68.6987 219.187 69.296C218.461 69.8827 217.533 70.176 216.403 70.176ZM218.643 64.336C218.6 63.9947 218.488 63.7173 218.307 63.504C218.104 63.1947 217.837 62.96 217.507 62.8C217.176 62.6293 216.808 62.544 216.403 62.544C215.997 62.544 215.629 62.624 215.299 62.784C214.979 62.944 214.717 63.184 214.515 63.504C214.323 63.7387 214.205 64.016 214.163 64.336H218.643ZM225.151 70C223.754 70 223.055 69.344 223.055 68.032V62.752H221.727V61.024H223.055V57.792H225.215V61.024H226.943V62.752H225.215V67.376C225.215 67.6533 225.258 67.8613 225.343 68C225.439 68.1387 225.642 68.208 225.951 68.208H226.927V70H225.151ZM232.348 70.176C231.239 70.176 230.279 69.9093 229.468 69.376C228.658 68.8427 228.183 68.0427 228.044 66.976H230.172C230.311 67.456 230.567 67.8293 230.94 68.096C231.314 68.352 231.778 68.48 232.332 68.48C232.802 68.48 233.18 68.3893 233.468 68.208C233.767 68.0267 233.916 67.7707 233.916 67.44C233.916 67.0773 233.74 66.816 233.388 66.656C233.047 66.496 232.514 66.3467 231.788 66.208C231.095 66.0693 230.519 65.92 230.06 65.76C229.602 65.6 229.212 65.344 228.892 64.992C228.572 64.6293 228.412 64.1387 228.412 63.52C228.412 62.6347 228.738 61.968 229.388 61.52C230.05 61.0613 230.882 60.832 231.884 60.832C232.94 60.832 233.815 61.0987 234.508 61.632C235.212 62.1653 235.644 62.9173 235.804 63.888H233.772C233.655 63.4187 233.426 63.0773 233.084 62.864C232.743 62.64 232.338 62.528 231.868 62.528C231.442 62.528 231.1 62.6133 230.844 62.784C230.599 62.944 230.476 63.1627 230.476 63.44C230.476 63.7707 230.642 64.0053 230.972 64.144C231.303 64.2827 231.826 64.4213 232.54 64.56C233.276 64.6987 233.874 64.848 234.332 65.008C234.802 65.1573 235.202 65.4133 235.532 65.776C235.874 66.1387 236.044 66.64 236.044 67.28C236.044 68.1653 235.714 68.8693 235.052 69.392C234.402 69.9147 233.5 70.176 232.348 70.176Z" fill="black"/>
<path d="M21.096 96H19.808V86.48H16.196V85.318H24.722V86.48H21.096V96ZM26.2193 96.14C25.4447 96.14 24.8287 95.944 24.3713 95.552C23.9233 95.16 23.6993 94.6233 23.6993 93.942C23.6993 93.27 23.9513 92.738 24.4553 92.346C24.866 92.0193 25.4587 91.7767 26.2333 91.618L28.9913 91.086C28.9913 90.4793 28.8327 90.0173 28.5153 89.7C28.1607 89.3453 27.6847 89.168 27.0873 89.168C26.6113 89.168 26.196 89.2987 25.8413 89.56C25.496 89.812 25.2767 90.1527 25.1833 90.582H23.9933C24.124 89.8073 24.4787 89.2053 25.0573 88.776C25.6453 88.3373 26.3267 88.118 27.1013 88.118C27.5587 88.118 27.9833 88.188 28.3753 88.328C28.7673 88.4587 29.0987 88.6547 29.3693 88.916C29.724 89.252 29.948 89.6393 30.0413 90.078C30.1347 90.5167 30.1813 90.9693 30.1813 91.436V96H28.9913V94.782C28.7207 95.174 28.408 95.4773 28.0533 95.692C27.5773 95.9907 26.966 96.14 26.2193 96.14ZM26.3593 95.09C26.8353 95.09 27.246 95.0013 27.5913 94.824C28.114 94.5533 28.478 94.194 28.6833 93.746C28.898 93.298 29.0053 92.7333 29.0053 92.052L26.4853 92.556C25.9067 92.668 25.482 92.85 25.2113 93.102C24.9967 93.3167 24.8893 93.5873 24.8893 93.914C24.8893 94.2687 25.02 94.5533 25.2813 94.768C25.552 94.9827 25.9113 95.09 26.3593 95.09ZM33.2918 96H32.1018V85.318H33.2918V91.352L36.6938 88.258H38.3458L34.5518 91.66L38.6958 96H37.0718L33.2918 91.954V96ZM42.8325 96.14C42.1045 96.14 41.4512 95.9673 40.8725 95.622C40.3032 95.2767 39.8599 94.8007 39.5425 94.194C39.2252 93.5873 39.0665 92.906 39.0665 92.15C39.0665 91.4313 39.2159 90.7687 39.5145 90.162C39.8132 89.546 40.2425 89.0513 40.8025 88.678C41.3719 88.3047 42.0392 88.118 42.8045 88.118C43.4672 88.118 44.0832 88.2673 44.6525 88.566C45.2219 88.8647 45.6792 89.3033 46.0245 89.882C46.3699 90.4513 46.5425 91.1373 46.5425 91.94V92.36H40.2425C40.2612 92.6307 40.3125 92.8873 40.3965 93.13C40.5925 93.7273 40.9052 94.2033 41.3345 94.558C41.7732 94.9127 42.2679 95.09 42.8185 95.09C43.3785 95.09 43.8592 94.9407 44.2605 94.642C44.6619 94.3433 44.9512 93.9653 45.1285 93.508H46.4025C46.1505 94.292 45.7212 94.9267 45.1145 95.412C44.5079 95.8973 43.7472 96.14 42.8325 96.14ZM45.2685 91.31C45.2499 91.03 45.1939 90.778 45.1005 90.554C44.9045 90.1153 44.6012 89.7747 44.1905 89.532C43.7892 89.2893 43.3365 89.168 42.8325 89.168C42.3192 89.168 41.8665 89.2893 41.4745 89.532C41.0919 89.7747 40.7932 90.1153 40.5785 90.554C40.4852 90.7593 40.4105 91.0113 40.3545 91.31H45.2685ZM55.547 96.14C54.819 96.14 54.1704 95.9673 53.601 95.622C53.0317 95.2767 52.5884 94.796 52.271 94.18C51.9537 93.564 51.795 92.8687 51.795 92.094C51.795 91.338 51.9537 90.6567 52.271 90.05C52.5884 89.4433 53.0317 88.972 53.601 88.636C54.1704 88.2907 54.819 88.118 55.547 88.118C56.415 88.118 57.1477 88.342 57.745 88.79C58.3517 89.2287 58.7437 89.826 58.921 90.582H57.647C57.4977 90.1527 57.2317 89.812 56.849 89.56C56.4757 89.2987 56.0417 89.168 55.547 89.168C55.0617 89.168 54.623 89.294 54.231 89.546C53.8484 89.798 53.545 90.148 53.321 90.596C53.097 91.0347 52.985 91.534 52.985 92.094C52.985 92.6727 53.0924 93.1907 53.307 93.648C53.531 94.096 53.839 94.4507 54.231 94.712C54.623 94.964 55.0617 95.09 55.547 95.09C56.079 95.09 56.5364 94.9453 56.919 94.656C57.311 94.3667 57.5724 93.984 57.703 93.508H58.977C58.809 94.3293 58.4124 94.9733 57.787 95.44C57.171 95.9067 56.4244 96.14 55.547 96.14ZM63.9969 96.14C63.2689 96.14 62.6156 95.9673 62.0369 95.622C61.4676 95.2767 61.0196 94.796 60.6929 94.18C60.3756 93.564 60.2169 92.8687 60.2169 92.094C60.2169 91.338 60.3756 90.6567 60.6929 90.05C61.0196 89.4433 61.4676 88.972 62.0369 88.636C62.6156 88.2907 63.2689 88.118 63.9969 88.118C64.7249 88.118 65.3783 88.2907 65.9569 88.636C66.5356 88.972 66.9883 89.4433 67.3149 90.05C67.6416 90.6567 67.8049 91.338 67.8049 92.094C67.8049 92.8687 67.6416 93.564 67.3149 94.18C66.9976 94.7867 66.5496 95.2673 65.9709 95.622C65.3923 95.9673 64.7343 96.14 63.9969 96.14ZM63.9969 95.09C64.4823 95.09 64.9209 94.9593 65.3129 94.698C65.7143 94.4367 66.0269 94.082 66.2509 93.634C66.4843 93.1767 66.6009 92.6633 66.6009 92.094C66.6009 91.5527 66.4889 91.058 66.2649 90.61C66.0409 90.162 65.7283 89.812 65.3269 89.56C64.9349 89.2987 64.4916 89.168 63.9969 89.168C63.5116 89.168 63.0683 89.294 62.6669 89.546C62.2749 89.798 61.9669 90.148 61.7429 90.596C61.5189 91.044 61.4069 91.5433 61.4069 92.094C61.4069 92.6633 61.5189 93.1767 61.7429 93.634C61.9669 94.0913 62.2749 94.4507 62.6669 94.712C63.0683 94.964 63.5116 95.09 63.9969 95.09ZM69.4803 96V88.258H70.6703V89.462C71.053 88.9673 71.4217 88.622 71.7763 88.426C72.1403 88.2207 72.537 88.118 72.9663 88.118C74.0583 88.118 74.819 88.524 75.2483 89.336C75.407 89.644 75.505 89.9613 75.5423 90.288C75.589 90.6053 75.6123 90.9553 75.6123 91.338V96H74.4223V91.338C74.4223 90.5167 74.273 89.938 73.9743 89.602C73.713 89.3127 73.3163 89.168 72.7843 89.168C72.1963 89.168 71.725 89.3593 71.3703 89.742C71.1183 90.0033 70.9363 90.3627 70.8243 90.82C70.7217 91.2773 70.6703 91.9027 70.6703 92.696V96H69.4803ZM79.7783 96C79.153 96 78.691 95.86 78.3923 95.58C78.0936 95.3 77.9443 94.7913 77.9443 94.054V89.308H76.6983V88.258H77.9443V85.318H79.1343V88.258H80.8703V89.308H79.1343V93.816C79.1343 94.0867 79.153 94.3013 79.1903 94.46C79.2276 94.6093 79.3116 94.7307 79.4423 94.824C79.573 94.908 79.7783 94.95 80.0583 94.95H80.8563V96H79.7783ZM82.3729 96V88.258H83.5629V89.322C83.9176 88.8927 84.2956 88.5847 84.6969 88.398C85.0982 88.2113 85.5649 88.118 86.0969 88.118H86.1529V89.308H85.7469C85.1216 89.308 84.6222 89.4947 84.2489 89.868C83.7916 90.3067 83.5629 90.9927 83.5629 91.926V96H82.3729ZM90.6161 96.14C89.8881 96.14 89.2347 95.9673 88.6561 95.622C88.0867 95.2767 87.6387 94.796 87.3121 94.18C86.9947 93.564 86.8361 92.8687 86.8361 92.094C86.8361 91.338 86.9947 90.6567 87.3121 90.05C87.6387 89.4433 88.0867 88.972 88.6561 88.636C89.2347 88.2907 89.8881 88.118 90.6161 88.118C91.3441 88.118 91.9974 88.2907 92.5761 88.636C93.1547 88.972 93.6074 89.4433 93.9341 90.05C94.2607 90.6567 94.4241 91.338 94.4241 92.094C94.4241 92.8687 94.2607 93.564 93.9341 94.18C93.6167 94.7867 93.1687 95.2673 92.5901 95.622C92.0114 95.9673 91.3534 96.14 90.6161 96.14ZM90.6161 95.09C91.1014 95.09 91.5401 94.9593 91.9321 94.698C92.3334 94.4367 92.6461 94.082 92.8701 93.634C93.1034 93.1767 93.2201 92.6633 93.2201 92.094C93.2201 91.5527 93.1081 91.058 92.8841 90.61C92.6601 90.162 92.3474 89.812 91.9461 89.56C91.5541 89.2987 91.1107 89.168 90.6161 89.168C90.1307 89.168 89.6874 89.294 89.2861 89.546C88.8941 89.798 88.5861 90.148 88.3621 90.596C88.1381 91.044 88.0261 91.5433 88.0261 92.094C88.0261 92.6633 88.1381 93.1767 88.3621 93.634C88.5861 94.0913 88.8941 94.4507 89.2861 94.712C89.6874 94.964 90.1307 95.09 90.6161 95.09ZM97.9055 96C97.2801 96 96.8181 95.86 96.5195 95.58C96.2208 95.3 96.0715 94.7913 96.0715 94.054V85.318H97.2615V93.872C97.2615 94.1427 97.2801 94.3527 97.3175 94.502C97.3548 94.642 97.4388 94.754 97.5695 94.838C97.7001 94.9127 97.9055 94.95 98.1855 94.95H98.5635V96H97.9055ZM107.364 96.14C106.636 96.14 105.983 95.9673 105.404 95.622C104.835 95.2767 104.387 94.796 104.06 94.18C103.743 93.564 103.584 92.8687 103.584 92.094C103.584 91.338 103.743 90.6567 104.06 90.05C104.387 89.4433 104.835 88.972 105.404 88.636C105.983 88.2907 106.636 88.118 107.364 88.118C108.092 88.118 108.745 88.2907 109.324 88.636C109.903 88.972 110.355 89.4433 110.682 90.05C111.009 90.6567 111.172 91.338 111.172 92.094C111.172 92.8687 111.009 93.564 110.682 94.18C110.365 94.7867 109.917 95.2673 109.338 95.622C108.759 95.9673 108.101 96.14 107.364 96.14ZM107.364 95.09C107.849 95.09 108.288 94.9593 108.68 94.698C109.081 94.4367 109.394 94.082 109.618 93.634C109.851 93.1767 109.968 92.6633 109.968 92.094C109.968 91.5527 109.856 91.058 109.632 90.61C109.408 90.162 109.095 89.812 108.694 89.56C108.302 89.2987 107.859 89.168 107.364 89.168C106.879 89.168 106.435 89.294 106.034 89.546C105.642 89.798 105.334 90.148 105.11 90.596C104.886 91.044 104.774 91.5433 104.774 92.094C104.774 92.6633 104.886 93.1767 105.11 93.634C105.334 94.0913 105.642 94.4507 106.034 94.712C106.435 94.964 106.879 95.09 107.364 95.09ZM113.314 96V89.308H112.026V88.258H113.314V87.418C113.314 86.7273 113.482 86.2047 113.818 85.85C114.154 85.4953 114.653 85.318 115.316 85.318H116.31V86.368H115.582C115.209 86.368 114.933 86.466 114.756 86.662C114.588 86.858 114.504 87.1613 114.504 87.572V88.258H116.31V89.308H114.504V96H113.314ZM121.515 98.94V97.848H122.243C122.477 97.848 122.654 97.8293 122.775 97.792C122.897 97.764 123.004 97.694 123.097 97.582C123.191 97.47 123.284 97.288 123.377 97.036L123.797 95.888L120.773 88.258H122.089L124.441 94.264L126.625 88.258H127.913L124.483 97.554C124.278 98.1047 124.045 98.4733 123.783 98.66C123.522 98.8467 123.149 98.94 122.663 98.94H121.515ZM132.657 96.14C131.929 96.14 131.276 95.9673 130.697 95.622C130.128 95.2767 129.68 94.796 129.353 94.18C129.036 93.564 128.877 92.8687 128.877 92.094C128.877 91.338 129.036 90.6567 129.353 90.05C129.68 89.4433 130.128 88.972 130.697 88.636C131.276 88.2907 131.929 88.118 132.657 88.118C133.385 88.118 134.038 88.2907 134.617 88.636C135.196 88.972 135.648 89.4433 135.975 90.05C136.302 90.6567 136.465 91.338 136.465 92.094C136.465 92.8687 136.302 93.564 135.975 94.18C135.658 94.7867 135.21 95.2673 134.631 95.622C134.052 95.9673 133.394 96.14 132.657 96.14ZM132.657 95.09C133.142 95.09 133.581 94.9593 133.973 94.698C134.374 94.4367 134.687 94.082 134.911 93.634C135.144 93.1767 135.261 92.6633 135.261 92.094C135.261 91.5527 135.149 91.058 134.925 90.61C134.701 90.162 134.388 89.812 133.987 89.56C133.595 89.2987 133.152 89.168 132.657 89.168C132.172 89.168 131.728 89.294 131.327 89.546C130.935 89.798 130.627 90.148 130.403 90.596C130.179 91.044 130.067 91.5433 130.067 92.094C130.067 92.6633 130.179 93.1767 130.403 93.634C130.627 94.0913 130.935 94.4507 131.327 94.712C131.728 94.964 132.172 95.09 132.657 95.09ZM140.758 96.14C139.676 96.14 138.915 95.734 138.476 94.922C138.234 94.4647 138.112 93.7973 138.112 92.92V88.258H139.302V92.92C139.302 93.7413 139.452 94.32 139.75 94.656C140.012 94.9453 140.408 95.09 140.94 95.09C141.528 95.09 142 94.8987 142.354 94.516C142.606 94.2547 142.784 93.8953 142.886 93.438C142.998 92.9807 143.054 92.3553 143.054 91.562V88.258H144.244V96H143.054V94.796C142.681 95.272 142.312 95.6173 141.948 95.832C141.594 96.0373 141.197 96.14 140.758 96.14ZM146.234 96V88.258H147.424V89.322C147.779 88.8927 148.157 88.5847 148.558 88.398C148.96 88.2113 149.426 88.118 149.958 88.118H150.014V89.308H149.608C148.983 89.308 148.484 89.4947 148.11 89.868C147.653 90.3067 147.424 90.9927 147.424 91.926V96H146.234ZM157.05 96C156.425 96 155.963 95.86 155.664 95.58C155.365 95.3 155.216 94.7913 155.216 94.054V85.318H156.406V93.872C156.406 94.1427 156.425 94.3527 156.462 94.502C156.499 94.642 156.583 94.754 156.714 94.838C156.845 94.9127 157.05 94.95 157.33 94.95H157.708V96H157.05ZM162.202 96.14C161.474 96.14 160.82 95.9673 160.242 95.622C159.672 95.2767 159.229 94.8007 158.912 94.194C158.594 93.5873 158.436 92.906 158.436 92.15C158.436 91.4313 158.585 90.7687 158.884 90.162C159.182 89.546 159.612 89.0513 160.172 88.678C160.741 88.3047 161.408 88.118 162.174 88.118C162.836 88.118 163.452 88.2673 164.022 88.566C164.591 88.8647 165.048 89.3033 165.394 89.882C165.739 90.4513 165.912 91.1373 165.912 91.94V92.36H159.612C159.63 92.6307 159.682 92.8873 159.766 93.13C159.962 93.7273 160.274 94.2033 160.704 94.558C161.142 94.9127 161.637 95.09 162.188 95.09C162.748 95.09 163.228 94.9407 163.63 94.642C164.031 94.3433 164.32 93.9653 164.498 93.508H165.772C165.52 94.292 165.09 94.9267 164.484 95.412C163.877 95.8973 163.116 96.14 162.202 96.14ZM164.638 91.31C164.619 91.03 164.563 90.778 164.47 90.554C164.274 90.1153 163.97 89.7747 163.56 89.532C163.158 89.2893 162.706 89.168 162.202 89.168C161.688 89.168 161.236 89.2893 160.844 89.532C160.461 89.7747 160.162 90.1153 159.948 90.554C159.854 90.7593 159.78 91.0113 159.724 91.31H164.638ZM169.76 96.14C168.986 96.14 168.37 95.944 167.912 95.552C167.464 95.16 167.24 94.6233 167.24 93.942C167.24 93.27 167.492 92.738 167.996 92.346C168.407 92.0193 169 91.7767 169.774 91.618L172.532 91.086C172.532 90.4793 172.374 90.0173 172.056 89.7C171.702 89.3453 171.226 89.168 170.628 89.168C170.152 89.168 169.737 89.2987 169.382 89.56C169.037 89.812 168.818 90.1527 168.724 90.582H167.534C167.665 89.8073 168.02 89.2053 168.598 88.776C169.186 88.3373 169.868 88.118 170.642 88.118C171.1 88.118 171.524 88.188 171.916 88.328C172.308 88.4587 172.64 88.6547 172.91 88.916C173.265 89.252 173.489 89.6393 173.582 90.078C173.676 90.5167 173.722 90.9693 173.722 91.436V96H172.532V94.782C172.262 95.174 171.949 95.4773 171.594 95.692C171.118 95.9907 170.507 96.14 169.76 96.14ZM169.9 95.09C170.376 95.09 170.787 95.0013 171.132 94.824C171.655 94.5533 172.019 94.194 172.224 93.746C172.439 93.298 172.546 92.7333 172.546 92.052L170.026 92.556C169.448 92.668 169.023 92.85 168.752 93.102C168.538 93.3167 168.43 93.5873 168.43 93.914C168.43 94.2687 168.561 94.5533 168.822 94.768C169.093 94.9827 169.452 95.09 169.9 95.09ZM175.629 96V88.258H176.819V89.322C177.173 88.8927 177.551 88.5847 177.953 88.398C178.354 88.2113 178.821 88.118 179.353 88.118H179.409V89.308H179.003C178.377 89.308 177.878 89.4947 177.505 89.868C177.047 90.3067 176.819 90.9927 176.819 91.926V96H175.629ZM180.715 96V88.258H181.905V89.462C182.287 88.9673 182.656 88.622 183.011 88.426C183.375 88.2207 183.771 88.118 184.201 88.118C185.293 88.118 186.053 88.524 186.483 89.336C186.641 89.644 186.739 89.9613 186.777 90.288C186.823 90.6053 186.847 90.9553 186.847 91.338V96H185.657V91.338C185.657 90.5167 185.507 89.938 185.209 89.602C184.947 89.3127 184.551 89.168 184.019 89.168C183.431 89.168 182.959 89.3593 182.605 89.742C182.353 90.0033 182.171 90.3627 182.059 90.82C181.956 91.2773 181.905 91.9027 181.905 92.696V96H180.715ZM189.971 96H188.781V88.258H189.971V96ZM189.383 86.928C189.131 86.928 188.916 86.844 188.739 86.676C188.562 86.4987 188.473 86.2887 188.473 86.046C188.473 85.8033 188.562 85.598 188.739 85.43C188.916 85.262 189.131 85.178 189.383 85.178C189.635 85.178 189.85 85.262 190.027 85.43C190.204 85.598 190.293 85.8033 190.293 86.046C190.293 86.2887 190.204 86.4987 190.027 86.676C189.85 86.844 189.635 86.928 189.383 86.928ZM191.953 96V88.258H193.143V89.462C193.526 88.9673 193.894 88.622 194.249 88.426C194.613 88.2207 195.01 88.118 195.439 88.118C196.531 88.118 197.292 88.524 197.721 89.336C197.88 89.644 197.978 89.9613 198.015 90.288C198.062 90.6053 198.085 90.9553 198.085 91.338V96H196.895V91.338C196.895 90.5167 196.746 89.938 196.447 89.602C196.186 89.3127 195.789 89.168 195.257 89.168C194.669 89.168 194.198 89.3593 193.843 89.742C193.591 90.0033 193.409 90.3627 193.297 90.82C193.194 91.2773 193.143 91.9027 193.143 92.696V96H191.953ZM203.435 99.08C202.549 99.08 201.783 98.8887 201.139 98.506C200.505 98.1233 200.117 97.498 199.977 96.63H201.195C201.438 97.5633 202.18 98.03 203.421 98.03C204.961 98.03 205.731 97.3393 205.731 95.958V94.796C205.339 95.3 204.952 95.65 204.569 95.846C204.187 96.042 203.729 96.14 203.197 96.14C202.516 96.14 201.914 95.972 201.391 95.636C200.869 95.3 200.463 94.8333 200.173 94.236C199.893 93.6293 199.753 92.9387 199.753 92.164C199.753 91.3707 199.893 90.6707 200.173 90.064C200.463 89.448 200.864 88.972 201.377 88.636C201.9 88.2907 202.502 88.118 203.183 88.118C203.725 88.118 204.187 88.2207 204.569 88.426C204.952 88.622 205.339 88.9673 205.731 89.462V88.258H206.921V95.734C206.921 96.9287 206.613 97.7827 205.997 98.296C205.381 98.8187 204.527 99.08 203.435 99.08ZM203.309 95.09C203.785 95.09 204.21 94.964 204.583 94.712C204.957 94.4507 205.246 94.096 205.451 93.648C205.666 93.2 205.773 92.6913 205.773 92.122C205.773 91.562 205.666 91.058 205.451 90.61C205.246 90.162 204.952 89.812 204.569 89.56C204.196 89.2987 203.776 89.168 203.309 89.168C202.833 89.168 202.413 89.2987 202.049 89.56C201.695 89.812 201.419 90.162 201.223 90.61C201.037 91.058 200.943 91.562 200.943 92.122C200.943 92.6913 201.037 93.2 201.223 93.648C201.419 94.096 201.695 94.4507 202.049 94.712C202.413 94.964 202.833 95.09 203.309 95.09ZM19.724 113H18.618L16.35 105.258H17.624L19.248 111.068L21.194 105.258H22.272L24.218 111.068L25.856 105.258H27.13L24.834 113H23.728L21.74 106.938L19.724 113ZM29.6684 113H28.4784V105.258H29.6684V113ZM29.0804 103.928C28.8284 103.928 28.6137 103.844 28.4364 103.676C28.259 103.499 28.1704 103.289 28.1704 103.046C28.1704 102.803 28.259 102.598 28.4364 102.43C28.6137 102.262 28.8284 102.178 29.0804 102.178C29.3324 102.178 29.547 102.262 29.7244 102.43C29.9017 102.598 29.9904 102.803 29.9904 103.046C29.9904 103.289 29.9017 103.499 29.7244 103.676C29.547 103.844 29.3324 103.928 29.0804 103.928ZM34.1143 113C33.4889 113 33.0269 112.86 32.7283 112.58C32.4296 112.3 32.2803 111.791 32.2803 111.054V106.308H31.0343V105.258H32.2803V102.318H33.4703V105.258H35.2063V106.308H33.4703V110.816C33.4703 111.087 33.4889 111.301 33.5263 111.46C33.5636 111.609 33.6476 111.731 33.7783 111.824C33.9089 111.908 34.1143 111.95 34.3943 111.95H35.1923V113H34.1143ZM36.7228 113V102.318H37.9128V106.462C38.2955 105.967 38.6642 105.622 39.0188 105.426C39.3828 105.221 39.7795 105.118 40.2088 105.118C41.3008 105.118 42.0615 105.524 42.4908 106.336C42.6495 106.644 42.7475 106.961 42.7848 107.288C42.8315 107.605 42.8548 107.955 42.8548 108.338V113H41.6648V108.338C41.6648 107.517 41.5155 106.938 41.2168 106.602C40.9555 106.313 40.5588 106.168 40.0268 106.168C39.4388 106.168 38.9675 106.359 38.6128 106.742C38.3608 107.003 38.1788 107.363 38.0668 107.82C37.9642 108.277 37.9128 108.903 37.9128 109.696V113H36.7228ZM52.1428 113.14C51.4148 113.14 50.7661 112.967 50.1968 112.622C49.6274 112.277 49.1841 111.796 48.8668 111.18C48.5494 110.564 48.3908 109.869 48.3908 109.094C48.3908 108.338 48.5494 107.657 48.8668 107.05C49.1841 106.443 49.6274 105.972 50.1968 105.636C50.7661 105.291 51.4148 105.118 52.1428 105.118C53.0108 105.118 53.7434 105.342 54.3408 105.79C54.9474 106.229 55.3394 106.826 55.5168 107.582H54.2428C54.0934 107.153 53.8274 106.812 53.4448 106.56C53.0714 106.299 52.6374 106.168 52.1428 106.168C51.6574 106.168 51.2188 106.294 50.8268 106.546C50.4441 106.798 50.1408 107.148 49.9168 107.596C49.6928 108.035 49.5808 108.534 49.5808 109.094C49.5808 109.673 49.6881 110.191 49.9028 110.648C50.1268 111.096 50.4348 111.451 50.8268 111.712C51.2188 111.964 51.6574 112.09 52.1428 112.09C52.6748 112.09 53.1321 111.945 53.5148 111.656C53.9068 111.367 54.1681 110.984 54.2988 110.508H55.5728C55.4048 111.329 55.0081 111.973 54.3828 112.44C53.7668 112.907 53.0201 113.14 52.1428 113.14ZM59.7526 113.14C58.67 113.14 57.9093 112.734 57.4706 111.922C57.228 111.465 57.1066 110.797 57.1066 109.92V105.258H58.2966V109.92C58.2966 110.741 58.446 111.32 58.7446 111.656C59.006 111.945 59.4026 112.09 59.9346 112.09C60.5226 112.09 60.994 111.899 61.3486 111.516C61.6006 111.255 61.778 110.895 61.8806 110.438C61.9926 109.981 62.0486 109.355 62.0486 108.562V105.258H63.2386V113H62.0486V111.796C61.6753 112.272 61.3066 112.617 60.9426 112.832C60.588 113.037 60.1913 113.14 59.7526 113.14ZM68.3504 113.14C67.3704 113.14 66.5724 112.907 65.9564 112.44C65.3404 111.973 64.967 111.329 64.8364 110.508H66.0824C66.185 111.003 66.423 111.39 66.7964 111.67C67.179 111.95 67.7017 112.09 68.3644 112.09C68.9057 112.09 69.335 111.987 69.6524 111.782C69.979 111.577 70.1424 111.283 70.1424 110.9C70.1424 110.601 70.0444 110.363 69.8484 110.186C69.6617 109.999 69.419 109.859 69.1204 109.766C68.831 109.673 68.4437 109.579 67.9584 109.486C67.3517 109.365 66.8617 109.243 66.4884 109.122C66.1244 108.991 65.8117 108.786 65.5504 108.506C65.289 108.226 65.1584 107.839 65.1584 107.344C65.1584 106.644 65.4197 106.098 65.9424 105.706C66.4744 105.314 67.151 105.118 67.9724 105.118C68.8124 105.118 69.5124 105.337 70.0724 105.776C70.6324 106.215 70.9777 106.817 71.1084 107.582H70.0024C69.8904 107.106 69.657 106.751 69.3024 106.518C68.9477 106.285 68.5044 106.168 67.9724 106.168C67.459 106.168 67.0577 106.266 66.7684 106.462C66.4884 106.649 66.3484 106.91 66.3484 107.246C66.3484 107.507 66.437 107.713 66.6144 107.862C66.7917 108.011 67.011 108.128 67.2724 108.212C67.5337 108.287 67.9024 108.371 68.3784 108.464C69.0037 108.585 69.5124 108.716 69.9044 108.856C70.2964 108.987 70.6324 109.206 70.9124 109.514C71.1924 109.813 71.3324 110.233 71.3324 110.774C71.3324 111.502 71.071 112.081 70.5484 112.51C70.0257 112.93 69.293 113.14 68.3504 113.14ZM75.3896 113C74.7643 113 74.3023 112.86 74.0036 112.58C73.705 112.3 73.5556 111.791 73.5556 111.054V106.308H72.3096V105.258H73.5556V102.318H74.7456V105.258H76.4816V106.308H74.7456V110.816C74.7456 111.087 74.7643 111.301 74.8016 111.46C74.839 111.609 74.923 111.731 75.0536 111.824C75.1843 111.908 75.3896 111.95 75.6696 111.95H76.4676V113H75.3896ZM81.2235 113.14C80.4955 113.14 79.8422 112.967 79.2635 112.622C78.6942 112.277 78.2462 111.796 77.9195 111.18C77.6022 110.564 77.4435 109.869 77.4435 109.094C77.4435 108.338 77.6022 107.657 77.9195 107.05C78.2462 106.443 78.6942 105.972 79.2635 105.636C79.8422 105.291 80.4955 105.118 81.2235 105.118C81.9515 105.118 82.6048 105.291 83.1835 105.636C83.7622 105.972 84.2148 106.443 84.5415 107.05C84.8682 107.657 85.0315 108.338 85.0315 109.094C85.0315 109.869 84.8682 110.564 84.5415 111.18C84.2242 111.787 83.7762 112.267 83.1975 112.622C82.6188 112.967 81.9608 113.14 81.2235 113.14ZM81.2235 112.09C81.7088 112.09 82.1475 111.959 82.5395 111.698C82.9408 111.437 83.2535 111.082 83.4775 110.634C83.7108 110.177 83.8275 109.663 83.8275 109.094C83.8275 108.553 83.7155 108.058 83.4915 107.61C83.2675 107.162 82.9548 106.812 82.5535 106.56C82.1615 106.299 81.7182 106.168 81.2235 106.168C80.7382 106.168 80.2948 106.294 79.8935 106.546C79.5015 106.798 79.1935 107.148 78.9695 107.596C78.7455 108.044 78.6335 108.543 78.6335 109.094C78.6335 109.663 78.7455 110.177 78.9695 110.634C79.1935 111.091 79.5015 111.451 79.8935 111.712C80.2948 111.964 80.7382 112.09 81.2235 112.09ZM86.7069 113V105.258H87.8969V106.462C88.2796 105.967 88.6482 105.622 89.0029 105.426C89.3669 105.221 89.7636 105.118 90.1929 105.118C90.7156 105.118 91.1729 105.239 91.5649 105.482C91.9662 105.725 92.2229 106.079 92.3349 106.546C92.8202 105.594 93.6369 105.118 94.7849 105.118C95.6436 105.118 96.2876 105.365 96.7169 105.86C97.1462 106.345 97.3609 107.045 97.3609 107.96V113H96.1709V108.24C96.1709 107.577 96.0309 107.069 95.7509 106.714C95.4802 106.35 95.0976 106.168 94.6029 106.168C94.0896 106.168 93.6696 106.341 93.3429 106.686C93.0816 106.966 92.8949 107.33 92.7829 107.778C92.6802 108.226 92.6289 108.8 92.6289 109.5V113H91.4389V108.24C91.4389 107.587 91.2942 107.078 91.0049 106.714C90.7249 106.35 90.3422 106.168 89.8569 106.168C89.3436 106.168 88.9236 106.355 88.5969 106.728C88.3542 106.999 88.1769 107.349 88.0649 107.778C87.9529 108.207 87.8969 108.781 87.8969 109.5V113H86.7069ZM100.489 113H99.2987V105.258H100.489V113ZM99.9007 103.928C99.6487 103.928 99.434 103.844 99.2567 103.676C99.0794 103.499 98.9907 103.289 98.9907 103.046C98.9907 102.803 99.0794 102.598 99.2567 102.43C99.434 102.262 99.6487 102.178 99.9007 102.178C100.153 102.178 100.367 102.262 100.545 102.43C100.722 102.598 100.811 102.803 100.811 103.046C100.811 103.289 100.722 103.499 100.545 103.676C100.367 103.844 100.153 103.928 99.9007 103.928ZM108.393 113H101.953V111.992L106.993 106.308H102.219V105.258H108.435V106.378L103.493 111.95H108.393V113ZM112.133 113.14C111.359 113.14 110.743 112.944 110.285 112.552C109.837 112.16 109.613 111.623 109.613 110.942C109.613 110.27 109.865 109.738 110.369 109.346C110.78 109.019 111.373 108.777 112.147 108.618L114.905 108.086C114.905 107.479 114.747 107.017 114.429 106.7C114.075 106.345 113.599 106.168 113.001 106.168C112.525 106.168 112.11 106.299 111.755 106.56C111.41 106.812 111.191 107.153 111.097 107.582H109.907C110.038 106.807 110.393 106.205 110.971 105.776C111.559 105.337 112.241 105.118 113.015 105.118C113.473 105.118 113.897 105.188 114.289 105.328C114.681 105.459 115.013 105.655 115.283 105.916C115.638 106.252 115.862 106.639 115.955 107.078C116.049 107.517 116.095 107.969 116.095 108.436V113H114.905V111.782C114.635 112.174 114.322 112.477 113.967 112.692C113.491 112.991 112.88 113.14 112.133 113.14ZM112.273 112.09C112.749 112.09 113.16 112.001 113.505 111.824C114.028 111.553 114.392 111.194 114.597 110.746C114.812 110.298 114.919 109.733 114.919 109.052L112.399 109.556C111.821 109.668 111.396 109.85 111.125 110.102C110.911 110.317 110.803 110.587 110.803 110.914C110.803 111.269 110.934 111.553 111.195 111.768C111.466 111.983 111.825 112.09 112.273 112.09ZM121.74 113.14C121.198 113.14 120.736 113.042 120.354 112.846C119.971 112.641 119.588 112.291 119.206 111.796V113H118.016V102.318H119.206V106.462C119.598 105.958 119.985 105.608 120.368 105.412C120.75 105.216 121.208 105.118 121.74 105.118C122.43 105.118 123.032 105.286 123.546 105.622C124.068 105.958 124.47 106.434 124.75 107.05C125.039 107.657 125.184 108.352 125.184 109.136C125.184 109.92 125.039 110.615 124.75 111.222C124.47 111.829 124.068 112.3 123.546 112.636C123.023 112.972 122.421 113.14 121.74 113.14ZM121.628 112.09C122.104 112.09 122.519 111.964 122.874 111.712C123.238 111.451 123.513 111.096 123.7 110.648C123.896 110.2 123.994 109.696 123.994 109.136C123.994 108.567 123.896 108.058 123.7 107.61C123.513 107.162 123.238 106.812 122.874 106.56C122.519 106.299 122.104 106.168 121.628 106.168C121.152 106.168 120.727 106.299 120.354 106.56C119.98 106.812 119.686 107.162 119.472 107.61C119.266 108.058 119.164 108.567 119.164 109.136C119.164 109.696 119.266 110.205 119.472 110.662C119.686 111.11 119.98 111.46 120.354 111.712C120.727 111.964 121.152 112.09 121.628 112.09ZM128.681 113C128.056 113 127.594 112.86 127.295 112.58C126.996 112.3 126.847 111.791 126.847 111.054V102.318H128.037V110.872C128.037 111.143 128.056 111.353 128.093 111.502C128.13 111.642 128.214 111.754 128.345 111.838C128.476 111.913 128.681 111.95 128.961 111.95H129.339V113H128.681ZM133.833 113.14C133.105 113.14 132.451 112.967 131.873 112.622C131.303 112.277 130.86 111.801 130.543 111.194C130.225 110.587 130.067 109.906 130.067 109.15C130.067 108.431 130.216 107.769 130.515 107.162C130.813 106.546 131.243 106.051 131.803 105.678C132.372 105.305 133.039 105.118 133.805 105.118C134.467 105.118 135.083 105.267 135.653 105.566C136.222 105.865 136.679 106.303 137.025 106.882C137.37 107.451 137.543 108.137 137.543 108.94V109.36H131.243C131.261 109.631 131.313 109.887 131.397 110.13C131.593 110.727 131.905 111.203 132.335 111.558C132.773 111.913 133.268 112.09 133.819 112.09C134.379 112.09 134.859 111.941 135.261 111.642C135.662 111.343 135.951 110.965 136.129 110.508H137.403C137.151 111.292 136.721 111.927 136.115 112.412C135.508 112.897 134.747 113.14 133.833 113.14ZM136.269 108.31C136.25 108.03 136.194 107.778 136.101 107.554C135.905 107.115 135.601 106.775 135.191 106.532C134.789 106.289 134.337 106.168 133.833 106.168C133.319 106.168 132.867 106.289 132.475 106.532C132.092 106.775 131.793 107.115 131.579 107.554C131.485 107.759 131.411 108.011 131.355 108.31H136.269ZM150.789 115.94C150.08 115.94 149.571 115.795 149.263 115.506C148.955 115.226 148.801 114.759 148.801 114.106V111.796C148.409 112.3 148.022 112.65 147.639 112.846C147.256 113.042 146.799 113.14 146.267 113.14C145.576 113.14 144.97 112.972 144.447 112.636C143.934 112.3 143.532 111.829 143.243 111.222C142.963 110.606 142.823 109.906 142.823 109.122C142.823 108.338 142.963 107.643 143.243 107.036C143.532 106.429 143.938 105.958 144.461 105.622C144.984 105.286 145.586 105.118 146.267 105.118C146.808 105.118 147.27 105.221 147.653 105.426C148.036 105.622 148.418 105.967 148.801 106.462V105.258H149.991V114.204C149.991 114.428 150.052 114.591 150.173 114.694C150.304 114.797 150.509 114.848 150.789 114.848H151.475V115.94H150.789ZM146.379 112.09C146.855 112.09 147.28 111.964 147.653 111.712C148.026 111.451 148.316 111.096 148.521 110.648C148.736 110.2 148.843 109.691 148.843 109.122C148.843 108.562 148.736 108.058 148.521 107.61C148.316 107.162 148.022 106.812 147.639 106.56C147.266 106.299 146.846 106.168 146.379 106.168C145.903 106.168 145.483 106.299 145.119 106.56C144.764 106.812 144.489 107.162 144.293 107.61C144.106 108.058 144.013 108.562 144.013 109.122C144.013 109.691 144.106 110.2 144.293 110.648C144.489 111.096 144.764 111.451 145.119 111.712C145.483 111.964 145.903 112.09 146.379 112.09ZM154.594 113.14C153.512 113.14 152.751 112.734 152.312 111.922C152.07 111.465 151.948 110.797 151.948 109.92V105.258H153.138V109.92C153.138 110.741 153.288 111.32 153.586 111.656C153.848 111.945 154.244 112.09 154.776 112.09C155.364 112.09 155.836 111.899 156.19 111.516C156.442 111.255 156.62 110.895 156.722 110.438C156.834 109.981 156.89 109.355 156.89 108.562V105.258H158.08V113H156.89V111.796C156.517 112.272 156.148 112.617 155.784 112.832C155.43 113.037 155.033 113.14 154.594 113.14ZM163.514 113.14C162.786 113.14 162.133 112.967 161.554 112.622C160.985 112.277 160.542 111.801 160.224 111.194C159.907 110.587 159.748 109.906 159.748 109.15C159.748 108.431 159.898 107.769 160.196 107.162C160.495 106.546 160.924 106.051 161.484 105.678C162.054 105.305 162.721 105.118 163.486 105.118C164.149 105.118 164.765 105.267 165.334 105.566C165.904 105.865 166.361 106.303 166.706 106.882C167.052 107.451 167.224 108.137 167.224 108.94V109.36H160.924C160.943 109.631 160.994 109.887 161.078 110.13C161.274 110.727 161.587 111.203 162.016 111.558C162.455 111.913 162.95 112.09 163.5 112.09C164.06 112.09 164.541 111.941 164.942 111.642C165.344 111.343 165.633 110.965 165.81 110.508H167.084C166.832 111.292 166.403 111.927 165.796 112.412C165.19 112.897 164.429 113.14 163.514 113.14ZM165.95 108.31C165.932 108.03 165.876 107.778 165.782 107.554C165.586 107.115 165.283 106.775 164.872 106.532C164.471 106.289 164.018 106.168 163.514 106.168C163.001 106.168 162.548 106.289 162.156 106.532C161.774 106.775 161.475 107.115 161.26 107.554C161.167 107.759 161.092 108.011 161.036 108.31H165.95ZM171.997 113.14C171.017 113.14 170.219 112.907 169.603 112.44C168.987 111.973 168.614 111.329 168.483 110.508H169.729C169.832 111.003 170.07 111.39 170.443 111.67C170.826 111.95 171.348 112.09 172.011 112.09C172.552 112.09 172.982 111.987 173.299 111.782C173.626 111.577 173.789 111.283 173.789 110.9C173.789 110.601 173.691 110.363 173.495 110.186C173.308 109.999 173.066 109.859 172.767 109.766C172.478 109.673 172.09 109.579 171.605 109.486C170.998 109.365 170.508 109.243 170.135 109.122C169.771 108.991 169.458 108.786 169.197 108.506C168.936 108.226 168.805 107.839 168.805 107.344C168.805 106.644 169.066 106.098 169.589 105.706C170.121 105.314 170.798 105.118 171.619 105.118C172.459 105.118 173.159 105.337 173.719 105.776C174.279 106.215 174.624 106.817 174.755 107.582H173.649C173.537 107.106 173.304 106.751 172.949 106.518C172.594 106.285 172.151 106.168 171.619 106.168C171.106 106.168 170.704 106.266 170.415 106.462C170.135 106.649 169.995 106.91 169.995 107.246C169.995 107.507 170.084 107.713 170.261 107.862C170.438 108.011 170.658 108.128 170.919 108.212C171.18 108.287 171.549 108.371 172.025 108.464C172.65 108.585 173.159 108.716 173.551 108.856C173.943 108.987 174.279 109.206 174.559 109.514C174.839 109.813 174.979 110.233 174.979 110.774C174.979 111.502 174.718 112.081 174.195 112.51C173.672 112.93 172.94 113.14 171.997 113.14ZM179.036 113C178.411 113 177.949 112.86 177.65 112.58C177.351 112.3 177.202 111.791 177.202 111.054V106.308H175.956V105.258H177.202V102.318H178.392V105.258H180.128V106.308H178.392V110.816C178.392 111.087 178.411 111.301 178.448 111.46C178.485 111.609 178.569 111.731 178.7 111.824C178.831 111.908 179.036 111.95 179.316 111.95H180.114V113H179.036ZM182.821 113H181.631V105.258H182.821V113ZM182.233 103.928C181.981 103.928 181.766 103.844 181.589 103.676C181.411 103.499 181.323 103.289 181.323 103.046C181.323 102.803 181.411 102.598 181.589 102.43C181.766 102.262 181.981 102.178 182.233 102.178C182.485 102.178 182.699 102.262 182.877 102.43C183.054 102.598 183.143 102.803 183.143 103.046C183.143 103.289 183.054 103.499 182.877 103.676C182.699 103.844 182.485 103.928 182.233 103.928ZM188.261 113.14C187.533 113.14 186.879 112.967 186.301 112.622C185.731 112.277 185.283 111.796 184.957 111.18C184.639 110.564 184.481 109.869 184.481 109.094C184.481 108.338 184.639 107.657 184.957 107.05C185.283 106.443 185.731 105.972 186.301 105.636C186.879 105.291 187.533 105.118 188.261 105.118C188.989 105.118 189.642 105.291 190.221 105.636C190.799 105.972 191.252 106.443 191.579 107.05C191.905 107.657 192.069 108.338 192.069 109.094C192.069 109.869 191.905 110.564 191.579 111.18C191.261 111.787 190.813 112.267 190.235 112.622C189.656 112.967 188.998 113.14 188.261 113.14ZM188.261 112.09C188.746 112.09 189.185 111.959 189.577 111.698C189.978 111.437 190.291 111.082 190.515 110.634C190.748 110.177 190.865 109.663 190.865 109.094C190.865 108.553 190.753 108.058 190.529 107.61C190.305 107.162 189.992 106.812 189.591 106.56C189.199 106.299 188.755 106.168 188.261 106.168C187.775 106.168 187.332 106.294 186.931 106.546C186.539 106.798 186.231 107.148 186.007 107.596C185.783 108.044 185.671 108.543 185.671 109.094C185.671 109.663 185.783 110.177 186.007 110.634C186.231 111.091 186.539 111.451 186.931 111.712C187.332 111.964 187.775 112.09 188.261 112.09ZM193.744 113V105.258H194.934V106.462C195.317 105.967 195.685 105.622 196.04 105.426C196.404 105.221 196.801 105.118 197.23 105.118C198.322 105.118 199.083 105.524 199.512 106.336C199.671 106.644 199.769 106.961 199.806 107.288C199.853 107.605 199.876 107.955 199.876 108.338V113H198.686V108.338C198.686 107.517 198.537 106.938 198.238 106.602C197.977 106.313 197.58 106.168 197.048 106.168C196.46 106.168 195.989 106.359 195.634 106.742C195.382 107.003 195.2 107.363 195.088 107.82C194.985 108.277 194.934 108.903 194.934 109.696V113H193.744ZM20.116 130.14C19.136 130.14 18.338 129.907 17.722 129.44C17.106 128.973 16.7327 128.329 16.602 127.508H17.848C17.9507 128.003 18.1887 128.39 18.562 128.67C18.9447 128.95 19.4673 129.09 20.13 129.09C20.6713 129.09 21.1007 128.987 21.418 128.782C21.7447 128.577 21.908 128.283 21.908 127.9C21.908 127.601 21.81 127.363 21.614 127.186C21.4273 126.999 21.1847 126.859 20.886 126.766C20.5967 126.673 20.2093 126.579 19.724 126.486C19.1173 126.365 18.6273 126.243 18.254 126.122C17.89 125.991 17.5773 125.786 17.316 125.506C17.0547 125.226 16.924 124.839 16.924 124.344C16.924 123.644 17.1853 123.098 17.708 122.706C18.24 122.314 18.9167 122.118 19.738 122.118C20.578 122.118 21.278 122.337 21.838 122.776C22.398 123.215 22.7433 123.817 22.874 124.582H21.768C21.656 124.106 21.4227 123.751 21.068 123.518C20.7133 123.285 20.27 123.168 19.738 123.168C19.2247 123.168 18.8233 123.266 18.534 123.462C18.254 123.649 18.114 123.91 18.114 124.246C18.114 124.507 18.2027 124.713 18.38 124.862C18.5573 125.011 18.7767 125.128 19.038 125.212C19.2993 125.287 19.668 125.371 20.144 125.464C20.7693 125.585 21.278 125.716 21.67 125.856C22.062 125.987 22.398 126.206 22.678 126.514C22.958 126.813 23.098 127.233 23.098 127.774C23.098 128.502 22.8367 129.081 22.314 129.51C21.7913 129.93 21.0587 130.14 20.116 130.14ZM28.231 130.14C27.503 130.14 26.8496 129.967 26.271 129.622C25.7016 129.277 25.2583 128.801 24.941 128.194C24.6236 127.587 24.465 126.906 24.465 126.15C24.465 125.431 24.6143 124.769 24.913 124.162C25.2116 123.546 25.641 123.051 26.201 122.678C26.7703 122.305 27.4376 122.118 28.203 122.118C28.8656 122.118 29.4816 122.267 30.051 122.566C30.6203 122.865 31.0776 123.303 31.423 123.882C31.7683 124.451 31.941 125.137 31.941 125.94V126.36H25.641C25.6596 126.631 25.711 126.887 25.795 127.13C25.991 127.727 26.3036 128.203 26.733 128.558C27.1716 128.913 27.6663 129.09 28.217 129.09C28.777 129.09 29.2576 128.941 29.659 128.642C30.0603 128.343 30.3496 127.965 30.527 127.508H31.801C31.549 128.292 31.1196 128.927 30.513 129.412C29.9063 129.897 29.1456 130.14 28.231 130.14ZM30.667 125.31C30.6483 125.03 30.5923 124.778 30.499 124.554C30.303 124.115 29.9996 123.775 29.589 123.532C29.1876 123.289 28.735 123.168 28.231 123.168C27.7176 123.168 27.265 123.289 26.873 123.532C26.4903 123.775 26.1916 124.115 25.977 124.554C25.8836 124.759 25.809 125.011 25.753 125.31H30.667ZM35.8506 130C35.2252 130 34.7632 129.86 34.4646 129.58C34.1659 129.3 34.0166 128.791 34.0166 128.054V123.308H32.7706V122.258H34.0166V119.318H35.2066V122.258H36.9426V123.308H35.2066V127.816C35.2066 128.087 35.2252 128.301 35.2626 128.46C35.2999 128.609 35.3839 128.731 35.5146 128.824C35.6452 128.908 35.8506 128.95 36.1306 128.95H36.9286V130H35.8506ZM41.5672 130.14C40.5872 130.14 39.7892 129.907 39.1732 129.44C38.5572 128.973 38.1838 128.329 38.0532 127.508H39.2992C39.4018 128.003 39.6398 128.39 40.0132 128.67C40.3958 128.95 40.9185 129.09 41.5812 129.09C42.1225 129.09 42.5518 128.987 42.8692 128.782C43.1958 128.577 43.3592 128.283 43.3592 127.9C43.3592 127.601 43.2612 127.363 43.0652 127.186C42.8785 126.999 42.6358 126.859 42.3372 126.766C42.0478 126.673 41.6605 126.579 41.1752 126.486C40.5685 126.365 40.0785 126.243 39.7052 126.122C39.3412 125.991 39.0285 125.786 38.7672 125.506C38.5058 125.226 38.3752 124.839 38.3752 124.344C38.3752 123.644 38.6365 123.098 39.1592 122.706C39.6912 122.314 40.3678 122.118 41.1892 122.118C42.0292 122.118 42.7292 122.337 43.2892 122.776C43.8492 123.215 44.1945 123.817 44.3252 124.582H43.2192C43.1072 124.106 42.8738 123.751 42.5192 123.518C42.1645 123.285 41.7212 123.168 41.1892 123.168C40.6758 123.168 40.2745 123.266 39.9852 123.462C39.7052 123.649 39.5652 123.91 39.5652 124.246C39.5652 124.507 39.6538 124.713 39.8312 124.862C40.0085 125.011 40.2278 125.128 40.4892 125.212C40.7505 125.287 41.1192 125.371 41.5952 125.464C42.2205 125.585 42.7292 125.716 43.1212 125.856C43.5132 125.987 43.8492 126.206 44.1292 126.514C44.4092 126.813 44.5492 127.233 44.5492 127.774C44.5492 128.502 44.2878 129.081 43.7652 129.51C43.2425 129.93 42.5098 130.14 41.5672 130.14Z" fill="black" fill-opacity="0.5"/>
</svg>
