<svg width="235" height="149" viewBox="0 0 235 149" fill="none" xmlns="http://www.w3.org/2000/svg">
<rect x="0.5" y="0.5" width="234" height="148" rx="15.5" stroke="black" stroke-opacity="0.1"/>
<path d="M38 24.52V19.98C38 18.57 37.36 18 35.77 18H31.73C30.14 18 29.5 18.57 29.5 19.98V24.51C29.5 25.93 30.14 26.49 31.73 26.49H35.77C37.36 26.5 38 25.93 38 24.52Z" stroke="black" stroke-opacity="0.6" stroke-width="1.5" stroke-linecap="round" stroke-linejoin="round"/>
<path d="M38 35.77V31.73C38 30.14 37.36 29.5 35.77 29.5H31.73C30.14 29.5 29.5 30.14 29.5 31.73V35.77C29.5 37.36 30.14 38 31.73 38H35.77C37.36 38 38 37.36 38 35.77Z" stroke="black" stroke-opacity="0.6" stroke-width="1.5" stroke-linecap="round" stroke-linejoin="round"/>
<path d="M26.5 24.52V19.98C26.5 18.57 25.86 18 24.27 18H20.23C18.64 18 18 18.57 18 19.98V24.51C18 25.93 18.64 26.49 20.23 26.49H24.27C25.86 26.5 26.5 25.93 26.5 24.52Z" stroke="black" stroke-opacity="0.6" stroke-width="1.5" stroke-linecap="round" stroke-linejoin="round"/>
<path d="M26.5 35.77V31.73C26.5 30.14 25.86 29.5 24.27 29.5H20.23C18.64 29.5 18 30.14 18 31.73V35.77C18 37.36 18.64 38 20.23 38H24.27C25.86 38 26.5 37.36 26.5 35.77Z" stroke="black" stroke-opacity="0.6" stroke-width="1.5" stroke-linecap="round" stroke-linejoin="round"/>
<path d="M22.192 70H19.888V59.856H16.16V57.792H25.904V59.856H22.192V70ZM29.0594 70.176C28.1634 70.176 27.3687 69.9787 26.6754 69.584C25.982 69.1893 25.438 68.6347 25.0434 67.92C24.6594 67.2053 24.4674 66.384 24.4674 65.456C24.4674 64.56 24.6594 63.76 25.0434 63.056C25.438 62.352 25.982 61.808 26.6754 61.424C27.3687 61.0293 28.1634 60.832 29.0594 60.832C29.9554 60.832 30.75 61.0293 31.4434 61.424C32.1474 61.8187 32.6914 62.368 33.0754 63.072C33.47 63.7653 33.6674 64.56 33.6674 65.456C33.6674 66.384 33.4754 67.2053 33.0914 67.92C32.7074 68.6347 32.1634 69.1893 31.4594 69.584C30.766 69.9787 29.966 70.176 29.0594 70.176ZM29.0594 68.32C29.7634 68.32 30.334 68.0533 30.7714 67.52C31.2087 66.9867 31.4274 66.2987 31.4274 65.456C31.4274 64.6453 31.2087 63.984 30.7714 63.472C30.334 62.9493 29.7634 62.688 29.0594 62.688C28.6007 62.688 28.19 62.8053 27.8274 63.04C27.4647 63.2747 27.182 63.6053 26.9794 64.032C26.7767 64.448 26.6754 64.9227 26.6754 65.456C26.6754 66.3093 26.894 67.0027 27.3314 67.536C27.7794 68.0587 28.3554 68.32 29.0594 68.32ZM39.9929 60.848C40.7715 60.848 41.4595 61.0453 42.0569 61.44C42.6542 61.8347 43.1182 62.3893 43.4489 63.104C43.7795 63.808 43.9449 64.6133 43.9449 65.52C43.9449 66.4267 43.7795 67.2373 43.4489 67.952C43.1182 68.656 42.6542 69.2053 42.0569 69.6C41.4595 69.9947 40.7715 70.192 39.9929 70.192C39.4382 70.192 38.9582 70.096 38.5529 69.904C38.1582 69.7013 37.7902 69.3547 37.4489 68.864V73.232H35.2889V61.024H37.4489V62.16C37.8009 61.6693 38.1742 61.328 38.5689 61.136C38.9635 60.944 39.4382 60.848 39.9929 60.848ZM39.4969 62.704C38.8142 62.704 38.2542 62.9653 37.8169 63.488C37.3902 64.0107 37.1769 64.688 37.1769 65.52C37.1769 66.352 37.3902 67.0293 37.8169 67.552C38.2542 68.0747 38.8142 68.336 39.4969 68.336C40.1795 68.336 40.7289 68.0747 41.1449 67.552C41.5609 67.0187 41.7689 66.3413 41.7689 65.52C41.7689 64.6987 41.5609 64.0267 41.1449 63.504C40.7289 62.9707 40.1795 62.704 39.4969 62.704ZM47.7141 70H45.5541V61.024H47.7141V70ZM46.6421 60.032C46.2688 60.032 45.9541 59.92 45.6981 59.696C45.4421 59.472 45.3141 59.1733 45.3141 58.8C45.3141 58.448 45.4421 58.1547 45.6981 57.92C45.9541 57.6853 46.2688 57.568 46.6421 57.568C47.0048 57.568 47.3141 57.6853 47.5701 57.92C47.8368 58.1547 47.9701 58.448 47.9701 58.8C47.9701 59.1627 47.8421 59.4613 47.5861 59.696C47.3301 59.92 47.0155 60.032 46.6421 60.032ZM53.8711 70.176C52.9751 70.176 52.1805 69.9787 51.4871 69.584C50.8045 69.1893 50.2711 68.6347 49.8871 67.92C49.5031 67.2053 49.3111 66.384 49.3111 65.456C49.3111 64.56 49.5031 63.76 49.8871 63.056C50.2711 62.352 50.8045 61.808 51.4871 61.424C52.1805 61.0293 52.9751 60.832 53.8711 60.832C54.9485 60.832 55.8605 61.1093 56.6071 61.664C57.3645 62.208 57.8551 62.9493 58.0791 63.888H55.7271C55.5885 63.472 55.3591 63.152 55.0391 62.928C54.7191 62.704 54.3298 62.592 53.8711 62.592C53.1671 62.592 52.5965 62.8533 52.1591 63.376C51.7325 63.8987 51.5191 64.592 51.5191 65.456C51.5191 66.352 51.7325 67.072 52.1591 67.616C52.5965 68.1493 53.1671 68.416 53.8711 68.416C54.3831 68.416 54.7991 68.2933 55.1191 68.048C55.4391 67.792 55.6578 67.4347 55.7751 66.976H58.1111C57.9085 67.968 57.4231 68.752 56.6551 69.328C55.8871 69.8933 54.9591 70.176 53.8711 70.176ZM69.4659 70.224C68.1752 70.224 67.0819 69.9413 66.1859 69.376C65.3005 68.8 64.6392 68.032 64.2019 67.072C63.7645 66.112 63.5459 65.0507 63.5459 63.888C63.5459 62.7253 63.7645 61.6693 64.2019 60.72C64.6392 59.76 65.3005 58.9973 66.1859 58.432C67.0819 57.856 68.1752 57.568 69.4659 57.568C70.7672 57.568 71.8605 57.856 72.7459 58.432C73.6419 58.9973 74.3085 59.76 74.7459 60.72C75.1832 61.6693 75.4019 62.7253 75.4019 63.888C75.4019 65.0507 75.1832 66.112 74.7459 67.072C74.3085 68.032 73.6419 68.8 72.7459 69.376C71.8605 69.9413 70.7672 70.224 69.4659 70.224ZM69.4659 68.16C70.5752 68.16 71.4392 67.7707 72.0579 66.992C72.6872 66.2133 73.0019 65.1787 73.0019 63.888C73.0019 62.5973 72.6872 61.568 72.0579 60.8C71.4392 60.032 70.5752 59.648 69.4659 59.648C68.3672 59.648 67.5032 60.0373 66.8739 60.816C66.2552 61.584 65.9459 62.608 65.9459 63.888C65.9459 65.1787 66.2552 66.2133 66.8739 66.992C67.5032 67.7707 68.3672 68.16 69.4659 68.16ZM81.2629 70H79.5509L76.2389 61.024H78.5429L80.3989 66.688L82.2869 61.024H84.5909L81.2629 70ZM89.7621 70.176C88.8555 70.176 88.0555 69.9787 87.3621 69.584C86.6688 69.1893 86.1301 68.6453 85.7461 67.952C85.3728 67.248 85.1861 66.4533 85.1861 65.568C85.1861 64.7467 85.3515 63.9787 85.6821 63.264C86.0235 62.5387 86.5301 61.952 87.2021 61.504C87.8848 61.056 88.7168 60.832 89.6981 60.832C90.5088 60.832 91.2555 61.0027 91.9381 61.344C92.6208 61.6747 93.1701 62.192 93.5861 62.896C94.0021 63.5893 94.2101 64.4533 94.2101 65.488V65.952H87.4261C87.4581 66.3253 87.5701 66.6773 87.7621 67.008C87.9755 67.424 88.2581 67.7493 88.6101 67.984C88.9728 68.208 89.3835 68.32 89.8421 68.32C90.3328 68.32 90.7541 68.1973 91.1061 67.952C91.4581 67.696 91.7088 67.3707 91.8581 66.976H94.0661C93.7781 67.9253 93.2715 68.6987 92.5461 69.296C91.8208 69.8827 90.8928 70.176 89.7621 70.176ZM92.0021 64.336C91.9595 63.9947 91.8475 63.7173 91.6661 63.504C91.4635 63.1947 91.1968 62.96 90.8661 62.8C90.5355 62.6293 90.1675 62.544 89.7621 62.544C89.3568 62.544 88.9888 62.624 88.6581 62.784C88.3381 62.944 88.0768 63.184 87.8741 63.504C87.6821 63.7387 87.5648 64.016 87.5221 64.336H92.0021ZM95.7885 70V61.024H97.9485V62.096C98.2792 61.6373 98.6472 61.312 99.0525 61.12C99.4685 60.928 99.9538 60.832 100.509 60.832H100.765V62.912H100.269C99.5858 62.912 99.0525 63.0933 98.6685 63.456C98.4232 63.7013 98.2418 64.016 98.1245 64.4C98.0072 64.7733 97.9485 65.2533 97.9485 65.84V70H95.7885ZM106.279 70H104.567L101.255 61.024H103.559L105.415 66.688L107.303 61.024H109.607L106.279 70ZM112.933 70H110.773V61.024H112.933V70ZM111.861 60.032C111.488 60.032 111.173 59.92 110.917 59.696C110.661 59.472 110.533 59.1733 110.533 58.8C110.533 58.448 110.661 58.1547 110.917 57.92C111.173 57.6853 111.488 57.568 111.861 57.568C112.224 57.568 112.533 57.6853 112.789 57.92C113.056 58.1547 113.189 58.448 113.189 58.8C113.189 59.1627 113.061 59.4613 112.805 59.696C112.549 59.92 112.234 60.032 111.861 60.032ZM119.106 70.176C118.199 70.176 117.399 69.9787 116.706 69.584C116.013 69.1893 115.474 68.6453 115.09 67.952C114.717 67.248 114.53 66.4533 114.53 65.568C114.53 64.7467 114.695 63.9787 115.026 63.264C115.367 62.5387 115.874 61.952 116.546 61.504C117.229 61.056 118.061 60.832 119.042 60.832C119.853 60.832 120.599 61.0027 121.282 61.344C121.965 61.6747 122.514 62.192 122.93 62.896C123.346 63.5893 123.554 64.4533 123.554 65.488V65.952H116.77C116.802 66.3253 116.914 66.6773 117.106 67.008C117.319 67.424 117.602 67.7493 117.954 67.984C118.317 68.208 118.727 68.32 119.186 68.32C119.677 68.32 120.098 68.1973 120.45 67.952C120.802 67.696 121.053 67.3707 121.202 66.976H123.41C123.122 67.9253 122.615 68.6987 121.89 69.296C121.165 69.8827 120.237 70.176 119.106 70.176ZM121.346 64.336C121.303 63.9947 121.191 63.7173 121.01 63.504C120.807 63.1947 120.541 62.96 120.21 62.8C119.879 62.6293 119.511 62.544 119.106 62.544C118.701 62.544 118.333 62.624 118.002 62.784C117.682 62.944 117.421 63.184 117.218 63.504C117.026 63.7387 116.909 64.016 116.866 64.336H121.346ZM129.18 70H127.132L124.396 61.024H126.7L128.236 66.848L129.948 61.024H131.82L133.532 66.816L135.116 61.024H137.404L134.62 70H132.588L130.908 63.952L129.18 70ZM142.52 70.176C141.411 70.176 140.451 69.9093 139.64 69.376C138.83 68.8427 138.355 68.0427 138.216 66.976H140.344C140.483 67.456 140.739 67.8293 141.112 68.096C141.486 68.352 141.95 68.48 142.504 68.48C142.974 68.48 143.352 68.3893 143.64 68.208C143.939 68.0267 144.088 67.7707 144.088 67.44C144.088 67.0773 143.912 66.816 143.56 66.656C143.219 66.496 142.686 66.3467 141.96 66.208C141.267 66.0693 140.691 65.92 140.232 65.76C139.774 65.6 139.384 65.344 139.064 64.992C138.744 64.6293 138.584 64.1387 138.584 63.52C138.584 62.6347 138.91 61.968 139.56 61.52C140.222 61.0613 141.054 60.832 142.056 60.832C143.112 60.832 143.987 61.0987 144.68 61.632C145.384 62.1653 145.816 62.9173 145.976 63.888H143.944C143.827 63.4187 143.598 63.0773 143.256 62.864C142.915 62.64 142.51 62.528 142.04 62.528C141.614 62.528 141.272 62.6133 141.016 62.784C140.771 62.944 140.648 63.1627 140.648 63.44C140.648 63.7707 140.814 64.0053 141.144 64.144C141.475 64.2827 141.998 64.4213 142.712 64.56C143.448 64.6987 144.046 64.848 144.504 65.008C144.974 65.1573 145.374 65.4133 145.704 65.776C146.046 66.1387 146.216 66.64 146.216 67.28C146.216 68.1653 145.886 68.8693 145.224 69.392C144.574 69.9147 143.672 70.176 142.52 70.176Z" fill="black"/>
<path d="M26.64 90.652C26.64 91.548 26.4907 92.3787 26.192 93.144C25.9027 93.9 25.4733 94.5253 24.904 95.02L26.304 97.218H24.89L23.868 95.692C23.224 95.9907 22.4867 96.14 21.656 96.14C20.5827 96.14 19.6727 95.8927 18.926 95.398C18.1793 94.9033 17.6193 94.2407 17.246 93.41C16.882 92.57 16.7 91.6507 16.7 90.652C16.7 89.6533 16.882 88.7387 17.246 87.908C17.6193 87.0773 18.1793 86.4147 18.926 85.92C19.6727 85.4253 20.5827 85.178 21.656 85.178C22.7387 85.178 23.6533 85.4253 24.4 85.92C25.156 86.4147 25.716 87.0773 26.08 87.908C26.4533 88.7293 26.64 89.644 26.64 90.652ZM17.988 90.652C17.988 91.492 18.128 92.2387 18.408 92.892C18.6973 93.5453 19.1173 94.0587 19.668 94.432C20.2187 94.796 20.8813 94.978 21.656 94.978C22.44 94.978 23.1073 94.796 23.658 94.432C24.218 94.0587 24.638 93.5453 24.918 92.892C25.2073 92.2387 25.352 91.492 25.352 90.652C25.352 89.812 25.2073 89.07 24.918 88.426C24.638 87.7727 24.218 87.264 23.658 86.9C23.1073 86.5267 22.44 86.34 21.656 86.34C20.8813 86.34 20.2187 86.5267 19.668 86.9C19.1173 87.264 18.6973 87.7727 18.408 88.426C18.128 89.07 17.988 89.812 17.988 90.652ZM30.9733 96.14C29.8907 96.14 29.13 95.734 28.6913 94.922C28.4487 94.4647 28.3273 93.7973 28.3273 92.92V88.258H29.5173V92.92C29.5173 93.7413 29.6667 94.32 29.9653 94.656C30.2267 94.9453 30.6233 95.09 31.1553 95.09C31.7433 95.09 32.2147 94.8987 32.5693 94.516C32.8213 94.2547 32.9987 93.8953 33.1013 93.438C33.2133 92.9807 33.2693 92.3553 33.2693 91.562V88.258H34.4593V96H33.2693V94.796C32.896 95.272 32.5273 95.6173 32.1633 95.832C31.8087 96.0373 31.412 96.14 30.9733 96.14ZM37.6391 96H36.4491V88.258H37.6391V96ZM37.0511 86.928C36.7991 86.928 36.5844 86.844 36.4071 86.676C36.2297 86.4987 36.1411 86.2887 36.1411 86.046C36.1411 85.8033 36.2297 85.598 36.4071 85.43C36.5844 85.262 36.7991 85.178 37.0511 85.178C37.3031 85.178 37.5177 85.262 37.6951 85.43C37.8724 85.598 37.9611 85.8033 37.9611 86.046C37.9611 86.2887 37.8724 86.4987 37.6951 86.676C37.5177 86.844 37.3031 86.928 37.0511 86.928ZM43.051 96.14C42.323 96.14 41.6743 95.9673 41.105 95.622C40.5356 95.2767 40.0923 94.796 39.775 94.18C39.4576 93.564 39.299 92.8687 39.299 92.094C39.299 91.338 39.4576 90.6567 39.775 90.05C40.0923 89.4433 40.5356 88.972 41.105 88.636C41.6743 88.2907 42.323 88.118 43.051 88.118C43.919 88.118 44.6516 88.342 45.249 88.79C45.8556 89.2287 46.2476 89.826 46.425 90.582H45.151C45.0016 90.1527 44.7356 89.812 44.353 89.56C43.9796 89.2987 43.5456 89.168 43.051 89.168C42.5656 89.168 42.127 89.294 41.735 89.546C41.3523 89.798 41.049 90.148 40.825 90.596C40.601 91.0347 40.489 91.534 40.489 92.094C40.489 92.6727 40.5963 93.1907 40.811 93.648C41.035 94.096 41.343 94.4507 41.735 94.712C42.127 94.964 42.5656 95.09 43.051 95.09C43.583 95.09 44.0403 94.9453 44.423 94.656C44.815 94.3667 45.0763 93.984 45.207 93.508H46.481C46.313 94.3293 45.9163 94.9733 45.291 95.44C44.675 95.9067 43.9283 96.14 43.051 96.14ZM49.2468 96H48.0568V85.318H49.2468V91.352L52.6488 88.258H54.3008L50.5068 91.66L54.6508 96H53.0268L49.2468 91.954V96ZM57.5324 96C56.9071 96 56.4451 95.86 56.1464 95.58C55.8478 95.3 55.6984 94.7913 55.6984 94.054V85.318H56.8884V93.872C56.8884 94.1427 56.9071 94.3527 56.9444 94.502C56.9818 94.642 57.0658 94.754 57.1964 94.838C57.3271 94.9127 57.5324 94.95 57.8124 94.95H58.1904V96H57.5324ZM59.6092 98.94V97.848H60.3372C60.5706 97.848 60.7479 97.8293 60.8692 97.792C60.9906 97.764 61.0979 97.694 61.1912 97.582C61.2846 97.47 61.3779 97.288 61.4712 97.036L61.8912 95.888L58.8672 88.258H60.1832L62.5352 94.264L64.7192 88.258H66.0072L62.5772 97.554C62.3719 98.1047 62.1386 98.4733 61.8772 98.66C61.6159 98.8467 61.2426 98.94 60.7572 98.94H59.6092ZM71.2167 96V88.258H72.4067V89.322C72.7613 88.8927 73.1393 88.5847 73.5407 88.398C73.942 88.2113 74.4087 88.118 74.9407 88.118H74.9967V89.308H74.5907C73.9653 89.308 73.466 89.4947 73.0927 89.868C72.6353 90.3067 72.4067 90.9927 72.4067 91.926V96H71.2167ZM79.4458 96.14C78.7178 96.14 78.0645 95.9673 77.4858 95.622C76.9165 95.2767 76.4731 94.8007 76.1558 94.194C75.8385 93.5873 75.6798 92.906 75.6798 92.15C75.6798 91.4313 75.8291 90.7687 76.1278 90.162C76.4265 89.546 76.8558 89.0513 77.4158 88.678C77.9851 88.3047 78.6525 88.118 79.4178 88.118C80.0805 88.118 80.6965 88.2673 81.2658 88.566C81.8351 88.8647 82.2925 89.3033 82.6378 89.882C82.9831 90.4513 83.1558 91.1373 83.1558 91.94V92.36H76.8558C76.8745 92.6307 76.9258 92.8873 77.0098 93.13C77.2058 93.7273 77.5185 94.2033 77.9478 94.558C78.3865 94.9127 78.8811 95.09 79.4318 95.09C79.9918 95.09 80.4725 94.9407 80.8738 94.642C81.2751 94.3433 81.5645 93.9653 81.7418 93.508H83.0158C82.7638 94.292 82.3345 94.9267 81.7278 95.412C81.1211 95.8973 80.3605 96.14 79.4458 96.14ZM81.8818 91.31C81.8631 91.03 81.8071 90.778 81.7138 90.554C81.5178 90.1153 81.2145 89.7747 80.8038 89.532C80.4025 89.2893 79.9498 89.168 79.4458 89.168C78.9325 89.168 78.4798 89.2893 78.0878 89.532C77.7051 89.7747 77.4065 90.1153 77.1918 90.554C77.0985 90.7593 77.0238 91.0113 76.9678 91.31H81.8818ZM87.7918 96H86.8118L83.9558 88.258H85.2718L87.3018 93.984L89.3598 88.258H90.6618L87.7918 96ZM93.1195 96H91.9295V88.258H93.1195V96ZM92.5315 86.928C92.2795 86.928 92.0649 86.844 91.8875 86.676C91.7102 86.4987 91.6215 86.2887 91.6215 86.046C91.6215 85.8033 91.7102 85.598 91.8875 85.43C92.0649 85.262 92.2795 85.178 92.5315 85.178C92.7835 85.178 92.9982 85.262 93.1755 85.43C93.3529 85.598 93.4415 85.8033 93.4415 86.046C93.4415 86.2887 93.3529 86.4987 93.1755 86.676C92.9982 86.844 92.7835 86.928 92.5315 86.928ZM98.2234 96.14C97.2434 96.14 96.4454 95.9067 95.8294 95.44C95.2134 94.9733 94.8401 94.3293 94.7094 93.508H95.9554C96.0581 94.0027 96.2961 94.39 96.6694 94.67C97.0521 94.95 97.5748 95.09 98.2374 95.09C98.7788 95.09 99.2081 94.9873 99.5254 94.782C99.8521 94.5767 100.015 94.2827 100.015 93.9C100.015 93.6013 99.9174 93.3633 99.7214 93.186C99.5348 92.9993 99.2921 92.8593 98.9934 92.766C98.7041 92.6727 98.3168 92.5793 97.8314 92.486C97.2248 92.3647 96.7348 92.2433 96.3614 92.122C95.9974 91.9913 95.6848 91.786 95.4234 91.506C95.1621 91.226 95.0314 90.8387 95.0314 90.344C95.0314 89.644 95.2928 89.098 95.8154 88.706C96.3474 88.314 97.0241 88.118 97.8454 88.118C98.6854 88.118 99.3854 88.3373 99.9454 88.776C100.505 89.2147 100.851 89.8167 100.981 90.582H99.8754C99.7634 90.106 99.5301 89.7513 99.1754 89.518C98.8208 89.2847 98.3774 89.168 97.8454 89.168C97.3321 89.168 96.9308 89.266 96.6414 89.462C96.3614 89.6487 96.2214 89.91 96.2214 90.246C96.2214 90.5073 96.3101 90.7127 96.4874 90.862C96.6648 91.0113 96.8841 91.128 97.1454 91.212C97.4068 91.2867 97.7754 91.3707 98.2514 91.464C98.8768 91.5853 99.3854 91.716 99.7774 91.856C100.169 91.9867 100.505 92.206 100.785 92.514C101.065 92.8127 101.205 93.2327 101.205 93.774C101.205 94.502 100.944 95.0807 100.421 95.51C99.8988 95.93 99.1661 96.14 98.2234 96.14ZM106.338 96.14C105.61 96.14 104.957 95.9673 104.378 95.622C103.809 95.2767 103.366 94.8007 103.048 94.194C102.731 93.5873 102.572 92.906 102.572 92.15C102.572 91.4313 102.722 90.7687 103.02 90.162C103.319 89.546 103.748 89.0513 104.308 88.678C104.878 88.3047 105.545 88.118 106.31 88.118C106.973 88.118 107.589 88.2673 108.158 88.566C108.728 88.8647 109.185 89.3033 109.53 89.882C109.876 90.4513 110.048 91.1373 110.048 91.94V92.36H103.748C103.767 92.6307 103.818 92.8873 103.902 93.13C104.098 93.7273 104.411 94.2033 104.84 94.558C105.279 94.9127 105.774 95.09 106.324 95.09C106.884 95.09 107.365 94.9407 107.766 94.642C108.168 94.3433 108.457 93.9653 108.634 93.508H109.908C109.656 94.292 109.227 94.9267 108.62 95.412C108.014 95.8973 107.253 96.14 106.338 96.14ZM108.774 91.31C108.756 91.03 108.7 90.778 108.606 90.554C108.41 90.1153 108.107 89.7747 107.696 89.532C107.295 89.2893 106.842 89.168 106.338 89.168C105.825 89.168 105.372 89.2893 104.98 89.532C104.598 89.7747 104.299 90.1153 104.084 90.554C103.991 90.7593 103.916 91.0113 103.86 91.31H108.774ZM116.827 96H115.637V85.318H116.827V91.352L120.229 88.258H121.881L118.087 91.66L122.231 96H120.607L116.827 91.954V96ZM126.368 96.14C125.64 96.14 124.986 95.9673 124.408 95.622C123.838 95.2767 123.395 94.8007 123.078 94.194C122.76 93.5873 122.602 92.906 122.602 92.15C122.602 91.4313 122.751 90.7687 123.05 90.162C123.348 89.546 123.778 89.0513 124.338 88.678C124.907 88.3047 125.574 88.118 126.34 88.118C127.002 88.118 127.618 88.2673 128.188 88.566C128.757 88.8647 129.214 89.3033 129.56 89.882C129.905 90.4513 130.078 91.1373 130.078 91.94V92.36H123.778C123.796 92.6307 123.848 92.8873 123.932 93.13C124.128 93.7273 124.44 94.2033 124.87 94.558C125.308 94.9127 125.803 95.09 126.354 95.09C126.914 95.09 127.394 94.9407 127.796 94.642C128.197 94.3433 128.486 93.9653 128.664 93.508H129.938C129.686 94.292 129.256 94.9267 128.65 95.412C128.043 95.8973 127.282 96.14 126.368 96.14ZM128.804 91.31C128.785 91.03 128.729 90.778 128.636 90.554C128.44 90.1153 128.136 89.7747 127.726 89.532C127.324 89.2893 126.872 89.168 126.368 89.168C125.854 89.168 125.402 89.2893 125.01 89.532C124.627 89.7747 124.328 90.1153 124.114 90.554C124.02 90.7593 123.946 91.0113 123.89 91.31H128.804ZM131.728 98.94V97.848H132.456C132.69 97.848 132.867 97.8293 132.988 97.792C133.11 97.764 133.217 97.694 133.31 97.582C133.404 97.47 133.497 97.288 133.59 97.036L134.01 95.888L130.986 88.258H132.302L134.654 94.264L136.838 88.258H138.126L134.696 97.554C134.491 98.1047 134.258 98.4733 133.996 98.66C133.735 98.8467 133.362 98.94 132.876 98.94H131.728ZM146.766 96.14C146.038 96.14 145.389 95.9673 144.82 95.622C144.25 95.2767 143.807 94.796 143.49 94.18C143.172 93.564 143.014 92.8687 143.014 92.094C143.014 91.338 143.172 90.6567 143.49 90.05C143.807 89.4433 144.25 88.972 144.82 88.636C145.389 88.2907 146.038 88.118 146.766 88.118C147.634 88.118 148.366 88.342 148.964 88.79C149.57 89.2287 149.962 89.826 150.14 90.582H148.866C148.716 90.1527 148.45 89.812 148.068 89.56C147.694 89.2987 147.26 89.168 146.766 89.168C146.28 89.168 145.842 89.294 145.45 89.546C145.067 89.798 144.764 90.148 144.54 90.596C144.316 91.0347 144.204 91.534 144.204 92.094C144.204 92.6727 144.311 93.1907 144.526 93.648C144.75 94.096 145.058 94.4507 145.45 94.712C145.842 94.964 146.28 95.09 146.766 95.09C147.298 95.09 147.755 94.9453 148.138 94.656C148.53 94.3667 148.791 93.984 148.922 93.508H150.196C150.028 94.3293 149.631 94.9733 149.006 95.44C148.39 95.9067 147.643 96.14 146.766 96.14ZM155.216 96.14C154.488 96.14 153.834 95.9673 153.256 95.622C152.686 95.2767 152.238 94.796 151.912 94.18C151.594 93.564 151.436 92.8687 151.436 92.094C151.436 91.338 151.594 90.6567 151.912 90.05C152.238 89.4433 152.686 88.972 153.256 88.636C153.834 88.2907 154.488 88.118 155.216 88.118C155.944 88.118 156.597 88.2907 157.176 88.636C157.754 88.972 158.207 89.4433 158.534 90.05C158.86 90.6567 159.024 91.338 159.024 92.094C159.024 92.8687 158.86 93.564 158.534 94.18C158.216 94.7867 157.768 95.2673 157.19 95.622C156.611 95.9673 155.953 96.14 155.216 96.14ZM155.216 95.09C155.701 95.09 156.14 94.9593 156.532 94.698C156.933 94.4367 157.246 94.082 157.47 93.634C157.703 93.1767 157.82 92.6633 157.82 92.094C157.82 91.5527 157.708 91.058 157.484 90.61C157.26 90.162 156.947 89.812 156.546 89.56C156.154 89.2987 155.71 89.168 155.216 89.168C154.73 89.168 154.287 89.294 153.886 89.546C153.494 89.798 153.186 90.148 152.962 90.596C152.738 91.044 152.626 91.5433 152.626 92.094C152.626 92.6633 152.738 93.1767 152.962 93.634C153.186 94.0913 153.494 94.4507 153.886 94.712C154.287 94.964 154.73 95.09 155.216 95.09ZM160.699 96V88.258H161.889V89.462C162.272 88.9673 162.64 88.622 162.995 88.426C163.359 88.2207 163.756 88.118 164.185 88.118C165.277 88.118 166.038 88.524 166.467 89.336C166.626 89.644 166.724 89.9613 166.761 90.288C166.808 90.6053 166.831 90.9553 166.831 91.338V96H165.641V91.338C165.641 90.5167 165.492 89.938 165.193 89.602C164.932 89.3127 164.535 89.168 164.003 89.168C163.415 89.168 162.944 89.3593 162.589 89.742C162.337 90.0033 162.155 90.3627 162.043 90.82C161.94 91.2773 161.889 91.9027 161.889 92.696V96H160.699ZM172.195 96.14C171.467 96.14 170.819 95.9673 170.249 95.622C169.68 95.2767 169.237 94.796 168.919 94.18C168.602 93.564 168.443 92.8687 168.443 92.094C168.443 91.338 168.602 90.6567 168.919 90.05C169.237 89.4433 169.68 88.972 170.249 88.636C170.819 88.2907 171.467 88.118 172.195 88.118C173.063 88.118 173.796 88.342 174.393 88.79C175 89.2287 175.392 89.826 175.569 90.582H174.295C174.146 90.1527 173.88 89.812 173.497 89.56C173.124 89.2987 172.69 89.168 172.195 89.168C171.71 89.168 171.271 89.294 170.879 89.546C170.497 89.798 170.193 90.148 169.969 90.596C169.745 91.0347 169.633 91.534 169.633 92.094C169.633 92.6727 169.741 93.1907 169.955 93.648C170.179 94.096 170.487 94.4507 170.879 94.712C171.271 94.964 171.71 95.09 172.195 95.09C172.727 95.09 173.185 94.9453 173.567 94.656C173.959 94.3667 174.221 93.984 174.351 93.508H175.625C175.457 94.3293 175.061 94.9733 174.435 95.44C173.819 95.9067 173.073 96.14 172.195 96.14ZM180.631 96.14C179.903 96.14 179.25 95.9673 178.671 95.622C178.102 95.2767 177.659 94.8007 177.341 94.194C177.024 93.5873 176.865 92.906 176.865 92.15C176.865 91.4313 177.015 90.7687 177.313 90.162C177.612 89.546 178.041 89.0513 178.601 88.678C179.171 88.3047 179.838 88.118 180.603 88.118C181.266 88.118 181.882 88.2673 182.451 88.566C183.021 88.8647 183.478 89.3033 183.823 89.882C184.169 90.4513 184.341 91.1373 184.341 91.94V92.36H178.041C178.06 92.6307 178.111 92.8873 178.195 93.13C178.391 93.7273 178.704 94.2033 179.133 94.558C179.572 94.9127 180.067 95.09 180.617 95.09C181.177 95.09 181.658 94.9407 182.059 94.642C182.461 94.3433 182.75 93.9653 182.927 93.508H184.201C183.949 94.292 183.52 94.9267 182.913 95.412C182.307 95.8973 181.546 96.14 180.631 96.14ZM183.067 91.31C183.049 91.03 182.993 90.778 182.899 90.554C182.703 90.1153 182.4 89.7747 181.989 89.532C181.588 89.2893 181.135 89.168 180.631 89.168C180.118 89.168 179.665 89.2893 179.273 89.532C178.891 89.7747 178.592 90.1153 178.377 90.554C178.284 90.7593 178.209 91.0113 178.153 91.31H183.067ZM189.73 88.118C190.411 88.118 191.013 88.286 191.536 88.622C192.059 88.958 192.46 89.4293 192.74 90.036C193.029 90.6427 193.174 91.338 193.174 92.122C193.174 92.906 193.029 93.606 192.74 94.222C192.46 94.8287 192.059 95.3 191.536 95.636C191.023 95.972 190.421 96.14 189.73 96.14C189.198 96.14 188.741 96.042 188.358 95.846C187.975 95.65 187.588 95.3 187.196 94.796V98.94H186.006V88.258H187.196V89.462C187.579 88.9673 187.961 88.622 188.344 88.426C188.727 88.2207 189.189 88.118 189.73 88.118ZM189.618 89.168C189.142 89.168 188.717 89.294 188.344 89.546C187.971 89.798 187.677 90.1527 187.462 90.61C187.257 91.058 187.154 91.562 187.154 92.122C187.154 92.6913 187.257 93.2 187.462 93.648C187.677 94.096 187.971 94.4507 188.344 94.712C188.717 94.964 189.142 95.09 189.618 95.09C190.094 95.09 190.509 94.964 190.864 94.712C191.228 94.4507 191.503 94.096 191.69 93.648C191.886 93.2 191.984 92.6913 191.984 92.122C191.984 91.562 191.886 91.058 191.69 90.61C191.503 90.162 191.228 89.812 190.864 89.56C190.509 89.2987 190.094 89.168 189.618 89.168ZM197.015 96C196.389 96 195.927 95.86 195.629 95.58C195.33 95.3 195.181 94.7913 195.181 94.054V89.308H193.935V88.258H195.181V85.318H196.371V88.258H198.107V89.308H196.371V93.816C196.371 94.0867 196.389 94.3013 196.427 94.46C196.464 94.6093 196.548 94.7307 196.679 94.824C196.809 94.908 197.015 94.95 197.295 94.95H198.093V96H197.015ZM202.731 96.14C201.751 96.14 200.953 95.9067 200.337 95.44C199.721 94.9733 199.348 94.3293 199.217 93.508H200.463C200.566 94.0027 200.804 94.39 201.177 94.67C201.56 94.95 202.083 95.09 202.745 95.09C203.287 95.09 203.716 94.9873 204.033 94.782C204.36 94.5767 204.523 94.2827 204.523 93.9C204.523 93.6013 204.425 93.3633 204.229 93.186C204.043 92.9993 203.8 92.8593 203.501 92.766C203.212 92.6727 202.825 92.5793 202.339 92.486C201.733 92.3647 201.243 92.2433 200.869 92.122C200.505 91.9913 200.193 91.786 199.931 91.506C199.67 91.226 199.539 90.8387 199.539 90.344C199.539 89.644 199.801 89.098 200.323 88.706C200.855 88.314 201.532 88.118 202.353 88.118C203.193 88.118 203.893 88.3373 204.453 88.776C205.013 89.2147 205.359 89.8167 205.489 90.582H204.383C204.271 90.106 204.038 89.7513 203.683 89.518C203.329 89.2847 202.885 89.168 202.353 89.168C201.84 89.168 201.439 89.266 201.149 89.462C200.869 89.6487 200.729 89.91 200.729 90.246C200.729 90.5073 200.818 90.7127 200.995 90.862C201.173 91.0113 201.392 91.128 201.653 91.212C201.915 91.2867 202.283 91.3707 202.759 91.464C203.385 91.5853 203.893 91.716 204.285 91.856C204.677 91.9867 205.013 92.206 205.293 92.514C205.573 92.8127 205.713 93.2327 205.713 93.774C205.713 94.502 205.452 95.0807 204.929 95.51C204.407 95.93 203.674 96.14 202.731 96.14ZM19.724 113H18.618L16.35 105.258H17.624L19.248 111.068L21.194 105.258H22.272L24.218 111.068L25.856 105.258H27.13L24.834 113H23.728L21.74 106.938L19.724 113ZM29.6684 113H28.4784V105.258H29.6684V113ZM29.0804 103.928C28.8284 103.928 28.6137 103.844 28.4364 103.676C28.259 103.499 28.1704 103.289 28.1704 103.046C28.1704 102.803 28.259 102.598 28.4364 102.43C28.6137 102.262 28.8284 102.178 29.0804 102.178C29.3324 102.178 29.547 102.262 29.7244 102.43C29.9017 102.598 29.9904 102.803 29.9904 103.046C29.9904 103.289 29.9017 103.499 29.7244 103.676C29.547 103.844 29.3324 103.928 29.0804 103.928ZM34.1143 113C33.4889 113 33.0269 112.86 32.7283 112.58C32.4296 112.3 32.2803 111.791 32.2803 111.054V106.308H31.0343V105.258H32.2803V102.318H33.4703V105.258H35.2063V106.308H33.4703V110.816C33.4703 111.087 33.4889 111.301 33.5263 111.46C33.5636 111.609 33.6476 111.731 33.7783 111.824C33.9089 111.908 34.1143 111.95 34.3943 111.95H35.1923V113H34.1143ZM36.7228 113V102.318H37.9128V106.462C38.2955 105.967 38.6642 105.622 39.0188 105.426C39.3828 105.221 39.7795 105.118 40.2088 105.118C41.3008 105.118 42.0615 105.524 42.4908 106.336C42.6495 106.644 42.7475 106.961 42.7848 107.288C42.8315 107.605 42.8548 107.955 42.8548 108.338V113H41.6648V108.338C41.6648 107.517 41.5155 106.938 41.2168 106.602C40.9555 106.313 40.5588 106.168 40.0268 106.168C39.4388 106.168 38.9675 106.359 38.6128 106.742C38.3608 107.003 38.1788 107.363 38.0668 107.82C37.9642 108.277 37.9128 108.903 37.9128 109.696V113H36.7228ZM52.1708 113.14C51.4428 113.14 50.7894 112.967 50.2108 112.622C49.6414 112.277 49.1934 111.796 48.8668 111.18C48.5494 110.564 48.3908 109.869 48.3908 109.094C48.3908 108.338 48.5494 107.657 48.8668 107.05C49.1934 106.443 49.6414 105.972 50.2108 105.636C50.7894 105.291 51.4428 105.118 52.1708 105.118C52.8988 105.118 53.5521 105.291 54.1308 105.636C54.7094 105.972 55.1621 106.443 55.4888 107.05C55.8154 107.657 55.9788 108.338 55.9788 109.094C55.9788 109.869 55.8154 110.564 55.4888 111.18C55.1714 111.787 54.7234 112.267 54.1448 112.622C53.5661 112.967 52.9081 113.14 52.1708 113.14ZM52.1708 112.09C52.6561 112.09 53.0948 111.959 53.4868 111.698C53.8881 111.437 54.2008 111.082 54.4248 110.634C54.6581 110.177 54.7748 109.663 54.7748 109.094C54.7748 108.553 54.6628 108.058 54.4388 107.61C54.2148 107.162 53.9021 106.812 53.5008 106.56C53.1088 106.299 52.6654 106.168 52.1708 106.168C51.6854 106.168 51.2421 106.294 50.8408 106.546C50.4488 106.798 50.1408 107.148 49.9168 107.596C49.6928 108.044 49.5808 108.543 49.5808 109.094C49.5808 109.663 49.6928 110.177 49.9168 110.634C50.1408 111.091 50.4488 111.451 50.8408 111.712C51.2421 111.964 51.6854 112.09 52.1708 112.09ZM60.2722 113.14C59.1895 113.14 58.4288 112.734 57.9902 111.922C57.7475 111.465 57.6262 110.797 57.6262 109.92V105.258H58.8162V109.92C58.8162 110.741 58.9655 111.32 59.2642 111.656C59.5255 111.945 59.9222 112.09 60.4542 112.09C61.0422 112.09 61.5135 111.899 61.8682 111.516C62.1202 111.255 62.2975 110.895 62.4002 110.438C62.5122 109.981 62.5682 109.355 62.5682 108.562V105.258H63.7582V113H62.5682V111.796C62.1948 112.272 61.8262 112.617 61.4622 112.832C61.1075 113.037 60.7108 113.14 60.2722 113.14ZM65.7479 113V105.258H66.9379V106.322C67.2926 105.893 67.6706 105.585 68.0719 105.398C68.4732 105.211 68.9399 105.118 69.4719 105.118H69.5279V106.308H69.1219C68.4966 106.308 67.9972 106.495 67.6239 106.868C67.1666 107.307 66.9379 107.993 66.9379 108.926V113H65.7479ZM78.1877 113.14C77.4597 113.14 76.811 112.967 76.2417 112.622C75.6723 112.277 75.229 111.796 74.9117 111.18C74.5943 110.564 74.4357 109.869 74.4357 109.094C74.4357 108.338 74.5943 107.657 74.9117 107.05C75.229 106.443 75.6723 105.972 76.2417 105.636C76.811 105.291 77.4597 105.118 78.1877 105.118C79.0557 105.118 79.7883 105.342 80.3857 105.79C80.9923 106.229 81.3843 106.826 81.5617 107.582H80.2877C80.1383 107.153 79.8723 106.812 79.4897 106.56C79.1163 106.299 78.6823 106.168 78.1877 106.168C77.7023 106.168 77.2637 106.294 76.8717 106.546C76.489 106.798 76.1857 107.148 75.9617 107.596C75.7377 108.035 75.6257 108.534 75.6257 109.094C75.6257 109.673 75.733 110.191 75.9477 110.648C76.1717 111.096 76.4797 111.451 76.8717 111.712C77.2637 111.964 77.7023 112.09 78.1877 112.09C78.7197 112.09 79.177 111.945 79.5597 111.656C79.9517 111.367 80.213 110.984 80.3437 110.508H81.6177C81.4497 111.329 81.053 111.973 80.4277 112.44C79.8117 112.907 79.065 113.14 78.1877 113.14ZM86.6375 113.14C85.9095 113.14 85.2562 112.967 84.6775 112.622C84.1082 112.277 83.6602 111.796 83.3335 111.18C83.0162 110.564 82.8575 109.869 82.8575 109.094C82.8575 108.338 83.0162 107.657 83.3335 107.05C83.6602 106.443 84.1082 105.972 84.6775 105.636C85.2562 105.291 85.9095 105.118 86.6375 105.118C87.3655 105.118 88.0189 105.291 88.5975 105.636C89.1762 105.972 89.6289 106.443 89.9555 107.05C90.2822 107.657 90.4455 108.338 90.4455 109.094C90.4455 109.869 90.2822 110.564 89.9555 111.18C89.6382 111.787 89.1902 112.267 88.6115 112.622C88.0329 112.967 87.3749 113.14 86.6375 113.14ZM86.6375 112.09C87.1229 112.09 87.5615 111.959 87.9535 111.698C88.3549 111.437 88.6675 111.082 88.8915 110.634C89.1249 110.177 89.2415 109.663 89.2415 109.094C89.2415 108.553 89.1295 108.058 88.9055 107.61C88.6815 107.162 88.3689 106.812 87.9675 106.56C87.5755 106.299 87.1322 106.168 86.6375 106.168C86.1522 106.168 85.7089 106.294 85.3075 106.546C84.9155 106.798 84.6075 107.148 84.3835 107.596C84.1595 108.044 84.0475 108.543 84.0475 109.094C84.0475 109.663 84.1595 110.177 84.3835 110.634C84.6075 111.091 84.9155 111.451 85.3075 111.712C85.7089 111.964 86.1522 112.09 86.6375 112.09ZM92.121 113V105.258H93.311V106.462C93.6936 105.967 94.0623 105.622 94.417 105.426C94.781 105.221 95.1776 105.118 95.607 105.118C96.1296 105.118 96.587 105.239 96.979 105.482C97.3803 105.725 97.637 106.079 97.749 106.546C98.2343 105.594 99.051 105.118 100.199 105.118C101.058 105.118 101.702 105.365 102.131 105.86C102.56 106.345 102.775 107.045 102.775 107.96V113H101.585V108.24C101.585 107.577 101.445 107.069 101.165 106.714C100.894 106.35 100.512 106.168 100.017 106.168C99.5036 106.168 99.0836 106.341 98.757 106.686C98.4956 106.966 98.309 107.33 98.197 107.778C98.0943 108.226 98.043 108.8 98.043 109.5V113H96.853V108.24C96.853 107.587 96.7083 107.078 96.419 106.714C96.139 106.35 95.7563 106.168 95.271 106.168C94.7576 106.168 94.3376 106.355 94.011 106.728C93.7683 106.999 93.591 107.349 93.479 107.778C93.367 108.207 93.311 108.781 93.311 109.5V113H92.121ZM108.451 105.118C109.132 105.118 109.734 105.286 110.257 105.622C110.779 105.958 111.181 106.429 111.461 107.036C111.75 107.643 111.895 108.338 111.895 109.122C111.895 109.906 111.75 110.606 111.461 111.222C111.181 111.829 110.779 112.3 110.257 112.636C109.743 112.972 109.141 113.14 108.451 113.14C107.919 113.14 107.461 113.042 107.079 112.846C106.696 112.65 106.309 112.3 105.917 111.796V115.94H104.727V105.258H105.917V106.462C106.299 105.967 106.682 105.622 107.065 105.426C107.447 105.221 107.909 105.118 108.451 105.118ZM108.339 106.168C107.863 106.168 107.438 106.294 107.065 106.546C106.691 106.798 106.397 107.153 106.183 107.61C105.977 108.058 105.875 108.562 105.875 109.122C105.875 109.691 105.977 110.2 106.183 110.648C106.397 111.096 106.691 111.451 107.065 111.712C107.438 111.964 107.863 112.09 108.339 112.09C108.815 112.09 109.23 111.964 109.585 111.712C109.949 111.451 110.224 111.096 110.411 110.648C110.607 110.2 110.705 109.691 110.705 109.122C110.705 108.562 110.607 108.058 110.411 107.61C110.224 107.162 109.949 106.812 109.585 106.56C109.23 106.299 108.815 106.168 108.339 106.168ZM113.586 113V105.258H114.776V106.322C115.13 105.893 115.508 105.585 115.91 105.398C116.311 105.211 116.778 105.118 117.31 105.118H117.366V106.308H116.96C116.334 106.308 115.835 106.495 115.462 106.868C115.004 107.307 114.776 107.993 114.776 108.926V113H113.586ZM121.815 113.14C121.087 113.14 120.434 112.967 119.855 112.622C119.286 112.277 118.842 111.801 118.525 111.194C118.208 110.587 118.049 109.906 118.049 109.15C118.049 108.431 118.198 107.769 118.497 107.162C118.796 106.546 119.225 106.051 119.785 105.678C120.354 105.305 121.022 105.118 121.787 105.118C122.45 105.118 123.066 105.267 123.635 105.566C124.204 105.865 124.662 106.303 125.007 106.882C125.352 107.451 125.525 108.137 125.525 108.94V109.36H119.225C119.244 109.631 119.295 109.887 119.379 110.13C119.575 110.727 119.888 111.203 120.317 111.558C120.756 111.913 121.25 112.09 121.801 112.09C122.361 112.09 122.842 111.941 123.243 111.642C123.644 111.343 123.934 110.965 124.111 110.508H125.385C125.133 111.292 124.704 111.927 124.097 112.412C123.49 112.897 122.73 113.14 121.815 113.14ZM124.251 108.31C124.232 108.03 124.176 107.778 124.083 107.554C123.887 107.115 123.584 106.775 123.173 106.532C122.772 106.289 122.319 106.168 121.815 106.168C121.302 106.168 120.849 106.289 120.457 106.532C120.074 106.775 119.776 107.115 119.561 107.554C119.468 107.759 119.393 108.011 119.337 108.31H124.251ZM127.19 113V102.318H128.38V106.462C128.762 105.967 129.131 105.622 129.486 105.426C129.85 105.221 130.246 105.118 130.676 105.118C131.768 105.118 132.528 105.524 132.958 106.336C133.116 106.644 133.214 106.961 133.252 107.288C133.298 107.605 133.322 107.955 133.322 108.338V113H132.132V108.338C132.132 107.517 131.982 106.938 131.684 106.602C131.422 106.313 131.026 106.168 130.494 106.168C129.906 106.168 129.434 106.359 129.08 106.742C128.828 107.003 128.646 107.363 128.534 107.82C128.431 108.277 128.38 108.903 128.38 109.696V113H127.19ZM138.7 113.14C137.972 113.14 137.318 112.967 136.74 112.622C136.17 112.277 135.727 111.801 135.41 111.194C135.092 110.587 134.934 109.906 134.934 109.15C134.934 108.431 135.083 107.769 135.382 107.162C135.68 106.546 136.11 106.051 136.67 105.678C137.239 105.305 137.906 105.118 138.672 105.118C139.334 105.118 139.95 105.267 140.52 105.566C141.089 105.865 141.546 106.303 141.892 106.882C142.237 107.451 142.41 108.137 142.41 108.94V109.36H136.11C136.128 109.631 136.18 109.887 136.264 110.13C136.46 110.727 136.772 111.203 137.202 111.558C137.64 111.913 138.135 112.09 138.686 112.09C139.246 112.09 139.726 111.941 140.128 111.642C140.529 111.343 140.818 110.965 140.996 110.508H142.27C142.018 111.292 141.588 111.927 140.982 112.412C140.375 112.897 139.614 113.14 138.7 113.14ZM141.136 108.31C141.117 108.03 141.061 107.778 140.968 107.554C140.772 107.115 140.468 106.775 140.058 106.532C139.656 106.289 139.204 106.168 138.7 106.168C138.186 106.168 137.734 106.289 137.342 106.532C136.959 106.775 136.66 107.115 136.446 107.554C136.352 107.759 136.278 108.011 136.222 108.31H141.136ZM144.06 113V105.258H145.25V106.462C145.633 105.967 146.002 105.622 146.356 105.426C146.72 105.221 147.117 105.118 147.546 105.118C148.638 105.118 149.399 105.524 149.828 106.336C149.987 106.644 150.085 106.961 150.122 107.288C150.169 107.605 150.192 107.955 150.192 108.338V113H149.002V108.338C149.002 107.517 148.853 106.938 148.554 106.602C148.293 106.313 147.896 106.168 147.364 106.168C146.776 106.168 146.305 106.359 145.95 106.742C145.698 107.003 145.516 107.363 145.404 107.82C145.302 108.277 145.25 108.903 145.25 109.696V113H144.06ZM155.249 113.14C154.269 113.14 153.471 112.907 152.855 112.44C152.239 111.973 151.865 111.329 151.735 110.508H152.981C153.083 111.003 153.321 111.39 153.695 111.67C154.077 111.95 154.6 112.09 155.263 112.09C155.804 112.09 156.233 111.987 156.551 111.782C156.877 111.577 157.041 111.283 157.041 110.9C157.041 110.601 156.943 110.363 156.747 110.186C156.56 109.999 156.317 109.859 156.019 109.766C155.729 109.673 155.342 109.579 154.857 109.486C154.25 109.365 153.76 109.243 153.387 109.122C153.023 108.991 152.71 108.786 152.449 108.506C152.187 108.226 152.057 107.839 152.057 107.344C152.057 106.644 152.318 106.098 152.841 105.706C153.373 105.314 154.049 105.118 154.871 105.118C155.711 105.118 156.411 105.337 156.971 105.776C157.531 106.215 157.876 106.817 158.007 107.582H156.901C156.789 107.106 156.555 106.751 156.201 106.518C155.846 106.285 155.403 106.168 154.871 106.168C154.357 106.168 153.956 106.266 153.667 106.462C153.387 106.649 153.247 106.91 153.247 107.246C153.247 107.507 153.335 107.713 153.513 107.862C153.69 108.011 153.909 108.128 154.171 108.212C154.432 108.287 154.801 108.371 155.277 108.464C155.902 108.585 156.411 108.716 156.803 108.856C157.195 108.987 157.531 109.206 157.811 109.514C158.091 109.813 158.231 110.233 158.231 110.774C158.231 111.502 157.969 112.081 157.447 112.51C156.924 112.93 156.191 113.14 155.249 113.14ZM161.11 113H159.92V105.258H161.11V113ZM160.522 103.928C160.27 103.928 160.055 103.844 159.878 103.676C159.7 103.499 159.612 103.289 159.612 103.046C159.612 102.803 159.7 102.598 159.878 102.43C160.055 102.262 160.27 102.178 160.522 102.178C160.774 102.178 160.988 102.262 161.166 102.43C161.343 102.598 161.432 102.803 161.432 103.046C161.432 103.289 161.343 103.499 161.166 103.676C160.988 103.844 160.774 103.928 160.522 103.928ZM166.214 113H165.234L162.378 105.258H163.694L165.724 110.984L167.782 105.258H169.084L166.214 113ZM173.659 113.14C172.931 113.14 172.277 112.967 171.699 112.622C171.129 112.277 170.686 111.801 170.369 111.194C170.051 110.587 169.893 109.906 169.893 109.15C169.893 108.431 170.042 107.769 170.341 107.162C170.639 106.546 171.069 106.051 171.629 105.678C172.198 105.305 172.865 105.118 173.631 105.118C174.293 105.118 174.909 105.267 175.479 105.566C176.048 105.865 176.505 106.303 176.851 106.882C177.196 107.451 177.369 108.137 177.369 108.94V109.36H171.069C171.087 109.631 171.139 109.887 171.223 110.13C171.419 110.727 171.731 111.203 172.161 111.558C172.599 111.913 173.094 112.09 173.645 112.09C174.205 112.09 174.685 111.941 175.087 111.642C175.488 111.343 175.777 110.965 175.955 110.508H177.229C176.977 111.292 176.547 111.927 175.941 112.412C175.334 112.897 174.573 113.14 173.659 113.14ZM176.095 108.31C176.076 108.03 176.02 107.778 175.927 107.554C175.731 107.115 175.427 106.775 175.017 106.532C174.615 106.289 174.163 106.168 173.659 106.168C173.145 106.168 172.693 106.289 172.301 106.532C171.918 106.775 171.619 107.115 171.405 107.554C171.311 107.759 171.237 108.011 171.181 108.31H176.095ZM185.407 113C184.782 113 184.32 112.86 184.021 112.58C183.723 112.3 183.573 111.791 183.573 111.054V106.308H182.327V105.258H183.573V102.318H184.763V105.258H186.499V106.308H184.763V110.816C184.763 111.087 184.782 111.301 184.819 111.46C184.857 111.609 184.941 111.731 185.071 111.824C185.202 111.908 185.407 111.95 185.687 111.95H186.485V113H185.407ZM191.241 113.14C190.513 113.14 189.86 112.967 189.281 112.622C188.712 112.277 188.264 111.796 187.937 111.18C187.62 110.564 187.461 109.869 187.461 109.094C187.461 108.338 187.62 107.657 187.937 107.05C188.264 106.443 188.712 105.972 189.281 105.636C189.86 105.291 190.513 105.118 191.241 105.118C191.969 105.118 192.622 105.291 193.201 105.636C193.78 105.972 194.232 106.443 194.559 107.05C194.886 107.657 195.049 108.338 195.049 109.094C195.049 109.869 194.886 110.564 194.559 111.18C194.242 111.787 193.794 112.267 193.215 112.622C192.636 112.967 191.978 113.14 191.241 113.14ZM191.241 112.09C191.726 112.09 192.165 111.959 192.557 111.698C192.958 111.437 193.271 111.082 193.495 110.634C193.728 110.177 193.845 109.663 193.845 109.094C193.845 108.553 193.733 108.058 193.509 107.61C193.285 107.162 192.972 106.812 192.571 106.56C192.179 106.299 191.736 106.168 191.241 106.168C190.756 106.168 190.312 106.294 189.911 106.546C189.519 106.798 189.211 107.148 188.987 107.596C188.763 108.044 188.651 108.543 188.651 109.094C188.651 109.663 188.763 110.177 188.987 110.634C189.211 111.091 189.519 111.451 189.911 111.712C190.312 111.964 190.756 112.09 191.241 112.09ZM200.462 105.118C201.144 105.118 201.746 105.286 202.268 105.622C202.791 105.958 203.192 106.429 203.472 107.036C203.762 107.643 203.906 108.338 203.906 109.122C203.906 109.906 203.762 110.606 203.472 111.222C203.192 111.829 202.791 112.3 202.268 112.636C201.755 112.972 201.153 113.14 200.462 113.14C199.93 113.14 199.473 113.042 199.09 112.846C198.708 112.65 198.32 112.3 197.928 111.796V115.94H196.738V105.258H197.928V106.462C198.311 105.967 198.694 105.622 199.076 105.426C199.459 105.221 199.921 105.118 200.462 105.118ZM200.35 106.168C199.874 106.168 199.45 106.294 199.076 106.546C198.703 106.798 198.409 107.153 198.194 107.61C197.989 108.058 197.886 108.562 197.886 109.122C197.886 109.691 197.989 110.2 198.194 110.648C198.409 111.096 198.703 111.451 199.076 111.712C199.45 111.964 199.874 112.09 200.35 112.09C200.826 112.09 201.242 111.964 201.596 111.712C201.96 111.451 202.236 111.096 202.422 110.648C202.618 110.2 202.716 109.691 202.716 109.122C202.716 108.562 202.618 108.058 202.422 107.61C202.236 107.162 201.96 106.812 201.596 106.56C201.242 106.299 200.826 106.168 200.35 106.168ZM206.788 113H205.598V105.258H206.788V113ZM206.2 103.928C205.948 103.928 205.733 103.844 205.556 103.676C205.378 103.499 205.29 103.289 205.29 103.046C205.29 102.803 205.378 102.598 205.556 102.43C205.733 102.262 205.948 102.178 206.2 102.178C206.452 102.178 206.666 102.262 206.844 102.43C207.021 102.598 207.11 102.803 207.11 103.046C207.11 103.289 207.021 103.499 206.844 103.676C206.666 103.844 206.452 103.928 206.2 103.928ZM212.199 113.14C211.471 113.14 210.823 112.967 210.253 112.622C209.684 112.277 209.241 111.796 208.923 111.18C208.606 110.564 208.447 109.869 208.447 109.094C208.447 108.338 208.606 107.657 208.923 107.05C209.241 106.443 209.684 105.972 210.253 105.636C210.823 105.291 211.471 105.118 212.199 105.118C213.067 105.118 213.8 105.342 214.397 105.79C215.004 106.229 215.396 106.826 215.573 107.582H214.299C214.15 107.153 213.884 106.812 213.501 106.56C213.128 106.299 212.694 106.168 212.199 106.168C211.714 106.168 211.275 106.294 210.883 106.546C210.501 106.798 210.197 107.148 209.973 107.596C209.749 108.035 209.637 108.534 209.637 109.094C209.637 109.673 209.745 110.191 209.959 110.648C210.183 111.096 210.491 111.451 210.883 111.712C211.275 111.964 211.714 112.09 212.199 112.09C212.731 112.09 213.189 111.945 213.571 111.656C213.963 111.367 214.225 110.984 214.355 110.508H215.629C215.461 111.329 215.065 111.973 214.439 112.44C213.823 112.907 213.077 113.14 212.199 113.14ZM20.116 130.14C19.136 130.14 18.338 129.907 17.722 129.44C17.106 128.973 16.7327 128.329 16.602 127.508H17.848C17.9507 128.003 18.1887 128.39 18.562 128.67C18.9447 128.95 19.4673 129.09 20.13 129.09C20.6713 129.09 21.1007 128.987 21.418 128.782C21.7447 128.577 21.908 128.283 21.908 127.9C21.908 127.601 21.81 127.363 21.614 127.186C21.4273 126.999 21.1847 126.859 20.886 126.766C20.5967 126.673 20.2093 126.579 19.724 126.486C19.1173 126.365 18.6273 126.243 18.254 126.122C17.89 125.991 17.5773 125.786 17.316 125.506C17.0547 125.226 16.924 124.839 16.924 124.344C16.924 123.644 17.1853 123.098 17.708 122.706C18.24 122.314 18.9167 122.118 19.738 122.118C20.578 122.118 21.278 122.337 21.838 122.776C22.398 123.215 22.7433 123.817 22.874 124.582H21.768C21.656 124.106 21.4227 123.751 21.068 123.518C20.7133 123.285 20.27 123.168 19.738 123.168C19.2247 123.168 18.8233 123.266 18.534 123.462C18.254 123.649 18.114 123.91 18.114 124.246C18.114 124.507 18.2027 124.713 18.38 124.862C18.5573 125.011 18.7767 125.128 19.038 125.212C19.2993 125.287 19.668 125.371 20.144 125.464C20.7693 125.585 21.278 125.716 21.67 125.856C22.062 125.987 22.398 126.206 22.678 126.514C22.958 126.813 23.098 127.233 23.098 127.774C23.098 128.502 22.8367 129.081 22.314 129.51C21.7913 129.93 21.0587 130.14 20.116 130.14ZM27.405 130.14C26.3223 130.14 25.5616 129.734 25.123 128.922C24.8803 128.465 24.759 127.797 24.759 126.92V122.258H25.949V126.92C25.949 127.741 26.0983 128.32 26.397 128.656C26.6583 128.945 27.055 129.09 27.587 129.09C28.175 129.09 28.6463 128.899 29.001 128.516C29.253 128.255 29.4303 127.895 29.533 127.438C29.645 126.981 29.701 126.355 29.701 125.562V122.258H30.891V130H29.701V128.796C29.3276 129.272 28.959 129.617 28.595 129.832C28.2403 130.037 27.8436 130.14 27.405 130.14ZM32.8807 130V122.258H34.0707V123.462C34.4534 122.967 34.8221 122.622 35.1767 122.426C35.5407 122.221 35.9374 122.118 36.3667 122.118C36.8894 122.118 37.3467 122.239 37.7387 122.482C38.1401 122.725 38.3967 123.079 38.5087 123.546C38.9941 122.594 39.8107 122.118 40.9587 122.118C41.8174 122.118 42.4614 122.365 42.8907 122.86C43.3201 123.345 43.5347 124.045 43.5347 124.96V130H42.3447V125.24C42.3447 124.577 42.2047 124.069 41.9247 123.714C41.6541 123.35 41.2714 123.168 40.7767 123.168C40.2634 123.168 39.8434 123.341 39.5167 123.686C39.2554 123.966 39.0687 124.33 38.9567 124.778C38.8541 125.226 38.8027 125.8 38.8027 126.5V130H37.6127V125.24C37.6127 124.587 37.4681 124.078 37.1787 123.714C36.8987 123.35 36.5161 123.168 36.0307 123.168C35.5174 123.168 35.0974 123.355 34.7707 123.728C34.5281 123.999 34.3507 124.349 34.2387 124.778C34.1267 125.207 34.0707 125.781 34.0707 126.5V130H32.8807ZM45.4725 130V122.258H46.6625V123.462C47.0452 122.967 47.4138 122.622 47.7685 122.426C48.1325 122.221 48.5292 122.118 48.9585 122.118C49.4812 122.118 49.9385 122.239 50.3305 122.482C50.7318 122.725 50.9885 123.079 51.1005 123.546C51.5858 122.594 52.4025 122.118 53.5505 122.118C54.4092 122.118 55.0532 122.365 55.4825 122.86C55.9118 123.345 56.1265 124.045 56.1265 124.96V130H54.9365V125.24C54.9365 124.577 54.7965 124.069 54.5165 123.714C54.2458 123.35 53.8632 123.168 53.3685 123.168C52.8552 123.168 52.4352 123.341 52.1085 123.686C51.8472 123.966 51.6605 124.33 51.5485 124.778C51.4458 125.226 51.3945 125.8 51.3945 126.5V130H50.2045V125.24C50.2045 124.587 50.0598 124.078 49.7705 123.714C49.4905 123.35 49.1078 123.168 48.6225 123.168C48.1092 123.168 47.6892 123.355 47.3625 123.728C47.1198 123.999 46.9425 124.349 46.8305 124.778C46.7185 125.207 46.6625 125.781 46.6625 126.5V130H45.4725ZM60.2623 130.14C59.4876 130.14 58.8716 129.944 58.4143 129.552C57.9663 129.16 57.7423 128.623 57.7423 127.942C57.7423 127.27 57.9943 126.738 58.4983 126.346C58.909 126.019 59.5016 125.777 60.2763 125.618L63.0343 125.086C63.0343 124.479 62.8756 124.017 62.5583 123.7C62.2036 123.345 61.7276 123.168 61.1303 123.168C60.6543 123.168 60.239 123.299 59.8843 123.56C59.539 123.812 59.3196 124.153 59.2263 124.582H58.0363C58.167 123.807 58.5216 123.205 59.1003 122.776C59.6883 122.337 60.3696 122.118 61.1443 122.118C61.6016 122.118 62.0263 122.188 62.4183 122.328C62.8103 122.459 63.1416 122.655 63.4123 122.916C63.767 123.252 63.991 123.639 64.0843 124.078C64.1776 124.517 64.2243 124.969 64.2243 125.436V130H63.0343V128.782C62.7636 129.174 62.451 129.477 62.0963 129.692C61.6203 129.991 61.009 130.14 60.2623 130.14ZM60.4023 129.09C60.8783 129.09 61.289 129.001 61.6343 128.824C62.157 128.553 62.521 128.194 62.7263 127.746C62.941 127.298 63.0483 126.733 63.0483 126.052L60.5283 126.556C59.9496 126.668 59.525 126.85 59.2543 127.102C59.0396 127.317 58.9323 127.587 58.9323 127.914C58.9323 128.269 59.063 128.553 59.3243 128.768C59.595 128.983 59.9543 129.09 60.4023 129.09ZM66.1307 130V122.258H67.3207V123.322C67.6754 122.893 68.0534 122.585 68.4547 122.398C68.8561 122.211 69.3227 122.118 69.8547 122.118H69.9107V123.308H69.5047C68.8794 123.308 68.3801 123.495 68.0067 123.868C67.5494 124.307 67.3207 124.993 67.3207 125.926V130H66.1307ZM72.4067 130H71.2167V122.258H72.4067V130ZM71.8187 120.928C71.5667 120.928 71.352 120.844 71.1747 120.676C70.9973 120.499 70.9087 120.289 70.9087 120.046C70.9087 119.803 70.9973 119.598 71.1747 119.43C71.352 119.262 71.5667 119.178 71.8187 119.178C72.0707 119.178 72.2853 119.262 72.4627 119.43C72.64 119.598 72.7287 119.803 72.7287 120.046C72.7287 120.289 72.64 120.499 72.4627 120.676C72.2853 120.844 72.0707 120.928 71.8187 120.928ZM77.8325 130.14C77.1045 130.14 76.4512 129.967 75.8725 129.622C75.3032 129.277 74.8599 128.801 74.5425 128.194C74.2252 127.587 74.0665 126.906 74.0665 126.15C74.0665 125.431 74.2159 124.769 74.5145 124.162C74.8132 123.546 75.2425 123.051 75.8025 122.678C76.3719 122.305 77.0392 122.118 77.8045 122.118C78.4672 122.118 79.0832 122.267 79.6525 122.566C80.2219 122.865 80.6792 123.303 81.0245 123.882C81.3699 124.451 81.5425 125.137 81.5425 125.94V126.36H75.2425C75.2612 126.631 75.3125 126.887 75.3965 127.13C75.5925 127.727 75.9052 128.203 76.3345 128.558C76.7732 128.913 77.2679 129.09 77.8185 129.09C78.3785 129.09 78.8592 128.941 79.2605 128.642C79.6619 128.343 79.9512 127.965 80.1285 127.508H81.4025C81.1505 128.292 80.7212 128.927 80.1145 129.412C79.5079 129.897 78.7472 130.14 77.8325 130.14ZM80.2685 125.31C80.2499 125.03 80.1939 124.778 80.1005 124.554C79.9045 124.115 79.6012 123.775 79.1905 123.532C78.7892 123.289 78.3365 123.168 77.8325 123.168C77.3192 123.168 76.8665 123.289 76.4745 123.532C76.0919 123.775 75.7932 124.115 75.5785 124.554C75.4852 124.759 75.4105 125.011 75.3545 125.31H80.2685ZM86.3152 130.14C85.3352 130.14 84.5372 129.907 83.9212 129.44C83.3052 128.973 82.9319 128.329 82.8012 127.508H84.0472C84.1499 128.003 84.3879 128.39 84.7612 128.67C85.1439 128.95 85.6666 129.09 86.3292 129.09C86.8706 129.09 87.2999 128.987 87.6172 128.782C87.9439 128.577 88.1072 128.283 88.1072 127.9C88.1072 127.601 88.0092 127.363 87.8132 127.186C87.6266 126.999 87.3839 126.859 87.0852 126.766C86.7959 126.673 86.4086 126.579 85.9232 126.486C85.3166 126.365 84.8266 126.243 84.4532 126.122C84.0892 125.991 83.7766 125.786 83.5152 125.506C83.2539 125.226 83.1232 124.839 83.1232 124.344C83.1232 123.644 83.3846 123.098 83.9072 122.706C84.4392 122.314 85.1159 122.118 85.9372 122.118C86.7772 122.118 87.4772 122.337 88.0372 122.776C88.5972 123.215 88.9426 123.817 89.0732 124.582H87.9672C87.8552 124.106 87.6219 123.751 87.2672 123.518C86.9126 123.285 86.4692 123.168 85.9372 123.168C85.4239 123.168 85.0226 123.266 84.7332 123.462C84.4532 123.649 84.3132 123.91 84.3132 124.246C84.3132 124.507 84.4019 124.713 84.5792 124.862C84.7566 125.011 84.9759 125.128 85.2372 125.212C85.4986 125.287 85.8672 125.371 86.3432 125.464C86.9686 125.585 87.4772 125.716 87.8692 125.856C88.2612 125.987 88.5972 126.206 88.8772 126.514C89.1572 126.813 89.2972 127.233 89.2972 127.774C89.2972 128.502 89.0359 129.081 88.5132 129.51C87.9906 129.93 87.2579 130.14 86.3152 130.14Z" fill="black" fill-opacity="0.5"/>
</svg>
