<svg width="311" height="308" viewBox="0 0 311 308" fill="none" xmlns="http://www.w3.org/2000/svg">
<rect width="311" height="371" rx="16" fill="white"/>
<rect x="0.5" y="0.5" width="310" height="370" rx="15.5" stroke="black" stroke-opacity="0.1"/>
<path d="M20.9 30H19.444L16.28 19.318H17.624L20.27 28.152L22.902 19.318H24.134L26.78 28.166L29.412 19.318H30.756L27.592 30H26.136L23.518 21.418L20.9 30ZM32.0471 30V19.318H33.2371V23.462C33.6197 22.9673 33.9884 22.622 34.3431 22.426C34.7071 22.2207 35.1037 22.118 35.5331 22.118C36.6251 22.118 37.3857 22.524 37.8151 23.336C37.9737 23.644 38.0717 23.9613 38.1091 24.288C38.1557 24.6053 38.1791 24.9553 38.1791 25.338V30H36.9891V25.338C36.9891 24.5167 36.8397 23.938 36.5411 23.602C36.2797 23.3127 35.8831 23.168 35.3511 23.168C34.7631 23.168 34.2917 23.3593 33.9371 23.742C33.6851 24.0033 33.5031 24.3627 33.3911 24.82C33.2884 25.2773 33.2371 25.9027 33.2371 26.696V30H32.0471ZM41.3031 30H40.1131V22.258H41.3031V30ZM40.7151 20.928C40.4631 20.928 40.2485 20.844 40.0711 20.676C39.8938 20.4987 39.8051 20.2887 39.8051 20.046C39.8051 19.8033 39.8938 19.598 40.0711 19.43C40.2485 19.262 40.4631 19.178 40.7151 19.178C40.9671 19.178 41.1818 19.262 41.3591 19.43C41.5365 19.598 41.6251 19.8033 41.6251 20.046C41.6251 20.2887 41.5365 20.4987 41.3591 20.676C41.1818 20.844 40.9671 20.928 40.7151 20.928ZM46.715 30.14C45.987 30.14 45.3383 29.9673 44.769 29.622C44.1997 29.2767 43.7563 28.796 43.439 28.18C43.1217 27.564 42.963 26.8687 42.963 26.094C42.963 25.338 43.1217 24.6567 43.439 24.05C43.7563 23.4433 44.1997 22.972 44.769 22.636C45.3383 22.2907 45.987 22.118 46.715 22.118C47.583 22.118 48.3157 22.342 48.913 22.79C49.5197 23.2287 49.9117 23.826 50.089 24.582H48.815C48.6657 24.1527 48.3997 23.812 48.017 23.56C47.6437 23.2987 47.2097 23.168 46.715 23.168C46.2297 23.168 45.791 23.294 45.399 23.546C45.0163 23.798 44.713 24.148 44.489 24.596C44.265 25.0347 44.153 25.534 44.153 26.094C44.153 26.6727 44.2603 27.1907 44.475 27.648C44.699 28.096 45.007 28.4507 45.399 28.712C45.791 28.964 46.2297 29.09 46.715 29.09C47.247 29.09 47.7043 28.9453 48.087 28.656C48.479 28.3667 48.7403 27.984 48.871 27.508H50.145C49.977 28.3293 49.5803 28.9733 48.955 29.44C48.339 29.9067 47.5923 30.14 46.715 30.14ZM51.7209 30V19.318H52.9109V23.462C53.2936 22.9673 53.6622 22.622 54.0169 22.426C54.3809 22.2207 54.7776 22.118 55.2069 22.118C56.2989 22.118 57.0596 22.524 57.4889 23.336C57.6476 23.644 57.7456 23.9613 57.7829 24.288C57.8296 24.6053 57.8529 24.9553 57.8529 25.338V30H56.6629V25.338C56.6629 24.5167 56.5136 23.938 56.2149 23.602C55.9536 23.3127 55.5569 23.168 55.0249 23.168C54.4369 23.168 53.9656 23.3593 53.6109 23.742C53.3589 24.0033 53.1769 24.3627 53.0649 24.82C52.9622 25.2773 52.9109 25.9027 52.9109 26.696V30H51.7209ZM67.1688 30.14C66.4408 30.14 65.7875 29.9673 65.2088 29.622C64.6395 29.2767 64.1915 28.796 63.8648 28.18C63.5475 27.564 63.3888 26.8687 63.3888 26.094C63.3888 25.338 63.5475 24.6567 63.8648 24.05C64.1915 23.4433 64.6395 22.972 65.2088 22.636C65.7875 22.2907 66.4408 22.118 67.1688 22.118C67.8968 22.118 68.5501 22.2907 69.1288 22.636C69.7075 22.972 70.1601 23.4433 70.4868 24.05C70.8135 24.6567 70.9768 25.338 70.9768 26.094C70.9768 26.8687 70.8135 27.564 70.4868 28.18C70.1695 28.7867 69.7215 29.2673 69.1428 29.622C68.5641 29.9673 67.9061 30.14 67.1688 30.14ZM67.1688 29.09C67.6541 29.09 68.0928 28.9593 68.4848 28.698C68.8861 28.4367 69.1988 28.082 69.4228 27.634C69.6561 27.1767 69.7728 26.6633 69.7728 26.094C69.7728 25.5527 69.6608 25.058 69.4368 24.61C69.2128 24.162 68.9001 23.812 68.4988 23.56C68.1068 23.2987 67.6635 23.168 67.1688 23.168C66.6835 23.168 66.2401 23.294 65.8388 23.546C65.4468 23.798 65.1388 24.148 64.9148 24.596C64.6908 25.044 64.5788 25.5433 64.5788 26.094C64.5788 26.6633 64.6908 27.1767 64.9148 27.634C65.1388 28.0913 65.4468 28.4507 65.8388 28.712C66.2401 28.964 66.6835 29.09 67.1688 29.09ZM73.1188 30V23.308H71.8308V22.258H73.1188V21.418C73.1188 20.7273 73.2868 20.2047 73.6228 19.85C73.9588 19.4953 74.4581 19.318 75.1208 19.318H76.1148V20.368H75.3868C75.0135 20.368 74.7381 20.466 74.5608 20.662C74.3928 20.858 74.3088 21.1613 74.3088 21.572V22.258H76.1148V23.308H74.3088V30H73.1188ZM83.7842 30C83.1588 30 82.6968 29.86 82.3982 29.58C82.0995 29.3 81.9502 28.7913 81.9502 28.054V23.308H80.7042V22.258H81.9502V19.318H83.1402V22.258H84.8762V23.308H83.1402V27.816C83.1402 28.0867 83.1588 28.3013 83.1962 28.46C83.2335 28.6093 83.3175 28.7307 83.4482 28.824C83.5788 28.908 83.7842 28.95 84.0642 28.95H84.8622V30H83.7842ZM86.3928 30V19.318H87.5828V23.462C87.9654 22.9673 88.3341 22.622 88.6888 22.426C89.0528 22.2207 89.4494 22.118 89.8788 22.118C90.9708 22.118 91.7314 22.524 92.1608 23.336C92.3194 23.644 92.4174 23.9613 92.4548 24.288C92.5014 24.6053 92.5248 24.9553 92.5248 25.338V30H91.3348V25.338C91.3348 24.5167 91.1854 23.938 90.8868 23.602C90.6254 23.3127 90.2288 23.168 89.6968 23.168C89.1088 23.168 88.6374 23.3593 88.2828 23.742C88.0308 24.0033 87.8488 24.3627 87.7368 24.82C87.6341 25.2773 87.5828 25.9027 87.5828 26.696V30H86.3928ZM97.9028 30.14C97.1748 30.14 96.5215 29.9673 95.9428 29.622C95.3735 29.2767 94.9302 28.8007 94.6128 28.194C94.2955 27.5873 94.1368 26.906 94.1368 26.15C94.1368 25.4313 94.2862 24.7687 94.5848 24.162C94.8835 23.546 95.3128 23.0513 95.8728 22.678C96.4422 22.3047 97.1095 22.118 97.8748 22.118C98.5375 22.118 99.1535 22.2673 99.7228 22.566C100.292 22.8647 100.75 23.3033 101.095 23.882C101.44 24.4513 101.613 25.1373 101.613 25.94V26.36H95.3128C95.3315 26.6307 95.3828 26.8873 95.4668 27.13C95.6628 27.7273 95.9755 28.2033 96.4048 28.558C96.8435 28.9127 97.3382 29.09 97.8888 29.09C98.4488 29.09 98.9295 28.9407 99.3308 28.642C99.7322 28.3433 100.022 27.9653 100.199 27.508H101.473C101.221 28.292 100.792 28.9267 100.185 29.412C99.5782 29.8973 98.8175 30.14 97.9028 30.14ZM100.339 25.31C100.32 25.03 100.264 24.778 100.171 24.554C99.9748 24.1153 99.6715 23.7747 99.2608 23.532C98.8595 23.2893 98.4068 23.168 97.9028 23.168C97.3895 23.168 96.9368 23.2893 96.5448 23.532C96.1622 23.7747 95.8635 24.1153 95.6488 24.554C95.5555 24.7593 95.4808 25.0113 95.4248 25.31H100.339ZM107.845 30V23.308H106.557V22.258H107.845V21.418C107.845 20.7273 108.013 20.2047 108.349 19.85C108.685 19.4953 109.185 19.318 109.847 19.318H110.841V20.368H110.113C109.74 20.368 109.465 20.466 109.287 20.662C109.119 20.858 109.035 21.1613 109.035 21.572V22.258H110.841V23.308H109.035V30H107.845ZM115.307 30.14C114.579 30.14 113.926 29.9673 113.347 29.622C112.778 29.2767 112.33 28.796 112.003 28.18C111.686 27.564 111.527 26.8687 111.527 26.094C111.527 25.338 111.686 24.6567 112.003 24.05C112.33 23.4433 112.778 22.972 113.347 22.636C113.926 22.2907 114.579 22.118 115.307 22.118C116.035 22.118 116.689 22.2907 117.267 22.636C117.846 22.972 118.299 23.4433 118.625 24.05C118.952 24.6567 119.115 25.338 119.115 26.094C119.115 26.8687 118.952 27.564 118.625 28.18C118.308 28.7867 117.86 29.2673 117.281 29.622C116.703 29.9673 116.045 30.14 115.307 30.14ZM115.307 29.09C115.793 29.09 116.231 28.9593 116.623 28.698C117.025 28.4367 117.337 28.082 117.561 27.634C117.795 27.1767 117.911 26.6633 117.911 26.094C117.911 25.5527 117.799 25.058 117.575 24.61C117.351 24.162 117.039 23.812 116.637 23.56C116.245 23.2987 115.802 23.168 115.307 23.168C114.822 23.168 114.379 23.294 113.977 23.546C113.585 23.798 113.277 24.148 113.053 24.596C112.829 25.044 112.717 25.5433 112.717 26.094C112.717 26.6633 112.829 27.1767 113.053 27.634C113.277 28.0913 113.585 28.4507 113.977 28.712C114.379 28.964 114.822 29.09 115.307 29.09ZM122.597 30C121.972 30 121.51 29.86 121.211 29.58C120.912 29.3 120.763 28.7913 120.763 28.054V19.318H121.953V27.872C121.953 28.1427 121.972 28.3527 122.009 28.502C122.046 28.642 122.13 28.754 122.261 28.838C122.392 28.9127 122.597 28.95 122.877 28.95H123.255V30H122.597ZM126.48 30C125.854 30 125.392 29.86 125.094 29.58C124.795 29.3 124.646 28.7913 124.646 28.054V19.318H125.836V27.872C125.836 28.1427 125.854 28.3527 125.892 28.502C125.929 28.642 126.013 28.754 126.144 28.838C126.274 28.9127 126.48 28.95 126.76 28.95H127.138V30H126.48ZM131.645 30.14C130.917 30.14 130.264 29.9673 129.685 29.622C129.116 29.2767 128.668 28.796 128.341 28.18C128.024 27.564 127.865 26.8687 127.865 26.094C127.865 25.338 128.024 24.6567 128.341 24.05C128.668 23.4433 129.116 22.972 129.685 22.636C130.264 22.2907 130.917 22.118 131.645 22.118C132.373 22.118 133.027 22.2907 133.605 22.636C134.184 22.972 134.637 23.4433 134.963 24.05C135.29 24.6567 135.453 25.338 135.453 26.094C135.453 26.8687 135.29 27.564 134.963 28.18C134.646 28.7867 134.198 29.2673 133.619 29.622C133.041 29.9673 132.383 30.14 131.645 30.14ZM131.645 29.09C132.131 29.09 132.569 28.9593 132.961 28.698C133.363 28.4367 133.675 28.082 133.899 27.634C134.133 27.1767 134.249 26.6633 134.249 26.094C134.249 25.5527 134.137 25.058 133.913 24.61C133.689 24.162 133.377 23.812 132.975 23.56C132.583 23.2987 132.14 23.168 131.645 23.168C131.16 23.168 130.717 23.294 130.315 23.546C129.923 23.798 129.615 24.148 129.391 24.596C129.167 25.044 129.055 25.5433 129.055 26.094C129.055 26.6633 129.167 27.1767 129.391 27.634C129.615 28.0913 129.923 28.4507 130.315 28.712C130.717 28.964 131.16 29.09 131.645 29.09ZM139.859 30H138.753L136.485 22.258H137.759L139.383 28.068L141.329 22.258H142.407L144.353 28.068L145.991 22.258H147.265L144.969 30H143.863L141.875 23.938L139.859 30ZM149.803 30H148.613V22.258H149.803V30ZM149.215 20.928C148.963 20.928 148.748 20.844 148.571 20.676C148.394 20.4987 148.305 20.2887 148.305 20.046C148.305 19.8033 148.394 19.598 148.571 19.43C148.748 19.262 148.963 19.178 149.215 19.178C149.467 19.178 149.682 19.262 149.859 19.43C150.036 19.598 150.125 19.8033 150.125 20.046C150.125 20.2887 150.036 20.4987 149.859 20.676C149.682 20.844 149.467 20.928 149.215 20.928ZM151.785 30V22.258H152.975V23.462C153.358 22.9673 153.726 22.622 154.081 22.426C154.445 22.2207 154.842 22.118 155.271 22.118C156.363 22.118 157.124 22.524 157.553 23.336C157.712 23.644 157.81 23.9613 157.847 24.288C157.894 24.6053 157.917 24.9553 157.917 25.338V30H156.727V25.338C156.727 24.5167 156.578 23.938 156.279 23.602C156.018 23.3127 155.621 23.168 155.089 23.168C154.501 23.168 154.03 23.3593 153.675 23.742C153.423 24.0033 153.241 24.3627 153.129 24.82C153.026 25.2773 152.975 25.9027 152.975 26.696V30H151.785ZM163.267 33.08C162.381 33.08 161.615 32.8887 160.971 32.506C160.337 32.1233 159.949 31.498 159.809 30.63H161.027C161.27 31.5633 162.012 32.03 163.253 32.03C164.793 32.03 165.563 31.3393 165.563 29.958V28.796C165.171 29.3 164.784 29.65 164.401 29.846C164.019 30.042 163.561 30.14 163.029 30.14C162.348 30.14 161.746 29.972 161.223 29.636C160.701 29.3 160.295 28.8333 160.005 28.236C159.725 27.6293 159.585 26.9387 159.585 26.164C159.585 25.3707 159.725 24.6707 160.005 24.064C160.295 23.448 160.696 22.972 161.209 22.636C161.732 22.2907 162.334 22.118 163.015 22.118C163.557 22.118 164.019 22.2207 164.401 22.426C164.784 22.622 165.171 22.9673 165.563 23.462V22.258H166.753V29.734C166.753 30.9287 166.445 31.7827 165.829 32.296C165.213 32.8187 164.359 33.08 163.267 33.08ZM163.141 29.09C163.617 29.09 164.042 28.964 164.415 28.712C164.789 28.4507 165.078 28.096 165.283 27.648C165.498 27.2 165.605 26.6913 165.605 26.122C165.605 25.562 165.498 25.058 165.283 24.61C165.078 24.162 164.784 23.812 164.401 23.56C164.028 23.2987 163.608 23.168 163.141 23.168C162.665 23.168 162.245 23.2987 161.881 23.56C161.527 23.812 161.251 24.162 161.055 24.61C160.869 25.058 160.775 25.562 160.775 26.122C160.775 26.6913 160.869 27.2 161.055 27.648C161.251 28.096 161.527 28.4507 161.881 28.712C162.245 28.964 162.665 29.09 163.141 29.09ZM173.852 30H172.662V22.258H173.852V30ZM173.264 20.928C173.012 20.928 172.797 20.844 172.62 20.676C172.443 20.4987 172.354 20.2887 172.354 20.046C172.354 19.8033 172.443 19.598 172.62 19.43C172.797 19.262 173.012 19.178 173.264 19.178C173.516 19.178 173.731 19.262 173.908 19.43C174.085 19.598 174.174 19.8033 174.174 20.046C174.174 20.2887 174.085 20.4987 173.908 20.676C173.731 20.844 173.516 20.928 173.264 20.928ZM178.956 30.14C177.976 30.14 177.178 29.9067 176.562 29.44C175.946 28.9733 175.573 28.3293 175.442 27.508H176.688C176.791 28.0027 177.029 28.39 177.402 28.67C177.785 28.95 178.307 29.09 178.97 29.09C179.511 29.09 179.941 28.9873 180.258 28.782C180.585 28.5767 180.748 28.2827 180.748 27.9C180.748 27.6013 180.65 27.3633 180.454 27.186C180.267 26.9993 180.025 26.8593 179.726 26.766C179.437 26.6727 179.049 26.5793 178.564 26.486C177.957 26.3647 177.467 26.2433 177.094 26.122C176.73 25.9913 176.417 25.786 176.156 25.506C175.895 25.226 175.764 24.8387 175.764 24.344C175.764 23.644 176.025 23.098 176.548 22.706C177.08 22.314 177.757 22.118 178.578 22.118C179.418 22.118 180.118 22.3373 180.678 22.776C181.238 23.2147 181.583 23.8167 181.714 24.582H180.608C180.496 24.106 180.263 23.7513 179.908 23.518C179.553 23.2847 179.11 23.168 178.578 23.168C178.065 23.168 177.663 23.266 177.374 23.462C177.094 23.6487 176.954 23.91 176.954 24.246C176.954 24.5073 177.043 24.7127 177.22 24.862C177.397 25.0113 177.617 25.128 177.878 25.212C178.139 25.2867 178.508 25.3707 178.984 25.464C179.609 25.5853 180.118 25.716 180.51 25.856C180.902 25.9867 181.238 26.206 181.518 26.514C181.798 26.8127 181.938 27.2327 181.938 27.774C181.938 28.502 181.677 29.0807 181.154 29.51C180.631 29.93 179.899 30.14 178.956 30.14ZM189.749 30.14C188.974 30.14 188.358 29.944 187.901 29.552C187.453 29.16 187.229 28.6233 187.229 27.942C187.229 27.27 187.481 26.738 187.985 26.346C188.395 26.0193 188.988 25.7767 189.763 25.618L192.521 25.086C192.521 24.4793 192.362 24.0173 192.045 23.7C191.69 23.3453 191.214 23.168 190.617 23.168C190.141 23.168 189.725 23.2987 189.371 23.56C189.025 23.812 188.806 24.1527 188.713 24.582H187.523C187.653 23.8073 188.008 23.2053 188.587 22.776C189.175 22.3373 189.856 22.118 190.631 22.118C191.088 22.118 191.513 22.188 191.905 22.328C192.297 22.4587 192.628 22.6547 192.899 22.916C193.253 23.252 193.477 23.6393 193.571 24.078C193.664 24.5167 193.711 24.9693 193.711 25.436V30H192.521V28.782C192.25 29.174 191.937 29.4773 191.583 29.692C191.107 29.9907 190.495 30.14 189.749 30.14ZM189.889 29.09C190.365 29.09 190.775 29.0013 191.121 28.824C191.643 28.5533 192.007 28.194 192.213 27.746C192.427 27.298 192.535 26.7333 192.535 26.052L190.015 26.556C189.436 26.668 189.011 26.85 188.741 27.102C188.526 27.3167 188.419 27.5873 188.419 27.914C188.419 28.2687 188.549 28.5533 188.811 28.768C189.081 28.9827 189.441 29.09 189.889 29.09ZM202.663 30.14C201.683 30.14 200.885 29.9067 200.269 29.44C199.653 28.9733 199.28 28.3293 199.149 27.508H200.395C200.498 28.0027 200.736 28.39 201.109 28.67C201.492 28.95 202.014 29.09 202.677 29.09C203.218 29.09 203.648 28.9873 203.965 28.782C204.292 28.5767 204.455 28.2827 204.455 27.9C204.455 27.6013 204.357 27.3633 204.161 27.186C203.974 26.9993 203.732 26.8593 203.433 26.766C203.144 26.6727 202.756 26.5793 202.271 26.486C201.664 26.3647 201.174 26.2433 200.801 26.122C200.437 25.9913 200.124 25.786 199.863 25.506C199.602 25.226 199.471 24.8387 199.471 24.344C199.471 23.644 199.732 23.098 200.255 22.706C200.787 22.314 201.464 22.118 202.285 22.118C203.125 22.118 203.825 22.3373 204.385 22.776C204.945 23.2147 205.29 23.8167 205.421 24.582H204.315C204.203 24.106 203.97 23.7513 203.615 23.518C203.26 23.2847 202.817 23.168 202.285 23.168C201.772 23.168 201.37 23.266 201.081 23.462C200.801 23.6487 200.661 23.91 200.661 24.246C200.661 24.5073 200.75 24.7127 200.927 24.862C201.104 25.0113 201.324 25.128 201.585 25.212C201.846 25.2867 202.215 25.3707 202.691 25.464C203.316 25.5853 203.825 25.716 204.217 25.856C204.609 25.9867 204.945 26.206 205.225 26.514C205.505 26.8127 205.645 27.2327 205.645 27.774C205.645 28.502 205.384 29.0807 204.861 29.51C204.338 29.93 203.606 30.14 202.663 30.14ZM208.524 30H207.334V22.258H208.524V30ZM207.936 20.928C207.684 20.928 207.469 20.844 207.292 20.676C207.115 20.4987 207.026 20.2887 207.026 20.046C207.026 19.8033 207.115 19.598 207.292 19.43C207.469 19.262 207.684 19.178 207.936 19.178C208.188 19.178 208.403 19.262 208.58 19.43C208.757 19.598 208.846 19.8033 208.846 20.046C208.846 20.2887 208.757 20.4987 208.58 20.676C208.403 20.844 208.188 20.928 207.936 20.928ZM213.922 33.08C213.035 33.08 212.27 32.8887 211.626 32.506C210.991 32.1233 210.604 31.498 210.464 30.63H211.682C211.924 31.5633 212.666 32.03 213.908 32.03C215.448 32.03 216.218 31.3393 216.218 29.958V28.796C215.826 29.3 215.438 29.65 215.056 29.846C214.673 30.042 214.216 30.14 213.684 30.14C213.002 30.14 212.4 29.972 211.878 29.636C211.355 29.3 210.949 28.8333 210.66 28.236C210.38 27.6293 210.24 26.9387 210.24 26.164C210.24 25.3707 210.38 24.6707 210.66 24.064C210.949 23.448 211.35 22.972 211.864 22.636C212.386 22.2907 212.988 22.118 213.67 22.118C214.211 22.118 214.673 22.2207 215.056 22.426C215.438 22.622 215.826 22.9673 216.218 23.462V22.258H217.408V29.734C217.408 30.9287 217.1 31.7827 216.484 32.296C215.868 32.8187 215.014 33.08 213.922 33.08ZM213.796 29.09C214.272 29.09 214.696 28.964 215.07 28.712C215.443 28.4507 215.732 28.096 215.938 27.648C216.152 27.2 216.26 26.6913 216.26 26.122C216.26 25.562 216.152 25.058 215.938 24.61C215.732 24.162 215.438 23.812 215.056 23.56C214.682 23.2987 214.262 23.168 213.796 23.168C213.32 23.168 212.9 23.2987 212.536 23.56C212.181 23.812 211.906 24.162 211.71 24.61C211.523 25.058 211.43 25.562 211.43 26.122C211.43 26.6913 211.523 27.2 211.71 27.648C211.906 28.096 212.181 28.4507 212.536 28.712C212.9 28.964 213.32 29.09 213.796 29.09ZM219.392 30V22.258H220.582V23.462C220.965 22.9673 221.334 22.622 221.688 22.426C222.052 22.2207 222.449 22.118 222.878 22.118C223.97 22.118 224.731 22.524 225.16 23.336C225.319 23.644 225.417 23.9613 225.454 24.288C225.501 24.6053 225.524 24.9553 225.524 25.338V30H224.334V25.338C224.334 24.5167 224.185 23.938 223.886 23.602C223.625 23.3127 223.228 23.168 222.696 23.168C222.108 23.168 221.637 23.3593 221.282 23.742C221.03 24.0033 220.848 24.3627 220.736 24.82C220.634 25.2773 220.582 25.9027 220.582 26.696V30H219.392ZM234.841 30.14C234.113 30.14 233.459 29.9673 232.881 29.622C232.311 29.2767 231.863 28.796 231.537 28.18C231.219 27.564 231.061 26.8687 231.061 26.094C231.061 25.338 231.219 24.6567 231.537 24.05C231.863 23.4433 232.311 22.972 232.881 22.636C233.459 22.2907 234.113 22.118 234.841 22.118C235.569 22.118 236.222 22.2907 236.801 22.636C237.379 22.972 237.832 23.4433 238.159 24.05C238.485 24.6567 238.649 25.338 238.649 26.094C238.649 26.8687 238.485 27.564 238.159 28.18C237.841 28.7867 237.393 29.2673 236.815 29.622C236.236 29.9673 235.578 30.14 234.841 30.14ZM234.841 29.09C235.326 29.09 235.765 28.9593 236.157 28.698C236.558 28.4367 236.871 28.082 237.095 27.634C237.328 27.1767 237.445 26.6633 237.445 26.094C237.445 25.5527 237.333 25.058 237.109 24.61C236.885 24.162 236.572 23.812 236.171 23.56C235.779 23.2987 235.335 23.168 234.841 23.168C234.355 23.168 233.912 23.294 233.511 23.546C233.119 23.798 232.811 24.148 232.587 24.596C232.363 25.044 232.251 25.5433 232.251 26.094C232.251 26.6633 232.363 27.1767 232.587 27.634C232.811 28.0913 233.119 28.4507 233.511 28.712C233.912 28.964 234.355 29.09 234.841 29.09ZM240.324 30V22.258H241.514V23.322C241.869 22.8927 242.247 22.5847 242.648 22.398C243.049 22.2113 243.516 22.118 244.048 22.118H244.104V23.308H243.698C243.073 23.308 242.573 23.4947 242.2 23.868C241.743 24.3067 241.514 24.9927 241.514 25.926V30H240.324ZM20.116 47.14C19.136 47.14 18.338 46.9067 17.722 46.44C17.106 45.9733 16.7327 45.3293 16.602 44.508H17.848C17.9507 45.0027 18.1887 45.39 18.562 45.67C18.9447 45.95 19.4673 46.09 20.13 46.09C20.6713 46.09 21.1007 45.9873 21.418 45.782C21.7447 45.5767 21.908 45.2827 21.908 44.9C21.908 44.6013 21.81 44.3633 21.614 44.186C21.4273 43.9993 21.1847 43.8593 20.886 43.766C20.5967 43.6727 20.2093 43.5793 19.724 43.486C19.1173 43.3647 18.6273 43.2433 18.254 43.122C17.89 42.9913 17.5773 42.786 17.316 42.506C17.0547 42.226 16.924 41.8387 16.924 41.344C16.924 40.644 17.1853 40.098 17.708 39.706C18.24 39.314 18.9167 39.118 19.738 39.118C20.578 39.118 21.278 39.3373 21.838 39.776C22.398 40.2147 22.7433 40.8167 22.874 41.582H21.768C21.656 41.106 21.4227 40.7513 21.068 40.518C20.7133 40.2847 20.27 40.168 19.738 40.168C19.2247 40.168 18.8233 40.266 18.534 40.462C18.254 40.6487 18.114 40.91 18.114 41.246C18.114 41.5073 18.2027 41.7127 18.38 41.862C18.5573 42.0113 18.7767 42.128 19.038 42.212C19.2993 42.2867 19.668 42.3707 20.144 42.464C20.7693 42.5853 21.278 42.716 21.67 42.856C22.062 42.9867 22.398 43.206 22.678 43.514C22.958 43.8127 23.098 44.2327 23.098 44.774C23.098 45.502 22.8367 46.0807 22.314 46.51C21.7913 46.93 21.0587 47.14 20.116 47.14ZM24.787 49.94V48.848H25.515C25.7483 48.848 25.9256 48.8293 26.047 48.792C26.1683 48.764 26.2756 48.694 26.369 48.582C26.4623 48.47 26.5556 48.288 26.649 48.036L27.069 46.888L24.045 39.258H25.361L27.713 45.264L29.897 39.258H31.185L27.755 48.554C27.5496 49.1047 27.3163 49.4733 27.055 49.66C26.7936 49.8467 26.4203 49.94 25.935 49.94H24.787ZM32.4706 47V39.258H33.6606V40.462C34.0432 39.9673 34.4119 39.622 34.7666 39.426C35.1306 39.2207 35.5272 39.118 35.9566 39.118C36.4792 39.118 36.9366 39.2393 37.3286 39.482C37.7299 39.7247 37.9866 40.0793 38.0986 40.546C38.5839 39.594 39.4006 39.118 40.5486 39.118C41.4072 39.118 42.0512 39.3653 42.4806 39.86C42.9099 40.3453 43.1246 41.0453 43.1246 41.96V47H41.9346V42.24C41.9346 41.5773 41.7946 41.0687 41.5146 40.714C41.2439 40.35 40.8612 40.168 40.3666 40.168C39.8532 40.168 39.4332 40.3407 39.1066 40.686C38.8452 40.966 38.6586 41.33 38.5466 41.778C38.4439 42.226 38.3926 42.8 38.3926 43.5V47H37.2026V42.24C37.2026 41.5867 37.0579 41.078 36.7686 40.714C36.4886 40.35 36.1059 40.168 35.6206 40.168C35.1072 40.168 34.6872 40.3547 34.3606 40.728C34.1179 40.9987 33.9406 41.3487 33.8286 41.778C33.7166 42.2073 33.6606 42.7813 33.6606 43.5V47H32.4706ZM48.8004 39.118C49.4817 39.118 50.0837 39.286 50.6064 39.622C51.129 39.958 51.5304 40.4293 51.8104 41.036C52.0997 41.6427 52.2444 42.338 52.2444 43.122C52.2444 43.906 52.0997 44.606 51.8104 45.222C51.5304 45.8287 51.129 46.3 50.6064 46.636C50.093 46.972 49.491 47.14 48.8004 47.14C48.2684 47.14 47.811 47.042 47.4284 46.846C47.0457 46.65 46.6584 46.3 46.2664 45.796V49.94H45.0764V39.258H46.2664V40.462C46.649 39.9673 47.0317 39.622 47.4144 39.426C47.797 39.2207 48.259 39.118 48.8004 39.118ZM48.6884 40.168C48.2124 40.168 47.7877 40.294 47.4144 40.546C47.041 40.798 46.747 41.1527 46.5324 41.61C46.327 42.058 46.2244 42.562 46.2244 43.122C46.2244 43.6913 46.327 44.2 46.5324 44.648C46.747 45.096 47.041 45.4507 47.4144 45.712C47.7877 45.964 48.2124 46.09 48.6884 46.09C49.1644 46.09 49.5797 45.964 49.9344 45.712C50.2984 45.4507 50.5737 45.096 50.7604 44.648C50.9564 44.2 51.0544 43.6913 51.0544 43.122C51.0544 42.562 50.9564 42.058 50.7604 41.61C50.5737 41.162 50.2984 40.812 49.9344 40.56C49.5797 40.2987 49.1644 40.168 48.6884 40.168ZM56.085 47C55.4596 47 54.9976 46.86 54.699 46.58C54.4003 46.3 54.251 45.7913 54.251 45.054V40.308H53.005V39.258H54.251V36.318H55.441V39.258H57.177V40.308H55.441V44.816C55.441 45.0867 55.4596 45.3013 55.497 45.46C55.5343 45.6093 55.6183 45.7307 55.749 45.824C55.8796 45.908 56.085 45.95 56.365 45.95H57.163V47H56.085ZM61.9188 47.14C61.1908 47.14 60.5375 46.9673 59.9588 46.622C59.3895 46.2767 58.9415 45.796 58.6148 45.18C58.2975 44.564 58.1388 43.8687 58.1388 43.094C58.1388 42.338 58.2975 41.6567 58.6148 41.05C58.9415 40.4433 59.3895 39.972 59.9588 39.636C60.5375 39.2907 61.1908 39.118 61.9188 39.118C62.6468 39.118 63.3001 39.2907 63.8788 39.636C64.4575 39.972 64.9101 40.4433 65.2368 41.05C65.5635 41.6567 65.7268 42.338 65.7268 43.094C65.7268 43.8687 65.5635 44.564 65.2368 45.18C64.9195 45.7867 64.4715 46.2673 63.8928 46.622C63.3141 46.9673 62.6561 47.14 61.9188 47.14ZM61.9188 46.09C62.4041 46.09 62.8428 45.9593 63.2348 45.698C63.6361 45.4367 63.9488 45.082 64.1728 44.634C64.4061 44.1767 64.5228 43.6633 64.5228 43.094C64.5228 42.5527 64.4108 42.058 64.1868 41.61C63.9628 41.162 63.6501 40.812 63.2488 40.56C62.8568 40.2987 62.4135 40.168 61.9188 40.168C61.4335 40.168 60.9901 40.294 60.5888 40.546C60.1968 40.798 59.8888 41.148 59.6648 41.596C59.4408 42.044 59.3288 42.5433 59.3288 43.094C59.3288 43.6633 59.4408 44.1767 59.6648 44.634C59.8888 45.0913 60.1968 45.4507 60.5888 45.712C60.9901 45.964 61.4335 46.09 61.9188 46.09ZM67.4022 47V39.258H68.5922V40.462C68.9749 39.9673 69.3435 39.622 69.6982 39.426C70.0622 39.2207 70.4589 39.118 70.8882 39.118C71.4109 39.118 71.8682 39.2393 72.2602 39.482C72.6615 39.7247 72.9182 40.0793 73.0302 40.546C73.5155 39.594 74.3322 39.118 75.4802 39.118C76.3389 39.118 76.9829 39.3653 77.4122 39.86C77.8415 40.3453 78.0562 41.0453 78.0562 41.96V47H76.8662V42.24C76.8662 41.5773 76.7262 41.0687 76.4462 40.714C76.1755 40.35 75.7929 40.168 75.2982 40.168C74.7849 40.168 74.3649 40.3407 74.0382 40.686C73.7769 40.966 73.5902 41.33 73.4782 41.778C73.3755 42.226 73.3242 42.8 73.3242 43.5V47H72.1342V42.24C72.1342 41.5867 71.9895 41.078 71.7002 40.714C71.4202 40.35 71.0375 40.168 70.5522 40.168C70.0389 40.168 69.6189 40.3547 69.2922 40.728C69.0495 40.9987 68.8722 41.3487 68.7602 41.778C68.6482 42.2073 68.5922 42.7813 68.5922 43.5V47H67.4022ZM86.3818 47C85.7565 47 85.2945 46.86 84.9958 46.58C84.6972 46.3 84.5478 45.7913 84.5478 45.054V40.308H83.3018V39.258H84.5478V36.318H85.7378V39.258H87.4738V40.308H85.7378V44.816C85.7378 45.0867 85.7565 45.3013 85.7938 45.46C85.8312 45.6093 85.9152 45.7307 86.0458 45.824C86.1765 45.908 86.3818 45.95 86.6618 45.95H87.4598V47H86.3818ZM88.9904 47V36.318H90.1804V40.462C90.5631 39.9673 90.9318 39.622 91.2864 39.426C91.6504 39.2207 92.0471 39.118 92.4764 39.118C93.5684 39.118 94.3291 39.524 94.7584 40.336C94.9171 40.644 95.0151 40.9613 95.0524 41.288C95.0991 41.6053 95.1224 41.9553 95.1224 42.338V47H93.9324V42.338C93.9324 41.5167 93.7831 40.938 93.4844 40.602C93.2231 40.3127 92.8264 40.168 92.2944 40.168C91.7064 40.168 91.2351 40.3593 90.8804 40.742C90.6284 41.0033 90.4464 41.3627 90.3344 41.82C90.2318 42.2773 90.1804 42.9027 90.1804 43.696V47H88.9904ZM99.2545 47.14C98.4798 47.14 97.8638 46.944 97.4065 46.552C96.9585 46.16 96.7345 45.6233 96.7345 44.942C96.7345 44.27 96.9865 43.738 97.4905 43.346C97.9012 43.0193 98.4938 42.7767 99.2685 42.618L102.027 42.086C102.027 41.4793 101.868 41.0173 101.551 40.7C101.196 40.3453 100.72 40.168 100.123 40.168C99.6465 40.168 99.2312 40.2987 98.8765 40.56C98.5312 40.812 98.3118 41.1527 98.2185 41.582H97.0285C97.1592 40.8073 97.5138 40.2053 98.0925 39.776C98.6805 39.3373 99.3618 39.118 100.137 39.118C100.594 39.118 101.019 39.188 101.411 39.328C101.803 39.4587 102.134 39.6547 102.405 39.916C102.759 40.252 102.983 40.6393 103.077 41.078C103.17 41.5167 103.217 41.9693 103.217 42.436V47H102.027V45.782C101.756 46.174 101.443 46.4773 101.089 46.692C100.613 46.9907 100.001 47.14 99.2545 47.14ZM99.3945 46.09C99.8705 46.09 100.281 46.0013 100.627 45.824C101.149 45.5533 101.513 45.194 101.719 44.746C101.933 44.298 102.041 43.7333 102.041 43.052L99.5205 43.556C98.9418 43.668 98.5172 43.85 98.2465 44.102C98.0318 44.3167 97.9245 44.5873 97.9245 44.914C97.9245 45.2687 98.0552 45.5533 98.3165 45.768C98.5872 45.9827 98.9465 46.09 99.3945 46.09ZM107.587 47C106.962 47 106.5 46.86 106.201 46.58C105.902 46.3 105.753 45.7913 105.753 45.054V40.308H104.507V39.258H105.753V36.318H106.943V39.258H108.679V40.308H106.943V44.816C106.943 45.0867 106.962 45.3013 106.999 45.46C107.036 45.6093 107.12 45.7307 107.251 45.824C107.382 45.908 107.587 45.95 107.867 45.95H108.665V47H107.587ZM116.835 47H115.729L113.461 39.258H114.735L116.359 45.068L118.305 39.258H119.383L121.329 45.068L122.967 39.258H124.241L121.945 47H120.839L118.851 40.938L116.835 47ZM129.048 47.14C128.32 47.14 127.666 46.9673 127.088 46.622C126.518 46.2767 126.07 45.796 125.744 45.18C125.426 44.564 125.268 43.8687 125.268 43.094C125.268 42.338 125.426 41.6567 125.744 41.05C126.07 40.4433 126.518 39.972 127.088 39.636C127.666 39.2907 128.32 39.118 129.048 39.118C129.776 39.118 130.429 39.2907 131.008 39.636C131.586 39.972 132.039 40.4433 132.366 41.05C132.692 41.6567 132.856 42.338 132.856 43.094C132.856 43.8687 132.692 44.564 132.366 45.18C132.048 45.7867 131.6 46.2673 131.022 46.622C130.443 46.9673 129.785 47.14 129.048 47.14ZM129.048 46.09C129.533 46.09 129.972 45.9593 130.364 45.698C130.765 45.4367 131.078 45.082 131.302 44.634C131.535 44.1767 131.652 43.6633 131.652 43.094C131.652 42.5527 131.54 42.058 131.316 41.61C131.092 41.162 130.779 40.812 130.378 40.56C129.986 40.2987 129.542 40.168 129.048 40.168C128.562 40.168 128.119 40.294 127.718 40.546C127.326 40.798 127.018 41.148 126.794 41.596C126.57 42.044 126.458 42.5433 126.458 43.094C126.458 43.6633 126.57 44.1767 126.794 44.634C127.018 45.0913 127.326 45.4507 127.718 45.712C128.119 45.964 128.562 46.09 129.048 46.09ZM137.149 47.14C136.066 47.14 135.306 46.734 134.867 45.922C134.624 45.4647 134.503 44.7973 134.503 43.92V39.258H135.693V43.92C135.693 44.7413 135.842 45.32 136.141 45.656C136.402 45.9453 136.799 46.09 137.331 46.09C137.919 46.09 138.39 45.8987 138.745 45.516C138.997 45.2547 139.174 44.8953 139.277 44.438C139.389 43.9807 139.445 43.3553 139.445 42.562V39.258H140.635V47H139.445V45.796C139.072 46.272 138.703 46.6173 138.339 46.832C137.984 47.0373 137.588 47.14 137.149 47.14ZM144.431 47C143.806 47 143.344 46.86 143.045 46.58C142.746 46.3 142.597 45.7913 142.597 45.054V36.318H143.787V44.872C143.787 45.1427 143.806 45.3527 143.843 45.502C143.88 45.642 143.964 45.754 144.095 45.838C144.226 45.9127 144.431 45.95 144.711 45.95H145.089V47H144.431ZM149.289 47.14C148.607 47.14 148.005 46.972 147.483 46.636C146.96 46.3 146.554 45.8287 146.265 45.222C145.985 44.6153 145.845 43.92 145.845 43.136C145.845 42.352 145.985 41.6567 146.265 41.05C146.554 40.434 146.955 39.958 147.469 39.622C147.991 39.286 148.598 39.118 149.289 39.118C149.821 39.118 150.278 39.216 150.661 39.412C151.043 39.608 151.431 39.958 151.823 40.462V36.318H153.013V47H151.823V45.796C151.44 46.2907 151.057 46.6407 150.675 46.846C150.292 47.042 149.83 47.14 149.289 47.14ZM149.401 46.09C149.877 46.09 150.301 45.964 150.675 45.712C151.048 45.46 151.337 45.11 151.543 44.662C151.757 44.2047 151.865 43.696 151.865 43.136C151.865 42.5667 151.757 42.058 151.543 41.61C151.337 41.162 151.048 40.812 150.675 40.56C150.301 40.2987 149.877 40.168 149.401 40.168C148.925 40.168 148.505 40.2987 148.141 40.56C147.786 40.812 147.511 41.162 147.315 41.61C147.128 42.058 147.035 42.5667 147.035 43.136C147.035 43.696 147.128 44.2 147.315 44.648C147.511 45.096 147.786 45.4507 148.141 45.712C148.505 45.964 148.925 46.09 149.401 46.09ZM162.386 47.14C161.845 47.14 161.383 47.042 161 46.846C160.618 46.6407 160.235 46.2907 159.852 45.796V47H158.662V36.318H159.852V40.462C160.244 39.958 160.632 39.608 161.014 39.412C161.397 39.216 161.854 39.118 162.386 39.118C163.077 39.118 163.679 39.286 164.192 39.622C164.715 39.958 165.116 40.434 165.396 41.05C165.686 41.6567 165.83 42.352 165.83 43.136C165.83 43.92 165.686 44.6153 165.396 45.222C165.116 45.8287 164.715 46.3 164.192 46.636C163.67 46.972 163.068 47.14 162.386 47.14ZM162.274 46.09C162.75 46.09 163.166 45.964 163.52 45.712C163.884 45.4507 164.16 45.096 164.346 44.648C164.542 44.2 164.64 43.696 164.64 43.136C164.64 42.5667 164.542 42.058 164.346 41.61C164.16 41.162 163.884 40.812 163.52 40.56C163.166 40.2987 162.75 40.168 162.274 40.168C161.798 40.168 161.374 40.2987 161 40.56C160.627 40.812 160.333 41.162 160.118 41.61C159.913 42.058 159.81 42.5667 159.81 43.136C159.81 43.696 159.913 44.2047 160.118 44.662C160.333 45.11 160.627 45.46 161 45.712C161.374 45.964 161.798 46.09 162.274 46.09ZM170.965 47.14C170.237 47.14 169.584 46.9673 169.005 46.622C168.436 46.2767 167.993 45.8007 167.675 45.194C167.358 44.5873 167.199 43.906 167.199 43.15C167.199 42.4313 167.349 41.7687 167.647 41.162C167.946 40.546 168.375 40.0513 168.935 39.678C169.505 39.3047 170.172 39.118 170.937 39.118C171.6 39.118 172.216 39.2673 172.785 39.566C173.355 39.8647 173.812 40.3033 174.157 40.882C174.503 41.4513 174.675 42.1373 174.675 42.94V43.36H168.375C168.394 43.6307 168.445 43.8873 168.529 44.13C168.725 44.7273 169.038 45.2033 169.467 45.558C169.906 45.9127 170.401 46.09 170.951 46.09C171.511 46.09 171.992 45.9407 172.393 45.642C172.795 45.3433 173.084 44.9653 173.261 44.508H174.535C174.283 45.292 173.854 45.9267 173.247 46.412C172.641 46.8973 171.88 47.14 170.965 47.14ZM173.401 42.31C173.383 42.03 173.327 41.778 173.233 41.554C173.037 41.1153 172.734 40.7747 172.323 40.532C171.922 40.2893 171.469 40.168 170.965 40.168C170.452 40.168 169.999 40.2893 169.607 40.532C169.225 40.7747 168.926 41.1153 168.711 41.554C168.618 41.7593 168.543 42.0113 168.487 42.31H173.401ZM183.694 47.14C182.966 47.14 182.313 46.9673 181.734 46.622C181.165 46.2767 180.721 45.8007 180.404 45.194C180.087 44.5873 179.928 43.906 179.928 43.15C179.928 42.4313 180.077 41.7687 180.376 41.162C180.675 40.546 181.104 40.0513 181.664 39.678C182.233 39.3047 182.901 39.118 183.666 39.118C184.329 39.118 184.945 39.2673 185.514 39.566C186.083 39.8647 186.541 40.3033 186.886 40.882C187.231 41.4513 187.404 42.1373 187.404 42.94V43.36H181.104C181.123 43.6307 181.174 43.8873 181.258 44.13C181.454 44.7273 181.767 45.2033 182.196 45.558C182.635 45.9127 183.129 46.09 183.68 46.09C184.24 46.09 184.721 45.9407 185.122 45.642C185.523 45.3433 185.813 44.9653 185.99 44.508H187.264C187.012 45.292 186.583 45.9267 185.976 46.412C185.369 46.8973 184.609 47.14 183.694 47.14ZM186.13 42.31C186.111 42.03 186.055 41.778 185.962 41.554C185.766 41.1153 185.463 40.7747 185.052 40.532C184.651 40.2893 184.198 40.168 183.694 40.168C183.181 40.168 182.728 40.2893 182.336 40.532C181.953 40.7747 181.655 41.1153 181.44 41.554C181.347 41.7593 181.272 42.0113 181.216 42.31H186.13ZM189.454 47H188.04L190.826 43.122L188.04 39.258H189.454L191.596 42.296L193.752 39.258H195.18L192.352 43.122L195.18 47H193.752L191.596 43.962L189.454 47ZM200.189 39.118C200.87 39.118 201.472 39.286 201.995 39.622C202.518 39.958 202.919 40.4293 203.199 41.036C203.488 41.6427 203.633 42.338 203.633 43.122C203.633 43.906 203.488 44.606 203.199 45.222C202.919 45.8287 202.518 46.3 201.995 46.636C201.482 46.972 200.88 47.14 200.189 47.14C199.657 47.14 199.2 47.042 198.817 46.846C198.434 46.65 198.047 46.3 197.655 45.796V49.94H196.465V39.258H197.655V40.462C198.038 39.9673 198.42 39.622 198.803 39.426C199.186 39.2207 199.648 39.118 200.189 39.118ZM200.077 40.168C199.601 40.168 199.176 40.294 198.803 40.546C198.43 40.798 198.136 41.1527 197.921 41.61C197.716 42.058 197.613 42.562 197.613 43.122C197.613 43.6913 197.716 44.2 197.921 44.648C198.136 45.096 198.43 45.4507 198.803 45.712C199.176 45.964 199.601 46.09 200.077 46.09C200.553 46.09 200.968 45.964 201.323 45.712C201.687 45.4507 201.962 45.096 202.149 44.648C202.345 44.2 202.443 43.6913 202.443 43.122C202.443 42.562 202.345 42.058 202.149 41.61C201.962 41.162 201.687 40.812 201.323 40.56C200.968 40.2987 200.553 40.168 200.077 40.168ZM208.768 47.14C208.04 47.14 207.387 46.9673 206.808 46.622C206.239 46.2767 205.795 45.8007 205.478 45.194C205.161 44.5873 205.002 43.906 205.002 43.15C205.002 42.4313 205.151 41.7687 205.45 41.162C205.749 40.546 206.178 40.0513 206.738 39.678C207.307 39.3047 207.975 39.118 208.74 39.118C209.403 39.118 210.019 39.2673 210.588 39.566C211.157 39.8647 211.615 40.3033 211.96 40.882C212.305 41.4513 212.478 42.1373 212.478 42.94V43.36H206.178C206.197 43.6307 206.248 43.8873 206.332 44.13C206.528 44.7273 206.841 45.2033 207.27 45.558C207.709 45.9127 208.203 46.09 208.754 46.09C209.314 46.09 209.795 45.9407 210.196 45.642C210.597 45.3433 210.887 44.9653 211.064 44.508H212.338C212.086 45.292 211.657 45.9267 211.05 46.412C210.443 46.8973 209.683 47.14 208.768 47.14ZM211.204 42.31C211.185 42.03 211.129 41.778 211.036 41.554C210.84 41.1153 210.537 40.7747 210.126 40.532C209.725 40.2893 209.272 40.168 208.768 40.168C208.255 40.168 207.802 40.2893 207.41 40.532C207.027 40.7747 206.729 41.1153 206.514 41.554C206.421 41.7593 206.346 42.0113 206.29 42.31H211.204ZM217.559 47.14C216.831 47.14 216.182 46.9673 215.613 46.622C215.043 46.2767 214.6 45.796 214.283 45.18C213.965 44.564 213.807 43.8687 213.807 43.094C213.807 42.338 213.965 41.6567 214.283 41.05C214.6 40.4433 215.043 39.972 215.613 39.636C216.182 39.2907 216.831 39.118 217.559 39.118C218.427 39.118 219.159 39.342 219.757 39.79C220.363 40.2287 220.755 40.826 220.933 41.582H219.659C219.509 41.1527 219.243 40.812 218.861 40.56C218.487 40.2987 218.053 40.168 217.559 40.168C217.073 40.168 216.635 40.294 216.243 40.546C215.86 40.798 215.557 41.148 215.333 41.596C215.109 42.0347 214.997 42.534 214.997 43.094C214.997 43.6727 215.104 44.1907 215.319 44.648C215.543 45.096 215.851 45.4507 216.243 45.712C216.635 45.964 217.073 46.09 217.559 46.09C218.091 46.09 218.548 45.9453 218.931 45.656C219.323 45.3667 219.584 44.984 219.715 44.508H220.989C220.821 45.3293 220.424 45.9733 219.799 46.44C219.183 46.9067 218.436 47.14 217.559 47.14ZM225.015 47C224.389 47 223.927 46.86 223.629 46.58C223.33 46.3 223.181 45.7913 223.181 45.054V40.308H221.935V39.258H223.181V36.318H224.371V39.258H226.107V40.308H224.371V44.816C224.371 45.0867 224.389 45.3013 224.427 45.46C224.464 45.6093 224.548 45.7307 224.679 45.824C224.809 45.908 225.015 45.95 225.295 45.95H226.093V47H225.015ZM230.834 47.14C230.106 47.14 229.453 46.9673 228.874 46.622C228.305 46.2767 227.862 45.8007 227.544 45.194C227.227 44.5873 227.068 43.906 227.068 43.15C227.068 42.4313 227.218 41.7687 227.516 41.162C227.815 40.546 228.244 40.0513 228.804 39.678C229.374 39.3047 230.041 39.118 230.806 39.118C231.469 39.118 232.085 39.2673 232.654 39.566C233.224 39.8647 233.681 40.3033 234.026 40.882C234.372 41.4513 234.544 42.1373 234.544 42.94V43.36H228.244C228.263 43.6307 228.314 43.8873 228.398 44.13C228.594 44.7273 228.907 45.2033 229.336 45.558C229.775 45.9127 230.27 46.09 230.82 46.09C231.38 46.09 231.861 45.9407 232.262 45.642C232.664 45.3433 232.953 44.9653 233.13 44.508H234.404C234.152 45.292 233.723 45.9267 233.116 46.412C232.51 46.8973 231.749 47.14 230.834 47.14ZM233.27 42.31C233.252 42.03 233.196 41.778 233.102 41.554C232.906 41.1153 232.603 40.7747 232.192 40.532C231.791 40.2893 231.338 40.168 230.834 40.168C230.321 40.168 229.868 40.2893 229.476 40.532C229.094 40.7747 228.795 41.1153 228.58 41.554C228.487 41.7593 228.412 42.0113 228.356 42.31H233.27ZM239.345 47.14C238.664 47.14 238.062 46.972 237.539 46.636C237.017 46.3 236.611 45.8287 236.321 45.222C236.041 44.6153 235.901 43.92 235.901 43.136C235.901 42.352 236.041 41.6567 236.321 41.05C236.611 40.434 237.012 39.958 237.525 39.622C238.048 39.286 238.655 39.118 239.345 39.118C239.877 39.118 240.335 39.216 240.717 39.412C241.1 39.608 241.487 39.958 241.879 40.462V36.318H243.069V47H241.879V45.796C241.497 46.2907 241.114 46.6407 240.731 46.846C240.349 47.042 239.887 47.14 239.345 47.14ZM239.457 46.09C239.933 46.09 240.358 45.964 240.731 45.712C241.105 45.46 241.394 45.11 241.599 44.662C241.814 44.2047 241.921 43.696 241.921 43.136C241.921 42.5667 241.814 42.058 241.599 41.61C241.394 41.162 241.105 40.812 240.731 40.56C240.358 40.2987 239.933 40.168 239.457 40.168C238.981 40.168 238.561 40.2987 238.197 40.56C237.843 40.812 237.567 41.162 237.371 41.61C237.185 42.058 237.091 42.5667 237.091 43.136C237.091 43.696 237.185 44.2 237.371 44.648C237.567 45.096 237.843 45.4507 238.197 45.712C238.561 45.964 238.981 46.09 239.457 46.09ZM251.456 47C250.831 47 250.369 46.86 250.07 46.58C249.771 46.3 249.622 45.7913 249.622 45.054V40.308H248.376V39.258H249.622V36.318H250.812V39.258H252.548V40.308H250.812V44.816C250.812 45.0867 250.831 45.3013 250.868 45.46C250.905 45.6093 250.989 45.7307 251.12 45.824C251.251 45.908 251.456 45.95 251.736 45.95H252.534V47H251.456ZM257.29 47.14C256.562 47.14 255.909 46.9673 255.33 46.622C254.761 46.2767 254.313 45.796 253.986 45.18C253.669 44.564 253.51 43.8687 253.51 43.094C253.51 42.338 253.669 41.6567 253.986 41.05C254.313 40.4433 254.761 39.972 255.33 39.636C255.909 39.2907 256.562 39.118 257.29 39.118C258.018 39.118 258.671 39.2907 259.25 39.636C259.829 39.972 260.281 40.4433 260.608 41.05C260.935 41.6567 261.098 42.338 261.098 43.094C261.098 43.8687 260.935 44.564 260.608 45.18C260.291 45.7867 259.843 46.2673 259.264 46.622C258.685 46.9673 258.027 47.14 257.29 47.14ZM257.29 46.09C257.775 46.09 258.214 45.9593 258.606 45.698C259.007 45.4367 259.32 45.082 259.544 44.634C259.777 44.1767 259.894 43.6633 259.894 43.094C259.894 42.5527 259.782 42.058 259.558 41.61C259.334 41.162 259.021 40.812 258.62 40.56C258.228 40.2987 257.785 40.168 257.29 40.168C256.805 40.168 256.361 40.294 255.96 40.546C255.568 40.798 255.26 41.148 255.036 41.596C254.812 42.044 254.7 42.5433 254.7 43.094C254.7 43.6633 254.812 44.1767 255.036 44.634C255.26 45.0913 255.568 45.4507 255.96 45.712C256.361 45.964 256.805 46.09 257.29 46.09ZM20.452 64.14C19.724 64.14 19.0707 63.9673 18.492 63.622C17.9227 63.2767 17.4747 62.796 17.148 62.18C16.8307 61.564 16.672 60.8687 16.672 60.094C16.672 59.338 16.8307 58.6567 17.148 58.05C17.4747 57.4433 17.9227 56.972 18.492 56.636C19.0707 56.2907 19.724 56.118 20.452 56.118C21.18 56.118 21.8333 56.2907 22.412 56.636C22.9907 56.972 23.4433 57.4433 23.77 58.05C24.0967 58.6567 24.26 59.338 24.26 60.094C24.26 60.8687 24.0967 61.564 23.77 62.18C23.4527 62.7867 23.0047 63.2673 22.426 63.622C21.8473 63.9673 21.1893 64.14 20.452 64.14ZM20.452 63.09C20.9373 63.09 21.376 62.9593 21.768 62.698C22.1693 62.4367 22.482 62.082 22.706 61.634C22.9393 61.1767 23.056 60.6633 23.056 60.094C23.056 59.5527 22.944 59.058 22.72 58.61C22.496 58.162 22.1833 57.812 21.782 57.56C21.39 57.2987 20.9467 57.168 20.452 57.168C19.9667 57.168 19.5233 57.294 19.122 57.546C18.73 57.798 18.422 58.148 18.198 58.596C17.974 59.044 17.862 59.5433 17.862 60.094C17.862 60.6633 17.974 61.1767 18.198 61.634C18.422 62.0913 18.73 62.4507 19.122 62.712C19.5233 62.964 19.9667 63.09 20.452 63.09ZM29.3654 64.14C28.6374 64.14 27.9887 63.9673 27.4194 63.622C26.8501 63.2767 26.4067 62.796 26.0894 62.18C25.7721 61.564 25.6134 60.8687 25.6134 60.094C25.6134 59.338 25.7721 58.6567 26.0894 58.05C26.4067 57.4433 26.8501 56.972 27.4194 56.636C27.9887 56.2907 28.6374 56.118 29.3654 56.118C30.2334 56.118 30.9661 56.342 31.5634 56.79C32.1701 57.2287 32.5621 57.826 32.7394 58.582H31.4654C31.3161 58.1527 31.0501 57.812 30.6674 57.56C30.2941 57.2987 29.8601 57.168 29.3654 57.168C28.8801 57.168 28.4414 57.294 28.0494 57.546C27.6667 57.798 27.3634 58.148 27.1394 58.596C26.9154 59.0347 26.8034 59.534 26.8034 60.094C26.8034 60.6727 26.9107 61.1907 27.1254 61.648C27.3494 62.096 27.6574 62.4507 28.0494 62.712C28.4414 62.964 28.8801 63.09 29.3654 63.09C29.8974 63.09 30.3547 62.9453 30.7374 62.656C31.1294 62.3667 31.3907 61.984 31.5214 61.508H32.7954C32.6274 62.3293 32.2307 62.9733 31.6054 63.44C30.9894 63.9067 30.2427 64.14 29.3654 64.14ZM37.7873 64.14C37.0593 64.14 36.4106 63.9673 35.8413 63.622C35.2719 63.2767 34.8286 62.796 34.5113 62.18C34.1939 61.564 34.0353 60.8687 34.0353 60.094C34.0353 59.338 34.1939 58.6567 34.5113 58.05C34.8286 57.4433 35.2719 56.972 35.8413 56.636C36.4106 56.2907 37.0593 56.118 37.7873 56.118C38.6553 56.118 39.3879 56.342 39.9853 56.79C40.5919 57.2287 40.9839 57.826 41.1613 58.582H39.8873C39.7379 58.1527 39.4719 57.812 39.0893 57.56C38.7159 57.2987 38.2819 57.168 37.7873 57.168C37.3019 57.168 36.8633 57.294 36.4713 57.546C36.0886 57.798 35.7853 58.148 35.5613 58.596C35.3373 59.0347 35.2253 59.534 35.2253 60.094C35.2253 60.6727 35.3326 61.1907 35.5473 61.648C35.7713 62.096 36.0793 62.4507 36.4713 62.712C36.8633 62.964 37.3019 63.09 37.7873 63.09C38.3193 63.09 38.7766 62.9453 39.1593 62.656C39.5513 62.3667 39.8126 61.984 39.9433 61.508H41.2173C41.0493 62.3293 40.6526 62.9733 40.0273 63.44C39.4113 63.9067 38.6646 64.14 37.7873 64.14ZM45.3972 64.14C44.3145 64.14 43.5538 63.734 43.1152 62.922C42.8725 62.4647 42.7512 61.7973 42.7512 60.92V56.258H43.9412V60.92C43.9412 61.7413 44.0905 62.32 44.3892 62.656C44.6505 62.9453 45.0472 63.09 45.5792 63.09C46.1672 63.09 46.6385 62.8987 46.9932 62.516C47.2452 62.2547 47.4225 61.8953 47.5252 61.438C47.6372 60.9807 47.6932 60.3553 47.6932 59.562V56.258H48.8832V64H47.6932V62.796C47.3198 63.272 46.9512 63.6173 46.5872 63.832C46.2325 64.0373 45.8358 64.14 45.3972 64.14ZM50.8729 64V56.258H52.0629V57.322C52.4176 56.8927 52.7956 56.5847 53.1969 56.398C53.5982 56.2113 54.0649 56.118 54.5969 56.118H54.6529V57.308H54.2469C53.6216 57.308 53.1222 57.4947 52.7489 57.868C52.2916 58.3067 52.0629 58.9927 52.0629 59.926V64H50.8729ZM61.0727 64H59.8827V56.258H61.0727V64ZM60.4847 54.928C60.2327 54.928 60.018 54.844 59.8407 54.676C59.6633 54.4987 59.5747 54.2887 59.5747 54.046C59.5747 53.8033 59.6633 53.598 59.8407 53.43C60.018 53.262 60.2327 53.178 60.4847 53.178C60.7367 53.178 60.9513 53.262 61.1287 53.43C61.306 53.598 61.3947 53.8033 61.3947 54.046C61.3947 54.2887 61.306 54.4987 61.1287 54.676C60.9513 54.844 60.7367 54.928 60.4847 54.928ZM63.0545 64V56.258H64.2445V57.462C64.6272 56.9673 64.9959 56.622 65.3505 56.426C65.7145 56.2207 66.1112 56.118 66.5405 56.118C67.6325 56.118 68.3932 56.524 68.8225 57.336C68.9812 57.644 69.0792 57.9613 69.1165 58.288C69.1632 58.6053 69.1865 58.9553 69.1865 59.338V64H67.9965V59.338C67.9965 58.5167 67.8472 57.938 67.5485 57.602C67.2872 57.3127 66.8905 57.168 66.3585 57.168C65.7705 57.168 65.2992 57.3593 64.9445 57.742C64.6925 58.0033 64.5105 58.3627 64.3985 58.82C64.2959 59.2773 64.2445 59.9027 64.2445 60.696V64H63.0545ZM77.5088 64C76.8834 64 76.4214 63.86 76.1228 63.58C75.8241 63.3 75.6748 62.7913 75.6748 62.054V57.308H74.4288V56.258H75.6748V53.318H76.8648V56.258H78.6008V57.308H76.8648V61.816C76.8648 62.0867 76.8834 62.3013 76.9208 62.46C76.9581 62.6093 77.0421 62.7307 77.1728 62.824C77.3034 62.908 77.5088 62.95 77.7888 62.95H78.5868V64H77.5088ZM80.1174 64V53.318H81.3074V57.462C81.69 56.9673 82.0587 56.622 82.4134 56.426C82.7774 56.2207 83.174 56.118 83.6034 56.118C84.6954 56.118 85.456 56.524 85.8854 57.336C86.044 57.644 86.142 57.9613 86.1794 58.288C86.226 58.6053 86.2494 58.9553 86.2494 59.338V64H85.0594V59.338C85.0594 58.5167 84.91 57.938 84.6114 57.602C84.35 57.3127 83.9534 57.168 83.4214 57.168C82.8334 57.168 82.362 57.3593 82.0074 57.742C81.7554 58.0033 81.5734 58.3627 81.4614 58.82C81.3587 59.2773 81.3074 59.9027 81.3074 60.696V64H80.1174ZM91.6275 64.14C90.8995 64.14 90.2461 63.9673 89.6675 63.622C89.0981 63.2767 88.6548 62.8007 88.3375 62.194C88.0201 61.5873 87.8615 60.906 87.8615 60.15C87.8615 59.4313 88.0108 58.7687 88.3095 58.162C88.6081 57.546 89.0375 57.0513 89.5975 56.678C90.1668 56.3047 90.8341 56.118 91.5995 56.118C92.2621 56.118 92.8781 56.2673 93.4475 56.566C94.0168 56.8647 94.4741 57.3033 94.8195 57.882C95.1648 58.4513 95.3375 59.1373 95.3375 59.94V60.36H89.0375C89.0561 60.6307 89.1075 60.8873 89.1915 61.13C89.3875 61.7273 89.7001 62.2033 90.1295 62.558C90.5681 62.9127 91.0628 63.09 91.6135 63.09C92.1735 63.09 92.6541 62.9407 93.0555 62.642C93.4568 62.3433 93.7461 61.9653 93.9235 61.508H95.1975C94.9455 62.292 94.5161 62.9267 93.9095 63.412C93.3028 63.8973 92.5421 64.14 91.6275 64.14ZM94.0635 59.31C94.0448 59.03 93.9888 58.778 93.8955 58.554C93.6995 58.1153 93.3961 57.7747 92.9855 57.532C92.5841 57.2893 92.1315 57.168 91.6275 57.168C91.1141 57.168 90.6615 57.2893 90.2695 57.532C89.8868 57.7747 89.5881 58.1153 89.3735 58.554C89.2801 58.7593 89.2055 59.0113 89.1495 59.31H94.0635ZM104.356 64.14C103.628 64.14 102.975 63.9673 102.396 63.622C101.827 63.2767 101.383 62.8007 101.066 62.194C100.749 61.5873 100.59 60.906 100.59 60.15C100.59 59.4313 100.739 58.7687 101.038 58.162C101.337 57.546 101.766 57.0513 102.326 56.678C102.895 56.3047 103.563 56.118 104.328 56.118C104.991 56.118 105.607 56.2673 106.176 56.566C106.745 56.8647 107.203 57.3033 107.548 57.882C107.893 58.4513 108.066 59.1373 108.066 59.94V60.36H101.766C101.785 60.6307 101.836 60.8873 101.92 61.13C102.116 61.7273 102.429 62.2033 102.858 62.558C103.297 62.9127 103.791 63.09 104.342 63.09C104.902 63.09 105.383 62.9407 105.784 62.642C106.185 62.3433 106.475 61.9653 106.652 61.508H107.926C107.674 62.292 107.245 62.9267 106.638 63.412C106.031 63.8973 105.271 64.14 104.356 64.14ZM106.792 59.31C106.773 59.03 106.717 58.778 106.624 58.554C106.428 58.1153 106.125 57.7747 105.714 57.532C105.313 57.2893 104.86 57.168 104.356 57.168C103.843 57.168 103.39 57.2893 102.998 57.532C102.615 57.7747 102.317 58.1153 102.102 58.554C102.009 58.7593 101.934 59.0113 101.878 59.31H106.792ZM112.702 64H111.722L108.866 56.258H110.182L112.212 61.984L114.27 56.258H115.572L112.702 64ZM120.147 64.14C119.419 64.14 118.766 63.9673 118.187 63.622C117.618 63.2767 117.174 62.8007 116.857 62.194C116.54 61.5873 116.381 60.906 116.381 60.15C116.381 59.4313 116.53 58.7687 116.829 58.162C117.128 57.546 117.557 57.0513 118.117 56.678C118.686 56.3047 119.354 56.118 120.119 56.118C120.782 56.118 121.398 56.2673 121.967 56.566C122.536 56.8647 122.994 57.3033 123.339 57.882C123.684 58.4513 123.857 59.1373 123.857 59.94V60.36H117.557C117.576 60.6307 117.627 60.8873 117.711 61.13C117.907 61.7273 118.22 62.2033 118.649 62.558C119.088 62.9127 119.582 63.09 120.133 63.09C120.693 63.09 121.174 62.9407 121.575 62.642C121.976 62.3433 122.266 61.9653 122.443 61.508H123.717C123.465 62.292 123.036 62.9267 122.429 63.412C121.822 63.8973 121.062 64.14 120.147 64.14ZM122.583 59.31C122.564 59.03 122.508 58.778 122.415 58.554C122.219 58.1153 121.916 57.7747 121.505 57.532C121.104 57.2893 120.651 57.168 120.147 57.168C119.634 57.168 119.181 57.2893 118.789 57.532C118.406 57.7747 118.108 58.1153 117.893 58.554C117.8 58.7593 117.725 59.0113 117.669 59.31H122.583ZM125.508 64V56.258H126.698V57.462C127.08 56.9673 127.449 56.622 127.804 56.426C128.168 56.2207 128.564 56.118 128.994 56.118C130.086 56.118 130.846 56.524 131.276 57.336C131.434 57.644 131.532 57.9613 131.57 58.288C131.616 58.6053 131.64 58.9553 131.64 59.338V64H130.45V59.338C130.45 58.5167 130.3 57.938 130.002 57.602C129.74 57.3127 129.344 57.168 128.812 57.168C128.224 57.168 127.752 57.3593 127.398 57.742C127.146 58.0033 126.964 58.3627 126.852 58.82C126.749 59.2773 126.698 59.9027 126.698 60.696V64H125.508ZM135.806 64C135.18 64 134.718 63.86 134.42 63.58C134.121 63.3 133.972 62.7913 133.972 62.054V57.308H132.726V56.258H133.972V53.318H135.162V56.258H136.898V57.308H135.162V61.816C135.162 62.0867 135.18 62.3013 135.218 62.46C135.255 62.6093 135.339 62.7307 135.47 62.824C135.6 62.908 135.806 62.95 136.086 62.95H136.884V64H135.806ZM145.782 64.14C145.054 64.14 144.401 63.9673 143.822 63.622C143.253 63.2767 142.805 62.796 142.478 62.18C142.161 61.564 142.002 60.8687 142.002 60.094C142.002 59.338 142.161 58.6567 142.478 58.05C142.805 57.4433 143.253 56.972 143.822 56.636C144.401 56.2907 145.054 56.118 145.782 56.118C146.51 56.118 147.163 56.2907 147.742 56.636C148.321 56.972 148.773 57.4433 149.1 58.05C149.427 58.6567 149.59 59.338 149.59 60.094C149.59 60.8687 149.427 61.564 149.1 62.18C148.783 62.7867 148.335 63.2673 147.756 63.622C147.177 63.9673 146.519 64.14 145.782 64.14ZM145.782 63.09C146.267 63.09 146.706 62.9593 147.098 62.698C147.499 62.4367 147.812 62.082 148.036 61.634C148.269 61.1767 148.386 60.6633 148.386 60.094C148.386 59.5527 148.274 59.058 148.05 58.61C147.826 58.162 147.513 57.812 147.112 57.56C146.72 57.2987 146.277 57.168 145.782 57.168C145.297 57.168 144.853 57.294 144.452 57.546C144.06 57.798 143.752 58.148 143.528 58.596C143.304 59.044 143.192 59.5433 143.192 60.094C143.192 60.6633 143.304 61.1767 143.528 61.634C143.752 62.0913 144.06 62.4507 144.452 62.712C144.853 62.964 145.297 63.09 145.782 63.09ZM151.732 64V57.308H150.444V56.258H151.732V55.418C151.732 54.7273 151.9 54.2047 152.236 53.85C152.572 53.4953 153.071 53.318 153.734 53.318H154.728V54.368H154C153.627 54.368 153.351 54.466 153.174 54.662C153.006 54.858 152.922 55.1613 152.922 55.572V56.258H154.728V57.308H152.922V64H151.732ZM163.363 64.14C162.635 64.14 161.987 63.9673 161.417 63.622C160.848 63.2767 160.405 62.796 160.087 62.18C159.77 61.564 159.611 60.8687 159.611 60.094C159.611 59.338 159.77 58.6567 160.087 58.05C160.405 57.4433 160.848 56.972 161.417 56.636C161.987 56.2907 162.635 56.118 163.363 56.118C164.231 56.118 164.964 56.342 165.561 56.79C166.168 57.2287 166.56 57.826 166.737 58.582H165.463C165.314 58.1527 165.048 57.812 164.665 57.56C164.292 57.2987 163.858 57.168 163.363 57.168C162.878 57.168 162.439 57.294 162.047 57.546C161.665 57.798 161.361 58.148 161.137 58.596C160.913 59.0347 160.801 59.534 160.801 60.094C160.801 60.6727 160.909 61.1907 161.123 61.648C161.347 62.096 161.655 62.4507 162.047 62.712C162.439 62.964 162.878 63.09 163.363 63.09C163.895 63.09 164.353 62.9453 164.735 62.656C165.127 62.3667 165.389 61.984 165.519 61.508H166.793C166.625 62.3293 166.229 62.9733 165.603 63.44C164.987 63.9067 164.241 64.14 163.363 64.14ZM168.369 64V53.318H169.559V57.462C169.942 56.9673 170.311 56.622 170.665 56.426C171.029 56.2207 171.426 56.118 171.855 56.118C172.947 56.118 173.708 56.524 174.137 57.336C174.296 57.644 174.394 57.9613 174.431 58.288C174.478 58.6053 174.501 58.9553 174.501 59.338V64H173.311V59.338C173.311 58.5167 173.162 57.938 172.863 57.602C172.602 57.3127 172.205 57.168 171.673 57.168C171.085 57.168 170.614 57.3593 170.259 57.742C170.007 58.0033 169.825 58.3627 169.713 58.82C169.611 59.2773 169.559 59.9027 169.559 60.696V64H168.369ZM176.435 64V56.258H177.625V57.322C177.98 56.8927 178.358 56.5847 178.759 56.398C179.161 56.2113 179.627 56.118 180.159 56.118H180.215V57.308H179.809C179.184 57.308 178.685 57.4947 178.311 57.868C177.854 58.3067 177.625 58.9927 177.625 59.926V64H176.435ZM184.679 64.14C183.951 64.14 183.297 63.9673 182.719 63.622C182.149 63.2767 181.701 62.796 181.375 62.18C181.057 61.564 180.899 60.8687 180.899 60.094C180.899 59.338 181.057 58.6567 181.375 58.05C181.701 57.4433 182.149 56.972 182.719 56.636C183.297 56.2907 183.951 56.118 184.679 56.118C185.407 56.118 186.06 56.2907 186.639 56.636C187.217 56.972 187.67 57.4433 187.997 58.05C188.323 58.6567 188.487 59.338 188.487 60.094C188.487 60.8687 188.323 61.564 187.997 62.18C187.679 62.7867 187.231 63.2673 186.653 63.622C186.074 63.9673 185.416 64.14 184.679 64.14ZM184.679 63.09C185.164 63.09 185.603 62.9593 185.995 62.698C186.396 62.4367 186.709 62.082 186.933 61.634C187.166 61.1767 187.283 60.6633 187.283 60.094C187.283 59.5527 187.171 59.058 186.947 58.61C186.723 58.162 186.41 57.812 186.009 57.56C185.617 57.2987 185.173 57.168 184.679 57.168C184.193 57.168 183.75 57.294 183.349 57.546C182.957 57.798 182.649 58.148 182.425 58.596C182.201 59.044 182.089 59.5433 182.089 60.094C182.089 60.6633 182.201 61.1767 182.425 61.634C182.649 62.0913 182.957 62.4507 183.349 62.712C183.75 62.964 184.193 63.09 184.679 63.09ZM190.162 64V56.258H191.352V57.462C191.735 56.9673 192.103 56.622 192.458 56.426C192.822 56.2207 193.219 56.118 193.648 56.118C194.74 56.118 195.501 56.524 195.93 57.336C196.089 57.644 196.187 57.9613 196.224 58.288C196.271 58.6053 196.294 58.9553 196.294 59.338V64H195.104V59.338C195.104 58.5167 194.955 57.938 194.656 57.602C194.395 57.3127 193.998 57.168 193.466 57.168C192.878 57.168 192.407 57.3593 192.052 57.742C191.8 58.0033 191.618 58.3627 191.506 58.82C191.403 59.2773 191.352 59.9027 191.352 60.696V64H190.162ZM199.418 64H198.228V56.258H199.418V64ZM198.83 54.928C198.578 54.928 198.364 54.844 198.186 54.676C198.009 54.4987 197.92 54.2887 197.92 54.046C197.92 53.8033 198.009 53.598 198.186 53.43C198.364 53.262 198.578 53.178 198.83 53.178C199.082 53.178 199.297 53.262 199.474 53.43C199.652 53.598 199.74 53.8033 199.74 54.046C199.74 54.2887 199.652 54.4987 199.474 54.676C199.297 54.844 199.082 54.928 198.83 54.928ZM204.83 64.14C204.102 64.14 203.454 63.9673 202.884 63.622C202.315 63.2767 201.872 62.796 201.554 62.18C201.237 61.564 201.078 60.8687 201.078 60.094C201.078 59.338 201.237 58.6567 201.554 58.05C201.872 57.4433 202.315 56.972 202.884 56.636C203.454 56.2907 204.102 56.118 204.83 56.118C205.698 56.118 206.431 56.342 207.028 56.79C207.635 57.2287 208.027 57.826 208.204 58.582H206.93C206.781 58.1527 206.515 57.812 206.132 57.56C205.759 57.2987 205.325 57.168 204.83 57.168C204.345 57.168 203.906 57.294 203.514 57.546C203.132 57.798 202.828 58.148 202.604 58.596C202.38 59.0347 202.268 59.534 202.268 60.094C202.268 60.6727 202.376 61.1907 202.59 61.648C202.814 62.096 203.122 62.4507 203.514 62.712C203.906 62.964 204.345 63.09 204.83 63.09C205.362 63.09 205.82 62.9453 206.202 62.656C206.594 62.3667 206.856 61.984 206.986 61.508H208.26C208.092 62.3293 207.696 62.9733 207.07 63.44C206.454 63.9067 205.708 64.14 204.83 64.14ZM217.204 64.14C216.476 64.14 215.823 63.9673 215.244 63.622C214.675 63.2767 214.227 62.796 213.9 62.18C213.583 61.564 213.424 60.8687 213.424 60.094C213.424 59.338 213.583 58.6567 213.9 58.05C214.227 57.4433 214.675 56.972 215.244 56.636C215.823 56.2907 216.476 56.118 217.204 56.118C217.932 56.118 218.585 56.2907 219.164 56.636C219.743 56.972 220.195 57.4433 220.522 58.05C220.849 58.6567 221.012 59.338 221.012 60.094C221.012 60.8687 220.849 61.564 220.522 62.18C220.205 62.7867 219.757 63.2673 219.178 63.622C218.599 63.9673 217.941 64.14 217.204 64.14ZM217.204 63.09C217.689 63.09 218.128 62.9593 218.52 62.698C218.921 62.4367 219.234 62.082 219.458 61.634C219.691 61.1767 219.808 60.6633 219.808 60.094C219.808 59.5527 219.696 59.058 219.472 58.61C219.248 58.162 218.935 57.812 218.534 57.56C218.142 57.2987 217.699 57.168 217.204 57.168C216.719 57.168 216.275 57.294 215.874 57.546C215.482 57.798 215.174 58.148 214.95 58.596C214.726 59.044 214.614 59.5433 214.614 60.094C214.614 60.6633 214.726 61.1767 214.95 61.634C215.174 62.0913 215.482 62.4507 215.874 62.712C216.275 62.964 216.719 63.09 217.204 63.09ZM225.673 64H224.693L221.837 56.258H223.153L225.183 61.984L227.241 56.258H228.543L225.673 64ZM233.118 64.14C232.39 64.14 231.736 63.9673 231.158 63.622C230.588 63.2767 230.145 62.8007 229.828 62.194C229.51 61.5873 229.352 60.906 229.352 60.15C229.352 59.4313 229.501 58.7687 229.8 58.162C230.098 57.546 230.528 57.0513 231.088 56.678C231.657 56.3047 232.324 56.118 233.09 56.118C233.752 56.118 234.368 56.2673 234.938 56.566C235.507 56.8647 235.964 57.3033 236.31 57.882C236.655 58.4513 236.828 59.1373 236.828 59.94V60.36H230.528C230.546 60.6307 230.598 60.8873 230.682 61.13C230.878 61.7273 231.19 62.2033 231.62 62.558C232.058 62.9127 232.553 63.09 233.104 63.09C233.664 63.09 234.144 62.9407 234.546 62.642C234.947 62.3433 235.236 61.9653 235.414 61.508H236.688C236.436 62.292 236.006 62.9267 235.4 63.412C234.793 63.8973 234.032 64.14 233.118 64.14ZM235.554 59.31C235.535 59.03 235.479 58.778 235.386 58.554C235.19 58.1153 234.886 57.7747 234.476 57.532C234.074 57.2893 233.622 57.168 233.118 57.168C232.604 57.168 232.152 57.2893 231.76 57.532C231.377 57.7747 231.078 58.1153 230.864 58.554C230.77 58.7593 230.696 59.0113 230.64 59.31H235.554ZM238.478 64V56.258H239.668V57.322C240.023 56.8927 240.401 56.5847 240.802 56.398C241.204 56.2113 241.67 56.118 242.202 56.118H242.258V57.308H241.852C241.227 57.308 240.728 57.4947 240.354 57.868C239.897 58.3067 239.668 58.9927 239.668 59.926V64H238.478ZM246.468 64.14C245.787 64.14 245.185 63.972 244.662 63.636C244.14 63.3 243.734 62.8287 243.444 62.222C243.164 61.6153 243.024 60.92 243.024 60.136C243.024 59.352 243.164 58.6567 243.444 58.05C243.734 57.434 244.135 56.958 244.648 56.622C245.171 56.286 245.778 56.118 246.468 56.118C247 56.118 247.458 56.216 247.84 56.412C248.223 56.608 248.61 56.958 249.002 57.462V53.318H250.192V64H249.002V62.796C248.62 63.2907 248.237 63.6407 247.854 63.846C247.472 64.042 247.01 64.14 246.468 64.14ZM246.58 63.09C247.056 63.09 247.481 62.964 247.854 62.712C248.228 62.46 248.517 62.11 248.722 61.662C248.937 61.2047 249.044 60.696 249.044 60.136C249.044 59.5667 248.937 59.058 248.722 58.61C248.517 58.162 248.228 57.812 247.854 57.56C247.481 57.2987 247.056 57.168 246.58 57.168C246.104 57.168 245.684 57.2987 245.32 57.56C244.966 57.812 244.69 58.162 244.494 58.61C244.308 59.058 244.214 59.5667 244.214 60.136C244.214 60.696 244.308 61.2 244.494 61.648C244.69 62.096 244.966 62.4507 245.32 62.712C245.684 62.964 246.104 63.09 246.58 63.09ZM255.28 64.14C254.552 64.14 253.899 63.9673 253.32 63.622C252.751 63.2767 252.303 62.796 251.976 62.18C251.659 61.564 251.5 60.8687 251.5 60.094C251.5 59.338 251.659 58.6567 251.976 58.05C252.303 57.4433 252.751 56.972 253.32 56.636C253.899 56.2907 254.552 56.118 255.28 56.118C256.008 56.118 256.661 56.2907 257.24 56.636C257.819 56.972 258.271 57.4433 258.598 58.05C258.925 58.6567 259.088 59.338 259.088 60.094C259.088 60.8687 258.925 61.564 258.598 62.18C258.281 62.7867 257.833 63.2673 257.254 63.622C256.675 63.9673 256.017 64.14 255.28 64.14ZM255.28 63.09C255.765 63.09 256.204 62.9593 256.596 62.698C256.997 62.4367 257.31 62.082 257.534 61.634C257.767 61.1767 257.884 60.6633 257.884 60.094C257.884 59.5527 257.772 59.058 257.548 58.61C257.324 58.162 257.011 57.812 256.61 57.56C256.218 57.2987 255.775 57.168 255.28 57.168C254.795 57.168 254.351 57.294 253.95 57.546C253.558 57.798 253.25 58.148 253.026 58.596C252.802 59.044 252.69 59.5433 252.69 60.094C252.69 60.6633 252.802 61.1767 253.026 61.634C253.25 62.0913 253.558 62.4507 253.95 62.712C254.351 62.964 254.795 63.09 255.28 63.09ZM263.886 64.14C262.906 64.14 262.108 63.9067 261.492 63.44C260.876 62.9733 260.502 62.3293 260.372 61.508H261.618C261.72 62.0027 261.958 62.39 262.332 62.67C262.714 62.95 263.237 63.09 263.9 63.09C264.441 63.09 264.87 62.9873 265.188 62.782C265.514 62.5767 265.678 62.2827 265.678 61.9C265.678 61.6013 265.58 61.3633 265.384 61.186C265.197 60.9993 264.954 60.8593 264.656 60.766C264.366 60.6727 263.979 60.5793 263.494 60.486C262.887 60.3647 262.397 60.2433 262.024 60.122C261.66 59.9913 261.347 59.786 261.086 59.506C260.824 59.226 260.694 58.8387 260.694 58.344C260.694 57.644 260.955 57.098 261.478 56.706C262.01 56.314 262.686 56.118 263.508 56.118C264.348 56.118 265.048 56.3373 265.608 56.776C266.168 57.2147 266.513 57.8167 266.644 58.582H265.538C265.426 58.106 265.192 57.7513 264.838 57.518C264.483 57.2847 264.04 57.168 263.508 57.168C262.994 57.168 262.593 57.266 262.304 57.462C262.024 57.6487 261.884 57.91 261.884 58.246C261.884 58.5073 261.972 58.7127 262.15 58.862C262.327 59.0113 262.546 59.128 262.808 59.212C263.069 59.2867 263.438 59.3707 263.914 59.464C264.539 59.5853 265.048 59.716 265.44 59.856C265.832 59.9867 266.168 60.206 266.448 60.514C266.728 60.8127 266.868 61.2327 266.868 61.774C266.868 62.502 266.606 63.0807 266.084 63.51C265.561 63.93 264.828 64.14 263.886 64.14ZM272.001 64.14C271.273 64.14 270.619 63.9673 270.041 63.622C269.471 63.2767 269.028 62.8007 268.711 62.194C268.393 61.5873 268.235 60.906 268.235 60.15C268.235 59.4313 268.384 58.7687 268.683 58.162C268.981 57.546 269.411 57.0513 269.971 56.678C270.54 56.3047 271.207 56.118 271.973 56.118C272.635 56.118 273.251 56.2673 273.821 56.566C274.39 56.8647 274.847 57.3033 275.193 57.882C275.538 58.4513 275.711 59.1373 275.711 59.94V60.36H269.41C269.429 60.6307 269.481 60.8873 269.565 61.13C269.761 61.7273 270.073 62.2033 270.503 62.558C270.941 62.9127 271.436 63.09 271.987 63.09C272.547 63.09 273.027 62.9407 273.429 62.642C273.83 62.3433 274.119 61.9653 274.297 61.508H275.571C275.319 62.292 274.889 62.9267 274.283 63.412C273.676 63.8973 272.915 64.14 272.001 64.14ZM274.437 59.31C274.418 59.03 274.362 58.778 274.269 58.554C274.073 58.1153 273.769 57.7747 273.359 57.532C272.957 57.2893 272.505 57.168 272.001 57.168C271.487 57.168 271.035 57.2893 270.643 57.532C270.26 57.7747 269.961 58.1153 269.747 58.554C269.653 58.7593 269.579 59.0113 269.523 59.31H274.437ZM19.724 81H18.618L16.35 73.258H17.624L19.248 79.068L21.194 73.258H22.272L24.218 79.068L25.856 73.258H27.13L24.834 81H23.728L21.74 74.938L19.724 81ZM29.6684 81H28.4784V73.258H29.6684V81ZM29.0804 71.928C28.8284 71.928 28.6137 71.844 28.4364 71.676C28.259 71.4987 28.1704 71.2887 28.1704 71.046C28.1704 70.8033 28.259 70.598 28.4364 70.43C28.6137 70.262 28.8284 70.178 29.0804 70.178C29.3324 70.178 29.547 70.262 29.7244 70.43C29.9017 70.598 29.9904 70.8033 29.9904 71.046C29.9904 71.2887 29.9017 71.4987 29.7244 71.676C29.547 71.844 29.3324 71.928 29.0804 71.928ZM34.1143 81C33.4889 81 33.0269 80.86 32.7283 80.58C32.4296 80.3 32.2803 79.7913 32.2803 79.054V74.308H31.0343V73.258H32.2803V70.318H33.4703V73.258H35.2063V74.308H33.4703V78.816C33.4703 79.0867 33.4889 79.3013 33.5263 79.46C33.5636 79.6093 33.6476 79.7307 33.7783 79.824C33.9089 79.908 34.1143 79.95 34.3943 79.95H35.1923V81H34.1143ZM36.7228 81V70.318H37.9128V74.462C38.2955 73.9673 38.6642 73.622 39.0188 73.426C39.3828 73.2207 39.7795 73.118 40.2088 73.118C41.3008 73.118 42.0615 73.524 42.4908 74.336C42.6495 74.644 42.7475 74.9613 42.7848 75.288C42.8315 75.6053 42.8548 75.9553 42.8548 76.338V81H41.6648V76.338C41.6648 75.5167 41.5155 74.938 41.2168 74.602C40.9555 74.3127 40.5588 74.168 40.0268 74.168C39.4388 74.168 38.9675 74.3593 38.6128 74.742C38.3608 75.0033 38.1788 75.3627 38.0668 75.82C37.9642 76.2773 37.9128 76.9027 37.9128 77.696V81H36.7228ZM51.8696 81.14C51.1416 81.14 50.4883 80.9673 49.9096 80.622C49.3403 80.2767 48.897 79.8007 48.5796 79.194C48.2623 78.5873 48.1036 77.906 48.1036 77.15C48.1036 76.4313 48.253 75.7687 48.5516 75.162C48.8503 74.546 49.2796 74.0513 49.8396 73.678C50.409 73.3047 51.0763 73.118 51.8416 73.118C52.5043 73.118 53.1203 73.2673 53.6896 73.566C54.259 73.8647 54.7163 74.3033 55.0616 74.882C55.407 75.4513 55.5796 76.1373 55.5796 76.94V77.36H49.2796C49.2983 77.6307 49.3496 77.8873 49.4336 78.13C49.6296 78.7273 49.9423 79.2033 50.3716 79.558C50.8103 79.9127 51.305 80.09 51.8556 80.09C52.4156 80.09 52.8963 79.9407 53.2976 79.642C53.699 79.3433 53.9883 78.9653 54.1656 78.508H55.4396C55.1876 79.292 54.7583 79.9267 54.1516 80.412C53.545 80.8973 52.7843 81.14 51.8696 81.14ZM54.3056 76.31C54.287 76.03 54.231 75.778 54.1376 75.554C53.9416 75.1153 53.6383 74.7747 53.2276 74.532C52.8263 74.2893 52.3736 74.168 51.8696 74.168C51.3563 74.168 50.9036 74.2893 50.5116 74.532C50.129 74.7747 49.8303 75.1153 49.6156 75.554C49.5223 75.7593 49.4476 76.0113 49.3916 76.31H54.3056ZM57.6295 81H56.2155L59.0015 77.122L56.2155 73.258H57.6295L59.7715 76.296L61.9275 73.258H63.3555L60.5275 77.122L63.3555 81H61.9275L59.7715 77.962L57.6295 81ZM67.743 81.14C67.015 81.14 66.3617 80.9673 65.783 80.622C65.2137 80.2767 64.7657 79.796 64.439 79.18C64.1217 78.564 63.963 77.8687 63.963 77.094C63.963 76.338 64.1217 75.6567 64.439 75.05C64.7657 74.4433 65.2137 73.972 65.783 73.636C66.3617 73.2907 67.015 73.118 67.743 73.118C68.471 73.118 69.1243 73.2907 69.703 73.636C70.2817 73.972 70.7343 74.4433 71.061 75.05C71.3877 75.6567 71.551 76.338 71.551 77.094C71.551 77.8687 71.3877 78.564 71.061 79.18C70.7437 79.7867 70.2957 80.2673 69.717 80.622C69.1383 80.9673 68.4803 81.14 67.743 81.14ZM67.743 80.09C68.2283 80.09 68.667 79.9593 69.059 79.698C69.4603 79.4367 69.773 79.082 69.997 78.634C70.2303 78.1767 70.347 77.6633 70.347 77.094C70.347 76.5527 70.235 76.058 70.011 75.61C69.787 75.162 69.4743 74.812 69.073 74.56C68.681 74.2987 68.2377 74.168 67.743 74.168C67.2577 74.168 66.8143 74.294 66.413 74.546C66.021 74.798 65.713 75.148 65.489 75.596C65.265 76.044 65.153 76.5433 65.153 77.094C65.153 77.6633 65.265 78.1767 65.489 78.634C65.713 79.0913 66.021 79.4507 66.413 79.712C66.8143 79.964 67.2577 80.09 67.743 80.09ZM76.6424 84.08C75.7558 84.08 74.9904 83.8887 74.3464 83.506C73.7118 83.1233 73.3244 82.498 73.1844 81.63H74.4024C74.6451 82.5633 75.3871 83.03 76.6284 83.03C78.1684 83.03 78.9384 82.3393 78.9384 80.958V79.796C78.5464 80.3 78.1591 80.65 77.7764 80.846C77.3938 81.042 76.9364 81.14 76.4044 81.14C75.7231 81.14 75.1211 80.972 74.5984 80.636C74.0758 80.3 73.6698 79.8333 73.3804 79.236C73.1004 78.6293 72.9604 77.9387 72.9604 77.164C72.9604 76.3707 73.1004 75.6707 73.3804 75.064C73.6698 74.448 74.0711 73.972 74.5844 73.636C75.1071 73.2907 75.7091 73.118 76.3904 73.118C76.9318 73.118 77.3938 73.2207 77.7764 73.426C78.1591 73.622 78.5464 73.9673 78.9384 74.462V73.258H80.1284V80.734C80.1284 81.9287 79.8204 82.7827 79.2044 83.296C78.5884 83.8187 77.7344 84.08 76.6424 84.08ZM76.5164 80.09C76.9924 80.09 77.4171 79.964 77.7904 79.712C78.1638 79.4507 78.4531 79.096 78.6584 78.648C78.8731 78.2 78.9804 77.6913 78.9804 77.122C78.9804 76.562 78.8731 76.058 78.6584 75.61C78.4531 75.162 78.1591 74.812 77.7764 74.56C77.4031 74.2987 76.9831 74.168 76.5164 74.168C76.0404 74.168 75.6204 74.2987 75.2564 74.56C74.9018 74.812 74.6264 75.162 74.4304 75.61C74.2438 76.058 74.1504 76.562 74.1504 77.122C74.1504 77.6913 74.2438 78.2 74.4304 78.648C74.6264 79.096 74.9018 79.4507 75.2564 79.712C75.6204 79.964 76.0404 80.09 76.5164 80.09ZM85.5571 81.14C84.8291 81.14 84.1758 80.9673 83.5971 80.622C83.0278 80.2767 82.5845 79.8007 82.2671 79.194C81.9498 78.5873 81.7911 77.906 81.7911 77.15C81.7911 76.4313 81.9405 75.7687 82.2391 75.162C82.5378 74.546 82.9671 74.0513 83.5271 73.678C84.0965 73.3047 84.7638 73.118 85.5291 73.118C86.1918 73.118 86.8078 73.2673 87.3771 73.566C87.9465 73.8647 88.4038 74.3033 88.7491 74.882C89.0945 75.4513 89.2671 76.1373 89.2671 76.94V77.36H82.9671C82.9858 77.6307 83.0371 77.8873 83.1211 78.13C83.3171 78.7273 83.6298 79.2033 84.0591 79.558C84.4978 79.9127 84.9925 80.09 85.5431 80.09C86.1031 80.09 86.5838 79.9407 86.9851 79.642C87.3865 79.3433 87.6758 78.9653 87.8531 78.508H89.1271C88.8751 79.292 88.4458 79.9267 87.8391 80.412C87.2325 80.8973 86.4718 81.14 85.5571 81.14ZM87.9931 76.31C87.9745 76.03 87.9185 75.778 87.8251 75.554C87.6291 75.1153 87.3258 74.7747 86.9151 74.532C86.5138 74.2893 86.0611 74.168 85.5571 74.168C85.0438 74.168 84.5911 74.2893 84.1991 74.532C83.8165 74.7747 83.5178 75.1153 83.3031 75.554C83.2098 75.7593 83.1351 76.0113 83.0791 76.31H87.9931ZM90.9178 81V73.258H92.1078V74.462C92.4905 73.9673 92.8592 73.622 93.2138 73.426C93.5778 73.2207 93.9745 73.118 94.4038 73.118C95.4958 73.118 96.2565 73.524 96.6858 74.336C96.8445 74.644 96.9425 74.9613 96.9798 75.288C97.0265 75.6053 97.0498 75.9553 97.0498 76.338V81H95.8598V76.338C95.8598 75.5167 95.7105 74.938 95.4118 74.602C95.1505 74.3127 94.7538 74.168 94.2218 74.168C93.6338 74.168 93.1625 74.3593 92.8078 74.742C92.5558 75.0033 92.3738 75.3627 92.2618 75.82C92.1592 76.2773 92.1078 76.9027 92.1078 77.696V81H90.9178ZM102.442 81.14C101.714 81.14 101.061 80.9673 100.482 80.622C99.9129 80.2767 99.4649 79.796 99.1382 79.18C98.8209 78.564 98.6622 77.8687 98.6622 77.094C98.6622 76.338 98.8209 75.6567 99.1382 75.05C99.4649 74.4433 99.9129 73.972 100.482 73.636C101.061 73.2907 101.714 73.118 102.442 73.118C103.17 73.118 103.824 73.2907 104.402 73.636C104.981 73.972 105.434 74.4433 105.76 75.05C106.087 75.6567 106.25 76.338 106.25 77.094C106.25 77.8687 106.087 78.564 105.76 79.18C105.443 79.7867 104.995 80.2673 104.416 80.622C103.838 80.9673 103.18 81.14 102.442 81.14ZM102.442 80.09C102.928 80.09 103.366 79.9593 103.758 79.698C104.16 79.4367 104.472 79.082 104.696 78.634C104.93 78.1767 105.046 77.6633 105.046 77.094C105.046 76.5527 104.934 76.058 104.71 75.61C104.486 75.162 104.174 74.812 103.772 74.56C103.38 74.2987 102.937 74.168 102.442 74.168C101.957 74.168 101.514 74.294 101.112 74.546C100.72 74.798 100.412 75.148 100.188 75.596C99.9642 76.044 99.8522 76.5433 99.8522 77.094C99.8522 77.6633 99.9642 78.1767 100.188 78.634C100.412 79.0913 100.72 79.4507 101.112 79.712C101.514 79.964 101.957 80.09 102.442 80.09ZM110.544 81.14C109.461 81.14 108.7 80.734 108.262 79.922C108.019 79.4647 107.898 78.7973 107.898 77.92V73.258H109.088V77.92C109.088 78.7413 109.237 79.32 109.536 79.656C109.797 79.9453 110.194 80.09 110.726 80.09C111.314 80.09 111.785 79.8987 112.14 79.516C112.392 79.2547 112.569 78.8953 112.672 78.438C112.784 77.9807 112.84 77.3553 112.84 76.562V73.258H114.03V81H112.84V79.796C112.466 80.272 112.098 80.6173 111.734 80.832C111.379 81.0373 110.982 81.14 110.544 81.14ZM119.141 81.14C118.161 81.14 117.363 80.9067 116.747 80.44C116.131 79.9733 115.758 79.3293 115.627 78.508H116.873C116.976 79.0027 117.214 79.39 117.587 79.67C117.97 79.95 118.493 80.09 119.155 80.09C119.697 80.09 120.126 79.9873 120.443 79.782C120.77 79.5767 120.933 79.2827 120.933 78.9C120.933 78.6013 120.835 78.3633 120.639 78.186C120.453 77.9993 120.21 77.8593 119.911 77.766C119.622 77.6727 119.235 77.5793 118.749 77.486C118.143 77.3647 117.653 77.2433 117.279 77.122C116.915 76.9913 116.603 76.786 116.341 76.506C116.08 76.226 115.949 75.8387 115.949 75.344C115.949 74.644 116.211 74.098 116.733 73.706C117.265 73.314 117.942 73.118 118.763 73.118C119.603 73.118 120.303 73.3373 120.863 73.776C121.423 74.2147 121.769 74.8167 121.899 75.582H120.793C120.681 75.106 120.448 74.7513 120.093 74.518C119.739 74.2847 119.295 74.168 118.763 74.168C118.25 74.168 117.849 74.266 117.559 74.462C117.279 74.6487 117.139 74.91 117.139 75.246C117.139 75.5073 117.228 75.7127 117.405 75.862C117.583 76.0113 117.802 76.128 118.063 76.212C118.325 76.2867 118.693 76.3707 119.169 76.464C119.795 76.5853 120.303 76.716 120.695 76.856C121.087 76.9867 121.423 77.206 121.703 77.514C121.983 77.8127 122.123 78.2327 122.123 78.774C122.123 79.502 121.862 80.0807 121.339 80.51C120.817 80.93 120.084 81.14 119.141 81.14ZM131.838 81H130.55V71.48H126.938V70.318H135.464V71.48H131.838V81ZM142.46 81H141.172V78.452H136.216V77.178L141.158 70.318H142.46V77.29H144.084V78.452H142.46V81ZM141.172 72.082L137.476 77.29H141.172V72.082ZM147.831 77.584C147.831 77.0427 147.901 76.5947 148.041 76.24C148.191 75.876 148.363 75.5913 148.559 75.386C148.765 75.1807 149.031 74.9567 149.357 74.714C149.619 74.5273 149.819 74.364 149.959 74.224C150.109 74.084 150.23 73.9113 150.323 73.706C150.426 73.5007 150.477 73.2533 150.477 72.964C150.477 72.404 150.295 71.9747 149.931 71.676C149.577 71.3773 149.087 71.228 148.461 71.228C147.799 71.228 147.281 71.4053 146.907 71.76C146.534 72.1147 146.324 72.6047 146.277 73.23H145.185C145.241 72.2873 145.559 71.5453 146.137 71.004C146.725 70.4627 147.477 70.192 148.391 70.192C149.315 70.192 150.076 70.4393 150.673 70.934C151.271 71.4287 151.569 72.124 151.569 73.02C151.569 73.412 151.509 73.748 151.387 74.028C151.275 74.2987 151.131 74.5227 150.953 74.7C150.785 74.8773 150.557 75.0733 150.267 75.288C149.978 75.512 149.745 75.7127 149.567 75.89C149.399 76.0673 149.255 76.296 149.133 76.576C149.012 76.8467 148.951 77.1827 148.951 77.584V77.976H147.831V77.584ZM148.377 81.14C148.153 81.14 147.957 81.0607 147.789 80.902C147.631 80.734 147.551 80.5333 147.551 80.3C147.551 80.0853 147.631 79.8987 147.789 79.74C147.957 79.572 148.153 79.488 148.377 79.488C148.601 79.488 148.793 79.5673 148.951 79.726C149.119 79.8847 149.203 80.076 149.203 80.3C149.203 80.5333 149.119 80.734 148.951 80.902C148.793 81.0607 148.601 81.14 148.377 81.14Z" fill="black"/>
<rect x="16" y="100" width="279" height="40" rx="12" fill="#52B922" fill-opacity="0.1"/>
<rect x="16.5" y="100.5" width="278" height="39" rx="11.5" stroke="#52B922" stroke-opacity="0.1"/>
<path d="M35.9987 113.336C32.3254 113.336 29.332 116.329 29.332 120.003C29.332 123.676 32.3254 126.669 35.9987 126.669C39.672 126.669 42.6654 123.676 42.6654 120.003C42.6654 116.329 39.672 113.336 35.9987 113.336ZM39.1854 118.469L35.4054 122.249C35.312 122.343 35.1854 122.396 35.052 122.396C34.9187 122.396 34.792 122.343 34.6987 122.249L32.812 120.363C32.6187 120.169 32.6187 119.849 32.812 119.656C33.0054 119.463 33.3254 119.463 33.5187 119.656L35.052 121.189L38.4787 117.763C38.672 117.569 38.992 117.569 39.1854 117.763C39.3787 117.956 39.3787 118.269 39.1854 118.469Z" fill="#52B922"/>
<path d="M60.2 124.5H58.952L56.24 115.344H57.392L59.66 122.916L61.916 115.344H62.972L65.24 122.928L67.496 115.344H68.648L65.936 124.5H64.688L62.444 117.144L60.2 124.5ZM72.1204 124.62C71.4964 124.62 70.9364 124.472 70.4404 124.176C69.9524 123.88 69.5724 123.472 69.3004 122.952C69.0284 122.432 68.8924 121.848 68.8924 121.2C68.8924 120.584 69.0204 120.016 69.2764 119.496C69.5324 118.968 69.9004 118.544 70.3804 118.224C70.8684 117.904 71.4404 117.744 72.0964 117.744C72.6644 117.744 73.1924 117.872 73.6804 118.128C74.1684 118.384 74.5604 118.76 74.8564 119.256C75.1524 119.744 75.3004 120.332 75.3004 121.02V121.38H69.9004C69.9164 121.612 69.9604 121.832 70.0324 122.04C70.2004 122.552 70.4684 122.96 70.8364 123.264C71.2124 123.568 71.6364 123.72 72.1084 123.72C72.5884 123.72 73.0004 123.592 73.3444 123.336C73.6884 123.08 73.9364 122.756 74.0884 122.364H75.1804C74.9644 123.036 74.5964 123.58 74.0764 123.996C73.5564 124.412 72.9044 124.62 72.1204 124.62ZM74.2084 120.48C74.1924 120.24 74.1444 120.024 74.0644 119.832C73.8964 119.456 73.6364 119.164 73.2844 118.956C72.9404 118.748 72.5524 118.644 72.1204 118.644C71.6804 118.644 71.2924 118.748 70.9564 118.956C70.6284 119.164 70.3724 119.456 70.1884 119.832C70.1084 120.008 70.0444 120.224 69.9964 120.48H74.2084ZM77.7353 124.5H76.7153V117.864H77.7353V124.5ZM77.2313 116.724C77.0153 116.724 76.8313 116.652 76.6793 116.508C76.5273 116.356 76.4513 116.176 76.4513 115.968C76.4513 115.76 76.5273 115.584 76.6793 115.44C76.8313 115.296 77.0153 115.224 77.2313 115.224C77.4473 115.224 77.6313 115.296 77.7833 115.44C77.9353 115.584 78.0113 115.76 78.0113 115.968C78.0113 116.176 77.9353 116.356 77.7833 116.508C77.6313 116.652 77.4473 116.724 77.2313 116.724ZM82.362 127.14C81.602 127.14 80.946 126.976 80.394 126.648C79.85 126.32 79.518 125.784 79.398 125.04H80.442C80.65 125.84 81.286 126.24 82.35 126.24C83.67 126.24 84.33 125.648 84.33 124.464V123.468C83.994 123.9 83.662 124.2 83.334 124.368C83.006 124.536 82.614 124.62 82.158 124.62C81.574 124.62 81.058 124.476 80.61 124.188C80.162 123.9 79.814 123.5 79.566 122.988C79.326 122.468 79.206 121.876 79.206 121.212C79.206 120.532 79.326 119.932 79.566 119.412C79.814 118.884 80.158 118.476 80.598 118.188C81.046 117.892 81.562 117.744 82.146 117.744C82.61 117.744 83.006 117.832 83.334 118.008C83.662 118.176 83.994 118.472 84.33 118.896V117.864H85.35V124.272C85.35 125.296 85.086 126.028 84.558 126.468C84.03 126.916 83.298 127.14 82.362 127.14ZM82.254 123.72C82.662 123.72 83.026 123.612 83.346 123.396C83.666 123.172 83.914 122.868 84.09 122.484C84.274 122.1 84.366 121.664 84.366 121.176C84.366 120.696 84.274 120.264 84.09 119.88C83.914 119.496 83.662 119.196 83.334 118.98C83.014 118.756 82.654 118.644 82.254 118.644C81.846 118.644 81.486 118.756 81.174 118.98C80.87 119.196 80.634 119.496 80.466 119.88C80.306 120.264 80.226 120.696 80.226 121.176C80.226 121.664 80.306 122.1 80.466 122.484C80.634 122.868 80.87 123.172 81.174 123.396C81.486 123.612 81.846 123.72 82.254 123.72ZM87.0632 124.5V115.344H88.0832V118.896C88.4112 118.472 88.7272 118.176 89.0312 118.008C89.3432 117.832 89.6832 117.744 90.0512 117.744C90.9872 117.744 91.6392 118.092 92.0072 118.788C92.1432 119.052 92.2272 119.324 92.2592 119.604C92.2992 119.876 92.3192 120.176 92.3192 120.504V124.5H91.2992V120.504C91.2992 119.8 91.1712 119.304 90.9152 119.016C90.6912 118.768 90.3512 118.644 89.8952 118.644C89.3912 118.644 88.9872 118.808 88.6832 119.136C88.4672 119.36 88.3112 119.668 88.2152 120.06C88.1272 120.452 88.0832 120.988 88.0832 121.668V124.5H87.0632ZM95.8898 124.5C95.3538 124.5 94.9578 124.38 94.7018 124.14C94.4458 123.9 94.3178 123.464 94.3178 122.832V118.764H93.2498V117.864H94.3178V115.344H95.3378V117.864H96.8258V118.764H95.3378V122.628C95.3378 122.86 95.3538 123.044 95.3858 123.18C95.4178 123.308 95.4898 123.412 95.6018 123.492C95.7138 123.564 95.8898 123.6 96.1298 123.6H96.8138V124.5H95.8898ZM103.025 124.5C102.489 124.5 102.093 124.38 101.837 124.14C101.581 123.9 101.453 123.464 101.453 122.832V115.344H102.473V122.676C102.473 122.908 102.489 123.088 102.521 123.216C102.553 123.336 102.625 123.432 102.737 123.504C102.849 123.568 103.025 123.6 103.265 123.6H103.589V124.5H103.025ZM107.453 124.62C106.829 124.62 106.269 124.472 105.773 124.176C105.285 123.88 104.901 123.468 104.621 122.94C104.349 122.412 104.213 121.816 104.213 121.152C104.213 120.504 104.349 119.92 104.621 119.4C104.901 118.88 105.285 118.476 105.773 118.188C106.269 117.892 106.829 117.744 107.453 117.744C108.077 117.744 108.637 117.892 109.133 118.188C109.629 118.476 110.017 118.88 110.297 119.4C110.577 119.92 110.717 120.504 110.717 121.152C110.717 121.816 110.577 122.412 110.297 122.94C110.025 123.46 109.641 123.872 109.145 124.176C108.649 124.472 108.085 124.62 107.453 124.62ZM107.453 123.72C107.869 123.72 108.245 123.608 108.581 123.384C108.925 123.16 109.193 122.856 109.385 122.472C109.585 122.08 109.685 121.64 109.685 121.152C109.685 120.688 109.589 120.264 109.397 119.88C109.205 119.496 108.937 119.196 108.593 118.98C108.257 118.756 107.877 118.644 107.453 118.644C107.037 118.644 106.657 118.752 106.313 118.968C105.977 119.184 105.713 119.484 105.521 119.868C105.329 120.252 105.233 120.68 105.233 121.152C105.233 121.64 105.329 122.08 105.521 122.472C105.713 122.864 105.977 123.172 106.313 123.396C106.657 123.612 107.037 123.72 107.453 123.72ZM114.829 124.62C113.989 124.62 113.305 124.42 112.777 124.02C112.249 123.62 111.929 123.068 111.817 122.364H112.885C112.973 122.788 113.177 123.12 113.497 123.36C113.825 123.6 114.273 123.72 114.841 123.72C115.305 123.72 115.673 123.632 115.945 123.456C116.225 123.28 116.365 123.028 116.365 122.7C116.365 122.444 116.281 122.24 116.113 122.088C115.953 121.928 115.745 121.808 115.489 121.728C115.241 121.648 114.909 121.568 114.493 121.488C113.973 121.384 113.553 121.28 113.233 121.176C112.921 121.064 112.653 120.888 112.429 120.648C112.205 120.408 112.093 120.076 112.093 119.652C112.093 119.052 112.317 118.584 112.765 118.248C113.221 117.912 113.801 117.744 114.505 117.744C115.225 117.744 115.825 117.932 116.305 118.308C116.785 118.684 117.081 119.2 117.193 119.856H116.245C116.149 119.448 115.949 119.144 115.645 118.944C115.341 118.744 114.961 118.644 114.505 118.644C114.065 118.644 113.721 118.728 113.473 118.896C113.233 119.056 113.113 119.28 113.113 119.568C113.113 119.792 113.189 119.968 113.341 120.096C113.493 120.224 113.681 120.324 113.905 120.396C114.129 120.46 114.445 120.532 114.853 120.612C115.389 120.716 115.825 120.828 116.161 120.948C116.497 121.06 116.785 121.248 117.025 121.512C117.265 121.768 117.385 122.128 117.385 122.592C117.385 123.216 117.161 123.712 116.713 124.08C116.265 124.44 115.637 124.62 114.829 124.62ZM121.508 124.62C120.668 124.62 119.984 124.42 119.456 124.02C118.928 123.62 118.608 123.068 118.496 122.364H119.564C119.652 122.788 119.856 123.12 120.176 123.36C120.504 123.6 120.952 123.72 121.52 123.72C121.984 123.72 122.352 123.632 122.624 123.456C122.904 123.28 123.044 123.028 123.044 122.7C123.044 122.444 122.96 122.24 122.792 122.088C122.632 121.928 122.424 121.808 122.168 121.728C121.92 121.648 121.588 121.568 121.172 121.488C120.652 121.384 120.232 121.28 119.912 121.176C119.6 121.064 119.332 120.888 119.108 120.648C118.884 120.408 118.772 120.076 118.772 119.652C118.772 119.052 118.996 118.584 119.444 118.248C119.9 117.912 120.48 117.744 121.184 117.744C121.904 117.744 122.504 117.932 122.984 118.308C123.464 118.684 123.76 119.2 123.872 119.856H122.924C122.828 119.448 122.628 119.144 122.324 118.944C122.02 118.744 121.64 118.644 121.184 118.644C120.744 118.644 120.4 118.728 120.152 118.896C119.912 119.056 119.792 119.28 119.792 119.568C119.792 119.792 119.868 119.968 120.02 120.096C120.172 120.224 120.36 120.324 120.584 120.396C120.808 120.46 121.124 120.532 121.532 120.612C122.068 120.716 122.504 120.828 122.84 120.948C123.176 121.06 123.464 121.248 123.704 121.512C123.944 121.768 124.064 122.128 124.064 122.592C124.064 123.216 123.84 123.712 123.392 124.08C122.944 124.44 122.316 124.62 121.508 124.62Z" fill="#52B922"/>
<rect x="28" y="163.5" width="16" height="16" rx="8" fill="white"/>
<rect x="28.5" y="164" width="15" height="15" rx="7.5" stroke="black" stroke-opacity="0.1"/>
<rect x="56" y="163" width="135" height="17" rx="8.5" fill="#F4F4F4"/>
<rect x="28" y="215.5" width="16" height="16" rx="8" fill="white"/>
<rect x="28.5" y="216" width="15" height="15" rx="7.5" stroke="black" stroke-opacity="0.1"/>
<rect x="56" y="215" width="135" height="17" rx="8.5" fill="#F4F4F4"/>
<rect x="16.5" y="255.5" width="278" height="39" rx="11.5" fill="#FAFAFA"/>
<rect x="16.5" y="255.5" width="278" height="39" rx="11.5" stroke="#F22020"/>
<path d="M35.9987 268.336C32.3254 268.336 29.332 271.329 29.332 275.003C29.332 278.676 32.3254 281.669 35.9987 281.669C39.672 281.669 42.6654 278.676 42.6654 275.003C42.6654 271.329 39.672 268.336 35.9987 268.336ZM38.2387 276.536C38.432 276.729 38.432 277.049 38.2387 277.243C38.1387 277.343 38.012 277.389 37.8854 277.389C37.7587 277.389 37.632 277.343 37.532 277.243L35.9987 275.709L34.4654 277.243C34.3654 277.343 34.2387 277.389 34.112 277.389C33.9854 277.389 33.8587 277.343 33.7587 277.243C33.5654 277.049 33.5654 276.729 33.7587 276.536L35.292 275.003L33.7587 273.469C33.5654 273.276 33.5654 272.956 33.7587 272.763C33.952 272.569 34.272 272.569 34.4654 272.763L35.9987 274.296L37.532 272.763C37.7254 272.569 38.0454 272.569 38.2387 272.763C38.432 272.956 38.432 273.276 38.2387 273.469L36.7054 275.003L38.2387 276.536Z" fill="#F22020"/>
<path d="M56.948 279.5V270.344H59.468C60.988 270.344 62.152 270.744 62.96 271.544C63.768 272.344 64.172 273.48 64.172 274.952C64.172 276.4 63.764 277.52 62.948 278.312C62.14 279.104 60.976 279.5 59.456 279.5H56.948ZM59.444 278.504C60.548 278.504 61.428 278.244 62.084 277.724C62.74 277.204 63.068 276.28 63.068 274.952C63.068 272.544 61.864 271.34 59.456 271.34H58.052V278.504H59.444ZM65.6411 279.5V272.864H66.6611V273.776C66.9651 273.408 67.2891 273.144 67.6331 272.984C67.9771 272.824 68.3771 272.744 68.8331 272.744H68.8811V273.764H68.5331C67.9971 273.764 67.5691 273.924 67.2491 274.244C66.8571 274.62 66.6611 275.208 66.6611 276.008V279.5H65.6411ZM70.0004 282.02V281.084H70.6244C70.8244 281.084 70.9764 281.068 71.0804 281.036C71.1844 281.012 71.2764 280.952 71.3564 280.856C71.4364 280.76 71.5164 280.604 71.5964 280.388L71.9564 279.404L69.3644 272.864H70.4924L72.5084 278.012L74.3804 272.864H75.4844L72.5444 280.832C72.3684 281.304 72.1684 281.62 71.9444 281.78C71.7204 281.94 71.4004 282.02 70.9844 282.02H70.0004ZM76.2984 281.012C76.6664 280.956 76.9504 280.812 77.1504 280.58C77.3504 280.348 77.4504 280.06 77.4504 279.716C77.4504 279.596 77.4384 279.476 77.4144 279.356C77.3104 279.532 77.1304 279.62 76.8744 279.62C76.6984 279.62 76.5504 279.56 76.4304 279.44C76.3104 279.312 76.2504 279.144 76.2504 278.936C76.2504 278.72 76.3184 278.544 76.4544 278.408C76.5984 278.272 76.7864 278.204 77.0184 278.204C77.3304 278.204 77.5784 278.332 77.7624 278.588C77.9544 278.844 78.0504 279.18 78.0504 279.596C78.0504 280.084 77.9024 280.516 77.6064 280.892C77.3184 281.268 76.8824 281.488 76.2984 281.552V281.012ZM85.9193 272.744C86.5033 272.744 87.0193 272.888 87.4673 273.176C87.9153 273.464 88.2593 273.868 88.4993 274.388C88.7473 274.908 88.8713 275.504 88.8713 276.176C88.8713 276.848 88.7473 277.448 88.4993 277.976C88.2593 278.496 87.9153 278.9 87.4673 279.188C87.0273 279.476 86.5113 279.62 85.9193 279.62C85.4633 279.62 85.0713 279.536 84.7433 279.368C84.4153 279.2 84.0833 278.9 83.7473 278.468V282.02H82.7273V272.864H83.7473V273.896C84.0753 273.472 84.4033 273.176 84.7313 273.008C85.0593 272.832 85.4553 272.744 85.9193 272.744ZM85.8233 273.644C85.4153 273.644 85.0513 273.752 84.7313 273.968C84.4113 274.184 84.1593 274.488 83.9753 274.88C83.7993 275.264 83.7113 275.696 83.7113 276.176C83.7113 276.664 83.7993 277.1 83.9753 277.484C84.1593 277.868 84.4113 278.172 84.7313 278.396C85.0513 278.612 85.4153 278.72 85.8233 278.72C86.2313 278.72 86.5873 278.612 86.8913 278.396C87.2033 278.172 87.4393 277.868 87.5993 277.484C87.7673 277.1 87.8513 276.664 87.8513 276.176C87.8513 275.696 87.7673 275.264 87.5993 274.88C87.4393 274.496 87.2033 274.196 86.8913 273.98C86.5873 273.756 86.2313 273.644 85.8233 273.644ZM92.5648 279.62C91.6368 279.62 90.9848 279.272 90.6088 278.576C90.4008 278.184 90.2968 277.612 90.2968 276.86V272.864H91.3168V276.86C91.3168 277.564 91.4448 278.06 91.7008 278.348C91.9248 278.596 92.2648 278.72 92.7208 278.72C93.2248 278.72 93.6288 278.556 93.9328 278.228C94.1488 278.004 94.3008 277.696 94.3888 277.304C94.4848 276.912 94.5328 276.376 94.5328 275.696V272.864H95.5528V279.5H94.5328V278.468C94.2128 278.876 93.8968 279.172 93.5848 279.356C93.2808 279.532 92.9408 279.62 92.5648 279.62ZM97.8223 279.5V273.764H96.7183V272.864H97.8223V272.144C97.8223 271.552 97.9663 271.104 98.2543 270.8C98.5423 270.496 98.9703 270.344 99.5383 270.344H100.39V271.244H99.7663C99.4463 271.244 99.2103 271.328 99.0583 271.496C98.9143 271.664 98.8423 271.924 98.8423 272.276V272.864H100.39V273.764H98.8423V279.5H97.8223ZM102.053 279.5V273.764H100.949V272.864H102.053V272.144C102.053 271.552 102.197 271.104 102.485 270.8C102.773 270.496 103.201 270.344 103.769 270.344H104.621V271.244H103.997C103.677 271.244 103.441 271.328 103.289 271.496C103.145 271.664 103.073 271.924 103.073 272.276V272.864H104.621V273.764H103.073V279.5H102.053ZM105.719 282.02V281.084H106.343C106.543 281.084 106.695 281.068 106.799 281.036C106.903 281.012 106.995 280.952 107.075 280.856C107.155 280.76 107.235 280.604 107.315 280.388L107.675 279.404L105.083 272.864H106.211L108.227 278.012L110.099 272.864H111.203L108.263 280.832C108.087 281.304 107.887 281.62 107.663 281.78C107.439 281.94 107.119 282.02 106.703 282.02H105.719ZM118.344 279.62C117.504 279.62 116.82 279.42 116.292 279.02C115.764 278.62 115.444 278.068 115.332 277.364H116.4C116.488 277.788 116.692 278.12 117.012 278.36C117.34 278.6 117.788 278.72 118.356 278.72C118.82 278.72 119.188 278.632 119.46 278.456C119.74 278.28 119.88 278.028 119.88 277.7C119.88 277.444 119.796 277.24 119.628 277.088C119.468 276.928 119.26 276.808 119.004 276.728C118.756 276.648 118.424 276.568 118.008 276.488C117.488 276.384 117.068 276.28 116.748 276.176C116.436 276.064 116.168 275.888 115.944 275.648C115.72 275.408 115.608 275.076 115.608 274.652C115.608 274.052 115.832 273.584 116.28 273.248C116.736 272.912 117.316 272.744 118.02 272.744C118.74 272.744 119.34 272.932 119.82 273.308C120.3 273.684 120.596 274.2 120.708 274.856H119.76C119.664 274.448 119.464 274.144 119.16 273.944C118.856 273.744 118.476 273.644 118.02 273.644C117.58 273.644 117.236 273.728 116.988 273.896C116.748 274.056 116.628 274.28 116.628 274.568C116.628 274.792 116.704 274.968 116.856 275.096C117.008 275.224 117.196 275.324 117.42 275.396C117.644 275.46 117.96 275.532 118.368 275.612C118.904 275.716 119.34 275.828 119.676 275.948C120.012 276.06 120.3 276.248 120.54 276.512C120.78 276.768 120.9 277.128 120.9 277.592C120.9 278.216 120.676 278.712 120.228 279.08C119.78 279.44 119.152 279.62 118.344 279.62ZM123.38 279.5H122.36V270.344H123.38V275.516L126.296 272.864H127.712L124.46 275.78L128.012 279.5H126.62L123.38 276.032V279.5ZM130.013 279.5H128.993V272.864H130.013V279.5ZM129.509 271.724C129.293 271.724 129.109 271.652 128.957 271.508C128.805 271.356 128.729 271.176 128.729 270.968C128.729 270.76 128.805 270.584 128.957 270.44C129.109 270.296 129.293 270.224 129.509 270.224C129.725 270.224 129.909 270.296 130.061 270.44C130.213 270.584 130.289 270.76 130.289 270.968C130.289 271.176 130.213 271.356 130.061 271.508C129.909 271.652 129.725 271.724 129.509 271.724ZM131.711 279.5V272.864H132.731V273.896C133.059 273.472 133.375 273.176 133.679 273.008C133.991 272.832 134.331 272.744 134.699 272.744C135.635 272.744 136.287 273.092 136.655 273.788C136.791 274.052 136.875 274.324 136.907 274.604C136.947 274.876 136.967 275.176 136.967 275.504V279.5H135.947V275.504C135.947 274.8 135.819 274.304 135.563 274.016C135.339 273.768 134.999 273.644 134.543 273.644C134.039 273.644 133.635 273.808 133.331 274.136C133.115 274.36 132.959 274.668 132.863 275.06C132.775 275.452 132.731 275.988 132.731 276.668V279.5H131.711Z" fill="black" fill-opacity="0.6"/>
</svg>
