<svg width="311" height="286" viewBox="0 0 311 286" fill="none" xmlns="http://www.w3.org/2000/svg">
<rect width="311" height="337" rx="16" fill="white"/>
<rect x="0.5" y="0.5" width="310" height="336" rx="15.5" stroke="black" stroke-opacity="0.1"/>
<path d="M20.9 30H19.444L16.28 19.318H17.624L20.27 28.152L22.902 19.318H24.134L26.78 28.166L29.412 19.318H30.756L27.592 30H26.136L23.518 21.418L20.9 30ZM32.0471 30V19.318H33.2371V23.462C33.6197 22.9673 33.9884 22.622 34.3431 22.426C34.7071 22.2207 35.1037 22.118 35.5331 22.118C36.6251 22.118 37.3857 22.524 37.8151 23.336C37.9737 23.644 38.0717 23.9613 38.1091 24.288C38.1557 24.6053 38.1791 24.9553 38.1791 25.338V30H36.9891V25.338C36.9891 24.5167 36.8397 23.938 36.5411 23.602C36.2797 23.3127 35.8831 23.168 35.3511 23.168C34.7631 23.168 34.2917 23.3593 33.9371 23.742C33.6851 24.0033 33.5031 24.3627 33.3911 24.82C33.2884 25.2773 33.2371 25.9027 33.2371 26.696V30H32.0471ZM41.3031 30H40.1131V22.258H41.3031V30ZM40.7151 20.928C40.4631 20.928 40.2485 20.844 40.0711 20.676C39.8938 20.4987 39.8051 20.2887 39.8051 20.046C39.8051 19.8033 39.8938 19.598 40.0711 19.43C40.2485 19.262 40.4631 19.178 40.7151 19.178C40.9671 19.178 41.1818 19.262 41.3591 19.43C41.5365 19.598 41.6251 19.8033 41.6251 20.046C41.6251 20.2887 41.5365 20.4987 41.3591 20.676C41.1818 20.844 40.9671 20.928 40.7151 20.928ZM46.715 30.14C45.987 30.14 45.3383 29.9673 44.769 29.622C44.1997 29.2767 43.7563 28.796 43.439 28.18C43.1217 27.564 42.963 26.8687 42.963 26.094C42.963 25.338 43.1217 24.6567 43.439 24.05C43.7563 23.4433 44.1997 22.972 44.769 22.636C45.3383 22.2907 45.987 22.118 46.715 22.118C47.583 22.118 48.3157 22.342 48.913 22.79C49.5197 23.2287 49.9117 23.826 50.089 24.582H48.815C48.6657 24.1527 48.3997 23.812 48.017 23.56C47.6437 23.2987 47.2097 23.168 46.715 23.168C46.2297 23.168 45.791 23.294 45.399 23.546C45.0163 23.798 44.713 24.148 44.489 24.596C44.265 25.0347 44.153 25.534 44.153 26.094C44.153 26.6727 44.2603 27.1907 44.475 27.648C44.699 28.096 45.007 28.4507 45.399 28.712C45.791 28.964 46.2297 29.09 46.715 29.09C47.247 29.09 47.7043 28.9453 48.087 28.656C48.479 28.3667 48.7403 27.984 48.871 27.508H50.145C49.977 28.3293 49.5803 28.9733 48.955 29.44C48.339 29.9067 47.5923 30.14 46.715 30.14ZM51.7209 30V19.318H52.9109V23.462C53.2936 22.9673 53.6622 22.622 54.0169 22.426C54.3809 22.2207 54.7776 22.118 55.2069 22.118C56.2989 22.118 57.0596 22.524 57.4889 23.336C57.6476 23.644 57.7456 23.9613 57.7829 24.288C57.8296 24.6053 57.8529 24.9553 57.8529 25.338V30H56.6629V25.338C56.6629 24.5167 56.5136 23.938 56.2149 23.602C55.9536 23.3127 55.5569 23.168 55.0249 23.168C54.4369 23.168 53.9656 23.3593 53.6109 23.742C53.3589 24.0033 53.1769 24.3627 53.0649 24.82C52.9622 25.2773 52.9109 25.9027 52.9109 26.696V30H51.7209ZM67.1688 30.14C66.4408 30.14 65.7875 29.9673 65.2088 29.622C64.6395 29.2767 64.1915 28.796 63.8648 28.18C63.5475 27.564 63.3888 26.8687 63.3888 26.094C63.3888 25.338 63.5475 24.6567 63.8648 24.05C64.1915 23.4433 64.6395 22.972 65.2088 22.636C65.7875 22.2907 66.4408 22.118 67.1688 22.118C67.8968 22.118 68.5501 22.2907 69.1288 22.636C69.7075 22.972 70.1601 23.4433 70.4868 24.05C70.8135 24.6567 70.9768 25.338 70.9768 26.094C70.9768 26.8687 70.8135 27.564 70.4868 28.18C70.1695 28.7867 69.7215 29.2673 69.1428 29.622C68.5641 29.9673 67.9061 30.14 67.1688 30.14ZM67.1688 29.09C67.6541 29.09 68.0928 28.9593 68.4848 28.698C68.8861 28.4367 69.1988 28.082 69.4228 27.634C69.6561 27.1767 69.7728 26.6633 69.7728 26.094C69.7728 25.5527 69.6608 25.058 69.4368 24.61C69.2128 24.162 68.9001 23.812 68.4988 23.56C68.1068 23.2987 67.6635 23.168 67.1688 23.168C66.6835 23.168 66.2401 23.294 65.8388 23.546C65.4468 23.798 65.1388 24.148 64.9148 24.596C64.6908 25.044 64.5788 25.5433 64.5788 26.094C64.5788 26.6633 64.6908 27.1767 64.9148 27.634C65.1388 28.0913 65.4468 28.4507 65.8388 28.712C66.2401 28.964 66.6835 29.09 67.1688 29.09ZM73.1188 30V23.308H71.8308V22.258H73.1188V21.418C73.1188 20.7273 73.2868 20.2047 73.6228 19.85C73.9588 19.4953 74.4581 19.318 75.1208 19.318H76.1148V20.368H75.3868C75.0135 20.368 74.7381 20.466 74.5608 20.662C74.3928 20.858 74.3088 21.1613 74.3088 21.572V22.258H76.1148V23.308H74.3088V30H73.1188ZM83.7842 30C83.1588 30 82.6968 29.86 82.3982 29.58C82.0995 29.3 81.9502 28.7913 81.9502 28.054V23.308H80.7042V22.258H81.9502V19.318H83.1402V22.258H84.8762V23.308H83.1402V27.816C83.1402 28.0867 83.1588 28.3013 83.1962 28.46C83.2335 28.6093 83.3175 28.7307 83.4482 28.824C83.5788 28.908 83.7842 28.95 84.0642 28.95H84.8622V30H83.7842ZM86.3928 30V19.318H87.5828V23.462C87.9654 22.9673 88.3341 22.622 88.6888 22.426C89.0528 22.2207 89.4494 22.118 89.8788 22.118C90.9708 22.118 91.7314 22.524 92.1608 23.336C92.3194 23.644 92.4174 23.9613 92.4548 24.288C92.5014 24.6053 92.5248 24.9553 92.5248 25.338V30H91.3348V25.338C91.3348 24.5167 91.1854 23.938 90.8868 23.602C90.6254 23.3127 90.2288 23.168 89.6968 23.168C89.1088 23.168 88.6374 23.3593 88.2828 23.742C88.0308 24.0033 87.8488 24.3627 87.7368 24.82C87.6341 25.2773 87.5828 25.9027 87.5828 26.696V30H86.3928ZM97.9028 30.14C97.1748 30.14 96.5215 29.9673 95.9428 29.622C95.3735 29.2767 94.9302 28.8007 94.6128 28.194C94.2955 27.5873 94.1368 26.906 94.1368 26.15C94.1368 25.4313 94.2862 24.7687 94.5848 24.162C94.8835 23.546 95.3128 23.0513 95.8728 22.678C96.4422 22.3047 97.1095 22.118 97.8748 22.118C98.5375 22.118 99.1535 22.2673 99.7228 22.566C100.292 22.8647 100.75 23.3033 101.095 23.882C101.44 24.4513 101.613 25.1373 101.613 25.94V26.36H95.3128C95.3315 26.6307 95.3828 26.8873 95.4668 27.13C95.6628 27.7273 95.9755 28.2033 96.4048 28.558C96.8435 28.9127 97.3382 29.09 97.8888 29.09C98.4488 29.09 98.9295 28.9407 99.3308 28.642C99.7322 28.3433 100.022 27.9653 100.199 27.508H101.473C101.221 28.292 100.792 28.9267 100.185 29.412C99.5782 29.8973 98.8175 30.14 97.9028 30.14ZM100.339 25.31C100.32 25.03 100.264 24.778 100.171 24.554C99.9748 24.1153 99.6715 23.7747 99.2608 23.532C98.8595 23.2893 98.4068 23.168 97.9028 23.168C97.3895 23.168 96.9368 23.2893 96.5448 23.532C96.1622 23.7747 95.8635 24.1153 95.6488 24.554C95.5555 24.7593 95.4808 25.0113 95.4248 25.31H100.339ZM107.845 30V23.308H106.557V22.258H107.845V21.418C107.845 20.7273 108.013 20.2047 108.349 19.85C108.685 19.4953 109.185 19.318 109.847 19.318H110.841V20.368H110.113C109.74 20.368 109.465 20.466 109.287 20.662C109.119 20.858 109.035 21.1613 109.035 21.572V22.258H110.841V23.308H109.035V30H107.845ZM115.307 30.14C114.579 30.14 113.926 29.9673 113.347 29.622C112.778 29.2767 112.33 28.796 112.003 28.18C111.686 27.564 111.527 26.8687 111.527 26.094C111.527 25.338 111.686 24.6567 112.003 24.05C112.33 23.4433 112.778 22.972 113.347 22.636C113.926 22.2907 114.579 22.118 115.307 22.118C116.035 22.118 116.689 22.2907 117.267 22.636C117.846 22.972 118.299 23.4433 118.625 24.05C118.952 24.6567 119.115 25.338 119.115 26.094C119.115 26.8687 118.952 27.564 118.625 28.18C118.308 28.7867 117.86 29.2673 117.281 29.622C116.703 29.9673 116.045 30.14 115.307 30.14ZM115.307 29.09C115.793 29.09 116.231 28.9593 116.623 28.698C117.025 28.4367 117.337 28.082 117.561 27.634C117.795 27.1767 117.911 26.6633 117.911 26.094C117.911 25.5527 117.799 25.058 117.575 24.61C117.351 24.162 117.039 23.812 116.637 23.56C116.245 23.2987 115.802 23.168 115.307 23.168C114.822 23.168 114.379 23.294 113.977 23.546C113.585 23.798 113.277 24.148 113.053 24.596C112.829 25.044 112.717 25.5433 112.717 26.094C112.717 26.6633 112.829 27.1767 113.053 27.634C113.277 28.0913 113.585 28.4507 113.977 28.712C114.379 28.964 114.822 29.09 115.307 29.09ZM122.597 30C121.972 30 121.51 29.86 121.211 29.58C120.912 29.3 120.763 28.7913 120.763 28.054V19.318H121.953V27.872C121.953 28.1427 121.972 28.3527 122.009 28.502C122.046 28.642 122.13 28.754 122.261 28.838C122.392 28.9127 122.597 28.95 122.877 28.95H123.255V30H122.597ZM126.48 30C125.854 30 125.392 29.86 125.094 29.58C124.795 29.3 124.646 28.7913 124.646 28.054V19.318H125.836V27.872C125.836 28.1427 125.854 28.3527 125.892 28.502C125.929 28.642 126.013 28.754 126.144 28.838C126.274 28.9127 126.48 28.95 126.76 28.95H127.138V30H126.48ZM131.645 30.14C130.917 30.14 130.264 29.9673 129.685 29.622C129.116 29.2767 128.668 28.796 128.341 28.18C128.024 27.564 127.865 26.8687 127.865 26.094C127.865 25.338 128.024 24.6567 128.341 24.05C128.668 23.4433 129.116 22.972 129.685 22.636C130.264 22.2907 130.917 22.118 131.645 22.118C132.373 22.118 133.027 22.2907 133.605 22.636C134.184 22.972 134.637 23.4433 134.963 24.05C135.29 24.6567 135.453 25.338 135.453 26.094C135.453 26.8687 135.29 27.564 134.963 28.18C134.646 28.7867 134.198 29.2673 133.619 29.622C133.041 29.9673 132.383 30.14 131.645 30.14ZM131.645 29.09C132.131 29.09 132.569 28.9593 132.961 28.698C133.363 28.4367 133.675 28.082 133.899 27.634C134.133 27.1767 134.249 26.6633 134.249 26.094C134.249 25.5527 134.137 25.058 133.913 24.61C133.689 24.162 133.377 23.812 132.975 23.56C132.583 23.2987 132.14 23.168 131.645 23.168C131.16 23.168 130.717 23.294 130.315 23.546C129.923 23.798 129.615 24.148 129.391 24.596C129.167 25.044 129.055 25.5433 129.055 26.094C129.055 26.6633 129.167 27.1767 129.391 27.634C129.615 28.0913 129.923 28.4507 130.315 28.712C130.717 28.964 131.16 29.09 131.645 29.09ZM139.859 30H138.753L136.485 22.258H137.759L139.383 28.068L141.329 22.258H142.407L144.353 28.068L145.991 22.258H147.265L144.969 30H143.863L141.875 23.938L139.859 30ZM149.803 30H148.613V22.258H149.803V30ZM149.215 20.928C148.963 20.928 148.748 20.844 148.571 20.676C148.394 20.4987 148.305 20.2887 148.305 20.046C148.305 19.8033 148.394 19.598 148.571 19.43C148.748 19.262 148.963 19.178 149.215 19.178C149.467 19.178 149.682 19.262 149.859 19.43C150.036 19.598 150.125 19.8033 150.125 20.046C150.125 20.2887 150.036 20.4987 149.859 20.676C149.682 20.844 149.467 20.928 149.215 20.928ZM151.785 30V22.258H152.975V23.462C153.358 22.9673 153.726 22.622 154.081 22.426C154.445 22.2207 154.842 22.118 155.271 22.118C156.363 22.118 157.124 22.524 157.553 23.336C157.712 23.644 157.81 23.9613 157.847 24.288C157.894 24.6053 157.917 24.9553 157.917 25.338V30H156.727V25.338C156.727 24.5167 156.578 23.938 156.279 23.602C156.018 23.3127 155.621 23.168 155.089 23.168C154.501 23.168 154.03 23.3593 153.675 23.742C153.423 24.0033 153.241 24.3627 153.129 24.82C153.026 25.2773 152.975 25.9027 152.975 26.696V30H151.785ZM163.267 33.08C162.381 33.08 161.615 32.8887 160.971 32.506C160.337 32.1233 159.949 31.498 159.809 30.63H161.027C161.27 31.5633 162.012 32.03 163.253 32.03C164.793 32.03 165.563 31.3393 165.563 29.958V28.796C165.171 29.3 164.784 29.65 164.401 29.846C164.019 30.042 163.561 30.14 163.029 30.14C162.348 30.14 161.746 29.972 161.223 29.636C160.701 29.3 160.295 28.8333 160.005 28.236C159.725 27.6293 159.585 26.9387 159.585 26.164C159.585 25.3707 159.725 24.6707 160.005 24.064C160.295 23.448 160.696 22.972 161.209 22.636C161.732 22.2907 162.334 22.118 163.015 22.118C163.557 22.118 164.019 22.2207 164.401 22.426C164.784 22.622 165.171 22.9673 165.563 23.462V22.258H166.753V29.734C166.753 30.9287 166.445 31.7827 165.829 32.296C165.213 32.8187 164.359 33.08 163.267 33.08ZM163.141 29.09C163.617 29.09 164.042 28.964 164.415 28.712C164.789 28.4507 165.078 28.096 165.283 27.648C165.498 27.2 165.605 26.6913 165.605 26.122C165.605 25.562 165.498 25.058 165.283 24.61C165.078 24.162 164.784 23.812 164.401 23.56C164.028 23.2987 163.608 23.168 163.141 23.168C162.665 23.168 162.245 23.2987 161.881 23.56C161.527 23.812 161.251 24.162 161.055 24.61C160.869 25.058 160.775 25.562 160.775 26.122C160.775 26.6913 160.869 27.2 161.055 27.648C161.251 28.096 161.527 28.4507 161.881 28.712C162.245 28.964 162.665 29.09 163.141 29.09ZM173.852 30H172.662V22.258H173.852V30ZM173.264 20.928C173.012 20.928 172.797 20.844 172.62 20.676C172.443 20.4987 172.354 20.2887 172.354 20.046C172.354 19.8033 172.443 19.598 172.62 19.43C172.797 19.262 173.012 19.178 173.264 19.178C173.516 19.178 173.731 19.262 173.908 19.43C174.085 19.598 174.174 19.8033 174.174 20.046C174.174 20.2887 174.085 20.4987 173.908 20.676C173.731 20.844 173.516 20.928 173.264 20.928ZM178.956 30.14C177.976 30.14 177.178 29.9067 176.562 29.44C175.946 28.9733 175.573 28.3293 175.442 27.508H176.688C176.791 28.0027 177.029 28.39 177.402 28.67C177.785 28.95 178.307 29.09 178.97 29.09C179.511 29.09 179.941 28.9873 180.258 28.782C180.585 28.5767 180.748 28.2827 180.748 27.9C180.748 27.6013 180.65 27.3633 180.454 27.186C180.267 26.9993 180.025 26.8593 179.726 26.766C179.437 26.6727 179.049 26.5793 178.564 26.486C177.957 26.3647 177.467 26.2433 177.094 26.122C176.73 25.9913 176.417 25.786 176.156 25.506C175.895 25.226 175.764 24.8387 175.764 24.344C175.764 23.644 176.025 23.098 176.548 22.706C177.08 22.314 177.757 22.118 178.578 22.118C179.418 22.118 180.118 22.3373 180.678 22.776C181.238 23.2147 181.583 23.8167 181.714 24.582H180.608C180.496 24.106 180.263 23.7513 179.908 23.518C179.553 23.2847 179.11 23.168 178.578 23.168C178.065 23.168 177.663 23.266 177.374 23.462C177.094 23.6487 176.954 23.91 176.954 24.246C176.954 24.5073 177.043 24.7127 177.22 24.862C177.397 25.0113 177.617 25.128 177.878 25.212C178.139 25.2867 178.508 25.3707 178.984 25.464C179.609 25.5853 180.118 25.716 180.51 25.856C180.902 25.9867 181.238 26.206 181.518 26.514C181.798 26.8127 181.938 27.2327 181.938 27.774C181.938 28.502 181.677 29.0807 181.154 29.51C180.631 29.93 179.899 30.14 178.956 30.14ZM188.951 30H187.663V19.318H189.539L194.341 28.712V19.318H195.615V30H193.739L188.951 20.634V30ZM202.385 30.14C201.311 30.14 200.401 29.8927 199.655 29.398C198.908 28.9033 198.348 28.2407 197.975 27.41C197.611 26.57 197.429 25.6507 197.429 24.652C197.429 23.6533 197.611 22.7387 197.975 21.908C198.348 21.0773 198.908 20.4147 199.655 19.92C200.401 19.4253 201.311 19.178 202.385 19.178C203.467 19.178 204.382 19.4253 205.129 19.92C205.885 20.4147 206.445 21.0773 206.809 21.908C207.182 22.7293 207.369 23.644 207.369 24.652C207.369 25.66 207.182 26.5793 206.809 27.41C206.445 28.2407 205.885 28.9033 205.129 29.398C204.382 29.8927 203.467 30.14 202.385 30.14ZM202.385 28.978C203.169 28.978 203.836 28.796 204.387 28.432C204.947 28.0587 205.367 27.5453 205.647 26.892C205.936 26.2387 206.081 25.492 206.081 24.652C206.081 23.812 205.936 23.07 205.647 22.426C205.367 21.7727 204.947 21.264 204.387 20.9C203.836 20.5267 203.169 20.34 202.385 20.34C201.61 20.34 200.947 20.5267 200.397 20.9C199.846 21.264 199.426 21.7727 199.137 22.426C198.857 23.07 198.717 23.812 198.717 24.652C198.717 25.492 198.857 26.2387 199.137 26.892C199.426 27.5453 199.846 28.0587 200.397 28.432C200.947 28.796 201.61 28.978 202.385 28.978ZM212.489 30H211.201V20.48H207.589V19.318H216.115V20.48H212.489V30ZM223.03 30C222.405 30 221.943 29.86 221.644 29.58C221.346 29.3 221.196 28.7913 221.196 28.054V19.318H222.386V27.872C222.386 28.1427 222.405 28.3527 222.442 28.502C222.48 28.642 222.564 28.754 222.694 28.838C222.825 28.9127 223.03 28.95 223.31 28.95H223.688V30H223.03ZM226.297 30H225.107V22.258H226.297V30ZM225.709 20.928C225.457 20.928 225.243 20.844 225.065 20.676C224.888 20.4987 224.799 20.2887 224.799 20.046C224.799 19.8033 224.888 19.598 225.065 19.43C225.243 19.262 225.457 19.178 225.709 19.178C225.961 19.178 226.176 19.262 226.353 19.43C226.531 19.598 226.619 19.8033 226.619 20.046C226.619 20.2887 226.531 20.4987 226.353 20.676C226.176 20.844 225.961 20.928 225.709 20.928ZM229.483 30H228.293V19.318H229.483V25.352L232.885 22.258H234.537L230.743 25.66L234.887 30H233.263L229.483 25.954V30ZM239.024 30.14C238.296 30.14 237.643 29.9673 237.064 29.622C236.495 29.2767 236.051 28.8007 235.734 28.194C235.417 27.5873 235.258 26.906 235.258 26.15C235.258 25.4313 235.407 24.7687 235.706 24.162C236.005 23.546 236.434 23.0513 236.994 22.678C237.563 22.3047 238.231 22.118 238.996 22.118C239.659 22.118 240.275 22.2673 240.844 22.566C241.413 22.8647 241.871 23.3033 242.216 23.882C242.561 24.4513 242.734 25.1373 242.734 25.94V26.36H236.434C236.453 26.6307 236.504 26.8873 236.588 27.13C236.784 27.7273 237.097 28.2033 237.526 28.558C237.965 28.9127 238.459 29.09 239.01 29.09C239.57 29.09 240.051 28.9407 240.452 28.642C240.853 28.3433 241.143 27.9653 241.32 27.508H242.594C242.342 28.292 241.913 28.9267 241.306 29.412C240.699 29.8973 239.939 30.14 239.024 30.14ZM241.46 25.31C241.441 25.03 241.385 24.778 241.292 24.554C241.096 24.1153 240.793 23.7747 240.382 23.532C239.981 23.2893 239.528 23.168 239.024 23.168C238.511 23.168 238.058 23.2893 237.666 23.532C237.283 23.7747 236.985 24.1153 236.77 24.554C236.677 24.7593 236.602 25.0113 236.546 25.31H241.46ZM246.191 30C245.565 30 245.103 29.86 244.805 29.58C244.506 29.3 244.357 28.7913 244.357 28.054V19.318H245.547V27.872C245.547 28.1427 245.565 28.3527 245.603 28.502C245.64 28.642 245.724 28.754 245.855 28.838C245.985 28.9127 246.191 28.95 246.471 28.95H246.849V30H246.191ZM248.267 32.94V31.848H248.995C249.229 31.848 249.406 31.8293 249.527 31.792C249.649 31.764 249.756 31.694 249.849 31.582C249.943 31.47 250.036 31.288 250.129 31.036L250.549 29.888L247.525 22.258H248.841L251.193 28.264L253.377 22.258H254.665L251.235 31.554C251.03 32.1047 250.797 32.4733 250.535 32.66C250.274 32.8467 249.901 32.94 249.415 32.94H248.267ZM262.339 30C261.714 30 261.252 29.86 260.953 29.58C260.654 29.3 260.505 28.7913 260.505 28.054V23.308H259.259V22.258H260.505V19.318H261.695V22.258H263.431V23.308H261.695V27.816C261.695 28.0867 261.714 28.3013 261.751 28.46C261.788 28.6093 261.872 28.7307 262.003 28.824C262.134 28.908 262.339 28.95 262.619 28.95H263.417V30H262.339ZM268.173 30.14C267.445 30.14 266.791 29.9673 266.213 29.622C265.643 29.2767 265.195 28.796 264.869 28.18C264.551 27.564 264.393 26.8687 264.393 26.094C264.393 25.338 264.551 24.6567 264.869 24.05C265.195 23.4433 265.643 22.972 266.213 22.636C266.791 22.2907 267.445 22.118 268.173 22.118C268.901 22.118 269.554 22.2907 270.133 22.636C270.711 22.972 271.164 23.4433 271.491 24.05C271.817 24.6567 271.981 25.338 271.981 26.094C271.981 26.8687 271.817 27.564 271.491 28.18C271.173 28.7867 270.725 29.2673 270.147 29.622C269.568 29.9673 268.91 30.14 268.173 30.14ZM268.173 29.09C268.658 29.09 269.097 28.9593 269.489 28.698C269.89 28.4367 270.203 28.082 270.427 27.634C270.66 27.1767 270.777 26.6633 270.777 26.094C270.777 25.5527 270.665 25.058 270.441 24.61C270.217 24.162 269.904 23.812 269.503 23.56C269.111 23.2987 268.667 23.168 268.173 23.168C267.687 23.168 267.244 23.294 266.843 23.546C266.451 23.798 266.143 24.148 265.919 24.596C265.695 25.044 265.583 25.5433 265.583 26.094C265.583 26.6633 265.695 27.1767 265.919 27.634C266.143 28.0913 266.451 28.4507 266.843 28.712C267.244 28.964 267.687 29.09 268.173 29.09ZM20.424 47.14C19.696 47.14 19.0473 46.9673 18.478 46.622C17.9087 46.2767 17.4653 45.796 17.148 45.18C16.8307 44.564 16.672 43.8687 16.672 43.094C16.672 42.338 16.8307 41.6567 17.148 41.05C17.4653 40.4433 17.9087 39.972 18.478 39.636C19.0473 39.2907 19.696 39.118 20.424 39.118C21.292 39.118 22.0247 39.342 22.622 39.79C23.2287 40.2287 23.6207 40.826 23.798 41.582H22.524C22.3747 41.1527 22.1087 40.812 21.726 40.56C21.3527 40.2987 20.9187 40.168 20.424 40.168C19.9387 40.168 19.5 40.294 19.108 40.546C18.7253 40.798 18.422 41.148 18.198 41.596C17.974 42.0347 17.862 42.534 17.862 43.094C17.862 43.6727 17.9693 44.1907 18.184 44.648C18.408 45.096 18.716 45.4507 19.108 45.712C19.5 45.964 19.9387 46.09 20.424 46.09C20.956 46.09 21.4133 45.9453 21.796 45.656C22.188 45.3667 22.4493 44.984 22.58 44.508H23.854C23.686 45.3293 23.2893 45.9733 22.664 46.44C22.048 46.9067 21.3013 47.14 20.424 47.14ZM27.6139 47.14C26.8392 47.14 26.2232 46.944 25.7659 46.552C25.3179 46.16 25.0939 45.6233 25.0939 44.942C25.0939 44.27 25.3459 43.738 25.8499 43.346C26.2605 43.0193 26.8532 42.7767 27.6279 42.618L30.3859 42.086C30.3859 41.4793 30.2272 41.0173 29.9099 40.7C29.5552 40.3453 29.0792 40.168 28.4819 40.168C28.0059 40.168 27.5905 40.2987 27.2359 40.56C26.8905 40.812 26.6712 41.1527 26.5779 41.582H25.3879C25.5185 40.8073 25.8732 40.2053 26.4519 39.776C27.0399 39.3373 27.7212 39.118 28.4959 39.118C28.9532 39.118 29.3779 39.188 29.7699 39.328C30.1619 39.4587 30.4932 39.6547 30.7639 39.916C31.1185 40.252 31.3425 40.6393 31.4359 41.078C31.5292 41.5167 31.5759 41.9693 31.5759 42.436V47H30.3859V45.782C30.1152 46.174 29.8025 46.4773 29.4479 46.692C28.9719 46.9907 28.3605 47.14 27.6139 47.14ZM27.7539 46.09C28.2299 46.09 28.6405 46.0013 28.9859 45.824C29.5085 45.5533 29.8725 45.194 30.0779 44.746C30.2925 44.298 30.3999 43.7333 30.3999 43.052L27.8799 43.556C27.3012 43.668 26.8765 43.85 26.6059 44.102C26.3912 44.3167 26.2839 44.5873 26.2839 44.914C26.2839 45.2687 26.4145 45.5533 26.6759 45.768C26.9465 45.9827 27.3059 46.09 27.7539 46.09ZM36.1003 47.14C35.0176 47.14 34.2569 46.734 33.8183 45.922C33.5756 45.4647 33.4543 44.7973 33.4543 43.92V39.258H34.6443V43.92C34.6443 44.7413 34.7936 45.32 35.0923 45.656C35.3536 45.9453 35.7503 46.09 36.2823 46.09C36.8703 46.09 37.3416 45.8987 37.6963 45.516C37.9483 45.2547 38.1256 44.8953 38.2283 44.438C38.3403 43.9807 38.3963 43.3553 38.3963 42.562V39.258H39.5863V47H38.3963V45.796C38.0229 46.272 37.6543 46.6173 37.2903 46.832C36.9356 47.0373 36.5389 47.14 36.1003 47.14ZM44.698 47.14C43.718 47.14 42.92 46.9067 42.304 46.44C41.688 45.9733 41.3147 45.3293 41.184 44.508H42.43C42.5327 45.0027 42.7707 45.39 43.144 45.67C43.5267 45.95 44.0494 46.09 44.712 46.09C45.2534 46.09 45.6827 45.9873 46 45.782C46.3267 45.5767 46.49 45.2827 46.49 44.9C46.49 44.6013 46.392 44.3633 46.196 44.186C46.0094 43.9993 45.7667 43.8593 45.468 43.766C45.1787 43.6727 44.7914 43.5793 44.306 43.486C43.6994 43.3647 43.2094 43.2433 42.836 43.122C42.472 42.9913 42.1594 42.786 41.898 42.506C41.6367 42.226 41.506 41.8387 41.506 41.344C41.506 40.644 41.7674 40.098 42.29 39.706C42.822 39.314 43.4987 39.118 44.32 39.118C45.16 39.118 45.86 39.3373 46.42 39.776C46.98 40.2147 47.3254 40.8167 47.456 41.582H46.35C46.238 41.106 46.0047 40.7513 45.65 40.518C45.2954 40.2847 44.852 40.168 44.32 40.168C43.8067 40.168 43.4054 40.266 43.116 40.462C42.836 40.6487 42.696 40.91 42.696 41.246C42.696 41.5073 42.7847 41.7127 42.962 41.862C43.1394 42.0113 43.3587 42.128 43.62 42.212C43.8814 42.2867 44.25 42.3707 44.726 42.464C45.3514 42.5853 45.86 42.716 46.252 42.856C46.644 42.9867 46.98 43.206 47.26 43.514C47.54 43.8127 47.68 44.2327 47.68 44.774C47.68 45.502 47.4187 46.0807 46.896 46.51C46.3734 46.93 45.6407 47.14 44.698 47.14ZM52.813 47.14C52.085 47.14 51.4317 46.9673 50.853 46.622C50.2837 46.2767 49.8403 45.8007 49.523 45.194C49.2057 44.5873 49.047 43.906 49.047 43.15C49.047 42.4313 49.1963 41.7687 49.495 41.162C49.7937 40.546 50.223 40.0513 50.783 39.678C51.3523 39.3047 52.0197 39.118 52.785 39.118C53.4477 39.118 54.0637 39.2673 54.633 39.566C55.2023 39.8647 55.6597 40.3033 56.005 40.882C56.3503 41.4513 56.523 42.1373 56.523 42.94V43.36H50.223C50.2417 43.6307 50.293 43.8873 50.377 44.13C50.573 44.7273 50.8857 45.2033 51.315 45.558C51.7537 45.9127 52.2483 46.09 52.799 46.09C53.359 46.09 53.8397 45.9407 54.241 45.642C54.6423 45.3433 54.9317 44.9653 55.109 44.508H56.383C56.131 45.292 55.7017 45.9267 55.095 46.412C54.4883 46.8973 53.7277 47.14 52.813 47.14ZM55.249 42.31C55.2303 42.03 55.1743 41.778 55.081 41.554C54.885 41.1153 54.5817 40.7747 54.171 40.532C53.7697 40.2893 53.317 40.168 52.813 40.168C52.2997 40.168 51.847 40.2893 51.455 40.532C51.0723 40.7747 50.7737 41.1153 50.559 41.554C50.4657 41.7593 50.391 42.0113 50.335 42.31H55.249ZM65.2195 47H64.2395L61.3835 39.258H62.6995L64.7295 44.984L66.7875 39.258H68.0895L65.2195 47ZM71.4049 47.14C70.6302 47.14 70.0142 46.944 69.5569 46.552C69.1089 46.16 68.8849 45.6233 68.8849 44.942C68.8849 44.27 69.1369 43.738 69.6409 43.346C70.0516 43.0193 70.6442 42.7767 71.4189 42.618L74.1769 42.086C74.1769 41.4793 74.0182 41.0173 73.7009 40.7C73.3462 40.3453 72.8702 40.168 72.2729 40.168C71.7969 40.168 71.3816 40.2987 71.0269 40.56C70.6816 40.812 70.4622 41.1527 70.3689 41.582H69.1789C69.3096 40.8073 69.6642 40.2053 70.2429 39.776C70.8309 39.3373 71.5122 39.118 72.2869 39.118C72.7442 39.118 73.1689 39.188 73.5609 39.328C73.9529 39.4587 74.2842 39.6547 74.5549 39.916C74.9096 40.252 75.1336 40.6393 75.2269 41.078C75.3202 41.5167 75.3669 41.9693 75.3669 42.436V47H74.1769V45.782C73.9062 46.174 73.5936 46.4773 73.2389 46.692C72.7629 46.9907 72.1516 47.14 71.4049 47.14ZM71.5449 46.09C72.0209 46.09 72.4316 46.0013 72.7769 45.824C73.2996 45.5533 73.6636 45.194 73.8689 44.746C74.0836 44.298 74.1909 43.7333 74.1909 43.052L71.6709 43.556C71.0922 43.668 70.6676 43.85 70.3969 44.102C70.1822 44.3167 70.0749 44.5873 70.0749 44.914C70.0749 45.2687 70.2056 45.5533 70.4669 45.768C70.7376 45.9827 71.0969 46.09 71.5449 46.09ZM80.6893 50.08C79.8026 50.08 79.0373 49.8887 78.3933 49.506C77.7586 49.1233 77.3713 48.498 77.2313 47.63H78.4493C78.692 48.5633 79.434 49.03 80.6753 49.03C82.2153 49.03 82.9853 48.3393 82.9853 46.958V45.796C82.5933 46.3 82.206 46.65 81.8233 46.846C81.4406 47.042 80.9833 47.14 80.4513 47.14C79.77 47.14 79.168 46.972 78.6453 46.636C78.1226 46.3 77.7166 45.8333 77.4273 45.236C77.1473 44.6293 77.0073 43.9387 77.0073 43.164C77.0073 42.3707 77.1473 41.6707 77.4273 41.064C77.7166 40.448 78.118 39.972 78.6313 39.636C79.154 39.2907 79.756 39.118 80.4373 39.118C80.9786 39.118 81.4406 39.2207 81.8233 39.426C82.206 39.622 82.5933 39.9673 82.9853 40.462V39.258H84.1753V46.734C84.1753 47.9287 83.8673 48.7827 83.2513 49.296C82.6353 49.8187 81.7813 50.08 80.6893 50.08ZM80.5633 46.09C81.0393 46.09 81.464 45.964 81.8373 45.712C82.2106 45.4507 82.5 45.096 82.7053 44.648C82.92 44.2 83.0273 43.6913 83.0273 43.122C83.0273 42.562 82.92 42.058 82.7053 41.61C82.5 41.162 82.206 40.812 81.8233 40.56C81.45 40.2987 81.03 40.168 80.5633 40.168C80.0873 40.168 79.6673 40.2987 79.3033 40.56C78.9486 40.812 78.6733 41.162 78.4773 41.61C78.2906 42.058 78.1973 42.562 78.1973 43.122C78.1973 43.6913 78.2906 44.2 78.4773 44.648C78.6733 45.096 78.9486 45.4507 79.3033 45.712C79.6673 45.964 80.0873 46.09 80.5633 46.09ZM87.35 47H86.16V39.258H87.35V47ZM86.762 37.928C86.51 37.928 86.2953 37.844 86.118 37.676C85.9407 37.4987 85.852 37.2887 85.852 37.046C85.852 36.8033 85.9407 36.598 86.118 36.43C86.2953 36.262 86.51 36.178 86.762 36.178C87.014 36.178 87.2287 36.262 87.406 36.43C87.5833 36.598 87.672 36.8033 87.672 37.046C87.672 37.2887 87.5833 37.4987 87.406 37.676C87.2287 37.844 87.014 37.928 86.762 37.928ZM89.3319 47V39.258H90.5219V40.462C90.9046 39.9673 91.2732 39.622 91.6279 39.426C91.9919 39.2207 92.3886 39.118 92.8179 39.118C93.9099 39.118 94.6706 39.524 95.0999 40.336C95.2586 40.644 95.3566 40.9613 95.3939 41.288C95.4406 41.6053 95.4639 41.9553 95.4639 42.338V47H94.2739V42.338C94.2739 41.5167 94.1246 40.938 93.8259 40.602C93.5646 40.3127 93.1679 40.168 92.6359 40.168C92.0479 40.168 91.5766 40.3593 91.2219 40.742C90.9699 41.0033 90.7879 41.3627 90.6759 41.82C90.5732 42.2773 90.5219 42.9027 90.5219 43.696V47H89.3319ZM99.5963 47.14C98.8216 47.14 98.2056 46.944 97.7483 46.552C97.3003 46.16 97.0763 45.6233 97.0763 44.942C97.0763 44.27 97.3283 43.738 97.8323 43.346C98.243 43.0193 98.8356 42.7767 99.6103 42.618L102.368 42.086C102.368 41.4793 102.21 41.0173 101.892 40.7C101.538 40.3453 101.062 40.168 100.464 40.168C99.9883 40.168 99.573 40.2987 99.2183 40.56C98.873 40.812 98.6536 41.1527 98.5603 41.582H97.3703C97.501 40.8073 97.8556 40.2053 98.4343 39.776C99.0223 39.3373 99.7036 39.118 100.478 39.118C100.936 39.118 101.36 39.188 101.752 39.328C102.144 39.4587 102.476 39.6547 102.746 39.916C103.101 40.252 103.325 40.6393 103.418 41.078C103.512 41.5167 103.558 41.9693 103.558 42.436V47H102.368V45.782C102.098 46.174 101.785 46.4773 101.43 46.692C100.954 46.9907 100.343 47.14 99.5963 47.14ZM99.7363 46.09C100.212 46.09 100.623 46.0013 100.968 45.824C101.491 45.5533 101.855 45.194 102.06 44.746C102.275 44.298 102.382 43.7333 102.382 43.052L99.8623 43.556C99.2836 43.668 98.859 43.85 98.5883 44.102C98.3736 44.3167 98.2663 44.5873 98.2663 44.914C98.2663 45.2687 98.397 45.5533 98.6583 45.768C98.929 45.9827 99.2883 46.09 99.7363 46.09ZM107.271 47C106.645 47 106.183 46.86 105.885 46.58C105.586 46.3 105.437 45.7913 105.437 45.054V36.318H106.627V44.872C106.627 45.1427 106.645 45.3527 106.683 45.502C106.72 45.642 106.804 45.754 106.935 45.838C107.065 45.9127 107.271 45.95 107.551 45.95H107.929V47H107.271ZM116.701 47.14C115.973 47.14 115.325 46.9673 114.755 46.622C114.186 46.2767 113.743 45.796 113.425 45.18C113.108 44.564 112.949 43.8687 112.949 43.094C112.949 42.338 113.108 41.6567 113.425 41.05C113.743 40.4433 114.186 39.972 114.755 39.636C115.325 39.2907 115.973 39.118 116.701 39.118C117.569 39.118 118.302 39.342 118.899 39.79C119.506 40.2287 119.898 40.826 120.075 41.582H118.801C118.652 41.1527 118.386 40.812 118.003 40.56C117.63 40.2987 117.196 40.168 116.701 40.168C116.216 40.168 115.777 40.294 115.385 40.546C115.003 40.798 114.699 41.148 114.475 41.596C114.251 42.0347 114.139 42.534 114.139 43.094C114.139 43.6727 114.247 44.1907 114.461 44.648C114.685 45.096 114.993 45.4507 115.385 45.712C115.777 45.964 116.216 46.09 116.701 46.09C117.233 46.09 117.691 45.9453 118.073 45.656C118.465 45.3667 118.727 44.984 118.857 44.508H120.131C119.963 45.3293 119.567 45.9733 118.941 46.44C118.325 46.9067 117.579 47.14 116.701 47.14ZM123.891 47.14C123.117 47.14 122.501 46.944 122.043 46.552C121.595 46.16 121.371 45.6233 121.371 44.942C121.371 44.27 121.623 43.738 122.127 43.346C122.538 43.0193 123.131 42.7767 123.905 42.618L126.663 42.086C126.663 41.4793 126.505 41.0173 126.187 40.7C125.833 40.3453 125.357 40.168 124.759 40.168C124.283 40.168 123.868 40.2987 123.513 40.56C123.168 40.812 122.949 41.1527 122.855 41.582H121.665C121.796 40.8073 122.151 40.2053 122.729 39.776C123.317 39.3373 123.999 39.118 124.773 39.118C125.231 39.118 125.655 39.188 126.047 39.328C126.439 39.4587 126.771 39.6547 127.041 39.916C127.396 40.252 127.62 40.6393 127.713 41.078C127.807 41.5167 127.853 41.9693 127.853 42.436V47H126.663V45.782C126.393 46.174 126.08 46.4773 125.725 46.692C125.249 46.9907 124.638 47.14 123.891 47.14ZM124.031 46.09C124.507 46.09 124.918 46.0013 125.263 45.824C125.786 45.5533 126.15 45.194 126.355 44.746C126.57 44.298 126.677 43.7333 126.677 43.052L124.157 43.556C123.579 43.668 123.154 43.85 122.883 44.102C122.669 44.3167 122.561 44.5873 122.561 44.914C122.561 45.2687 122.692 45.5533 122.953 45.768C123.224 45.9827 123.583 46.09 124.031 46.09ZM129.76 47V39.258H130.95V40.462C131.332 39.9673 131.701 39.622 132.056 39.426C132.42 39.2207 132.816 39.118 133.246 39.118C134.338 39.118 135.098 39.524 135.528 40.336C135.686 40.644 135.784 40.9613 135.822 41.288C135.868 41.6053 135.892 41.9553 135.892 42.338V47H134.702V42.338C134.702 41.5167 134.552 40.938 134.254 40.602C133.992 40.3127 133.596 40.168 133.064 40.168C132.476 40.168 132.004 40.3593 131.65 40.742C131.398 41.0033 131.216 41.3627 131.104 41.82C131.001 42.2773 130.95 42.9027 130.95 43.696V47H129.76ZM140.976 47.14C140.295 47.14 139.693 46.972 139.17 46.636C138.647 46.3 138.241 45.8287 137.952 45.222C137.672 44.6153 137.532 43.92 137.532 43.136C137.532 42.352 137.672 41.6567 137.952 41.05C138.241 40.434 138.643 39.958 139.156 39.622C139.679 39.286 140.285 39.118 140.976 39.118C141.508 39.118 141.965 39.216 142.348 39.412C142.731 39.608 143.118 39.958 143.51 40.462V36.318H144.7V47H143.51V45.796C143.127 46.2907 142.745 46.6407 142.362 46.846C141.979 47.042 141.517 47.14 140.976 47.14ZM141.088 46.09C141.564 46.09 141.989 45.964 142.362 45.712C142.735 45.46 143.025 45.11 143.23 44.662C143.445 44.2047 143.552 43.696 143.552 43.136C143.552 42.5667 143.445 42.058 143.23 41.61C143.025 41.162 142.735 40.812 142.362 40.56C141.989 40.2987 141.564 40.168 141.088 40.168C140.612 40.168 140.192 40.2987 139.828 40.56C139.473 40.812 139.198 41.162 139.002 41.61C138.815 42.058 138.722 42.5667 138.722 43.136C138.722 43.696 138.815 44.2 139.002 44.648C139.198 45.096 139.473 45.4507 139.828 45.712C140.192 45.964 140.612 46.09 141.088 46.09ZM147.889 47H146.699V39.258H147.889V47ZM147.301 37.928C147.049 37.928 146.834 37.844 146.657 37.676C146.48 37.4987 146.391 37.2887 146.391 37.046C146.391 36.8033 146.48 36.598 146.657 36.43C146.834 36.262 147.049 36.178 147.301 36.178C147.553 36.178 147.768 36.262 147.945 36.43C148.122 36.598 148.211 36.8033 148.211 37.046C148.211 37.2887 148.122 37.4987 147.945 37.676C147.768 37.844 147.553 37.928 147.301 37.928ZM153.021 47.14C152.34 47.14 151.738 46.972 151.215 46.636C150.692 46.3 150.286 45.8287 149.997 45.222C149.717 44.6153 149.577 43.92 149.577 43.136C149.577 42.352 149.717 41.6567 149.997 41.05C150.286 40.434 150.688 39.958 151.201 39.622C151.724 39.286 152.33 39.118 153.021 39.118C153.553 39.118 154.01 39.216 154.393 39.412C154.776 39.608 155.163 39.958 155.555 40.462V36.318H156.745V47H155.555V45.796C155.172 46.2907 154.79 46.6407 154.407 46.846C154.024 47.042 153.562 47.14 153.021 47.14ZM153.133 46.09C153.609 46.09 154.034 45.964 154.407 45.712C154.78 45.46 155.07 45.11 155.275 44.662C155.49 44.2047 155.597 43.696 155.597 43.136C155.597 42.5667 155.49 42.058 155.275 41.61C155.07 41.162 154.78 40.812 154.407 40.56C154.034 40.2987 153.609 40.168 153.133 40.168C152.657 40.168 152.237 40.2987 151.873 40.56C151.518 40.812 151.243 41.162 151.047 41.61C150.86 42.058 150.767 42.5667 150.767 43.136C150.767 43.696 150.86 44.2 151.047 44.648C151.243 45.096 151.518 45.4507 151.873 45.712C152.237 45.964 152.657 46.09 153.133 46.09ZM159.934 47H158.744V39.258H159.934V47ZM159.346 37.928C159.094 37.928 158.879 37.844 158.702 37.676C158.525 37.4987 158.436 37.2887 158.436 37.046C158.436 36.8033 158.525 36.598 158.702 36.43C158.879 36.262 159.094 36.178 159.346 36.178C159.598 36.178 159.813 36.262 159.99 36.43C160.167 36.598 160.256 36.8033 160.256 37.046C160.256 37.2887 160.167 37.4987 159.99 37.676C159.813 37.844 159.598 37.928 159.346 37.928ZM164.114 47.14C163.339 47.14 162.723 46.944 162.266 46.552C161.818 46.16 161.594 45.6233 161.594 44.942C161.594 44.27 161.846 43.738 162.35 43.346C162.761 43.0193 163.353 42.7767 164.128 42.618L166.886 42.086C166.886 41.4793 166.727 41.0173 166.41 40.7C166.055 40.3453 165.579 40.168 164.982 40.168C164.506 40.168 164.091 40.2987 163.736 40.56C163.391 40.812 163.171 41.1527 163.078 41.582H161.888C162.019 40.8073 162.373 40.2053 162.952 39.776C163.54 39.3373 164.221 39.118 164.996 39.118C165.453 39.118 165.878 39.188 166.27 39.328C166.662 39.4587 166.993 39.6547 167.264 39.916C167.619 40.252 167.843 40.6393 167.936 41.078C168.029 41.5167 168.076 41.9693 168.076 42.436V47H166.886V45.782C166.615 46.174 166.303 46.4773 165.948 46.692C165.472 46.9907 164.861 47.14 164.114 47.14ZM164.254 46.09C164.73 46.09 165.141 46.0013 165.486 45.824C166.009 45.5533 166.373 45.194 166.578 44.746C166.793 44.298 166.9 43.7333 166.9 43.052L164.38 43.556C163.801 43.668 163.377 43.85 163.106 44.102C162.891 44.3167 162.784 44.5873 162.784 44.914C162.784 45.2687 162.915 45.5533 163.176 45.768C163.447 45.9827 163.806 46.09 164.254 46.09ZM173.104 47.14C172.124 47.14 171.326 46.9067 170.71 46.44C170.094 45.9733 169.721 45.3293 169.59 44.508H170.836C170.939 45.0027 171.177 45.39 171.55 45.67C171.933 45.95 172.456 46.09 173.118 46.09C173.66 46.09 174.089 45.9873 174.406 45.782C174.733 45.5767 174.896 45.2827 174.896 44.9C174.896 44.6013 174.798 44.3633 174.602 44.186C174.416 43.9993 174.173 43.8593 173.874 43.766C173.585 43.6727 173.198 43.5793 172.712 43.486C172.106 43.3647 171.616 43.2433 171.242 43.122C170.878 42.9913 170.566 42.786 170.304 42.506C170.043 42.226 169.912 41.8387 169.912 41.344C169.912 40.644 170.174 40.098 170.696 39.706C171.228 39.314 171.905 39.118 172.726 39.118C173.566 39.118 174.266 39.3373 174.826 39.776C175.386 40.2147 175.732 40.8167 175.862 41.582H174.756C174.644 41.106 174.411 40.7513 174.056 40.518C173.702 40.2847 173.258 40.168 172.726 40.168C172.213 40.168 171.812 40.266 171.522 40.462C171.242 40.6487 171.102 40.91 171.102 41.246C171.102 41.5073 171.191 41.7127 171.368 41.862C171.546 42.0113 171.765 42.128 172.026 42.212C172.288 42.2867 172.656 42.3707 173.132 42.464C173.758 42.5853 174.266 42.716 174.658 42.856C175.05 42.9867 175.386 43.206 175.666 43.514C175.946 43.8127 176.086 44.2327 176.086 44.774C176.086 45.502 175.825 46.0807 175.302 46.51C174.78 46.93 174.047 47.14 173.104 47.14ZM178.965 47H177.775V39.258H178.965V47ZM178.377 37.928C178.125 37.928 177.911 37.844 177.733 37.676C177.556 37.4987 177.467 37.2887 177.467 37.046C177.467 36.8033 177.556 36.598 177.733 36.43C177.911 36.262 178.125 36.178 178.377 36.178C178.629 36.178 178.844 36.262 179.021 36.43C179.199 36.598 179.287 36.8033 179.287 37.046C179.287 37.2887 179.199 37.4987 179.021 37.676C178.844 37.844 178.629 37.928 178.377 37.928ZM184.069 47.14C183.089 47.14 182.291 46.9067 181.675 46.44C181.059 45.9733 180.686 45.3293 180.555 44.508H181.801C181.904 45.0027 182.142 45.39 182.515 45.67C182.898 45.95 183.42 46.09 184.083 46.09C184.624 46.09 185.054 45.9873 185.371 45.782C185.698 45.5767 185.861 45.2827 185.861 44.9C185.861 44.6013 185.763 44.3633 185.567 44.186C185.38 43.9993 185.138 43.8593 184.839 43.766C184.55 43.6727 184.162 43.5793 183.677 43.486C183.07 43.3647 182.58 43.2433 182.207 43.122C181.843 42.9913 181.53 42.786 181.269 42.506C181.008 42.226 180.877 41.8387 180.877 41.344C180.877 40.644 181.138 40.098 181.661 39.706C182.193 39.314 182.87 39.118 183.691 39.118C184.531 39.118 185.231 39.3373 185.791 39.776C186.351 40.2147 186.696 40.8167 186.827 41.582H185.721C185.609 41.106 185.376 40.7513 185.021 40.518C184.666 40.2847 184.223 40.168 183.691 40.168C183.178 40.168 182.776 40.266 182.487 40.462C182.207 40.6487 182.067 40.91 182.067 41.246C182.067 41.5073 182.156 41.7127 182.333 41.862C182.51 42.0113 182.73 42.128 182.991 42.212C183.252 42.2867 183.621 42.3707 184.097 42.464C184.722 42.5853 185.231 42.716 185.623 42.856C186.015 42.9867 186.351 43.206 186.631 43.514C186.911 43.8127 187.051 44.2327 187.051 44.774C187.051 45.502 186.79 46.0807 186.267 46.51C185.744 46.93 185.012 47.14 184.069 47.14ZM190.365 43.584C190.365 43.0427 190.435 42.5947 190.575 42.24C190.724 41.876 190.897 41.5913 191.093 41.386C191.298 41.1807 191.564 40.9567 191.891 40.714C192.152 40.5273 192.353 40.364 192.493 40.224C192.642 40.084 192.763 39.9113 192.857 39.706C192.959 39.5007 193.011 39.2533 193.011 38.964C193.011 38.404 192.829 37.9747 192.465 37.676C192.11 37.3773 191.62 37.228 190.995 37.228C190.332 37.228 189.814 37.4053 189.441 37.76C189.067 38.1147 188.857 38.6047 188.811 39.23H187.719C187.775 38.2873 188.092 37.5453 188.671 37.004C189.259 36.4627 190.01 36.192 190.925 36.192C191.849 36.192 192.609 36.4393 193.207 36.934C193.804 37.4287 194.103 38.124 194.103 39.02C194.103 39.412 194.042 39.748 193.921 40.028C193.809 40.2987 193.664 40.5227 193.487 40.7C193.319 40.8773 193.09 41.0733 192.801 41.288C192.511 41.512 192.278 41.7127 192.101 41.89C191.933 42.0673 191.788 42.296 191.667 42.576C191.545 42.8467 191.485 43.1827 191.485 43.584V43.976H190.365V43.584ZM190.911 47.14C190.687 47.14 190.491 47.0607 190.323 46.902C190.164 46.734 190.085 46.5333 190.085 46.3C190.085 46.0853 190.164 45.8987 190.323 45.74C190.491 45.572 190.687 45.488 190.911 45.488C191.135 45.488 191.326 45.5673 191.485 45.726C191.653 45.8847 191.737 46.076 191.737 46.3C191.737 46.5333 191.653 46.734 191.485 46.902C191.326 47.0607 191.135 47.14 190.911 47.14Z" fill="black"/>
<rect x="16" y="66" width="279" height="40" rx="12" fill="#52B922" fill-opacity="0.1"/>
<rect x="16.5" y="66.5" width="278" height="39" rx="11.5" stroke="#52B922" stroke-opacity="0.1"/>
<path d="M35.9987 79.3359C32.3254 79.3359 29.332 82.3293 29.332 86.0026C29.332 89.6759 32.3254 92.6693 35.9987 92.6693C39.672 92.6693 42.6654 89.6759 42.6654 86.0026C42.6654 82.3293 39.672 79.3359 35.9987 79.3359ZM39.1854 84.4693L35.4054 88.2493C35.312 88.3426 35.1854 88.3959 35.052 88.3959C34.9187 88.3959 34.792 88.3426 34.6987 88.2493L32.812 86.3626C32.6187 86.1693 32.6187 85.8493 32.812 85.6559C33.0054 85.4626 33.3254 85.4626 33.5187 85.6559L35.052 87.1893L38.4787 83.7626C38.672 83.5693 38.992 83.5693 39.1854 83.7626C39.3787 83.9559 39.3787 84.2693 39.1854 84.4693Z" fill="#52B922"/>
<path d="M58.052 90.5H56.948V81.344H58.052V85.4H62.636V81.344H63.74V90.5H62.636V86.384H58.052V90.5ZM67.4313 90.62C66.7673 90.62 66.2393 90.452 65.8473 90.116C65.4633 89.78 65.2713 89.32 65.2713 88.736C65.2713 88.16 65.4873 87.704 65.9193 87.368C66.2713 87.088 66.7793 86.88 67.4433 86.744L69.8073 86.288C69.8073 85.768 69.6713 85.372 69.3993 85.1C69.0953 84.796 68.6873 84.644 68.1753 84.644C67.7673 84.644 67.4113 84.756 67.1073 84.98C66.8113 85.196 66.6233 85.488 66.5433 85.856H65.5233C65.6353 85.192 65.9393 84.676 66.4353 84.308C66.9393 83.932 67.5233 83.744 68.1873 83.744C68.5793 83.744 68.9433 83.804 69.2793 83.924C69.6153 84.036 69.8993 84.204 70.1313 84.428C70.4353 84.716 70.6273 85.048 70.7073 85.424C70.7873 85.8 70.8273 86.188 70.8273 86.588V90.5H69.8073V89.456C69.5753 89.792 69.3073 90.052 69.0033 90.236C68.5953 90.492 68.0713 90.62 67.4313 90.62ZM67.5513 89.72C67.9593 89.72 68.3113 89.644 68.6073 89.492C69.0553 89.26 69.3673 88.952 69.5433 88.568C69.7273 88.184 69.8193 87.7 69.8193 87.116L67.6593 87.548C67.1633 87.644 66.7993 87.8 66.5673 88.016C66.3833 88.2 66.2913 88.432 66.2913 88.712C66.2913 89.016 66.4033 89.26 66.6273 89.444C66.8593 89.628 67.1673 89.72 67.5513 89.72ZM75.4134 90.62C74.7894 90.62 74.2294 90.472 73.7334 90.176C73.2454 89.88 72.8654 89.472 72.5934 88.952C72.3214 88.432 72.1854 87.848 72.1854 87.2C72.1854 86.584 72.3134 86.016 72.5694 85.496C72.8254 84.968 73.1934 84.544 73.6734 84.224C74.1614 83.904 74.7334 83.744 75.3894 83.744C75.9574 83.744 76.4854 83.872 76.9734 84.128C77.4614 84.384 77.8534 84.76 78.1494 85.256C78.4454 85.744 78.5934 86.332 78.5934 87.02V87.38H73.1934C73.2094 87.612 73.2534 87.832 73.3254 88.04C73.4934 88.552 73.7614 88.96 74.1294 89.264C74.5054 89.568 74.9294 89.72 75.4014 89.72C75.8814 89.72 76.2934 89.592 76.6374 89.336C76.9814 89.08 77.2294 88.756 77.3814 88.364H78.4734C78.2574 89.036 77.8894 89.58 77.3694 89.996C76.8494 90.412 76.1974 90.62 75.4134 90.62ZM77.5014 86.48C77.4854 86.24 77.4374 86.024 77.3574 85.832C77.1894 85.456 76.9294 85.164 76.5774 84.956C76.2334 84.748 75.8454 84.644 75.4134 84.644C74.9734 84.644 74.5854 84.748 74.2494 84.956C73.9214 85.164 73.6654 85.456 73.4814 85.832C73.4014 86.008 73.3374 86.224 73.2894 86.48H77.5014ZM80.0083 90.5V83.864H81.0283V84.896C81.3563 84.472 81.6723 84.176 81.9763 84.008C82.2883 83.832 82.6283 83.744 82.9963 83.744C83.4443 83.744 83.8363 83.848 84.1723 84.056C84.5163 84.264 84.7363 84.568 84.8323 84.968C85.2483 84.152 85.9483 83.744 86.9323 83.744C87.6683 83.744 88.2203 83.956 88.5883 84.38C88.9563 84.796 89.1403 85.396 89.1403 86.18V90.5H88.1203V86.42C88.1203 85.852 88.0003 85.416 87.7603 85.112C87.5283 84.8 87.2003 84.644 86.7763 84.644C86.3363 84.644 85.9763 84.792 85.6963 85.088C85.4723 85.328 85.3123 85.64 85.2162 86.024C85.1283 86.408 85.0843 86.9 85.0843 87.5V90.5H84.0643V86.42C84.0643 85.86 83.9403 85.424 83.6923 85.112C83.4523 84.8 83.1243 84.644 82.7083 84.644C82.2683 84.644 81.9083 84.804 81.6283 85.124C81.4203 85.356 81.2683 85.656 81.1723 86.024C81.0763 86.392 81.0283 86.884 81.0283 87.5V90.5H80.0083ZM93.7652 90.62C93.1412 90.62 92.5812 90.472 92.0852 90.176C91.5972 89.88 91.2132 89.468 90.9332 88.94C90.6612 88.412 90.5252 87.816 90.5252 87.152C90.5252 86.504 90.6612 85.92 90.9332 85.4C91.2132 84.88 91.5972 84.476 92.0852 84.188C92.5812 83.892 93.1412 83.744 93.7652 83.744C94.3892 83.744 94.9492 83.892 95.4452 84.188C95.9412 84.476 96.3292 84.88 96.6092 85.4C96.8892 85.92 97.0292 86.504 97.0292 87.152C97.0292 87.816 96.8892 88.412 96.6092 88.94C96.3372 89.46 95.9532 89.872 95.4572 90.176C94.9612 90.472 94.3972 90.62 93.7652 90.62ZM93.7652 89.72C94.1812 89.72 94.5572 89.608 94.8932 89.384C95.2372 89.16 95.5052 88.856 95.6972 88.472C95.8972 88.08 95.9972 87.64 95.9972 87.152C95.9972 86.688 95.9012 86.264 95.7092 85.88C95.5172 85.496 95.2492 85.196 94.9052 84.98C94.5692 84.756 94.1892 84.644 93.7652 84.644C93.3492 84.644 92.9692 84.752 92.6252 84.968C92.2892 85.184 92.0252 85.484 91.8332 85.868C91.6412 86.252 91.5452 86.68 91.5452 87.152C91.5452 87.64 91.6412 88.08 91.8332 88.472C92.0252 88.864 92.2892 89.172 92.6252 89.396C92.9692 89.612 93.3492 89.72 93.7652 89.72ZM98.4653 90.5V83.864H99.4853V84.776C99.7893 84.408 100.113 84.144 100.457 83.984C100.801 83.824 101.201 83.744 101.657 83.744H101.705V84.764H101.357C100.821 84.764 100.393 84.924 100.073 85.244C99.6813 85.62 99.4853 86.208 99.4853 87.008V90.5H98.4653ZM102.825 90.5V83.864H103.845V84.776C104.149 84.408 104.473 84.144 104.817 83.984C105.161 83.824 105.561 83.744 106.017 83.744H106.065V84.764H105.717C105.181 84.764 104.753 84.924 104.433 85.244C104.041 85.62 103.845 86.208 103.845 87.008V90.5H102.825ZM107.196 90.5V81.344H108.216V84.896C108.544 84.472 108.86 84.176 109.164 84.008C109.476 83.832 109.816 83.744 110.184 83.744C111.12 83.744 111.772 84.092 112.14 84.788C112.276 85.052 112.36 85.324 112.392 85.604C112.432 85.876 112.452 86.176 112.452 86.504V90.5H111.432V86.504C111.432 85.8 111.304 85.304 111.048 85.016C110.824 84.768 110.484 84.644 110.028 84.644C109.524 84.644 109.12 84.808 108.816 85.136C108.6 85.36 108.444 85.668 108.348 86.06C108.26 86.452 108.216 86.988 108.216 87.668V90.5H107.196ZM117.074 90.62C116.45 90.62 115.89 90.472 115.394 90.176C114.906 89.88 114.522 89.468 114.242 88.94C113.97 88.412 113.834 87.816 113.834 87.152C113.834 86.504 113.97 85.92 114.242 85.4C114.522 84.88 114.906 84.476 115.394 84.188C115.89 83.892 116.45 83.744 117.074 83.744C117.698 83.744 118.258 83.892 118.754 84.188C119.25 84.476 119.638 84.88 119.918 85.4C120.198 85.92 120.338 86.504 120.338 87.152C120.338 87.816 120.198 88.412 119.918 88.94C119.646 89.46 119.262 89.872 118.766 90.176C118.27 90.472 117.706 90.62 117.074 90.62ZM117.074 89.72C117.49 89.72 117.866 89.608 118.202 89.384C118.546 89.16 118.814 88.856 119.006 88.472C119.206 88.08 119.306 87.64 119.306 87.152C119.306 86.688 119.21 86.264 119.018 85.88C118.826 85.496 118.558 85.196 118.214 84.98C117.878 84.756 117.498 84.644 117.074 84.644C116.658 84.644 116.278 84.752 115.934 84.968C115.598 85.184 115.334 85.484 115.142 85.868C114.95 86.252 114.854 86.68 114.854 87.152C114.854 87.64 114.95 88.08 115.142 88.472C115.334 88.864 115.598 89.172 115.934 89.396C116.278 89.612 116.658 89.72 117.074 89.72ZM122.794 90.5H121.774V83.864H122.794V90.5ZM122.29 82.724C122.074 82.724 121.89 82.652 121.738 82.508C121.586 82.356 121.51 82.176 121.51 81.968C121.51 81.76 121.586 81.584 121.738 81.44C121.89 81.296 122.074 81.224 122.29 81.224C122.506 81.224 122.69 81.296 122.842 81.44C122.994 81.584 123.07 81.76 123.07 81.968C123.07 82.176 122.994 82.356 122.842 82.508C122.69 82.652 122.506 82.724 122.29 82.724ZM127.193 90.62C126.609 90.62 126.093 90.476 125.645 90.188C125.197 89.9 124.849 89.496 124.601 88.976C124.361 88.456 124.241 87.86 124.241 87.188C124.241 86.516 124.361 85.92 124.601 85.4C124.849 84.872 125.193 84.464 125.633 84.176C126.081 83.888 126.601 83.744 127.193 83.744C127.649 83.744 128.041 83.828 128.369 83.996C128.697 84.164 129.029 84.464 129.365 84.896V81.344H130.385V90.5H129.365V89.468C129.037 89.892 128.709 90.192 128.381 90.368C128.053 90.536 127.657 90.62 127.193 90.62ZM127.289 89.72C127.697 89.72 128.061 89.612 128.381 89.396C128.701 89.18 128.949 88.88 129.125 88.496C129.309 88.104 129.401 87.668 129.401 87.188C129.401 86.7 129.309 86.264 129.125 85.88C128.949 85.496 128.701 85.196 128.381 84.98C128.061 84.756 127.697 84.644 127.289 84.644C126.881 84.644 126.521 84.756 126.209 84.98C125.905 85.196 125.669 85.496 125.501 85.88C125.341 86.264 125.261 86.7 125.261 87.188C125.261 87.668 125.341 88.1 125.501 88.484C125.669 88.868 125.905 89.172 126.209 89.396C126.521 89.612 126.881 89.72 127.289 89.72ZM134.774 90.62C133.934 90.62 133.25 90.42 132.722 90.02C132.194 89.62 131.874 89.068 131.762 88.364H132.83C132.918 88.788 133.122 89.12 133.442 89.36C133.77 89.6 134.218 89.72 134.786 89.72C135.25 89.72 135.618 89.632 135.89 89.456C136.17 89.28 136.31 89.028 136.31 88.7C136.31 88.444 136.226 88.24 136.058 88.088C135.898 87.928 135.69 87.808 135.434 87.728C135.186 87.648 134.854 87.568 134.438 87.488C133.918 87.384 133.498 87.28 133.178 87.176C132.866 87.064 132.598 86.888 132.374 86.648C132.15 86.408 132.038 86.076 132.038 85.652C132.038 85.052 132.262 84.584 132.71 84.248C133.166 83.912 133.746 83.744 134.45 83.744C135.17 83.744 135.77 83.932 136.25 84.308C136.73 84.684 137.026 85.2 137.138 85.856H136.19C136.094 85.448 135.894 85.144 135.59 84.944C135.286 84.744 134.906 84.644 134.45 84.644C134.01 84.644 133.666 84.728 133.418 84.896C133.178 85.056 133.058 85.28 133.058 85.568C133.058 85.792 133.134 85.968 133.286 86.096C133.438 86.224 133.626 86.324 133.85 86.396C134.074 86.46 134.39 86.532 134.798 86.612C135.334 86.716 135.77 86.828 136.106 86.948C136.442 87.06 136.73 87.248 136.97 87.512C137.21 87.768 137.33 88.128 137.33 88.592C137.33 89.216 137.106 89.712 136.658 90.08C136.21 90.44 135.582 90.62 134.774 90.62Z" fill="#52B922"/>
<rect x="28" y="129.5" width="16" height="16" rx="8" fill="white"/>
<rect x="28.5" y="130" width="15" height="15" rx="7.5" stroke="black" stroke-opacity="0.1"/>
<rect x="56" y="129" width="135" height="17" rx="8.5" fill="#F4F4F4"/>
<rect x="28" y="181.5" width="16" height="16" rx="8" fill="white"/>
<rect x="28.5" y="182" width="15" height="15" rx="7.5" stroke="black" stroke-opacity="0.1"/>
<rect x="56" y="181" width="135" height="17" rx="8.5" fill="#F4F4F4"/>
<rect x="16.5" y="221.5" width="278" height="39" rx="11.5" fill="#FAFAFA"/>
<rect x="16.5" y="221.5" width="278" height="39" rx="11.5" stroke="#F22020"/>
<path d="M35.9987 234.336C32.3254 234.336 29.332 237.329 29.332 241.003C29.332 244.676 32.3254 247.669 35.9987 247.669C39.672 247.669 42.6654 244.676 42.6654 241.003C42.6654 237.329 39.672 234.336 35.9987 234.336ZM38.2387 242.536C38.432 242.729 38.432 243.049 38.2387 243.243C38.1387 243.343 38.012 243.389 37.8854 243.389C37.7587 243.389 37.632 243.343 37.532 243.243L35.9987 241.709L34.4654 243.243C34.3654 243.343 34.2387 243.389 34.112 243.389C33.9854 243.389 33.8587 243.343 33.7587 243.243C33.5654 243.049 33.5654 242.729 33.7587 242.536L35.292 241.003L33.7587 239.469C33.5654 239.276 33.5654 238.956 33.7587 238.763C33.952 238.569 34.272 238.569 34.4654 238.763L35.9987 240.296L37.532 238.763C37.7254 238.569 38.0454 238.569 38.2387 238.763C38.432 238.956 38.432 239.276 38.2387 239.469L36.7054 241.003L38.2387 242.536Z" fill="#F22020"/>
<path d="M56.948 245.5V236.344H59.468C60.988 236.344 62.152 236.744 62.96 237.544C63.768 238.344 64.172 239.48 64.172 240.952C64.172 242.4 63.764 243.52 62.948 244.312C62.14 245.104 60.976 245.5 59.456 245.5H56.948ZM59.444 244.504C60.548 244.504 61.428 244.244 62.084 243.724C62.74 243.204 63.068 242.28 63.068 240.952C63.068 238.544 61.864 237.34 59.456 237.34H58.052V244.504H59.444ZM66.6611 245.5H65.6411V238.864H66.6611V245.5ZM66.1571 237.724C65.9411 237.724 65.7571 237.652 65.6051 237.508C65.4531 237.356 65.3771 237.176 65.3771 236.968C65.3771 236.76 65.4531 236.584 65.6051 236.44C65.7571 236.296 65.9411 236.224 66.1571 236.224C66.3731 236.224 66.5571 236.296 66.7091 236.44C66.8611 236.584 66.9371 236.76 66.9371 236.968C66.9371 237.176 66.8611 237.356 66.7091 237.508C66.5571 237.652 66.3731 237.724 66.1571 237.724ZM70.2438 245.62C69.5798 245.62 69.0518 245.452 68.6598 245.116C68.2758 244.78 68.0838 244.32 68.0838 243.736C68.0838 243.16 68.2998 242.704 68.7318 242.368C69.0838 242.088 69.5918 241.88 70.2558 241.744L72.6198 241.288C72.6198 240.768 72.4838 240.372 72.2118 240.1C71.9078 239.796 71.4998 239.644 70.9878 239.644C70.5798 239.644 70.2238 239.756 69.9198 239.98C69.6238 240.196 69.4358 240.488 69.3558 240.856H68.3358C68.4478 240.192 68.7518 239.676 69.2478 239.308C69.7518 238.932 70.3358 238.744 70.9998 238.744C71.3918 238.744 71.7558 238.804 72.0918 238.924C72.4278 239.036 72.7118 239.204 72.9438 239.428C73.2478 239.716 73.4398 240.048 73.5198 240.424C73.5998 240.8 73.6398 241.188 73.6398 241.588V245.5H72.6198V244.456C72.3878 244.792 72.1198 245.052 71.8158 245.236C71.4078 245.492 70.8838 245.62 70.2438 245.62ZM70.3638 244.72C70.7718 244.72 71.1238 244.644 71.4198 244.492C71.8678 244.26 72.1798 243.952 72.3558 243.568C72.5398 243.184 72.6318 242.7 72.6318 242.116L70.4718 242.548C69.9758 242.644 69.6118 242.8 69.3798 243.016C69.1958 243.2 69.1038 243.432 69.1038 243.712C69.1038 244.016 69.2158 244.26 69.4398 244.444C69.6718 244.628 69.9798 244.72 70.3638 244.72ZM78.4779 245.62C78.0139 245.62 77.6179 245.536 77.2899 245.368C76.9619 245.192 76.6339 244.892 76.3059 244.468V245.5H75.2859V236.344H76.3059V239.896C76.6419 239.464 76.9739 239.164 77.3019 238.996C77.6299 238.828 78.0219 238.744 78.4779 238.744C79.0699 238.744 79.5859 238.888 80.0259 239.176C80.4739 239.464 80.8179 239.872 81.0579 240.4C81.3059 240.92 81.4299 241.516 81.4299 242.188C81.4299 242.86 81.3059 243.456 81.0579 243.976C80.8179 244.496 80.4739 244.9 80.0259 245.188C79.5779 245.476 79.0619 245.62 78.4779 245.62ZM78.3819 244.72C78.7899 244.72 79.1459 244.612 79.4499 244.396C79.7619 244.172 79.9979 243.868 80.1579 243.484C80.3259 243.1 80.4099 242.668 80.4099 242.188C80.4099 241.7 80.3259 241.264 80.1579 240.88C79.9979 240.496 79.7619 240.196 79.4499 239.98C79.1459 239.756 78.7899 239.644 78.3819 239.644C77.9739 239.644 77.6099 239.756 77.2899 239.98C76.9699 240.196 76.7179 240.496 76.5339 240.88C76.3579 241.264 76.2699 241.7 76.2699 242.188C76.2699 242.668 76.3579 243.104 76.5339 243.496C76.7179 243.88 76.9699 244.18 77.2899 244.396C77.6099 244.612 77.9739 244.72 78.3819 244.72ZM85.8313 245.62C85.2073 245.62 84.6473 245.472 84.1513 245.176C83.6633 244.88 83.2833 244.472 83.0113 243.952C82.7393 243.432 82.6033 242.848 82.6033 242.2C82.6033 241.584 82.7313 241.016 82.9873 240.496C83.2433 239.968 83.6113 239.544 84.0913 239.224C84.5793 238.904 85.1513 238.744 85.8073 238.744C86.3753 238.744 86.9033 238.872 87.3913 239.128C87.8793 239.384 88.2713 239.76 88.5673 240.256C88.8633 240.744 89.0113 241.332 89.0113 242.02V242.38H83.6113C83.6273 242.612 83.6713 242.832 83.7433 243.04C83.9113 243.552 84.1793 243.96 84.5473 244.264C84.9233 244.568 85.3473 244.72 85.8193 244.72C86.2993 244.72 86.7113 244.592 87.0553 244.336C87.3993 244.08 87.6473 243.756 87.7993 243.364H88.8913C88.6753 244.036 88.3073 244.58 87.7873 244.996C87.2673 245.412 86.6153 245.62 85.8313 245.62ZM87.9193 241.48C87.9033 241.24 87.8553 241.024 87.7753 240.832C87.6073 240.456 87.3473 240.164 86.9953 239.956C86.6513 239.748 86.2633 239.644 85.8313 239.644C85.3913 239.644 85.0033 239.748 84.6673 239.956C84.3393 240.164 84.0833 240.456 83.8993 240.832C83.8193 241.008 83.7553 241.224 83.7073 241.48H87.9193ZM92.3624 245.5C91.8264 245.5 91.4304 245.38 91.1744 245.14C90.9184 244.9 90.7904 244.464 90.7904 243.832V239.764H89.7224V238.864H90.7904V236.344H91.8104V238.864H93.2984V239.764H91.8104V243.628C91.8104 243.86 91.8264 244.044 91.8584 244.18C91.8904 244.308 91.9624 244.412 92.0744 244.492C92.1864 244.564 92.3624 244.6 92.6024 244.6H93.2864V245.5H92.3624ZM97.3509 245.62C96.7269 245.62 96.1669 245.472 95.6709 245.176C95.1829 244.88 94.8029 244.472 94.5309 243.952C94.2589 243.432 94.1229 242.848 94.1229 242.2C94.1229 241.584 94.2509 241.016 94.5069 240.496C94.7629 239.968 95.1309 239.544 95.6109 239.224C96.0989 238.904 96.6709 238.744 97.3269 238.744C97.8949 238.744 98.4229 238.872 98.9109 239.128C99.3989 239.384 99.7909 239.76 100.087 240.256C100.383 240.744 100.531 241.332 100.531 242.02V242.38H95.1309C95.1469 242.612 95.1909 242.832 95.2629 243.04C95.4309 243.552 95.6989 243.96 96.0669 244.264C96.4429 244.568 96.8669 244.72 97.3389 244.72C97.8189 244.72 98.2309 244.592 98.5749 244.336C98.9189 244.08 99.1669 243.756 99.3189 243.364H100.411C100.195 244.036 99.8269 244.58 99.3069 244.996C98.7869 245.412 98.1349 245.62 97.3509 245.62ZM99.4389 241.48C99.4229 241.24 99.3749 241.024 99.2949 240.832C99.1269 240.456 98.8669 240.164 98.5149 239.956C98.1709 239.748 97.7829 239.644 97.3509 239.644C96.9109 239.644 96.5229 239.748 96.1869 239.956C95.8589 240.164 95.6029 240.456 95.4189 240.832C95.3389 241.008 95.2749 241.224 95.2269 241.48H99.4389ZM104.622 245.62C103.782 245.62 103.098 245.42 102.57 245.02C102.042 244.62 101.722 244.068 101.61 243.364H102.678C102.766 243.788 102.97 244.12 103.29 244.36C103.618 244.6 104.066 244.72 104.634 244.72C105.098 244.72 105.466 244.632 105.738 244.456C106.018 244.28 106.158 244.028 106.158 243.7C106.158 243.444 106.074 243.24 105.906 243.088C105.746 242.928 105.538 242.808 105.282 242.728C105.034 242.648 104.702 242.568 104.286 242.488C103.766 242.384 103.346 242.28 103.026 242.176C102.714 242.064 102.446 241.888 102.222 241.648C101.998 241.408 101.886 241.076 101.886 240.652C101.886 240.052 102.11 239.584 102.558 239.248C103.014 238.912 103.594 238.744 104.298 238.744C105.018 238.744 105.618 238.932 106.098 239.308C106.578 239.684 106.874 240.2 106.986 240.856H106.038C105.942 240.448 105.742 240.144 105.438 239.944C105.134 239.744 104.754 239.644 104.298 239.644C103.858 239.644 103.514 239.728 103.266 239.896C103.026 240.056 102.906 240.28 102.906 240.568C102.906 240.792 102.982 240.968 103.134 241.096C103.286 241.224 103.474 241.324 103.698 241.396C103.922 241.46 104.238 241.532 104.646 241.612C105.182 241.716 105.618 241.828 105.954 241.948C106.29 242.06 106.578 242.248 106.818 242.512C107.058 242.768 107.178 243.128 107.178 243.592C107.178 244.216 106.954 244.712 106.506 245.08C106.058 245.44 105.43 245.62 104.622 245.62Z" fill="black" fill-opacity="0.6"/>
<rect x="16" y="277" width="279" height="44" rx="22" fill="#1C76FD"/>
</svg>
